0
SECTION
2
HEADER
9
$INSUNITS
70
4
9
$INSBASE
10
0.0
20
0.0
30
0.0
9
$EXTMIN
10
0
20
0
9
$EXTMAX
10
390
20
105
0
ENDSEC
0
SECTION
2
TABLES
0
TABLE
2
LTYPE
70
1
0
LTYPE
2
CONTINUOUS
70
64
3
Solid line
72
65
73
0
40
0.0
0
ENDTAB
0
TABLE
2
LAYER
70
1
0
LAYER
2
Layer1
70
64
62
7
6
CONTINUOUS
0
ENDTAB
0
TABLE
2
STYLE
70
0
0
ENDTAB
0
TABLE
2
VIEW
70
0
0
ENDTAB
0
ENDSEC
0
SECTION
2
BLOCKS
0
ENDSEC
0
SECTION
2
ENTITIES
0
POLYLINE
5
5e3
8
Layer1
66
1
10
0.0
20
0.0
30
0.0
70
1
0
VERTEX
5
5e4
8
Layer1
10
0.0000
20
0.0000
30
0.0
0
VERTEX
5
5e5
8
Layer1
10
390.0000
20
0.0000
30
0.0
0
VERTEX
5
5e6
8
Layer1
10
390.0000
20
105.0000
30
0.0
0
VERTEX
5
5e7
8
Layer1
10
0.0000
20
105.0000
30
0.0
0
VERTEX
5
5e8
8
Layer1
10
0.0000
20
0.0000
30
0.0
0
SEQEND
5
5e9
8
Layer1
0
POLYLINE
5
5ea
8
Layer1
66
1
10
0.0
20
0.0
30
0.0
70
1
0
VERTEX
5
5eb
8
Layer1
10
21.5000
20
84.5000
30
0.0
0
VERTEX
5
5ec
8
Layer1
10
22.3000
20
84.5000
30
0.0
0
VERTEX
5
5ed
8
Layer1
10
22.3000
20
96.5000
30
0.0
0
VERTEX
5
5ee
8
Layer1
10
21.5000
20
96.5000
30
0.0
0
VERTEX
5
5ef
8
Layer1
10
21.5000
20
97.5000
30
0.0
0
VERTEX
5
5f0
8
Layer1
10
7.5000
20
97.5000
30
0.0
0
VERTEX
5
5f1
8
Layer1
10
7.5000
20
96.5000
30
0.0
0
VERTEX
5
5f2
8
Layer1
10
6.7000
20
96.5000
30
0.0
0
VERTEX
5
5f3
8
Layer1
10
6.7000
20
84.5000
30
0.0
0
VERTEX
5
5f4
8
Layer1
10
7.5000
20
84.5000
30
0.0
0
VERTEX
5
5f5
8
Layer1
10
7.5000
20
83.5000
30
0.0
0
VERTEX
5
5f6
8
Layer1
10
21.5000
20
83.5000
30
0.0
0
VERTEX
5
5f7
8
Layer1
10
21.5000
20
84.5000
30
0.0
0
SEQEND
5
5f8
8
Layer1
0
POLYLINE
5
5f9
8
Layer1
66
1
10
0.0
20
0.0
30
0.0
70
1
0
VERTEX
5
5fa
8
Layer1
10
40.5000
20
84.5000
30
0.0
0
VERTEX
5
5fb
8
Layer1
10
41.3000
20
84.5000
30
0.0
0
VERTEX
5
5fc
8
Layer1
10
41.3000
20
96.5000
30
0.0
0
VERTEX
5
5fd
8
Layer1
10
40.5000
20
96.5000
30
0.0
0
VERTEX
5
5fe
8
Layer1
10
40.5000
20
97.5000
30
0.0
0
VERTEX
5
5ff
8
Layer1
10
26.5000
20
97.5000
30
0.0
0
VERTEX
5
600
8
Layer1
10
26.5000
20
96.5000
30
0.0
0
VERTEX
5
601
8
Layer1
10
25.7000
20
96.5000
30
0.0
0
VERTEX
5
602
8
Layer1
10
25.7000
20
84.5000
30
0.0
0
VERTEX
5
603
8
Layer1
10
26.5000
20
84.5000
30
0.0
0
VERTEX
5
604
8
Layer1
10
26.5000
20
83.5000
30
0.0
0
VERTEX
5
605
8
Layer1
10
40.5000
20
83.5000
30
0.0
0
VERTEX
5
606
8
Layer1
10
40.5000
20
84.5000
30
0.0
0
SEQEND
5
607
8
Layer1
0
POLYLINE
5
608
8
Layer1
66
1
10
0.0
20
0.0
30
0.0
70
1
0
VERTEX
5
609
8
Layer1
10
59.5000
20
84.5000
30
0.0
0
VERTEX
5
60a
8
Layer1
10
60.3000
20
84.5000
30
0.0
0
VERTEX
5
60b
8
Layer1
10
60.3000
20
96.5000
30
0.0
0
VERTEX
5
60c
8
Layer1
10
59.5000
20
96.5000
30
0.0
0
VERTEX
5
60d
8
Layer1
10
59.5000
20
97.5000
30
0.0
0
VERTEX
5
60e
8
Layer1
10
45.5000
20
97.5000
30
0.0
0
VERTEX
5
60f
8
Layer1
10
45.5000
20
96.5000
30
0.0
0
VERTEX
5
610
8
Layer1
10
44.7000
20
96.5000
30
0.0
0
VERTEX
5
611
8
Layer1
10
44.7000
20
84.5000
30
0.0
0
VERTEX
5
612
8
Layer1
10
45.5000
20
84.5000
30
0.0
0
VERTEX
5
613
8
Layer1
10
45.5000
20
83.5000
30
0.0
0
VERTEX
5
614
8
Layer1
10
59.5000
20
83.5000
30
0.0
0
VERTEX
5
615
8
Layer1
10
59.5000
20
84.5000
30
0.0
0
SEQEND
5
616
8
Layer1
0
POLYLINE
5
617
8
Layer1
66
1
10
0.0
20
0.0
30
0.0
70
1
0
VERTEX
5
618
8
Layer1
10
78.5000
20
84.5000
30
0.0
0
VERTEX
5
619
8
Layer1
10
79.3000
20
84.5000
30
0.0
0
VERTEX
5
61a
8
Layer1
10
79.3000
20
96.5000
30
0.0
0
VERTEX
5
61b
8
Layer1
10
78.5000
20
96.5000
30
0.0
0
VERTEX
5
61c
8
Layer1
10
78.5000
20
97.5000
30
0.0
0
VERTEX
5
61d
8
Layer1
10
64.5000
20
97.5000
30
0.0
0
VERTEX
5
61e
8
Layer1
10
64.5000
20
96.5000
30
0.0
0
VERTEX
5
61f
8
Layer1
10
63.7000
20
96.5000
30
0.0
0
VERTEX
5
620
8
Layer1
10
63.7000
20
84.5000
30
0.0
0
VERTEX
5
621
8
Layer1
10
64.5000
20
84.5000
30
0.0
0
VERTEX
5
622
8
Layer1
10
64.5000
20
83.5000
30
0.0
0
VERTEX
5
623
8
Layer1
10
78.5000
20
83.5000
30
0.0
0
VERTEX
5
624
8
Layer1
10
78.5000
20
84.5000
30
0.0
0
SEQEND
5
625
8
Layer1
0
POLYLINE
5
626
8
Layer1
66
1
10
0.0
20
0.0
30
0.0
70
1
0
VERTEX
5
627
8
Layer1
10
97.5000
20
84.5000
30
0.0
0
VERTEX
5
628
8
Layer1
10
98.3000
20
84.5000
30
0.0
0
VERTEX
5
629
8
Layer1
10
98.3000
20
96.5000
30
0.0
0
VERTEX
5
62a
8
Layer1
10
97.5000
20
96.5000
30
0.0
0
VERTEX
5
62b
8
Layer1
10
97.5000
20
97.5000
30
0.0
0
VERTEX
5
62c
8
Layer1
10
83.5000
20
97.5000
30
0.0
0
VERTEX
5
62d
8
Layer1
10
83.5000
20
96.5000
30
0.0
0
VERTEX
5
62e
8
Layer1
10
82.7000
20
96.5000
30
0.0
0
VERTEX
5
62f
8
Layer1
10
82.7000
20
84.5000
30
0.0
0
VERTEX
5
630
8
Layer1
10
83.5000
20
84.5000
30
0.0
0
VERTEX
5
631
8
Layer1
10
83.5000
20
83.5000
30
0.0
0
VERTEX
5
632
8
Layer1
10
97.5000
20
83.5000
30
0.0
0
VERTEX
5
633
8
Layer1
10
97.5000
20
84.5000
30
0.0
0
SEQEND
5
634
8
Layer1
0
POLYLINE
5
635
8
Layer1
66
1
10
0.0
20
0.0
30
0.0
70
1
0
VERTEX
5
636
8
Layer1
10
116.5000
20
84.5000
30
0.0
0
VERTEX
5
637
8
Layer1
10
117.3000
20
84.5000
30
0.0
0
VERTEX
5
638
8
Layer1
10
117.3000
20
96.5000
30
0.0
0
VERTEX
5
639
8
Layer1
10
116.5000
20
96.5000
30
0.0
0
VERTEX
5
63a
8
Layer1
10
116.5000
20
97.5000
30
0.0
0
VERTEX
5
63b
8
Layer1
10
102.5000
20
97.5000
30
0.0
0
VERTEX
5
63c
8
Layer1
10
102.5000
20
96.5000
30
0.0
0
VERTEX
5
63d
8
Layer1
10
101.7000
20
96.5000
30
0.0
0
VERTEX
5
63e
8
Layer1
10
101.7000
20
84.5000
30
0.0
0
VERTEX
5
63f
8
Layer1
10
102.5000
20
84.5000
30
0.0
0
VERTEX
5
640
8
Layer1
10
102.5000
20
83.5000
30
0.0
0
VERTEX
5
641
8
Layer1
10
116.5000
20
83.5000
30
0.0
0
VERTEX
5
642
8
Layer1
10
116.5000
20
84.5000
30
0.0
0
SEQEND
5
643
8
Layer1
0
POLYLINE
5
644
8
Layer1
66
1
10
0.0
20
0.0
30
0.0
70
1
0
VERTEX
5
645
8
Layer1
10
135.5000
20
84.5000
30
0.0
0
VERTEX
5
646
8
Layer1
10
136.3000
20
84.5000
30
0.0
0
VERTEX
5
647
8
Layer1
10
136.3000
20
96.5000
30
0.0
0
VERTEX
5
648
8
Layer1
10
135.5000
20
96.5000
30
0.0
0
VERTEX
5
649
8
Layer1
10
135.5000
20
97.5000
30
0.0
0
VERTEX
5
64a
8
Layer1
10
121.5000
20
97.5000
30
0.0
0
VERTEX
5
64b
8
Layer1
10
121.5000
20
96.5000
30
0.0
0
VERTEX
5
64c
8
Layer1
10
120.7000
20
96.5000
30
0.0
0
VERTEX
5
64d
8
Layer1
10
120.7000
20
84.5000
30
0.0
0
VERTEX
5
64e
8
Layer1
10
121.5000
20
84.5000
30
0.0
0
VERTEX
5
64f
8
Layer1
10
121.5000
20
83.5000
30
0.0
0
VERTEX
5
650
8
Layer1
10
135.5000
20
83.5000
30
0.0
0
VERTEX
5
651
8
Layer1
10
135.5000
20
84.5000
30
0.0
0
SEQEND
5
652
8
Layer1
0
POLYLINE
5
653
8
Layer1
66
1
10
0.0
20
0.0
30
0.0
70
1
0
VERTEX
5
654
8
Layer1
10
154.5000
20
84.5000
30
0.0
0
VERTEX
5
655
8
Layer1
10
155.3000
20
84.5000
30
0.0
0
VERTEX
5
656
8
Layer1
10
155.3000
20
96.5000
30
0.0
0
VERTEX
5
657
8
Layer1
10
154.5000
20
96.5000
30
0.0
0
VERTEX
5
658
8
Layer1
10
154.5000
20
97.5000
30
0.0
0
VERTEX
5
659
8
Layer1
10
140.5000
20
97.5000
30
0.0
0
VERTEX
5
65a
8
Layer1
10
140.5000
20
96.5000
30
0.0
0
VERTEX
5
65b
8
Layer1
10
139.7000
20
96.5000
30
0.0
0
VERTEX
5
65c
8
Layer1
10
139.7000
20
84.5000
30
0.0
0
VERTEX
5
65d
8
Layer1
10
140.5000
20
84.5000
30
0.0
0
VERTEX
5
65e
8
Layer1
10
140.5000
20
83.5000
30
0.0
0
VERTEX
5
65f
8
Layer1
10
154.5000
20
83.5000
30
0.0
0
VERTEX
5
660
8
Layer1
10
154.5000
20
84.5000
30
0.0
0
SEQEND
5
661
8
Layer1
0
POLYLINE
5
662
8
Layer1
66
1
10
0.0
20
0.0
30
0.0
70
1
0
VERTEX
5
663
8
Layer1
10
173.5000
20
84.5000
30
0.0
0
VERTEX
5
664
8
Layer1
10
174.3000
20
84.5000
30
0.0
0
VERTEX
5
665
8
Layer1
10
174.3000
20
96.5000
30
0.0
0
VERTEX
5
666
8
Layer1
10
173.5000
20
96.5000
30
0.0
0
VERTEX
5
667
8
Layer1
10
173.5000
20
97.5000
30
0.0
0
VERTEX
5
668
8
Layer1
10
159.5000
20
97.5000
30
0.0
0
VERTEX
5
669
8
Layer1
10
159.5000
20
96.5000
30
0.0
0
VERTEX
5
66a
8
Layer1
10
158.7000
20
96.5000
30
0.0
0
VERTEX
5
66b
8
Layer1
10
158.7000
20
84.5000
30
0.0
0
VERTEX
5
66c
8
Layer1
10
159.5000
20
84.5000
30
0.0
0
VERTEX
5
66d
8
Layer1
10
159.5000
20
83.5000
30
0.0
0
VERTEX
5
66e
8
Layer1
10
173.5000
20
83.5000
30
0.0
0
VERTEX
5
66f
8
Layer1
10
173.5000
20
84.5000
30
0.0
0
SEQEND
5
670
8
Layer1
0
POLYLINE
5
671
8
Layer1
66
1
10
0.0
20
0.0
30
0.0
70
1
0
VERTEX
5
672
8
Layer1
10
192.5000
20
84.5000
30
0.0
0
VERTEX
5
673
8
Layer1
10
193.3000
20
84.5000
30
0.0
0
VERTEX
5
674
8
Layer1
10
193.3000
20
96.5000
30
0.0
0
VERTEX
5
675
8
Layer1
10
192.5000
20
96.5000
30
0.0
0
VERTEX
5
676
8
Layer1
10
192.5000
20
97.5000
30
0.0
0
VERTEX
5
677
8
Layer1
10
178.5000
20
97.5000
30
0.0
0
VERTEX
5
678
8
Layer1
10
178.5000
20
96.5000
30
0.0
0
VERTEX
5
679
8
Layer1
10
177.7000
20
96.5000
30
0.0
0
VERTEX
5
67a
8
Layer1
10
177.7000
20
84.5000
30
0.0
0
VERTEX
5
67b
8
Layer1
10
178.5000
20
84.5000
30
0.0
0
VERTEX
5
67c
8
Layer1
10
178.5000
20
83.5000
30
0.0
0
VERTEX
5
67d
8
Layer1
10
192.5000
20
83.5000
30
0.0
0
VERTEX
5
67e
8
Layer1
10
192.5000
20
84.5000
30
0.0
0
SEQEND
5
67f
8
Layer1
0
POLYLINE
5
680
8
Layer1
66
1
10
0.0
20
0.0
30
0.0
70
1
0
VERTEX
5
681
8
Layer1
10
211.5000
20
84.5000
30
0.0
0
VERTEX
5
682
8
Layer1
10
212.3000
20
84.5000
30
0.0
0
VERTEX
5
683
8
Layer1
10
212.3000
20
96.5000
30
0.0
0
VERTEX
5
684
8
Layer1
10
211.5000
20
96.5000
30
0.0
0
VERTEX
5
685
8
Layer1
10
211.5000
20
97.5000
30
0.0
0
VERTEX
5
686
8
Layer1
10
197.5000
20
97.5000
30
0.0
0
VERTEX
5
687
8
Layer1
10
197.5000
20
96.5000
30
0.0
0
VERTEX
5
688
8
Layer1
10
196.7000
20
96.5000
30
0.0
0
VERTEX
5
689
8
Layer1
10
196.7000
20
84.5000
30
0.0
0
VERTEX
5
68a
8
Layer1
10
197.5000
20
84.5000
30
0.0
0
VERTEX
5
68b
8
Layer1
10
197.5000
20
83.5000
30
0.0
0
VERTEX
5
68c
8
Layer1
10
211.5000
20
83.5000
30
0.0
0
VERTEX
5
68d
8
Layer1
10
211.5000
20
84.5000
30
0.0
0
SEQEND
5
68e
8
Layer1
0
POLYLINE
5
68f
8
Layer1
66
1
10
0.0
20
0.0
30
0.0
70
1
0
VERTEX
5
690
8
Layer1
10
230.5000
20
84.5000
30
0.0
0
VERTEX
5
691
8
Layer1
10
231.3000
20
84.5000
30
0.0
0
VERTEX
5
692
8
Layer1
10
231.3000
20
96.5000
30
0.0
0
VERTEX
5
693
8
Layer1
10
230.5000
20
96.5000
30
0.0
0
VERTEX
5
694
8
Layer1
10
230.5000
20
97.5000
30
0.0
0
VERTEX
5
695
8
Layer1
10
216.5000
20
97.5000
30
0.0
0
VERTEX
5
696
8
Layer1
10
216.5000
20
96.5000
30
0.0
0
VERTEX
5
697
8
Layer1
10
215.7000
20
96.5000
30
0.0
0
VERTEX
5
698
8
Layer1
10
215.7000
20
84.5000
30
0.0
0
VERTEX
5
699
8
Layer1
10
216.5000
20
84.5000
30
0.0
0
VERTEX
5
69a
8
Layer1
10
216.5000
20
83.5000
30
0.0
0
VERTEX
5
69b
8
Layer1
10
230.5000
20
83.5000
30
0.0
0
VERTEX
5
69c
8
Layer1
10
230.5000
20
84.5000
30
0.0
0
SEQEND
5
69d
8
Layer1
0
POLYLINE
5
69e
8
Layer1
66
1
10
0.0
20
0.0
30
0.0
70
1
0
VERTEX
5
69f
8
Layer1
10
249.5000
20
84.5000
30
0.0
0
VERTEX
5
6a0
8
Layer1
10
250.3000
20
84.5000
30
0.0
0
VERTEX
5
6a1
8
Layer1
10
250.3000
20
96.5000
30
0.0
0
VERTEX
5
6a2
8
Layer1
10
249.5000
20
96.5000
30
0.0
0
VERTEX
5
6a3
8
Layer1
10
249.5000
20
97.5000
30
0.0
0
VERTEX
5
6a4
8
Layer1
10
235.5000
20
97.5000
30
0.0
0
VERTEX
5
6a5
8
Layer1
10
235.5000
20
96.5000
30
0.0
0
VERTEX
5
6a6
8
Layer1
10
234.7000
20
96.5000
30
0.0
0
VERTEX
5
6a7
8
Layer1
10
234.7000
20
84.5000
30
0.0
0
VERTEX
5
6a8
8
Layer1
10
235.5000
20
84.5000
30
0.0
0
VERTEX
5
6a9
8
Layer1
10
235.5000
20
83.5000
30
0.0
0
VERTEX
5
6aa
8
Layer1
10
249.5000
20
83.5000
30
0.0
0
VERTEX
5
6ab
8
Layer1
10
249.5000
20
84.5000
30
0.0
0
SEQEND
5
6ac
8
Layer1
0
POLYLINE
5
6ad
8
Layer1
66
1
10
0.0
20
0.0
30
0.0
70
1
0
VERTEX
5
6ae
8
Layer1
10
268.5000
20
84.5000
30
0.0
0
VERTEX
5
6af
8
Layer1
10
269.3000
20
84.5000
30
0.0
0
VERTEX
5
6b0
8
Layer1
10
269.3000
20
96.5000
30
0.0
0
VERTEX
5
6b1
8
Layer1
10
268.5000
20
96.5000
30
0.0
0
VERTEX
5
6b2
8
Layer1
10
268.5000
20
97.5000
30
0.0
0
VERTEX
5
6b3
8
Layer1
10
254.5000
20
97.5000
30
0.0
0
VERTEX
5
6b4
8
Layer1
10
254.5000
20
96.5000
30
0.0
0
VERTEX
5
6b5
8
Layer1
10
253.7000
20
96.5000
30
0.0
0
VERTEX
5
6b6
8
Layer1
10
253.7000
20
84.5000
30
0.0
0
VERTEX
5
6b7
8
Layer1
10
254.5000
20
84.5000
30
0.0
0
VERTEX
5
6b8
8
Layer1
10
254.5000
20
83.5000
30
0.0
0
VERTEX
5
6b9
8
Layer1
10
268.5000
20
83.5000
30
0.0
0
VERTEX
5
6ba
8
Layer1
10
268.5000
20
84.5000
30
0.0
0
SEQEND
5
6bb
8
Layer1
0
POLYLINE
5
6bc
8
Layer1
66
1
10
0.0
20
0.0
30
0.0
70
1
0
VERTEX
5
6bd
8
Layer1
10
287.5000
20
84.5000
30
0.0
0
VERTEX
5
6be
8
Layer1
10
288.3000
20
84.5000
30
0.0
0
VERTEX
5
6bf
8
Layer1
10
288.3000
20
96.5000
30
0.0
0
VERTEX
5
6c0
8
Layer1
10
287.5000
20
96.5000
30
0.0
0
VERTEX
5
6c1
8
Layer1
10
287.5000
20
97.5000
30
0.0
0
VERTEX
5
6c2
8
Layer1
10
273.5000
20
97.5000
30
0.0
0
VERTEX
5
6c3
8
Layer1
10
273.5000
20
96.5000
30
0.0
0
VERTEX
5
6c4
8
Layer1
10
272.7000
20
96.5000
30
0.0
0
VERTEX
5
6c5
8
Layer1
10
272.7000
20
84.5000
30
0.0
0
VERTEX
5
6c6
8
Layer1
10
273.5000
20
84.5000
30
0.0
0
VERTEX
5
6c7
8
Layer1
10
273.5000
20
83.5000
30
0.0
0
VERTEX
5
6c8
8
Layer1
10
287.5000
20
83.5000
30
0.0
0
VERTEX
5
6c9
8
Layer1
10
287.5000
20
84.5000
30
0.0
0
SEQEND
5
6ca
8
Layer1
0
POLYLINE
5
6cb
8
Layer1
66
1
10
0.0
20
0.0
30
0.0
70
1
0
VERTEX
5
6cc
8
Layer1
10
306.5000
20
84.5000
30
0.0
0
VERTEX
5
6cd
8
Layer1
10
307.3000
20
84.5000
30
0.0
0
VERTEX
5
6ce
8
Layer1
10
307.3000
20
96.5000
30
0.0
0
VERTEX
5
6cf
8
Layer1
10
306.5000
20
96.5000
30
0.0
0
VERTEX
5
6d0
8
Layer1
10
306.5000
20
97.5000
30
0.0
0
VERTEX
5
6d1
8
Layer1
10
292.5000
20
97.5000
30
0.0
0
VERTEX
5
6d2
8
Layer1
10
292.5000
20
96.5000
30
0.0
0
VERTEX
5
6d3
8
Layer1
10
291.7000
20
96.5000
30
0.0
0
VERTEX
5
6d4
8
Layer1
10
291.7000
20
84.5000
30
0.0
0
VERTEX
5
6d5
8
Layer1
10
292.5000
20
84.5000
30
0.0
0
VERTEX
5
6d6
8
Layer1
10
292.5000
20
83.5000
30
0.0
0
VERTEX
5
6d7
8
Layer1
10
306.5000
20
83.5000
30
0.0
0
VERTEX
5
6d8
8
Layer1
10
306.5000
20
84.5000
30
0.0
0
SEQEND
5
6d9
8
Layer1
0
POLYLINE
5
6da
8
Layer1
66
1
10
0.0
20
0.0
30
0.0
70
1
0
VERTEX
5
6db
8
Layer1
10
325.5000
20
84.5000
30
0.0
0
VERTEX
5
6dc
8
Layer1
10
326.3000
20
84.5000
30
0.0
0
VERTEX
5
6dd
8
Layer1
10
326.3000
20
96.5000
30
0.0
0
VERTEX
5
6de
8
Layer1
10
325.5000
20
96.5000
30
0.0
0
VERTEX
5
6df
8
Layer1
10
325.5000
20
97.5000
30
0.0
0
VERTEX
5
6e0
8
Layer1
10
311.5000
20
97.5000
30
0.0
0
VERTEX
5
6e1
8
Layer1
10
311.5000
20
96.5000
30
0.0
0
VERTEX
5
6e2
8
Layer1
10
310.7000
20
96.5000
30
0.0
0
VERTEX
5
6e3
8
Layer1
10
310.7000
20
84.5000
30
0.0
0
VERTEX
5
6e4
8
Layer1
10
311.5000
20
84.5000
30
0.0
0
VERTEX
5
6e5
8
Layer1
10
311.5000
20
83.5000
30
0.0
0
VERTEX
5
6e6
8
Layer1
10
325.5000
20
83.5000
30
0.0
0
VERTEX
5
6e7
8
Layer1
10
325.5000
20
84.5000
30
0.0
0
SEQEND
5
6e8
8
Layer1
0
POLYLINE
5
6e9
8
Layer1
66
1
10
0.0
20
0.0
30
0.0
70
1
0
VERTEX
5
6ea
8
Layer1
10
336.6000
20
83.7300
30
0.0
0
VERTEX
5
6eb
8
Layer1
10
338.4250
20
83.7300
30
0.0
0
VERTEX
5
6ec
8
Layer1
10
338.4250
20
84.5300
30
0.0
0
VERTEX
5
6ed
8
Layer1
10
339.2000
20
84.5300
30
0.0
0
VERTEX
5
6ee
8
Layer1
10
339.2000
20
84.5000
30
0.0
0
VERTEX
5
6ef
8
Layer1
10
340.0000
20
84.5000
30
0.0
0
VERTEX
5
6f0
8
Layer1
10
340.0000
20
83.5000
30
0.0
0
VERTEX
5
6f1
8
Layer1
10
354.0000
20
83.5000
30
0.0
0
VERTEX
5
6f2
8
Layer1
10
354.0000
20
84.5000
30
0.0
0
VERTEX
5
6f3
8
Layer1
10
354.8000
20
84.5000
30
0.0
0
VERTEX
5
6f4
8
Layer1
10
354.8000
20
84.5300
30
0.0
0
VERTEX
5
6f5
8
Layer1
10
355.5750
20
84.5300
30
0.0
0
VERTEX
5
6f6
8
Layer1
10
355.5750
20
83.7300
30
0.0
0
VERTEX
5
6f7
8
Layer1
10
357.4000
20
83.7300
30
0.0
0
VERTEX
5
6f8
8
Layer1
10
357.4000
20
82.5300
30
0.0
0
VERTEX
5
6f9
8
Layer1
10
360.4000
20
82.5300
30
0.0
0
VERTEX
5
6fa
8
Layer1
10
360.4000
20
83.7300
30
0.0
0
VERTEX
5
6fb
8
Layer1
10
362.2250
20
83.7300
30
0.0
0
VERTEX
5
6fc
8
Layer1
10
362.2250
20
90.0000
30
0.0
0
VERTEX
5
6fd
8
Layer1
10
363.1000
20
90.0000
30
0.0
0
VERTEX
5
6fe
8
Layer1
10
363.1000
20
92.8000
30
0.0
0
VERTEX
5
6ff
8
Layer1
10
362.2250
20
92.8000
30
0.0
0
VERTEX
5
700
8
Layer1
10
362.2250
20
96.0300
30
0.0
0
VERTEX
5
701
8
Layer1
10
355.5750
20
96.0300
30
0.0
0
VERTEX
5
702
8
Layer1
10
355.5750
20
95.2300
30
0.0
0
VERTEX
5
703
8
Layer1
10
354.8000
20
95.2300
30
0.0
0
VERTEX
5
704
8
Layer1
10
354.8000
20
96.5000
30
0.0
0
VERTEX
5
705
8
Layer1
10
354.0000
20
96.5000
30
0.0
0
VERTEX
5
706
8
Layer1
10
354.0000
20
97.5000
30
0.0
0
VERTEX
5
707
8
Layer1
10
340.0000
20
97.5000
30
0.0
0
VERTEX
5
708
8
Layer1
10
340.0000
20
96.5000
30
0.0
0
VERTEX
5
709
8
Layer1
10
339.2000
20
96.5000
30
0.0
0
VERTEX
5
70a
8
Layer1
10
339.2000
20
95.2300
30
0.0
0
VERTEX
5
70b
8
Layer1
10
338.4250
20
95.2300
30
0.0
0
VERTEX
5
70c
8
Layer1
10
338.4250
20
96.0300
30
0.0
0
VERTEX
5
70d
8
Layer1
10
331.7750
20
96.0300
30
0.0
0
VERTEX
5
70e
8
Layer1
10
331.7750
20
92.8000
30
0.0
0
VERTEX
5
70f
8
Layer1
10
330.9000
20
92.8000
30
0.0
0
VERTEX
5
710
8
Layer1
10
330.9000
20
90.0000
30
0.0
0
VERTEX
5
711
8
Layer1
10
331.7750
20
90.0000
30
0.0
0
VERTEX
5
712
8
Layer1
10
331.7750
20
83.7300
30
0.0
0
VERTEX
5
713
8
Layer1
10
333.6000
20
83.7300
30
0.0
0
VERTEX
5
714
8
Layer1
10
333.6000
20
82.5300
30
0.0
0
VERTEX
5
715
8
Layer1
10
336.6000
20
82.5300
30
0.0
0
VERTEX
5
716
8
Layer1
10
336.6000
20
83.7300
30
0.0
0
SEQEND
5
717
8
Layer1
0
POLYLINE
5
718
8
Layer1
66
1
10
0.0
20
0.0
30
0.0
70
1
0
VERTEX
5
719
8
Layer1
10
382.5000
20
84.5000
30
0.0
0
VERTEX
5
71a
8
Layer1
10
383.3000
20
84.5000
30
0.0
0
VERTEX
5
71b
8
Layer1
10
383.3000
20
96.5000
30
0.0
0
VERTEX
5
71c
8
Layer1
10
382.5000
20
96.5000
30
0.0
0
VERTEX
5
71d
8
Layer1
10
382.5000
20
97.5000
30
0.0
0
VERTEX
5
71e
8
Layer1
10
368.5000
20
97.5000
30
0.0
0
VERTEX
5
71f
8
Layer1
10
368.5000
20
96.5000
30
0.0
0
VERTEX
5
720
8
Layer1
10
367.7000
20
96.5000
30
0.0
0
VERTEX
5
721
8
Layer1
10
367.7000
20
84.5000
30
0.0
0
VERTEX
5
722
8
Layer1
10
368.5000
20
84.5000
30
0.0
0
VERTEX
5
723
8
Layer1
10
368.5000
20
83.5000
30
0.0
0
VERTEX
5
724
8
Layer1
10
382.5000
20
83.5000
30
0.0
0
VERTEX
5
725
8
Layer1
10
382.5000
20
84.5000
30
0.0
0
SEQEND
5
726
8
Layer1
0
POLYLINE
5
727
8
Layer1
66
1
10
0.0
20
0.0
30
0.0
70
1
0
VERTEX
5
728
8
Layer1
10
7.7300
20
72.4000
30
0.0
0
VERTEX
5
729
8
Layer1
10
7.7300
20
70.5750
30
0.0
0
VERTEX
5
72a
8
Layer1
10
8.5300
20
70.5750
30
0.0
0
VERTEX
5
72b
8
Layer1
10
8.5300
20
69.8000
30
0.0
0
VERTEX
5
72c
8
Layer1
10
8.5000
20
69.8000
30
0.0
0
VERTEX
5
72d
8
Layer1
10
8.5000
20
69.0000
30
0.0
0
VERTEX
5
72e
8
Layer1
10
7.5000
20
69.0000
30
0.0
0
VERTEX
5
72f
8
Layer1
10
7.5000
20
55.0000
30
0.0
0
VERTEX
5
730
8
Layer1
10
8.5000
20
55.0000
30
0.0
0
VERTEX
5
731
8
Layer1
10
8.5000
20
54.2000
30
0.0
0
VERTEX
5
732
8
Layer1
10
8.5300
20
54.2000
30
0.0
0
VERTEX
5
733
8
Layer1
10
8.5300
20
53.4250
30
0.0
0
VERTEX
5
734
8
Layer1
10
7.7300
20
53.4250
30
0.0
0
VERTEX
5
735
8
Layer1
10
7.7300
20
51.6000
30
0.0
0
VERTEX
5
736
8
Layer1
10
6.5300
20
51.6000
30
0.0
0
VERTEX
5
737
8
Layer1
10
6.5300
20
48.6000
30
0.0
0
VERTEX
5
738
8
Layer1
10
7.7300
20
48.6000
30
0.0
0
VERTEX
5
739
8
Layer1
10
7.7300
20
46.7750
30
0.0
0
VERTEX
5
73a
8
Layer1
10
14.0000
20
46.7750
30
0.0
0
VERTEX
5
73b
8
Layer1
10
14.0000
20
45.9000
30
0.0
0
VERTEX
5
73c
8
Layer1
10
16.8000
20
45.9000
30
0.0
0
VERTEX
5
73d
8
Layer1
10
16.8000
20
46.7750
30
0.0
0
VERTEX
5
73e
8
Layer1
10
20.0300
20
46.7750
30
0.0
0
VERTEX
5
73f
8
Layer1
10
20.0300
20
53.4250
30
0.0
0
VERTEX
5
740
8
Layer1
10
19.2300
20
53.4250
30
0.0
0
VERTEX
5
741
8
Layer1
10
19.2300
20
54.2000
30
0.0
0
VERTEX
5
742
8
Layer1
10
20.5000
20
54.2000
30
0.0
0
VERTEX
5
743
8
Layer1
10
20.5000
20
55.0000
30
0.0
0
VERTEX
5
744
8
Layer1
10
21.5000
20
55.0000
30
0.0
0
VERTEX
5
745
8
Layer1
10
21.5000
20
69.0000
30
0.0
0
VERTEX
5
746
8
Layer1
10
20.5000
20
69.0000
30
0.0
0
VERTEX
5
747
8
Layer1
10
20.5000
20
69.8000
30
0.0
0
VERTEX
5
748
8
Layer1
10
19.2300
20
69.8000
30
0.0
0
VERTEX
5
749
8
Layer1
10
19.2300
20
70.5750
30
0.0
0
VERTEX
5
74a
8
Layer1
10
20.0300
20
70.5750
30
0.0
0
VERTEX
5
74b
8
Layer1
10
20.0300
20
77.2250
30
0.0
0
VERTEX
5
74c
8
Layer1
10
16.8000
20
77.2250
30
0.0
0
VERTEX
5
74d
8
Layer1
10
16.8000
20
78.1000
30
0.0
0
VERTEX
5
74e
8
Layer1
10
14.0000
20
78.1000
30
0.0
0
VERTEX
5
74f
8
Layer1
10
14.0000
20
77.2250
30
0.0
0
VERTEX
5
750
8
Layer1
10
7.7300
20
77.2250
30
0.0
0
VERTEX
5
751
8
Layer1
10
7.7300
20
75.4000
30
0.0
0
VERTEX
5
752
8
Layer1
10
6.5300
20
75.4000
30
0.0
0
VERTEX
5
753
8
Layer1
10
6.5300
20
72.4000
30
0.0
0
VERTEX
5
754
8
Layer1
10
7.7300
20
72.4000
30
0.0
0
SEQEND
5
755
8
Layer1
0
POLYLINE
5
756
8
Layer1
66
1
10
0.0
20
0.0
30
0.0
70
1
0
VERTEX
5
757
8
Layer1
10
40.5000
20
65.5000
30
0.0
0
VERTEX
5
758
8
Layer1
10
41.3000
20
65.5000
30
0.0
0
VERTEX
5
759
8
Layer1
10
41.3000
20
77.5000
30
0.0
0
VERTEX
5
75a
8
Layer1
10
40.5000
20
77.5000
30
0.0
0
VERTEX
5
75b
8
Layer1
10
40.5000
20
78.5000
30
0.0
0
VERTEX
5
75c
8
Layer1
10
26.5000
20
78.5000
30
0.0
0
VERTEX
5
75d
8
Layer1
10
26.5000
20
77.5000
30
0.0
0
VERTEX
5
75e
8
Layer1
10
25.7000
20
77.5000
30
0.0
0
VERTEX
5
75f
8
Layer1
10
25.7000
20
65.5000
30
0.0
0
VERTEX
5
760
8
Layer1
10
26.5000
20
65.5000
30
0.0
0
VERTEX
5
761
8
Layer1
10
26.5000
20
64.5000
30
0.0
0
VERTEX
5
762
8
Layer1
10
40.5000
20
64.5000
30
0.0
0
VERTEX
5
763
8
Layer1
10
40.5000
20
65.5000
30
0.0
0
SEQEND
5
764
8
Layer1
0
POLYLINE
5
765
8
Layer1
66
1
10
0.0
20
0.0
30
0.0
70
1
0
VERTEX
5
766
8
Layer1
10
59.5000
20
65.5000
30
0.0
0
VERTEX
5
767
8
Layer1
10
60.3000
20
65.5000
30
0.0
0
VERTEX
5
768
8
Layer1
10
60.3000
20
77.5000
30
0.0
0
VERTEX
5
769
8
Layer1
10
59.5000
20
77.5000
30
0.0
0
VERTEX
5
76a
8
Layer1
10
59.5000
20
78.5000
30
0.0
0
VERTEX
5
76b
8
Layer1
10
45.5000
20
78.5000
30
0.0
0
VERTEX
5
76c
8
Layer1
10
45.5000
20
77.5000
30
0.0
0
VERTEX
5
76d
8
Layer1
10
44.7000
20
77.5000
30
0.0
0
VERTEX
5
76e
8
Layer1
10
44.7000
20
65.5000
30
0.0
0
VERTEX
5
76f
8
Layer1
10
45.5000
20
65.5000
30
0.0
0
VERTEX
5
770
8
Layer1
10
45.5000
20
64.5000
30
0.0
0
VERTEX
5
771
8
Layer1
10
59.5000
20
64.5000
30
0.0
0
VERTEX
5
772
8
Layer1
10
59.5000
20
65.5000
30
0.0
0
SEQEND
5
773
8
Layer1
0
POLYLINE
5
774
8
Layer1
66
1
10
0.0
20
0.0
30
0.0
70
1
0
VERTEX
5
775
8
Layer1
10
78.5000
20
65.5000
30
0.0
0
VERTEX
5
776
8
Layer1
10
79.3000
20
65.5000
30
0.0
0
VERTEX
5
777
8
Layer1
10
79.3000
20
77.5000
30
0.0
0
VERTEX
5
778
8
Layer1
10
78.5000
20
77.5000
30
0.0
0
VERTEX
5
779
8
Layer1
10
78.5000
20
78.5000
30
0.0
0
VERTEX
5
77a
8
Layer1
10
64.5000
20
78.5000
30
0.0
0
VERTEX
5
77b
8
Layer1
10
64.5000
20
77.5000
30
0.0
0
VERTEX
5
77c
8
Layer1
10
63.7000
20
77.5000
30
0.0
0
VERTEX
5
77d
8
Layer1
10
63.7000
20
65.5000
30
0.0
0
VERTEX
5
77e
8
Layer1
10
64.5000
20
65.5000
30
0.0
0
VERTEX
5
77f
8
Layer1
10
64.5000
20
64.5000
30
0.0
0
VERTEX
5
780
8
Layer1
10
78.5000
20
64.5000
30
0.0
0
VERTEX
5
781
8
Layer1
10
78.5000
20
65.5000
30
0.0
0
SEQEND
5
782
8
Layer1
0
POLYLINE
5
783
8
Layer1
66
1
10
0.0
20
0.0
30
0.0
70
1
0
VERTEX
5
784
8
Layer1
10
102.2500
20
65.5000
30
0.0
0
VERTEX
5
785
8
Layer1
10
103.0500
20
65.5000
30
0.0
0
VERTEX
5
786
8
Layer1
10
103.0500
20
77.5000
30
0.0
0
VERTEX
5
787
8
Layer1
10
102.2500
20
77.5000
30
0.0
0
VERTEX
5
788
8
Layer1
10
102.2500
20
78.5000
30
0.0
0
VERTEX
5
789
8
Layer1
10
88.2500
20
78.5000
30
0.0
0
VERTEX
5
78a
8
Layer1
10
88.2500
20
77.5000
30
0.0
0
VERTEX
5
78b
8
Layer1
10
87.4500
20
77.5000
30
0.0
0
VERTEX
5
78c
8
Layer1
10
87.4500
20
65.5000
30
0.0
0
VERTEX
5
78d
8
Layer1
10
88.2500
20
65.5000
30
0.0
0
VERTEX
5
78e
8
Layer1
10
88.2500
20
64.5000
30
0.0
0
VERTEX
5
78f
8
Layer1
10
102.2500
20
64.5000
30
0.0
0
VERTEX
5
790
8
Layer1
10
102.2500
20
65.5000
30
0.0
0
SEQEND
5
791
8
Layer1
0
POLYLINE
5
792
8
Layer1
66
1
10
0.0
20
0.0
30
0.0
70
1
0
VERTEX
5
793
8
Layer1
10
126.0000
20
65.5000
30
0.0
0
VERTEX
5
794
8
Layer1
10
126.8000
20
65.5000
30
0.0
0
VERTEX
5
795
8
Layer1
10
126.8000
20
77.5000
30
0.0
0
VERTEX
5
796
8
Layer1
10
126.0000
20
77.5000
30
0.0
0
VERTEX
5
797
8
Layer1
10
126.0000
20
78.5000
30
0.0
0
VERTEX
5
798
8
Layer1
10
112.0000
20
78.5000
30
0.0
0
VERTEX
5
799
8
Layer1
10
112.0000
20
77.5000
30
0.0
0
VERTEX
5
79a
8
Layer1
10
111.2000
20
77.5000
30
0.0
0
VERTEX
5
79b
8
Layer1
10
111.2000
20
65.5000
30
0.0
0
VERTEX
5
79c
8
Layer1
10
112.0000
20
65.5000
30
0.0
0
VERTEX
5
79d
8
Layer1
10
112.0000
20
64.5000
30
0.0
0
VERTEX
5
79e
8
Layer1
10
126.0000
20
64.5000
30
0.0
0
VERTEX
5
79f
8
Layer1
10
126.0000
20
65.5000
30
0.0
0
SEQEND
5
7a0
8
Layer1
0
POLYLINE
5
7a1
8
Layer1
66
1
10
0.0
20
0.0
30
0.0
70
1
0
VERTEX
5
7a2
8
Layer1
10
145.0000
20
65.5000
30
0.0
0
VERTEX
5
7a3
8
Layer1
10
145.8000
20
65.5000
30
0.0
0
VERTEX
5
7a4
8
Layer1
10
145.8000
20
77.5000
30
0.0
0
VERTEX
5
7a5
8
Layer1
10
145.0000
20
77.5000
30
0.0
0
VERTEX
5
7a6
8
Layer1
10
145.0000
20
78.5000
30
0.0
0
VERTEX
5
7a7
8
Layer1
10
131.0000
20
78.5000
30
0.0
0
VERTEX
5
7a8
8
Layer1
10
131.0000
20
77.5000
30
0.0
0
VERTEX
5
7a9
8
Layer1
10
130.2000
20
77.5000
30
0.0
0
VERTEX
5
7aa
8
Layer1
10
130.2000
20
65.5000
30
0.0
0
VERTEX
5
7ab
8
Layer1
10
131.0000
20
65.5000
30
0.0
0
VERTEX
5
7ac
8
Layer1
10
131.0000
20
64.5000
30
0.0
0
VERTEX
5
7ad
8
Layer1
10
145.0000
20
64.5000
30
0.0
0
VERTEX
5
7ae
8
Layer1
10
145.0000
20
65.5000
30
0.0
0
SEQEND
5
7af
8
Layer1
0
POLYLINE
5
7b0
8
Layer1
66
1
10
0.0
20
0.0
30
0.0
70
1
0
VERTEX
5
7b1
8
Layer1
10
164.0000
20
65.5000
30
0.0
0
VERTEX
5
7b2
8
Layer1
10
164.8000
20
65.5000
30
0.0
0
VERTEX
5
7b3
8
Layer1
10
164.8000
20
77.5000
30
0.0
0
VERTEX
5
7b4
8
Layer1
10
164.0000
20
77.5000
30
0.0
0
VERTEX
5
7b5
8
Layer1
10
164.0000
20
78.5000
30
0.0
0
VERTEX
5
7b6
8
Layer1
10
150.0000
20
78.5000
30
0.0
0
VERTEX
5
7b7
8
Layer1
10
150.0000
20
77.5000
30
0.0
0
VERTEX
5
7b8
8
Layer1
10
149.2000
20
77.5000
30
0.0
0
VERTEX
5
7b9
8
Layer1
10
149.2000
20
65.5000
30
0.0
0
VERTEX
5
7ba
8
Layer1
10
150.0000
20
65.5000
30
0.0
0
VERTEX
5
7bb
8
Layer1
10
150.0000
20
64.5000
30
0.0
0
VERTEX
5
7bc
8
Layer1
10
164.0000
20
64.5000
30
0.0
0
VERTEX
5
7bd
8
Layer1
10
164.0000
20
65.5000
30
0.0
0
SEQEND
5
7be
8
Layer1
0
POLYLINE
5
7bf
8
Layer1
66
1
10
0.0
20
0.0
30
0.0
70
1
0
VERTEX
5
7c0
8
Layer1
10
183.0000
20
65.5000
30
0.0
0
VERTEX
5
7c1
8
Layer1
10
183.8000
20
65.5000
30
0.0
0
VERTEX
5
7c2
8
Layer1
10
183.8000
20
77.5000
30
0.0
0
VERTEX
5
7c3
8
Layer1
10
183.0000
20
77.5000
30
0.0
0
VERTEX
5
7c4
8
Layer1
10
183.0000
20
78.5000
30
0.0
0
VERTEX
5
7c5
8
Layer1
10
169.0000
20
78.5000
30
0.0
0
VERTEX
5
7c6
8
Layer1
10
169.0000
20
77.5000
30
0.0
0
VERTEX
5
7c7
8
Layer1
10
168.2000
20
77.5000
30
0.0
0
VERTEX
5
7c8
8
Layer1
10
168.2000
20
65.5000
30
0.0
0
VERTEX
5
7c9
8
Layer1
10
169.0000
20
65.5000
30
0.0
0
VERTEX
5
7ca
8
Layer1
10
169.0000
20
64.5000
30
0.0
0
VERTEX
5
7cb
8
Layer1
10
183.0000
20
64.5000
30
0.0
0
VERTEX
5
7cc
8
Layer1
10
183.0000
20
65.5000
30
0.0
0
SEQEND
5
7cd
8
Layer1
0
POLYLINE
5
7ce
8
Layer1
66
1
10
0.0
20
0.0
30
0.0
70
1
0
VERTEX
5
7cf
8
Layer1
10
202.0000
20
65.5000
30
0.0
0
VERTEX
5
7d0
8
Layer1
10
202.8000
20
65.5000
30
0.0
0
VERTEX
5
7d1
8
Layer1
10
202.8000
20
77.5000
30
0.0
0
VERTEX
5
7d2
8
Layer1
10
202.0000
20
77.5000
30
0.0
0
VERTEX
5
7d3
8
Layer1
10
202.0000
20
78.5000
30
0.0
0
VERTEX
5
7d4
8
Layer1
10
188.0000
20
78.5000
30
0.0
0
VERTEX
5
7d5
8
Layer1
10
188.0000
20
77.5000
30
0.0
0
VERTEX
5
7d6
8
Layer1
10
187.2000
20
77.5000
30
0.0
0
VERTEX
5
7d7
8
Layer1
10
187.2000
20
65.5000
30
0.0
0
VERTEX
5
7d8
8
Layer1
10
188.0000
20
65.5000
30
0.0
0
VERTEX
5
7d9
8
Layer1
10
188.0000
20
64.5000
30
0.0
0
VERTEX
5
7da
8
Layer1
10
202.0000
20
64.5000
30
0.0
0
VERTEX
5
7db
8
Layer1
10
202.0000
20
65.5000
30
0.0
0
SEQEND
5
7dc
8
Layer1
0
POLYLINE
5
7dd
8
Layer1
66
1
10
0.0
20
0.0
30
0.0
70
1
0
VERTEX
5
7de
8
Layer1
10
221.0000
20
65.5000
30
0.0
0
VERTEX
5
7df
8
Layer1
10
221.8000
20
65.5000
30
0.0
0
VERTEX
5
7e0
8
Layer1
10
221.8000
20
77.5000
30
0.0
0
VERTEX
5
7e1
8
Layer1
10
221.0000
20
77.5000
30
0.0
0
VERTEX
5
7e2
8
Layer1
10
221.0000
20
78.5000
30
0.0
0
VERTEX
5
7e3
8
Layer1
10
207.0000
20
78.5000
30
0.0
0
VERTEX
5
7e4
8
Layer1
10
207.0000
20
77.5000
30
0.0
0
VERTEX
5
7e5
8
Layer1
10
206.2000
20
77.5000
30
0.0
0
VERTEX
5
7e6
8
Layer1
10
206.2000
20
65.5000
30
0.0
0
VERTEX
5
7e7
8
Layer1
10
207.0000
20
65.5000
30
0.0
0
VERTEX
5
7e8
8
Layer1
10
207.0000
20
64.5000
30
0.0
0
VERTEX
5
7e9
8
Layer1
10
221.0000
20
64.5000
30
0.0
0
VERTEX
5
7ea
8
Layer1
10
221.0000
20
65.5000
30
0.0
0
SEQEND
5
7eb
8
Layer1
0
POLYLINE
5
7ec
8
Layer1
66
1
10
0.0
20
0.0
30
0.0
70
1
0
VERTEX
5
7ed
8
Layer1
10
240.0000
20
65.5000
30
0.0
0
VERTEX
5
7ee
8
Layer1
10
240.8000
20
65.5000
30
0.0
0
VERTEX
5
7ef
8
Layer1
10
240.8000
20
77.5000
30
0.0
0
VERTEX
5
7f0
8
Layer1
10
240.0000
20
77.5000
30
0.0
0
VERTEX
5
7f1
8
Layer1
10
240.0000
20
78.5000
30
0.0
0
VERTEX
5
7f2
8
Layer1
10
226.0000
20
78.5000
30
0.0
0
VERTEX
5
7f3
8
Layer1
10
226.0000
20
77.5000
30
0.0
0
VERTEX
5
7f4
8
Layer1
10
225.2000
20
77.5000
30
0.0
0
VERTEX
5
7f5
8
Layer1
10
225.2000
20
65.5000
30
0.0
0
VERTEX
5
7f6
8
Layer1
10
226.0000
20
65.5000
30
0.0
0
VERTEX
5
7f7
8
Layer1
10
226.0000
20
64.5000
30
0.0
0
VERTEX
5
7f8
8
Layer1
10
240.0000
20
64.5000
30
0.0
0
VERTEX
5
7f9
8
Layer1
10
240.0000
20
65.5000
30
0.0
0
SEQEND
5
7fa
8
Layer1
0
POLYLINE
5
7fb
8
Layer1
66
1
10
0.0
20
0.0
30
0.0
70
1
0
VERTEX
5
7fc
8
Layer1
10
259.0000
20
65.5000
30
0.0
0
VERTEX
5
7fd
8
Layer1
10
259.8000
20
65.5000
30
0.0
0
VERTEX
5
7fe
8
Layer1
10
259.8000
20
77.5000
30
0.0
0
VERTEX
5
7ff
8
Layer1
10
259.0000
20
77.5000
30
0.0
0
VERTEX
5
800
8
Layer1
10
259.0000
20
78.5000
30
0.0
0
VERTEX
5
801
8
Layer1
10
245.0000
20
78.5000
30
0.0
0
VERTEX
5
802
8
Layer1
10
245.0000
20
77.5000
30
0.0
0
VERTEX
5
803
8
Layer1
10
244.2000
20
77.5000
30
0.0
0
VERTEX
5
804
8
Layer1
10
244.2000
20
65.5000
30
0.0
0
VERTEX
5
805
8
Layer1
10
245.0000
20
65.5000
30
0.0
0
VERTEX
5
806
8
Layer1
10
245.0000
20
64.5000
30
0.0
0
VERTEX
5
807
8
Layer1
10
259.0000
20
64.5000
30
0.0
0
VERTEX
5
808
8
Layer1
10
259.0000
20
65.5000
30
0.0
0
SEQEND
5
809
8
Layer1
0
POLYLINE
5
80a
8
Layer1
66
1
10
0.0
20
0.0
30
0.0
70
1
0
VERTEX
5
80b
8
Layer1
10
278.0000
20
65.5000
30
0.0
0
VERTEX
5
80c
8
Layer1
10
278.8000
20
65.5000
30
0.0
0
VERTEX
5
80d
8
Layer1
10
278.8000
20
77.5000
30
0.0
0
VERTEX
5
80e
8
Layer1
10
278.0000
20
77.5000
30
0.0
0
VERTEX
5
80f
8
Layer1
10
278.0000
20
78.5000
30
0.0
0
VERTEX
5
810
8
Layer1
10
264.0000
20
78.5000
30
0.0
0
VERTEX
5
811
8
Layer1
10
264.0000
20
77.5000
30
0.0
0
VERTEX
5
812
8
Layer1
10
263.2000
20
77.5000
30
0.0
0
VERTEX
5
813
8
Layer1
10
263.2000
20
65.5000
30
0.0
0
VERTEX
5
814
8
Layer1
10
264.0000
20
65.5000
30
0.0
0
VERTEX
5
815
8
Layer1
10
264.0000
20
64.5000
30
0.0
0
VERTEX
5
816
8
Layer1
10
278.0000
20
64.5000
30
0.0
0
VERTEX
5
817
8
Layer1
10
278.0000
20
65.5000
30
0.0
0
SEQEND
5
818
8
Layer1
0
POLYLINE
5
819
8
Layer1
66
1
10
0.0
20
0.0
30
0.0
70
1
0
VERTEX
5
81a
8
Layer1
10
297.0000
20
65.5000
30
0.0
0
VERTEX
5
81b
8
Layer1
10
297.8000
20
65.5000
30
0.0
0
VERTEX
5
81c
8
Layer1
10
297.8000
20
77.5000
30
0.0
0
VERTEX
5
81d
8
Layer1
10
297.0000
20
77.5000
30
0.0
0
VERTEX
5
81e
8
Layer1
10
297.0000
20
78.5000
30
0.0
0
VERTEX
5
81f
8
Layer1
10
283.0000
20
78.5000
30
0.0
0
VERTEX
5
820
8
Layer1
10
283.0000
20
77.5000
30
0.0
0
VERTEX
5
821
8
Layer1
10
282.2000
20
77.5000
30
0.0
0
VERTEX
5
822
8
Layer1
10
282.2000
20
65.5000
30
0.0
0
VERTEX
5
823
8
Layer1
10
283.0000
20
65.5000
30
0.0
0
VERTEX
5
824
8
Layer1
10
283.0000
20
64.5000
30
0.0
0
VERTEX
5
825
8
Layer1
10
297.0000
20
64.5000
30
0.0
0
VERTEX
5
826
8
Layer1
10
297.0000
20
65.5000
30
0.0
0
SEQEND
5
827
8
Layer1
0
POLYLINE
5
828
8
Layer1
66
1
10
0.0
20
0.0
30
0.0
70
1
0
VERTEX
5
829
8
Layer1
10
316.0000
20
65.5000
30
0.0
0
VERTEX
5
82a
8
Layer1
10
316.8000
20
65.5000
30
0.0
0
VERTEX
5
82b
8
Layer1
10
316.8000
20
77.5000
30
0.0
0
VERTEX
5
82c
8
Layer1
10
316.0000
20
77.5000
30
0.0
0
VERTEX
5
82d
8
Layer1
10
316.0000
20
78.5000
30
0.0
0
VERTEX
5
82e
8
Layer1
10
302.0000
20
78.5000
30
0.0
0
VERTEX
5
82f
8
Layer1
10
302.0000
20
77.5000
30
0.0
0
VERTEX
5
830
8
Layer1
10
301.2000
20
77.5000
30
0.0
0
VERTEX
5
831
8
Layer1
10
301.2000
20
65.5000
30
0.0
0
VERTEX
5
832
8
Layer1
10
302.0000
20
65.5000
30
0.0
0
VERTEX
5
833
8
Layer1
10
302.0000
20
64.5000
30
0.0
0
VERTEX
5
834
8
Layer1
10
316.0000
20
64.5000
30
0.0
0
VERTEX
5
835
8
Layer1
10
316.0000
20
65.5000
30
0.0
0
SEQEND
5
836
8
Layer1
0
POLYLINE
5
837
8
Layer1
66
1
10
0.0
20
0.0
30
0.0
70
1
0
VERTEX
5
838
8
Layer1
10
335.0000
20
65.5000
30
0.0
0
VERTEX
5
839
8
Layer1
10
335.8000
20
65.5000
30
0.0
0
VERTEX
5
83a
8
Layer1
10
335.8000
20
77.5000
30
0.0
0
VERTEX
5
83b
8
Layer1
10
335.0000
20
77.5000
30
0.0
0
VERTEX
5
83c
8
Layer1
10
335.0000
20
78.5000
30
0.0
0
VERTEX
5
83d
8
Layer1
10
321.0000
20
78.5000
30
0.0
0
VERTEX
5
83e
8
Layer1
10
321.0000
20
77.5000
30
0.0
0
VERTEX
5
83f
8
Layer1
10
320.2000
20
77.5000
30
0.0
0
VERTEX
5
840
8
Layer1
10
320.2000
20
65.5000
30
0.0
0
VERTEX
5
841
8
Layer1
10
321.0000
20
65.5000
30
0.0
0
VERTEX
5
842
8
Layer1
10
321.0000
20
64.5000
30
0.0
0
VERTEX
5
843
8
Layer1
10
335.0000
20
64.5000
30
0.0
0
VERTEX
5
844
8
Layer1
10
335.0000
20
65.5000
30
0.0
0
SEQEND
5
845
8
Layer1
0
POLYLINE
5
846
8
Layer1
66
1
10
0.0
20
0.0
30
0.0
70
1
0
VERTEX
5
847
8
Layer1
10
358.7500
20
65.5000
30
0.0
0
VERTEX
5
848
8
Layer1
10
359.5500
20
65.5000
30
0.0
0
VERTEX
5
849
8
Layer1
10
359.5500
20
77.5000
30
0.0
0
VERTEX
5
84a
8
Layer1
10
358.7500
20
77.5000
30
0.0
0
VERTEX
5
84b
8
Layer1
10
358.7500
20
78.5000
30
0.0
0
VERTEX
5
84c
8
Layer1
10
344.7500
20
78.5000
30
0.0
0
VERTEX
5
84d
8
Layer1
10
344.7500
20
77.5000
30
0.0
0
VERTEX
5
84e
8
Layer1
10
343.9500
20
77.5000
30
0.0
0
VERTEX
5
84f
8
Layer1
10
343.9500
20
65.5000
30
0.0
0
VERTEX
5
850
8
Layer1
10
344.7500
20
65.5000
30
0.0
0
VERTEX
5
851
8
Layer1
10
344.7500
20
64.5000
30
0.0
0
VERTEX
5
852
8
Layer1
10
358.7500
20
64.5000
30
0.0
0
VERTEX
5
853
8
Layer1
10
358.7500
20
65.5000
30
0.0
0
SEQEND
5
854
8
Layer1
0
POLYLINE
5
855
8
Layer1
66
1
10
0.0
20
0.0
30
0.0
70
1
0
VERTEX
5
856
8
Layer1
10
382.5000
20
65.5000
30
0.0
0
VERTEX
5
857
8
Layer1
10
383.3000
20
65.5000
30
0.0
0
VERTEX
5
858
8
Layer1
10
383.3000
20
77.5000
30
0.0
0
VERTEX
5
859
8
Layer1
10
382.5000
20
77.5000
30
0.0
0
VERTEX
5
85a
8
Layer1
10
382.5000
20
78.5000
30
0.0
0
VERTEX
5
85b
8
Layer1
10
368.5000
20
78.5000
30
0.0
0
VERTEX
5
85c
8
Layer1
10
368.5000
20
77.5000
30
0.0
0
VERTEX
5
85d
8
Layer1
10
367.7000
20
77.5000
30
0.0
0
VERTEX
5
85e
8
Layer1
10
367.7000
20
65.5000
30
0.0
0
VERTEX
5
85f
8
Layer1
10
368.5000
20
65.5000
30
0.0
0
VERTEX
5
860
8
Layer1
10
368.5000
20
64.5000
30
0.0
0
VERTEX
5
861
8
Layer1
10
382.5000
20
64.5000
30
0.0
0
VERTEX
5
862
8
Layer1
10
382.5000
20
65.5000
30
0.0
0
SEQEND
5
863
8
Layer1
0
POLYLINE
5
864
8
Layer1
66
1
10
0.0
20
0.0
30
0.0
70
1
0
VERTEX
5
865
8
Layer1
10
40.5000
20
46.5000
30
0.0
0
VERTEX
5
866
8
Layer1
10
41.3000
20
46.5000
30
0.0
0
VERTEX
5
867
8
Layer1
10
41.3000
20
58.5000
30
0.0
0
VERTEX
5
868
8
Layer1
10
40.5000
20
58.5000
30
0.0
0
VERTEX
5
869
8
Layer1
10
40.5000
20
59.5000
30
0.0
0
VERTEX
5
86a
8
Layer1
10
26.5000
20
59.5000
30
0.0
0
VERTEX
5
86b
8
Layer1
10
26.5000
20
58.5000
30
0.0
0
VERTEX
5
86c
8
Layer1
10
25.7000
20
58.5000
30
0.0
0
VERTEX
5
86d
8
Layer1
10
25.7000
20
46.5000
30
0.0
0
VERTEX
5
86e
8
Layer1
10
26.5000
20
46.5000
30
0.0
0
VERTEX
5
86f
8
Layer1
10
26.5000
20
45.5000
30
0.0
0
VERTEX
5
870
8
Layer1
10
40.5000
20
45.5000
30
0.0
0
VERTEX
5
871
8
Layer1
10
40.5000
20
46.5000
30
0.0
0
SEQEND
5
872
8
Layer1
0
POLYLINE
5
873
8
Layer1
66
1
10
0.0
20
0.0
30
0.0
70
1
0
VERTEX
5
874
8
Layer1
10
59.5000
20
46.5000
30
0.0
0
VERTEX
5
875
8
Layer1
10
60.3000
20
46.5000
30
0.0
0
VERTEX
5
876
8
Layer1
10
60.3000
20
58.5000
30
0.0
0
VERTEX
5
877
8
Layer1
10
59.5000
20
58.5000
30
0.0
0
VERTEX
5
878
8
Layer1
10
59.5000
20
59.5000
30
0.0
0
VERTEX
5
879
8
Layer1
10
45.5000
20
59.5000
30
0.0
0
VERTEX
5
87a
8
Layer1
10
45.5000
20
58.5000
30
0.0
0
VERTEX
5
87b
8
Layer1
10
44.7000
20
58.5000
30
0.0
0
VERTEX
5
87c
8
Layer1
10
44.7000
20
46.5000
30
0.0
0
VERTEX
5
87d
8
Layer1
10
45.5000
20
46.5000
30
0.0
0
VERTEX
5
87e
8
Layer1
10
45.5000
20
45.5000
30
0.0
0
VERTEX
5
87f
8
Layer1
10
59.5000
20
45.5000
30
0.0
0
VERTEX
5
880
8
Layer1
10
59.5000
20
46.5000
30
0.0
0
SEQEND
5
881
8
Layer1
0
POLYLINE
5
882
8
Layer1
66
1
10
0.0
20
0.0
30
0.0
70
1
0
VERTEX
5
883
8
Layer1
10
78.5000
20
46.5000
30
0.0
0
VERTEX
5
884
8
Layer1
10
79.3000
20
46.5000
30
0.0
0
VERTEX
5
885
8
Layer1
10
79.3000
20
58.5000
30
0.0
0
VERTEX
5
886
8
Layer1
10
78.5000
20
58.5000
30
0.0
0
VERTEX
5
887
8
Layer1
10
78.5000
20
59.5000
30
0.0
0
VERTEX
5
888
8
Layer1
10
64.5000
20
59.5000
30
0.0
0
VERTEX
5
889
8
Layer1
10
64.5000
20
58.5000
30
0.0
0
VERTEX
5
88a
8
Layer1
10
63.7000
20
58.5000
30
0.0
0
VERTEX
5
88b
8
Layer1
10
63.7000
20
46.5000
30
0.0
0
VERTEX
5
88c
8
Layer1
10
64.5000
20
46.5000
30
0.0
0
VERTEX
5
88d
8
Layer1
10
64.5000
20
45.5000
30
0.0
0
VERTEX
5
88e
8
Layer1
10
78.5000
20
45.5000
30
0.0
0
VERTEX
5
88f
8
Layer1
10
78.5000
20
46.5000
30
0.0
0
SEQEND
5
890
8
Layer1
0
POLYLINE
5
891
8
Layer1
66
1
10
0.0
20
0.0
30
0.0
70
1
0
VERTEX
5
892
8
Layer1
10
104.6250
20
46.5000
30
0.0
0
VERTEX
5
893
8
Layer1
10
105.4250
20
46.5000
30
0.0
0
VERTEX
5
894
8
Layer1
10
105.4250
20
58.5000
30
0.0
0
VERTEX
5
895
8
Layer1
10
104.6250
20
58.5000
30
0.0
0
VERTEX
5
896
8
Layer1
10
104.6250
20
59.5000
30
0.0
0
VERTEX
5
897
8
Layer1
10
90.6250
20
59.5000
30
0.0
0
VERTEX
5
898
8
Layer1
10
90.6250
20
58.5000
30
0.0
0
VERTEX
5
899
8
Layer1
10
89.8250
20
58.5000
30
0.0
0
VERTEX
5
89a
8
Layer1
10
89.8250
20
46.5000
30
0.0
0
VERTEX
5
89b
8
Layer1
10
90.6250
20
46.5000
30
0.0
0
VERTEX
5
89c
8
Layer1
10
90.6250
20
45.5000
30
0.0
0
VERTEX
5
89d
8
Layer1
10
104.6250
20
45.5000
30
0.0
0
VERTEX
5
89e
8
Layer1
10
104.6250
20
46.5000
30
0.0
0
SEQEND
5
89f
8
Layer1
0
POLYLINE
5
8a0
8
Layer1
66
1
10
0.0
20
0.0
30
0.0
70
1
0
VERTEX
5
8a1
8
Layer1
10
130.7500
20
46.5000
30
0.0
0
VERTEX
5
8a2
8
Layer1
10
131.5500
20
46.5000
30
0.0
0
VERTEX
5
8a3
8
Layer1
10
131.5500
20
58.5000
30
0.0
0
VERTEX
5
8a4
8
Layer1
10
130.7500
20
58.5000
30
0.0
0
VERTEX
5
8a5
8
Layer1
10
130.7500
20
59.5000
30
0.0
0
VERTEX
5
8a6
8
Layer1
10
116.7500
20
59.5000
30
0.0
0
VERTEX
5
8a7
8
Layer1
10
116.7500
20
58.5000
30
0.0
0
VERTEX
5
8a8
8
Layer1
10
115.9500
20
58.5000
30
0.0
0
VERTEX
5
8a9
8
Layer1
10
115.9500
20
46.5000
30
0.0
0
VERTEX
5
8aa
8
Layer1
10
116.7500
20
46.5000
30
0.0
0
VERTEX
5
8ab
8
Layer1
10
116.7500
20
45.5000
30
0.0
0
VERTEX
5
8ac
8
Layer1
10
130.7500
20
45.5000
30
0.0
0
VERTEX
5
8ad
8
Layer1
10
130.7500
20
46.5000
30
0.0
0
SEQEND
5
8ae
8
Layer1
0
POLYLINE
5
8af
8
Layer1
66
1
10
0.0
20
0.0
30
0.0
70
1
0
VERTEX
5
8b0
8
Layer1
10
149.7500
20
46.5000
30
0.0
0
VERTEX
5
8b1
8
Layer1
10
150.5500
20
46.5000
30
0.0
0
VERTEX
5
8b2
8
Layer1
10
150.5500
20
58.5000
30
0.0
0
VERTEX
5
8b3
8
Layer1
10
149.7500
20
58.5000
30
0.0
0
VERTEX
5
8b4
8
Layer1
10
149.7500
20
59.5000
30
0.0
0
VERTEX
5
8b5
8
Layer1
10
135.7500
20
59.5000
30
0.0
0
VERTEX
5
8b6
8
Layer1
10
135.7500
20
58.5000
30
0.0
0
VERTEX
5
8b7
8
Layer1
10
134.9500
20
58.5000
30
0.0
0
VERTEX
5
8b8
8
Layer1
10
134.9500
20
46.5000
30
0.0
0
VERTEX
5
8b9
8
Layer1
10
135.7500
20
46.5000
30
0.0
0
VERTEX
5
8ba
8
Layer1
10
135.7500
20
45.5000
30
0.0
0
VERTEX
5
8bb
8
Layer1
10
149.7500
20
45.5000
30
0.0
0
VERTEX
5
8bc
8
Layer1
10
149.7500
20
46.5000
30
0.0
0
SEQEND
5
8bd
8
Layer1
0
POLYLINE
5
8be
8
Layer1
66
1
10
0.0
20
0.0
30
0.0
70
1
0
VERTEX
5
8bf
8
Layer1
10
168.7500
20
46.5000
30
0.0
0
VERTEX
5
8c0
8
Layer1
10
169.5500
20
46.5000
30
0.0
0
VERTEX
5
8c1
8
Layer1
10
169.5500
20
58.5000
30
0.0
0
VERTEX
5
8c2
8
Layer1
10
168.7500
20
58.5000
30
0.0
0
VERTEX
5
8c3
8
Layer1
10
168.7500
20
59.5000
30
0.0
0
VERTEX
5
8c4
8
Layer1
10
154.7500
20
59.5000
30
0.0
0
VERTEX
5
8c5
8
Layer1
10
154.7500
20
58.5000
30
0.0
0
VERTEX
5
8c6
8
Layer1
10
153.9500
20
58.5000
30
0.0
0
VERTEX
5
8c7
8
Layer1
10
153.9500
20
46.5000
30
0.0
0
VERTEX
5
8c8
8
Layer1
10
154.7500
20
46.5000
30
0.0
0
VERTEX
5
8c9
8
Layer1
10
154.7500
20
45.5000
30
0.0
0
VERTEX
5
8ca
8
Layer1
10
168.7500
20
45.5000
30
0.0
0
VERTEX
5
8cb
8
Layer1
10
168.7500
20
46.5000
30
0.0
0
SEQEND
5
8cc
8
Layer1
0
POLYLINE
5
8cd
8
Layer1
66
1
10
0.0
20
0.0
30
0.0
70
1
0
VERTEX
5
8ce
8
Layer1
10
187.7500
20
46.5000
30
0.0
0
VERTEX
5
8cf
8
Layer1
10
188.5500
20
46.5000
30
0.0
0
VERTEX
5
8d0
8
Layer1
10
188.5500
20
58.5000
30
0.0
0
VERTEX
5
8d1
8
Layer1
10
187.7500
20
58.5000
30
0.0
0
VERTEX
5
8d2
8
Layer1
10
187.7500
20
59.5000
30
0.0
0
VERTEX
5
8d3
8
Layer1
10
173.7500
20
59.5000
30
0.0
0
VERTEX
5
8d4
8
Layer1
10
173.7500
20
58.5000
30
0.0
0
VERTEX
5
8d5
8
Layer1
10
172.9500
20
58.5000
30
0.0
0
VERTEX
5
8d6
8
Layer1
10
172.9500
20
46.5000
30
0.0
0
VERTEX
5
8d7
8
Layer1
10
173.7500
20
46.5000
30
0.0
0
VERTEX
5
8d8
8
Layer1
10
173.7500
20
45.5000
30
0.0
0
VERTEX
5
8d9
8
Layer1
10
187.7500
20
45.5000
30
0.0
0
VERTEX
5
8da
8
Layer1
10
187.7500
20
46.5000
30
0.0
0
SEQEND
5
8db
8
Layer1
0
POLYLINE
5
8dc
8
Layer1
66
1
10
0.0
20
0.0
30
0.0
70
1
0
VERTEX
5
8dd
8
Layer1
10
206.7500
20
46.5000
30
0.0
0
VERTEX
5
8de
8
Layer1
10
207.5500
20
46.5000
30
0.0
0
VERTEX
5
8df
8
Layer1
10
207.5500
20
58.5000
30
0.0
0
VERTEX
5
8e0
8
Layer1
10
206.7500
20
58.5000
30
0.0
0
VERTEX
5
8e1
8
Layer1
10
206.7500
20
59.5000
30
0.0
0
VERTEX
5
8e2
8
Layer1
10
192.7500
20
59.5000
30
0.0
0
VERTEX
5
8e3
8
Layer1
10
192.7500
20
58.5000
30
0.0
0
VERTEX
5
8e4
8
Layer1
10
191.9500
20
58.5000
30
0.0
0
VERTEX
5
8e5
8
Layer1
10
191.9500
20
46.5000
30
0.0
0
VERTEX
5
8e6
8
Layer1
10
192.7500
20
46.5000
30
0.0
0
VERTEX
5
8e7
8
Layer1
10
192.7500
20
45.5000
30
0.0
0
VERTEX
5
8e8
8
Layer1
10
206.7500
20
45.5000
30
0.0
0
VERTEX
5
8e9
8
Layer1
10
206.7500
20
46.5000
30
0.0
0
SEQEND
5
8ea
8
Layer1
0
POLYLINE
5
8eb
8
Layer1
66
1
10
0.0
20
0.0
30
0.0
70
1
0
VERTEX
5
8ec
8
Layer1
10
225.7500
20
46.5000
30
0.0
0
VERTEX
5
8ed
8
Layer1
10
226.5500
20
46.5000
30
0.0
0
VERTEX
5
8ee
8
Layer1
10
226.5500
20
58.5000
30
0.0
0
VERTEX
5
8ef
8
Layer1
10
225.7500
20
58.5000
30
0.0
0
VERTEX
5
8f0
8
Layer1
10
225.7500
20
59.5000
30
0.0
0
VERTEX
5
8f1
8
Layer1
10
211.7500
20
59.5000
30
0.0
0
VERTEX
5
8f2
8
Layer1
10
211.7500
20
58.5000
30
0.0
0
VERTEX
5
8f3
8
Layer1
10
210.9500
20
58.5000
30
0.0
0
VERTEX
5
8f4
8
Layer1
10
210.9500
20
46.5000
30
0.0
0
VERTEX
5
8f5
8
Layer1
10
211.7500
20
46.5000
30
0.0
0
VERTEX
5
8f6
8
Layer1
10
211.7500
20
45.5000
30
0.0
0
VERTEX
5
8f7
8
Layer1
10
225.7500
20
45.5000
30
0.0
0
VERTEX
5
8f8
8
Layer1
10
225.7500
20
46.5000
30
0.0
0
SEQEND
5
8f9
8
Layer1
0
POLYLINE
5
8fa
8
Layer1
66
1
10
0.0
20
0.0
30
0.0
70
1
0
VERTEX
5
8fb
8
Layer1
10
244.7500
20
46.5000
30
0.0
0
VERTEX
5
8fc
8
Layer1
10
245.5500
20
46.5000
30
0.0
0
VERTEX
5
8fd
8
Layer1
10
245.5500
20
58.5000
30
0.0
0
VERTEX
5
8fe
8
Layer1
10
244.7500
20
58.5000
30
0.0
0
VERTEX
5
8ff
8
Layer1
10
244.7500
20
59.5000
30
0.0
0
VERTEX
5
900
8
Layer1
10
230.7500
20
59.5000
30
0.0
0
VERTEX
5
901
8
Layer1
10
230.7500
20
58.5000
30
0.0
0
VERTEX
5
902
8
Layer1
10
229.9500
20
58.5000
30
0.0
0
VERTEX
5
903
8
Layer1
10
229.9500
20
46.5000
30
0.0
0
VERTEX
5
904
8
Layer1
10
230.7500
20
46.5000
30
0.0
0
VERTEX
5
905
8
Layer1
10
230.7500
20
45.5000
30
0.0
0
VERTEX
5
906
8
Layer1
10
244.7500
20
45.5000
30
0.0
0
VERTEX
5
907
8
Layer1
10
244.7500
20
46.5000
30
0.0
0
SEQEND
5
908
8
Layer1
0
POLYLINE
5
909
8
Layer1
66
1
10
0.0
20
0.0
30
0.0
70
1
0
VERTEX
5
90a
8
Layer1
10
263.7500
20
46.5000
30
0.0
0
VERTEX
5
90b
8
Layer1
10
264.5500
20
46.5000
30
0.0
0
VERTEX
5
90c
8
Layer1
10
264.5500
20
58.5000
30
0.0
0
VERTEX
5
90d
8
Layer1
10
263.7500
20
58.5000
30
0.0
0
VERTEX
5
90e
8
Layer1
10
263.7500
20
59.5000
30
0.0
0
VERTEX
5
90f
8
Layer1
10
249.7500
20
59.5000
30
0.0
0
VERTEX
5
910
8
Layer1
10
249.7500
20
58.5000
30
0.0
0
VERTEX
5
911
8
Layer1
10
248.9500
20
58.5000
30
0.0
0
VERTEX
5
912
8
Layer1
10
248.9500
20
46.5000
30
0.0
0
VERTEX
5
913
8
Layer1
10
249.7500
20
46.5000
30
0.0
0
VERTEX
5
914
8
Layer1
10
249.7500
20
45.5000
30
0.0
0
VERTEX
5
915
8
Layer1
10
263.7500
20
45.5000
30
0.0
0
VERTEX
5
916
8
Layer1
10
263.7500
20
46.5000
30
0.0
0
SEQEND
5
917
8
Layer1
0
POLYLINE
5
918
8
Layer1
66
1
10
0.0
20
0.0
30
0.0
70
1
0
VERTEX
5
919
8
Layer1
10
282.7500
20
46.5000
30
0.0
0
VERTEX
5
91a
8
Layer1
10
283.5500
20
46.5000
30
0.0
0
VERTEX
5
91b
8
Layer1
10
283.5500
20
58.5000
30
0.0
0
VERTEX
5
91c
8
Layer1
10
282.7500
20
58.5000
30
0.0
0
VERTEX
5
91d
8
Layer1
10
282.7500
20
59.5000
30
0.0
0
VERTEX
5
91e
8
Layer1
10
268.7500
20
59.5000
30
0.0
0
VERTEX
5
91f
8
Layer1
10
268.7500
20
58.5000
30
0.0
0
VERTEX
5
920
8
Layer1
10
267.9500
20
58.5000
30
0.0
0
VERTEX
5
921
8
Layer1
10
267.9500
20
46.5000
30
0.0
0
VERTEX
5
922
8
Layer1
10
268.7500
20
46.5000
30
0.0
0
VERTEX
5
923
8
Layer1
10
268.7500
20
45.5000
30
0.0
0
VERTEX
5
924
8
Layer1
10
282.7500
20
45.5000
30
0.0
0
VERTEX
5
925
8
Layer1
10
282.7500
20
46.5000
30
0.0
0
SEQEND
5
926
8
Layer1
0
POLYLINE
5
927
8
Layer1
66
1
10
0.0
20
0.0
30
0.0
70
1
0
VERTEX
5
928
8
Layer1
10
301.7500
20
46.5000
30
0.0
0
VERTEX
5
929
8
Layer1
10
302.5500
20
46.5000
30
0.0
0
VERTEX
5
92a
8
Layer1
10
302.5500
20
58.5000
30
0.0
0
VERTEX
5
92b
8
Layer1
10
301.7500
20
58.5000
30
0.0
0
VERTEX
5
92c
8
Layer1
10
301.7500
20
59.5000
30
0.0
0
VERTEX
5
92d
8
Layer1
10
287.7500
20
59.5000
30
0.0
0
VERTEX
5
92e
8
Layer1
10
287.7500
20
58.5000
30
0.0
0
VERTEX
5
92f
8
Layer1
10
286.9500
20
58.5000
30
0.0
0
VERTEX
5
930
8
Layer1
10
286.9500
20
46.5000
30
0.0
0
VERTEX
5
931
8
Layer1
10
287.7500
20
46.5000
30
0.0
0
VERTEX
5
932
8
Layer1
10
287.7500
20
45.5000
30
0.0
0
VERTEX
5
933
8
Layer1
10
301.7500
20
45.5000
30
0.0
0
VERTEX
5
934
8
Layer1
10
301.7500
20
46.5000
30
0.0
0
SEQEND
5
935
8
Layer1
0
POLYLINE
5
936
8
Layer1
66
1
10
0.0
20
0.0
30
0.0
70
1
0
VERTEX
5
937
8
Layer1
10
320.7500
20
46.5000
30
0.0
0
VERTEX
5
938
8
Layer1
10
321.5500
20
46.5000
30
0.0
0
VERTEX
5
939
8
Layer1
10
321.5500
20
58.5000
30
0.0
0
VERTEX
5
93a
8
Layer1
10
320.7500
20
58.5000
30
0.0
0
VERTEX
5
93b
8
Layer1
10
320.7500
20
59.5000
30
0.0
0
VERTEX
5
93c
8
Layer1
10
306.7500
20
59.5000
30
0.0
0
VERTEX
5
93d
8
Layer1
10
306.7500
20
58.5000
30
0.0
0
VERTEX
5
93e
8
Layer1
10
305.9500
20
58.5000
30
0.0
0
VERTEX
5
93f
8
Layer1
10
305.9500
20
46.5000
30
0.0
0
VERTEX
5
940
8
Layer1
10
306.7500
20
46.5000
30
0.0
0
VERTEX
5
941
8
Layer1
10
306.7500
20
45.5000
30
0.0
0
VERTEX
5
942
8
Layer1
10
320.7500
20
45.5000
30
0.0
0
VERTEX
5
943
8
Layer1
10
320.7500
20
46.5000
30
0.0
0
SEQEND
5
944
8
Layer1
0
POLYLINE
5
945
8
Layer1
66
1
10
0.0
20
0.0
30
0.0
70
1
0
VERTEX
5
946
8
Layer1
10
334.2250
20
45.7300
30
0.0
0
VERTEX
5
947
8
Layer1
10
336.0500
20
45.7300
30
0.0
0
VERTEX
5
948
8
Layer1
10
336.0500
20
46.5300
30
0.0
0
VERTEX
5
949
8
Layer1
10
336.8250
20
46.5300
30
0.0
0
VERTEX
5
94a
8
Layer1
10
336.8250
20
46.5000
30
0.0
0
VERTEX
5
94b
8
Layer1
10
337.6250
20
46.5000
30
0.0
0
VERTEX
5
94c
8
Layer1
10
337.6250
20
45.5000
30
0.0
0
VERTEX
5
94d
8
Layer1
10
351.6250
20
45.5000
30
0.0
0
VERTEX
5
94e
8
Layer1
10
351.6250
20
46.5000
30
0.0
0
VERTEX
5
94f
8
Layer1
10
352.4250
20
46.5000
30
0.0
0
VERTEX
5
950
8
Layer1
10
352.4250
20
46.5300
30
0.0
0
VERTEX
5
951
8
Layer1
10
353.2000
20
46.5300
30
0.0
0
VERTEX
5
952
8
Layer1
10
353.2000
20
45.7300
30
0.0
0
VERTEX
5
953
8
Layer1
10
355.0250
20
45.7300
30
0.0
0
VERTEX
5
954
8
Layer1
10
355.0250
20
44.5300
30
0.0
0
VERTEX
5
955
8
Layer1
10
358.0250
20
44.5300
30
0.0
0
VERTEX
5
956
8
Layer1
10
358.0250
20
45.7300
30
0.0
0
VERTEX
5
957
8
Layer1
10
359.8500
20
45.7300
30
0.0
0
VERTEX
5
958
8
Layer1
10
359.8500
20
52.0000
30
0.0
0
VERTEX
5
959
8
Layer1
10
360.7250
20
52.0000
30
0.0
0
VERTEX
5
95a
8
Layer1
10
360.7250
20
54.8000
30
0.0
0
VERTEX
5
95b
8
Layer1
10
359.8500
20
54.8000
30
0.0
0
VERTEX
5
95c
8
Layer1
10
359.8500
20
58.0300
30
0.0
0
VERTEX
5
95d
8
Layer1
10
353.2000
20
58.0300
30
0.0
0
VERTEX
5
95e
8
Layer1
10
353.2000
20
57.2300
30
0.0
0
VERTEX
5
95f
8
Layer1
10
352.4250
20
57.2300
30
0.0
0
VERTEX
5
960
8
Layer1
10
352.4250
20
58.5000
30
0.0
0
VERTEX
5
961
8
Layer1
10
351.6250
20
58.5000
30
0.0
0
VERTEX
5
962
8
Layer1
10
351.6250
20
59.5000
30
0.0
0
VERTEX
5
963
8
Layer1
10
337.6250
20
59.5000
30
0.0
0
VERTEX
5
964
8
Layer1
10
337.6250
20
58.5000
30
0.0
0
VERTEX
5
965
8
Layer1
10
336.8250
20
58.5000
30
0.0
0
VERTEX
5
966
8
Layer1
10
336.8250
20
57.2300
30
0.0
0
VERTEX
5
967
8
Layer1
10
336.0500
20
57.2300
30
0.0
0
VERTEX
5
968
8
Layer1
10
336.0500
20
58.0300
30
0.0
0
VERTEX
5
969
8
Layer1
10
329.4000
20
58.0300
30
0.0
0
VERTEX
5
96a
8
Layer1
10
329.4000
20
54.8000
30
0.0
0
VERTEX
5
96b
8
Layer1
10
328.5250
20
54.8000
30
0.0
0
VERTEX
5
96c
8
Layer1
10
328.5250
20
52.0000
30
0.0
0
VERTEX
5
96d
8
Layer1
10
329.4000
20
52.0000
30
0.0
0
VERTEX
5
96e
8
Layer1
10
329.4000
20
45.7300
30
0.0
0
VERTEX
5
96f
8
Layer1
10
331.2250
20
45.7300
30
0.0
0
VERTEX
5
970
8
Layer1
10
331.2250
20
44.5300
30
0.0
0
VERTEX
5
971
8
Layer1
10
334.2250
20
44.5300
30
0.0
0
VERTEX
5
972
8
Layer1
10
334.2250
20
45.7300
30
0.0
0
SEQEND
5
973
8
Layer1
0
POLYLINE
5
974
8
Layer1
66
1
10
0.0
20
0.0
30
0.0
70
1
0
VERTEX
5
975
8
Layer1
10
382.5000
20
46.5000
30
0.0
0
VERTEX
5
976
8
Layer1
10
383.3000
20
46.5000
30
0.0
0
VERTEX
5
977
8
Layer1
10
383.3000
20
58.5000
30
0.0
0
VERTEX
5
978
8
Layer1
10
382.5000
20
58.5000
30
0.0
0
VERTEX
5
979
8
Layer1
10
382.5000
20
59.5000
30
0.0
0
VERTEX
5
97a
8
Layer1
10
368.5000
20
59.5000
30
0.0
0
VERTEX
5
97b
8
Layer1
10
368.5000
20
58.5000
30
0.0
0
VERTEX
5
97c
8
Layer1
10
367.7000
20
58.5000
30
0.0
0
VERTEX
5
97d
8
Layer1
10
367.7000
20
46.5000
30
0.0
0
VERTEX
5
97e
8
Layer1
10
368.5000
20
46.5000
30
0.0
0
VERTEX
5
97f
8
Layer1
10
368.5000
20
45.5000
30
0.0
0
VERTEX
5
980
8
Layer1
10
382.5000
20
45.5000
30
0.0
0
VERTEX
5
981
8
Layer1
10
382.5000
20
46.5000
30
0.0
0
SEQEND
5
982
8
Layer1
0
POLYLINE
5
983
8
Layer1
66
1
10
0.0
20
0.0
30
0.0
70
1
0
VERTEX
5
984
8
Layer1
10
7.7300
20
34.4000
30
0.0
0
VERTEX
5
985
8
Layer1
10
7.7300
20
32.5750
30
0.0
0
VERTEX
5
986
8
Layer1
10
8.5300
20
32.5750
30
0.0
0
VERTEX
5
987
8
Layer1
10
8.5300
20
31.8000
30
0.0
0
VERTEX
5
988
8
Layer1
10
8.5000
20
31.8000
30
0.0
0
VERTEX
5
989
8
Layer1
10
8.5000
20
31.0000
30
0.0
0
VERTEX
5
98a
8
Layer1
10
7.5000
20
31.0000
30
0.0
0
VERTEX
5
98b
8
Layer1
10
7.5000
20
17.0000
30
0.0
0
VERTEX
5
98c
8
Layer1
10
8.5000
20
17.0000
30
0.0
0
VERTEX
5
98d
8
Layer1
10
8.5000
20
16.2000
30
0.0
0
VERTEX
5
98e
8
Layer1
10
8.5300
20
16.2000
30
0.0
0
VERTEX
5
98f
8
Layer1
10
8.5300
20
15.4250
30
0.0
0
VERTEX
5
990
8
Layer1
10
7.7300
20
15.4250
30
0.0
0
VERTEX
5
991
8
Layer1
10
7.7300
20
13.6000
30
0.0
0
VERTEX
5
992
8
Layer1
10
6.5300
20
13.6000
30
0.0
0
VERTEX
5
993
8
Layer1
10
6.5300
20
10.6000
30
0.0
0
VERTEX
5
994
8
Layer1
10
7.7300
20
10.6000
30
0.0
0
VERTEX
5
995
8
Layer1
10
7.7300
20
8.7750
30
0.0
0
VERTEX
5
996
8
Layer1
10
14.0000
20
8.7750
30
0.0
0
VERTEX
5
997
8
Layer1
10
14.0000
20
7.9000
30
0.0
0
VERTEX
5
998
8
Layer1
10
16.8000
20
7.9000
30
0.0
0
VERTEX
5
999
8
Layer1
10
16.8000
20
8.7750
30
0.0
0
VERTEX
5
99a
8
Layer1
10
20.0300
20
8.7750
30
0.0
0
VERTEX
5
99b
8
Layer1
10
20.0300
20
15.4250
30
0.0
0
VERTEX
5
99c
8
Layer1
10
19.2300
20
15.4250
30
0.0
0
VERTEX
5
99d
8
Layer1
10
19.2300
20
16.2000
30
0.0
0
VERTEX
5
99e
8
Layer1
10
20.5000
20
16.2000
30
0.0
0
VERTEX
5
99f
8
Layer1
10
20.5000
20
17.0000
30
0.0
0
VERTEX
5
9a0
8
Layer1
10
21.5000
20
17.0000
30
0.0
0
VERTEX
5
9a1
8
Layer1
10
21.5000
20
31.0000
30
0.0
0
VERTEX
5
9a2
8
Layer1
10
20.5000
20
31.0000
30
0.0
0
VERTEX
5
9a3
8
Layer1
10
20.5000
20
31.8000
30
0.0
0
VERTEX
5
9a4
8
Layer1
10
19.2300
20
31.8000
30
0.0
0
VERTEX
5
9a5
8
Layer1
10
19.2300
20
32.5750
30
0.0
0
VERTEX
5
9a6
8
Layer1
10
20.0300
20
32.5750
30
0.0
0
VERTEX
5
9a7
8
Layer1
10
20.0300
20
39.2250
30
0.0
0
VERTEX
5
9a8
8
Layer1
10
16.8000
20
39.2250
30
0.0
0
VERTEX
5
9a9
8
Layer1
10
16.8000
20
40.1000
30
0.0
0
VERTEX
5
9aa
8
Layer1
10
14.0000
20
40.1000
30
0.0
0
VERTEX
5
9ab
8
Layer1
10
14.0000
20
39.2250
30
0.0
0
VERTEX
5
9ac
8
Layer1
10
7.7300
20
39.2250
30
0.0
0
VERTEX
5
9ad
8
Layer1
10
7.7300
20
37.4000
30
0.0
0
VERTEX
5
9ae
8
Layer1
10
6.5300
20
37.4000
30
0.0
0
VERTEX
5
9af
8
Layer1
10
6.5300
20
34.4000
30
0.0
0
VERTEX
5
9b0
8
Layer1
10
7.7300
20
34.4000
30
0.0
0
SEQEND
5
9b1
8
Layer1
0
POLYLINE
5
9b2
8
Layer1
66
1
10
0.0
20
0.0
30
0.0
70
1
0
VERTEX
5
9b3
8
Layer1
10
40.5000
20
27.5000
30
0.0
0
VERTEX
5
9b4
8
Layer1
10
41.3000
20
27.5000
30
0.0
0
VERTEX
5
9b5
8
Layer1
10
41.3000
20
39.5000
30
0.0
0
VERTEX
5
9b6
8
Layer1
10
40.5000
20
39.5000
30
0.0
0
VERTEX
5
9b7
8
Layer1
10
40.5000
20
40.5000
30
0.0
0
VERTEX
5
9b8
8
Layer1
10
26.5000
20
40.5000
30
0.0
0
VERTEX
5
9b9
8
Layer1
10
26.5000
20
39.5000
30
0.0
0
VERTEX
5
9ba
8
Layer1
10
25.7000
20
39.5000
30
0.0
0
VERTEX
5
9bb
8
Layer1
10
25.7000
20
27.5000
30
0.0
0
VERTEX
5
9bc
8
Layer1
10
26.5000
20
27.5000
30
0.0
0
VERTEX
5
9bd
8
Layer1
10
26.5000
20
26.5000
30
0.0
0
VERTEX
5
9be
8
Layer1
10
40.5000
20
26.5000
30
0.0
0
VERTEX
5
9bf
8
Layer1
10
40.5000
20
27.5000
30
0.0
0
SEQEND
5
9c0
8
Layer1
0
POLYLINE
5
9c1
8
Layer1
66
1
10
0.0
20
0.0
30
0.0
70
1
0
VERTEX
5
9c2
8
Layer1
10
59.5000
20
27.5000
30
0.0
0
VERTEX
5
9c3
8
Layer1
10
60.3000
20
27.5000
30
0.0
0
VERTEX
5
9c4
8
Layer1
10
60.3000
20
39.5000
30
0.0
0
VERTEX
5
9c5
8
Layer1
10
59.5000
20
39.5000
30
0.0
0
VERTEX
5
9c6
8
Layer1
10
59.5000
20
40.5000
30
0.0
0
VERTEX
5
9c7
8
Layer1
10
45.5000
20
40.5000
30
0.0
0
VERTEX
5
9c8
8
Layer1
10
45.5000
20
39.5000
30
0.0
0
VERTEX
5
9c9
8
Layer1
10
44.7000
20
39.5000
30
0.0
0
VERTEX
5
9ca
8
Layer1
10
44.7000
20
27.5000
30
0.0
0
VERTEX
5
9cb
8
Layer1
10
45.5000
20
27.5000
30
0.0
0
VERTEX
5
9cc
8
Layer1
10
45.5000
20
26.5000
30
0.0
0
VERTEX
5
9cd
8
Layer1
10
59.5000
20
26.5000
30
0.0
0
VERTEX
5
9ce
8
Layer1
10
59.5000
20
27.5000
30
0.0
0
SEQEND
5
9cf
8
Layer1
0
POLYLINE
5
9d0
8
Layer1
66
1
10
0.0
20
0.0
30
0.0
70
1
0
VERTEX
5
9d1
8
Layer1
10
78.5000
20
27.5000
30
0.0
0
VERTEX
5
9d2
8
Layer1
10
79.3000
20
27.5000
30
0.0
0
VERTEX
5
9d3
8
Layer1
10
79.3000
20
39.5000
30
0.0
0
VERTEX
5
9d4
8
Layer1
10
78.5000
20
39.5000
30
0.0
0
VERTEX
5
9d5
8
Layer1
10
78.5000
20
40.5000
30
0.0
0
VERTEX
5
9d6
8
Layer1
10
64.5000
20
40.5000
30
0.0
0
VERTEX
5
9d7
8
Layer1
10
64.5000
20
39.5000
30
0.0
0
VERTEX
5
9d8
8
Layer1
10
63.7000
20
39.5000
30
0.0
0
VERTEX
5
9d9
8
Layer1
10
63.7000
20
27.5000
30
0.0
0
VERTEX
5
9da
8
Layer1
10
64.5000
20
27.5000
30
0.0
0
VERTEX
5
9db
8
Layer1
10
64.5000
20
26.5000
30
0.0
0
VERTEX
5
9dc
8
Layer1
10
78.5000
20
26.5000
30
0.0
0
VERTEX
5
9dd
8
Layer1
10
78.5000
20
27.5000
30
0.0
0
SEQEND
5
9de
8
Layer1
0
POLYLINE
5
9df
8
Layer1
66
1
10
0.0
20
0.0
30
0.0
70
1
0
VERTEX
5
9e0
8
Layer1
10
91.9750
20
26.7300
30
0.0
0
VERTEX
5
9e1
8
Layer1
10
93.8000
20
26.7300
30
0.0
0
VERTEX
5
9e2
8
Layer1
10
93.8000
20
27.5300
30
0.0
0
VERTEX
5
9e3
8
Layer1
10
94.5750
20
27.5300
30
0.0
0
VERTEX
5
9e4
8
Layer1
10
94.5750
20
27.5000
30
0.0
0
VERTEX
5
9e5
8
Layer1
10
95.3750
20
27.5000
30
0.0
0
VERTEX
5
9e6
8
Layer1
10
95.3750
20
26.5000
30
0.0
0
VERTEX
5
9e7
8
Layer1
10
109.3750
20
26.5000
30
0.0
0
VERTEX
5
9e8
8
Layer1
10
109.3750
20
27.5000
30
0.0
0
VERTEX
5
9e9
8
Layer1
10
110.1750
20
27.5000
30
0.0
0
VERTEX
5
9ea
8
Layer1
10
110.1750
20
27.5300
30
0.0
0
VERTEX
5
9eb
8
Layer1
10
110.9500
20
27.5300
30
0.0
0
VERTEX
5
9ec
8
Layer1
10
110.9500
20
26.7300
30
0.0
0
VERTEX
5
9ed
8
Layer1
10
112.7750
20
26.7300
30
0.0
0
VERTEX
5
9ee
8
Layer1
10
112.7750
20
25.5300
30
0.0
0
VERTEX
5
9ef
8
Layer1
10
115.7750
20
25.5300
30
0.0
0
VERTEX
5
9f0
8
Layer1
10
115.7750
20
26.7300
30
0.0
0
VERTEX
5
9f1
8
Layer1
10
117.6000
20
26.7300
30
0.0
0
VERTEX
5
9f2
8
Layer1
10
117.6000
20
33.0000
30
0.0
0
VERTEX
5
9f3
8
Layer1
10
118.4750
20
33.0000
30
0.0
0
VERTEX
5
9f4
8
Layer1
10
118.4750
20
35.8000
30
0.0
0
VERTEX
5
9f5
8
Layer1
10
117.6000
20
35.8000
30
0.0
0
VERTEX
5
9f6
8
Layer1
10
117.6000
20
39.0300
30
0.0
0
VERTEX
5
9f7
8
Layer1
10
110.9500
20
39.0300
30
0.0
0
VERTEX
5
9f8
8
Layer1
10
110.9500
20
38.2300
30
0.0
0
VERTEX
5
9f9
8
Layer1
10
110.1750
20
38.2300
30
0.0
0
VERTEX
5
9fa
8
Layer1
10
110.1750
20
39.5000
30
0.0
0
VERTEX
5
9fb
8
Layer1
10
109.3750
20
39.5000
30
0.0
0
VERTEX
5
9fc
8
Layer1
10
109.3750
20
40.5000
30
0.0
0
VERTEX
5
9fd
8
Layer1
10
95.3750
20
40.5000
30
0.0
0
VERTEX
5
9fe
8
Layer1
10
95.3750
20
39.5000
30
0.0
0
VERTEX
5
9ff
8
Layer1
10
94.5750
20
39.5000
30
0.0
0
VERTEX
5
a00
8
Layer1
10
94.5750
20
38.2300
30
0.0
0
VERTEX
5
a01
8
Layer1
10
93.8000
20
38.2300
30
0.0
0
VERTEX
5
a02
8
Layer1
10
93.8000
20
39.0300
30
0.0
0
VERTEX
5
a03
8
Layer1
10
87.1500
20
39.0300
30
0.0
0
VERTEX
5
a04
8
Layer1
10
87.1500
20
35.8000
30
0.0
0
VERTEX
5
a05
8
Layer1
10
86.2750
20
35.8000
30
0.0
0
VERTEX
5
a06
8
Layer1
10
86.2750
20
33.0000
30
0.0
0
VERTEX
5
a07
8
Layer1
10
87.1500
20
33.0000
30
0.0
0
VERTEX
5
a08
8
Layer1
10
87.1500
20
26.7300
30
0.0
0
VERTEX
5
a09
8
Layer1
10
88.9750
20
26.7300
30
0.0
0
VERTEX
5
a0a
8
Layer1
10
88.9750
20
25.5300
30
0.0
0
VERTEX
5
a0b
8
Layer1
10
91.9750
20
25.5300
30
0.0
0
VERTEX
5
a0c
8
Layer1
10
91.9750
20
26.7300
30
0.0
0
SEQEND
5
a0d
8
Layer1
0
POLYLINE
5
a0e
8
Layer1
66
1
10
0.0
20
0.0
30
0.0
70
1
0
VERTEX
5
a0f
8
Layer1
10
140.2500
20
27.5000
30
0.0
0
VERTEX
5
a10
8
Layer1
10
141.0500
20
27.5000
30
0.0
0
VERTEX
5
a11
8
Layer1
10
141.0500
20
39.5000
30
0.0
0
VERTEX
5
a12
8
Layer1
10
140.2500
20
39.5000
30
0.0
0
VERTEX
5
a13
8
Layer1
10
140.2500
20
40.5000
30
0.0
0
VERTEX
5
a14
8
Layer1
10
126.2500
20
40.5000
30
0.0
0
VERTEX
5
a15
8
Layer1
10
126.2500
20
39.5000
30
0.0
0
VERTEX
5
a16
8
Layer1
10
125.4500
20
39.5000
30
0.0
0
VERTEX
5
a17
8
Layer1
10
125.4500
20
27.5000
30
0.0
0
VERTEX
5
a18
8
Layer1
10
126.2500
20
27.5000
30
0.0
0
VERTEX
5
a19
8
Layer1
10
126.2500
20
26.5000
30
0.0
0
VERTEX
5
a1a
8
Layer1
10
140.2500
20
26.5000
30
0.0
0
VERTEX
5
a1b
8
Layer1
10
140.2500
20
27.5000
30
0.0
0
SEQEND
5
a1c
8
Layer1
0
POLYLINE
5
a1d
8
Layer1
66
1
10
0.0
20
0.0
30
0.0
70
1
0
VERTEX
5
a1e
8
Layer1
10
159.2500
20
27.5000
30
0.0
0
VERTEX
5
a1f
8
Layer1
10
160.0500
20
27.5000
30
0.0
0
VERTEX
5
a20
8
Layer1
10
160.0500
20
39.5000
30
0.0
0
VERTEX
5
a21
8
Layer1
10
159.2500
20
39.5000
30
0.0
0
VERTEX
5
a22
8
Layer1
10
159.2500
20
40.5000
30
0.0
0
VERTEX
5
a23
8
Layer1
10
145.2500
20
40.5000
30
0.0
0
VERTEX
5
a24
8
Layer1
10
145.2500
20
39.5000
30
0.0
0
VERTEX
5
a25
8
Layer1
10
144.4500
20
39.5000
30
0.0
0
VERTEX
5
a26
8
Layer1
10
144.4500
20
27.5000
30
0.0
0
VERTEX
5
a27
8
Layer1
10
145.2500
20
27.5000
30
0.0
0
VERTEX
5
a28
8
Layer1
10
145.2500
20
26.5000
30
0.0
0
VERTEX
5
a29
8
Layer1
10
159.2500
20
26.5000
30
0.0
0
VERTEX
5
a2a
8
Layer1
10
159.2500
20
27.5000
30
0.0
0
SEQEND
5
a2b
8
Layer1
0
POLYLINE
5
a2c
8
Layer1
66
1
10
0.0
20
0.0
30
0.0
70
1
0
VERTEX
5
a2d
8
Layer1
10
178.2500
20
27.5000
30
0.0
0
VERTEX
5
a2e
8
Layer1
10
179.0500
20
27.5000
30
0.0
0
VERTEX
5
a2f
8
Layer1
10
179.0500
20
39.5000
30
0.0
0
VERTEX
5
a30
8
Layer1
10
178.2500
20
39.5000
30
0.0
0
VERTEX
5
a31
8
Layer1
10
178.2500
20
40.5000
30
0.0
0
VERTEX
5
a32
8
Layer1
10
164.2500
20
40.5000
30
0.0
0
VERTEX
5
a33
8
Layer1
10
164.2500
20
39.5000
30
0.0
0
VERTEX
5
a34
8
Layer1
10
163.4500
20
39.5000
30
0.0
0
VERTEX
5
a35
8
Layer1
10
163.4500
20
27.5000
30
0.0
0
VERTEX
5
a36
8
Layer1
10
164.2500
20
27.5000
30
0.0
0
VERTEX
5
a37
8
Layer1
10
164.2500
20
26.5000
30
0.0
0
VERTEX
5
a38
8
Layer1
10
178.2500
20
26.5000
30
0.0
0
VERTEX
5
a39
8
Layer1
10
178.2500
20
27.5000
30
0.0
0
SEQEND
5
a3a
8
Layer1
0
POLYLINE
5
a3b
8
Layer1
66
1
10
0.0
20
0.0
30
0.0
70
1
0
VERTEX
5
a3c
8
Layer1
10
197.2500
20
27.5000
30
0.0
0
VERTEX
5
a3d
8
Layer1
10
198.0500
20
27.5000
30
0.0
0
VERTEX
5
a3e
8
Layer1
10
198.0500
20
39.5000
30
0.0
0
VERTEX
5
a3f
8
Layer1
10
197.2500
20
39.5000
30
0.0
0
VERTEX
5
a40
8
Layer1
10
197.2500
20
40.5000
30
0.0
0
VERTEX
5
a41
8
Layer1
10
183.2500
20
40.5000
30
0.0
0
VERTEX
5
a42
8
Layer1
10
183.2500
20
39.5000
30
0.0
0
VERTEX
5
a43
8
Layer1
10
182.4500
20
39.5000
30
0.0
0
VERTEX
5
a44
8
Layer1
10
182.4500
20
27.5000
30
0.0
0
VERTEX
5
a45
8
Layer1
10
183.2500
20
27.5000
30
0.0
0
VERTEX
5
a46
8
Layer1
10
183.2500
20
26.5000
30
0.0
0
VERTEX
5
a47
8
Layer1
10
197.2500
20
26.5000
30
0.0
0
VERTEX
5
a48
8
Layer1
10
197.2500
20
27.5000
30
0.0
0
SEQEND
5
a49
8
Layer1
0
POLYLINE
5
a4a
8
Layer1
66
1
10
0.0
20
0.0
30
0.0
70
1
0
VERTEX
5
a4b
8
Layer1
10
216.2500
20
27.5000
30
0.0
0
VERTEX
5
a4c
8
Layer1
10
217.0500
20
27.5000
30
0.0
0
VERTEX
5
a4d
8
Layer1
10
217.0500
20
39.5000
30
0.0
0
VERTEX
5
a4e
8
Layer1
10
216.2500
20
39.5000
30
0.0
0
VERTEX
5
a4f
8
Layer1
10
216.2500
20
40.5000
30
0.0
0
VERTEX
5
a50
8
Layer1
10
202.2500
20
40.5000
30
0.0
0
VERTEX
5
a51
8
Layer1
10
202.2500
20
39.5000
30
0.0
0
VERTEX
5
a52
8
Layer1
10
201.4500
20
39.5000
30
0.0
0
VERTEX
5
a53
8
Layer1
10
201.4500
20
27.5000
30
0.0
0
VERTEX
5
a54
8
Layer1
10
202.2500
20
27.5000
30
0.0
0
VERTEX
5
a55
8
Layer1
10
202.2500
20
26.5000
30
0.0
0
VERTEX
5
a56
8
Layer1
10
216.2500
20
26.5000
30
0.0
0
VERTEX
5
a57
8
Layer1
10
216.2500
20
27.5000
30
0.0
0
SEQEND
5
a58
8
Layer1
0
POLYLINE
5
a59
8
Layer1
66
1
10
0.0
20
0.0
30
0.0
70
1
0
VERTEX
5
a5a
8
Layer1
10
235.2500
20
27.5000
30
0.0
0
VERTEX
5
a5b
8
Layer1
10
236.0500
20
27.5000
30
0.0
0
VERTEX
5
a5c
8
Layer1
10
236.0500
20
39.5000
30
0.0
0
VERTEX
5
a5d
8
Layer1
10
235.2500
20
39.5000
30
0.0
0
VERTEX
5
a5e
8
Layer1
10
235.2500
20
40.5000
30
0.0
0
VERTEX
5
a5f
8
Layer1
10
221.2500
20
40.5000
30
0.0
0
VERTEX
5
a60
8
Layer1
10
221.2500
20
39.5000
30
0.0
0
VERTEX
5
a61
8
Layer1
10
220.4500
20
39.5000
30
0.0
0
VERTEX
5
a62
8
Layer1
10
220.4500
20
27.5000
30
0.0
0
VERTEX
5
a63
8
Layer1
10
221.2500
20
27.5000
30
0.0
0
VERTEX
5
a64
8
Layer1
10
221.2500
20
26.5000
30
0.0
0
VERTEX
5
a65
8
Layer1
10
235.2500
20
26.5000
30
0.0
0
VERTEX
5
a66
8
Layer1
10
235.2500
20
27.5000
30
0.0
0
SEQEND
5
a67
8
Layer1
0
POLYLINE
5
a68
8
Layer1
66
1
10
0.0
20
0.0
30
0.0
70
1
0
VERTEX
5
a69
8
Layer1
10
254.2500
20
27.5000
30
0.0
0
VERTEX
5
a6a
8
Layer1
10
255.0500
20
27.5000
30
0.0
0
VERTEX
5
a6b
8
Layer1
10
255.0500
20
39.5000
30
0.0
0
VERTEX
5
a6c
8
Layer1
10
254.2500
20
39.5000
30
0.0
0
VERTEX
5
a6d
8
Layer1
10
254.2500
20
40.5000
30
0.0
0
VERTEX
5
a6e
8
Layer1
10
240.2500
20
40.5000
30
0.0
0
VERTEX
5
a6f
8
Layer1
10
240.2500
20
39.5000
30
0.0
0
VERTEX
5
a70
8
Layer1
10
239.4500
20
39.5000
30
0.0
0
VERTEX
5
a71
8
Layer1
10
239.4500
20
27.5000
30
0.0
0
VERTEX
5
a72
8
Layer1
10
240.2500
20
27.5000
30
0.0
0
VERTEX
5
a73
8
Layer1
10
240.2500
20
26.5000
30
0.0
0
VERTEX
5
a74
8
Layer1
10
254.2500
20
26.5000
30
0.0
0
VERTEX
5
a75
8
Layer1
10
254.2500
20
27.5000
30
0.0
0
SEQEND
5
a76
8
Layer1
0
POLYLINE
5
a77
8
Layer1
66
1
10
0.0
20
0.0
30
0.0
70
1
0
VERTEX
5
a78
8
Layer1
10
273.2500
20
27.5000
30
0.0
0
VERTEX
5
a79
8
Layer1
10
274.0500
20
27.5000
30
0.0
0
VERTEX
5
a7a
8
Layer1
10
274.0500
20
39.5000
30
0.0
0
VERTEX
5
a7b
8
Layer1
10
273.2500
20
39.5000
30
0.0
0
VERTEX
5
a7c
8
Layer1
10
273.2500
20
40.5000
30
0.0
0
VERTEX
5
a7d
8
Layer1
10
259.2500
20
40.5000
30
0.0
0
VERTEX
5
a7e
8
Layer1
10
259.2500
20
39.5000
30
0.0
0
VERTEX
5
a7f
8
Layer1
10
258.4500
20
39.5000
30
0.0
0
VERTEX
5
a80
8
Layer1
10
258.4500
20
27.5000
30
0.0
0
VERTEX
5
a81
8
Layer1
10
259.2500
20
27.5000
30
0.0
0
VERTEX
5
a82
8
Layer1
10
259.2500
20
26.5000
30
0.0
0
VERTEX
5
a83
8
Layer1
10
273.2500
20
26.5000
30
0.0
0
VERTEX
5
a84
8
Layer1
10
273.2500
20
27.5000
30
0.0
0
SEQEND
5
a85
8
Layer1
0
POLYLINE
5
a86
8
Layer1
66
1
10
0.0
20
0.0
30
0.0
70
1
0
VERTEX
5
a87
8
Layer1
10
292.2500
20
27.5000
30
0.0
0
VERTEX
5
a88
8
Layer1
10
293.0500
20
27.5000
30
0.0
0
VERTEX
5
a89
8
Layer1
10
293.0500
20
39.5000
30
0.0
0
VERTEX
5
a8a
8
Layer1
10
292.2500
20
39.5000
30
0.0
0
VERTEX
5
a8b
8
Layer1
10
292.2500
20
40.5000
30
0.0
0
VERTEX
5
a8c
8
Layer1
10
278.2500
20
40.5000
30
0.0
0
VERTEX
5
a8d
8
Layer1
10
278.2500
20
39.5000
30
0.0
0
VERTEX
5
a8e
8
Layer1
10
277.4500
20
39.5000
30
0.0
0
VERTEX
5
a8f
8
Layer1
10
277.4500
20
27.5000
30
0.0
0
VERTEX
5
a90
8
Layer1
10
278.2500
20
27.5000
30
0.0
0
VERTEX
5
a91
8
Layer1
10
278.2500
20
26.5000
30
0.0
0
VERTEX
5
a92
8
Layer1
10
292.2500
20
26.5000
30
0.0
0
VERTEX
5
a93
8
Layer1
10
292.2500
20
27.5000
30
0.0
0
SEQEND
5
a94
8
Layer1
0
POLYLINE
5
a95
8
Layer1
66
1
10
0.0
20
0.0
30
0.0
70
1
0
VERTEX
5
a96
8
Layer1
10
311.2500
20
27.5000
30
0.0
0
VERTEX
5
a97
8
Layer1
10
312.0500
20
27.5000
30
0.0
0
VERTEX
5
a98
8
Layer1
10
312.0500
20
39.5000
30
0.0
0
VERTEX
5
a99
8
Layer1
10
311.2500
20
39.5000
30
0.0
0
VERTEX
5
a9a
8
Layer1
10
311.2500
20
40.5000
30
0.0
0
VERTEX
5
a9b
8
Layer1
10
297.2500
20
40.5000
30
0.0
0
VERTEX
5
a9c
8
Layer1
10
297.2500
20
39.5000
30
0.0
0
VERTEX
5
a9d
8
Layer1
10
296.4500
20
39.5000
30
0.0
0
VERTEX
5
a9e
8
Layer1
10
296.4500
20
27.5000
30
0.0
0
VERTEX
5
a9f
8
Layer1
10
297.2500
20
27.5000
30
0.0
0
VERTEX
5
aa0
8
Layer1
10
297.2500
20
26.5000
30
0.0
0
VERTEX
5
aa1
8
Layer1
10
311.2500
20
26.5000
30
0.0
0
VERTEX
5
aa2
8
Layer1
10
311.2500
20
27.5000
30
0.0
0
SEQEND
5
aa3
8
Layer1
0
POLYLINE
5
aa4
8
Layer1
66
1
10
0.0
20
0.0
30
0.0
70
1
0
VERTEX
5
aa5
8
Layer1
10
337.3750
20
27.5000
30
0.0
0
VERTEX
5
aa6
8
Layer1
10
338.1750
20
27.5000
30
0.0
0
VERTEX
5
aa7
8
Layer1
10
338.1750
20
39.5000
30
0.0
0
VERTEX
5
aa8
8
Layer1
10
337.3750
20
39.5000
30
0.0
0
VERTEX
5
aa9
8
Layer1
10
337.3750
20
40.5000
30
0.0
0
VERTEX
5
aaa
8
Layer1
10
323.3750
20
40.5000
30
0.0
0
VERTEX
5
aab
8
Layer1
10
323.3750
20
39.5000
30
0.0
0
VERTEX
5
aac
8
Layer1
10
322.5750
20
39.5000
30
0.0
0
VERTEX
5
aad
8
Layer1
10
322.5750
20
27.5000
30
0.0
0
VERTEX
5
aae
8
Layer1
10
323.3750
20
27.5000
30
0.0
0
VERTEX
5
aaf
8
Layer1
10
323.3750
20
26.5000
30
0.0
0
VERTEX
5
ab0
8
Layer1
10
337.3750
20
26.5000
30
0.0
0
VERTEX
5
ab1
8
Layer1
10
337.3750
20
27.5000
30
0.0
0
SEQEND
5
ab2
8
Layer1
0
POLYLINE
5
ab3
8
Layer1
66
1
10
0.0
20
0.0
30
0.0
70
1
0
VERTEX
5
ab4
8
Layer1
10
363.5000
20
27.5000
30
0.0
0
VERTEX
5
ab5
8
Layer1
10
364.3000
20
27.5000
30
0.0
0
VERTEX
5
ab6
8
Layer1
10
364.3000
20
39.5000
30
0.0
0
VERTEX
5
ab7
8
Layer1
10
363.5000
20
39.5000
30
0.0
0
VERTEX
5
ab8
8
Layer1
10
363.5000
20
40.5000
30
0.0
0
VERTEX
5
ab9
8
Layer1
10
349.5000
20
40.5000
30
0.0
0
VERTEX
5
aba
8
Layer1
10
349.5000
20
39.5000
30
0.0
0
VERTEX
5
abb
8
Layer1
10
348.7000
20
39.5000
30
0.0
0
VERTEX
5
abc
8
Layer1
10
348.7000
20
27.5000
30
0.0
0
VERTEX
5
abd
8
Layer1
10
349.5000
20
27.5000
30
0.0
0
VERTEX
5
abe
8
Layer1
10
349.5000
20
26.5000
30
0.0
0
VERTEX
5
abf
8
Layer1
10
363.5000
20
26.5000
30
0.0
0
VERTEX
5
ac0
8
Layer1
10
363.5000
20
27.5000
30
0.0
0
SEQEND
5
ac1
8
Layer1
0
POLYLINE
5
ac2
8
Layer1
66
1
10
0.0
20
0.0
30
0.0
70
1
0
VERTEX
5
ac3
8
Layer1
10
382.5000
20
27.5000
30
0.0
0
VERTEX
5
ac4
8
Layer1
10
383.3000
20
27.5000
30
0.0
0
VERTEX
5
ac5
8
Layer1
10
383.3000
20
39.5000
30
0.0
0
VERTEX
5
ac6
8
Layer1
10
382.5000
20
39.5000
30
0.0
0
VERTEX
5
ac7
8
Layer1
10
382.5000
20
40.5000
30
0.0
0
VERTEX
5
ac8
8
Layer1
10
368.5000
20
40.5000
30
0.0
0
VERTEX
5
ac9
8
Layer1
10
368.5000
20
39.5000
30
0.0
0
VERTEX
5
aca
8
Layer1
10
367.7000
20
39.5000
30
0.0
0
VERTEX
5
acb
8
Layer1
10
367.7000
20
27.5000
30
0.0
0
VERTEX
5
acc
8
Layer1
10
368.5000
20
27.5000
30
0.0
0
VERTEX
5
acd
8
Layer1
10
368.5000
20
26.5000
30
0.0
0
VERTEX
5
ace
8
Layer1
10
382.5000
20
26.5000
30
0.0
0
VERTEX
5
acf
8
Layer1
10
382.5000
20
27.5000
30
0.0
0
SEQEND
5
ad0
8
Layer1
0
POLYLINE
5
ad1
8
Layer1
66
1
10
0.0
20
0.0
30
0.0
70
1
0
VERTEX
5
ad2
8
Layer1
10
40.5000
20
8.5000
30
0.0
0
VERTEX
5
ad3
8
Layer1
10
41.3000
20
8.5000
30
0.0
0
VERTEX
5
ad4
8
Layer1
10
41.3000
20
20.5000
30
0.0
0
VERTEX
5
ad5
8
Layer1
10
40.5000
20
20.5000
30
0.0
0
VERTEX
5
ad6
8
Layer1
10
40.5000
20
21.5000
30
0.0
0
VERTEX
5
ad7
8
Layer1
10
26.5000
20
21.5000
30
0.0
0
VERTEX
5
ad8
8
Layer1
10
26.5000
20
20.5000
30
0.0
0
VERTEX
5
ad9
8
Layer1
10
25.7000
20
20.5000
30
0.0
0
VERTEX
5
ada
8
Layer1
10
25.7000
20
8.5000
30
0.0
0
VERTEX
5
adb
8
Layer1
10
26.5000
20
8.5000
30
0.0
0
VERTEX
5
adc
8
Layer1
10
26.5000
20
7.5000
30
0.0
0
VERTEX
5
add
8
Layer1
10
40.5000
20
7.5000
30
0.0
0
VERTEX
5
ade
8
Layer1
10
40.5000
20
8.5000
30
0.0
0
SEQEND
5
adf
8
Layer1
0
POLYLINE
5
ae0
8
Layer1
66
1
10
0.0
20
0.0
30
0.0
70
1
0
VERTEX
5
ae1
8
Layer1
10
51.6000
20
7.7300
30
0.0
0
VERTEX
5
ae2
8
Layer1
10
53.4250
20
7.7300
30
0.0
0
VERTEX
5
ae3
8
Layer1
10
53.4250
20
8.5300
30
0.0
0
VERTEX
5
ae4
8
Layer1
10
54.2000
20
8.5300
30
0.0
0
VERTEX
5
ae5
8
Layer1
10
54.2000
20
8.5000
30
0.0
0
VERTEX
5
ae6
8
Layer1
10
55.0000
20
8.5000
30
0.0
0
VERTEX
5
ae7
8
Layer1
10
55.0000
20
7.5000
30
0.0
0
VERTEX
5
ae8
8
Layer1
10
69.0000
20
7.5000
30
0.0
0
VERTEX
5
ae9
8
Layer1
10
69.0000
20
8.5000
30
0.0
0
VERTEX
5
aea
8
Layer1
10
69.8000
20
8.5000
30
0.0
0
VERTEX
5
aeb
8
Layer1
10
69.8000
20
8.5300
30
0.0
0
VERTEX
5
aec
8
Layer1
10
70.5750
20
8.5300
30
0.0
0
VERTEX
5
aed
8
Layer1
10
70.5750
20
7.7300
30
0.0
0
VERTEX
5
aee
8
Layer1
10
72.4000
20
7.7300
30
0.0
0
VERTEX
5
aef
8
Layer1
10
72.4000
20
6.5300
30
0.0
0
VERTEX
5
af0
8
Layer1
10
75.4000
20
6.5300
30
0.0
0
VERTEX
5
af1
8
Layer1
10
75.4000
20
7.7300
30
0.0
0
VERTEX
5
af2
8
Layer1
10
77.2250
20
7.7300
30
0.0
0
VERTEX
5
af3
8
Layer1
10
77.2250
20
14.0000
30
0.0
0
VERTEX
5
af4
8
Layer1
10
78.1000
20
14.0000
30
0.0
0
VERTEX
5
af5
8
Layer1
10
78.1000
20
16.8000
30
0.0
0
VERTEX
5
af6
8
Layer1
10
77.2250
20
16.8000
30
0.0
0
VERTEX
5
af7
8
Layer1
10
77.2250
20
20.0300
30
0.0
0
VERTEX
5
af8
8
Layer1
10
70.5750
20
20.0300
30
0.0
0
VERTEX
5
af9
8
Layer1
10
70.5750
20
19.2300
30
0.0
0
VERTEX
5
afa
8
Layer1
10
69.8000
20
19.2300
30
0.0
0
VERTEX
5
afb
8
Layer1
10
69.8000
20
20.5000
30
0.0
0
VERTEX
5
afc
8
Layer1
10
69.0000
20
20.5000
30
0.0
0
VERTEX
5
afd
8
Layer1
10
69.0000
20
21.5000
30
0.0
0
VERTEX
5
afe
8
Layer1
10
55.0000
20
21.5000
30
0.0
0
VERTEX
5
aff
8
Layer1
10
55.0000
20
20.5000
30
0.0
0
VERTEX
5
b00
8
Layer1
10
54.2000
20
20.5000
30
0.0
0
VERTEX
5
b01
8
Layer1
10
54.2000
20
19.2300
30
0.0
0
VERTEX
5
b02
8
Layer1
10
53.4250
20
19.2300
30
0.0
0
VERTEX
5
b03
8
Layer1
10
53.4250
20
20.0300
30
0.0
0
VERTEX
5
b04
8
Layer1
10
46.7750
20
20.0300
30
0.0
0
VERTEX
5
b05
8
Layer1
10
46.7750
20
16.8000
30
0.0
0
VERTEX
5
b06
8
Layer1
10
45.9000
20
16.8000
30
0.0
0
VERTEX
5
b07
8
Layer1
10
45.9000
20
14.0000
30
0.0
0
VERTEX
5
b08
8
Layer1
10
46.7750
20
14.0000
30
0.0
0
VERTEX
5
b09
8
Layer1
10
46.7750
20
7.7300
30
0.0
0
VERTEX
5
b0a
8
Layer1
10
48.6000
20
7.7300
30
0.0
0
VERTEX
5
b0b
8
Layer1
10
48.6000
20
6.5300
30
0.0
0
VERTEX
5
b0c
8
Layer1
10
51.6000
20
6.5300
30
0.0
0
VERTEX
5
b0d
8
Layer1
10
51.6000
20
7.7300
30
0.0
0
SEQEND
5
b0e
8
Layer1
0
POLYLINE
5
b0f
8
Layer1
66
1
10
0.0
20
0.0
30
0.0
70
1
0
VERTEX
5
b10
8
Layer1
10
99.8750
20
8.5000
30
0.0
0
VERTEX
5
b11
8
Layer1
10
100.6750
20
8.5000
30
0.0
0
VERTEX
5
b12
8
Layer1
10
100.6750
20
20.5000
30
0.0
0
VERTEX
5
b13
8
Layer1
10
99.8750
20
20.5000
30
0.0
0
VERTEX
5
b14
8
Layer1
10
99.8750
20
21.5000
30
0.0
0
VERTEX
5
b15
8
Layer1
10
85.8750
20
21.5000
30
0.0
0
VERTEX
5
b16
8
Layer1
10
85.8750
20
20.5000
30
0.0
0
VERTEX
5
b17
8
Layer1
10
85.0750
20
20.5000
30
0.0
0
VERTEX
5
b18
8
Layer1
10
85.0750
20
8.5000
30
0.0
0
VERTEX
5
b19
8
Layer1
10
85.8750
20
8.5000
30
0.0
0
VERTEX
5
b1a
8
Layer1
10
85.8750
20
7.5000
30
0.0
0
VERTEX
5
b1b
8
Layer1
10
99.8750
20
7.5000
30
0.0
0
VERTEX
5
b1c
8
Layer1
10
99.8750
20
8.5000
30
0.0
0
SEQEND
5
b1d
8
Layer1
0
POLYLINE
5
b1e
8
Layer1
66
1
10
0.0
20
0.0
30
0.0
70
1
0
VERTEX
5
b1f
8
Layer1
10
123.6250
20
8.5000
30
0.0
0
VERTEX
5
b20
8
Layer1
10
124.4250
20
8.5000
30
0.0
0
VERTEX
5
b21
8
Layer1
10
124.4250
20
20.5000
30
0.0
0
VERTEX
5
b22
8
Layer1
10
123.6250
20
20.5000
30
0.0
0
VERTEX
5
b23
8
Layer1
10
123.6250
20
21.5000
30
0.0
0
VERTEX
5
b24
8
Layer1
10
109.6250
20
21.5000
30
0.0
0
VERTEX
5
b25
8
Layer1
10
109.6250
20
20.5000
30
0.0
0
VERTEX
5
b26
8
Layer1
10
108.8250
20
20.5000
30
0.0
0
VERTEX
5
b27
8
Layer1
10
108.8250
20
8.5000
30
0.0
0
VERTEX
5
b28
8
Layer1
10
109.6250
20
8.5000
30
0.0
0
VERTEX
5
b29
8
Layer1
10
109.6250
20
7.5000
30
0.0
0
VERTEX
5
b2a
8
Layer1
10
123.6250
20
7.5000
30
0.0
0
VERTEX
5
b2b
8
Layer1
10
123.6250
20
8.5000
30
0.0
0
SEQEND
5
b2c
8
Layer1
0
POLYLINE
5
b2d
8
Layer1
66
1
10
0.0
20
0.0
30
0.0
70
1
0
VERTEX
5
b2e
8
Layer1
10
147.3750
20
8.5000
30
0.0
0
VERTEX
5
b2f
8
Layer1
10
148.1750
20
8.5000
30
0.0
0
VERTEX
5
b30
8
Layer1
10
148.1750
20
20.5000
30
0.0
0
VERTEX
5
b31
8
Layer1
10
147.3750
20
20.5000
30
0.0
0
VERTEX
5
b32
8
Layer1
10
147.3750
20
21.5000
30
0.0
0
VERTEX
5
b33
8
Layer1
10
133.3750
20
21.5000
30
0.0
0
VERTEX
5
b34
8
Layer1
10
133.3750
20
20.5000
30
0.0
0
VERTEX
5
b35
8
Layer1
10
132.5750
20
20.5000
30
0.0
0
VERTEX
5
b36
8
Layer1
10
132.5750
20
8.5000
30
0.0
0
VERTEX
5
b37
8
Layer1
10
133.3750
20
8.5000
30
0.0
0
VERTEX
5
b38
8
Layer1
10
133.3750
20
7.5000
30
0.0
0
VERTEX
5
b39
8
Layer1
10
147.3750
20
7.5000
30
0.0
0
VERTEX
5
b3a
8
Layer1
10
147.3750
20
8.5000
30
0.0
0
SEQEND
5
b3b
8
Layer1
0
POLYLINE
5
b3c
8
Layer1
66
1
10
0.0
20
0.0
30
0.0
70
1
0
VERTEX
5
b3d
8
Layer1
10
163.1250
20
7.7300
30
0.0
0
VERTEX
5
b3e
8
Layer1
10
164.9500
20
7.7300
30
0.0
0
VERTEX
5
b3f
8
Layer1
10
164.9500
20
12.2000
30
0.0
0
VERTEX
5
b40
8
Layer1
10
203.8250
20
12.2000
30
0.0
0
VERTEX
5
b41
8
Layer1
10
203.8250
20
8.5000
30
0.0
0
VERTEX
5
b42
8
Layer1
10
204.6250
20
8.5000
30
0.0
0
VERTEX
5
b43
8
Layer1
10
204.6250
20
7.5000
30
0.0
0
VERTEX
5
b44
8
Layer1
10
218.6250
20
7.5000
30
0.0
0
VERTEX
5
b45
8
Layer1
10
218.6250
20
8.5000
30
0.0
0
VERTEX
5
b46
8
Layer1
10
219.4250
20
8.5000
30
0.0
0
VERTEX
5
b47
8
Layer1
10
219.4250
20
12.2000
30
0.0
0
VERTEX
5
b48
8
Layer1
10
258.3000
20
12.2000
30
0.0
0
VERTEX
5
b49
8
Layer1
10
258.3000
20
7.7300
30
0.0
0
VERTEX
5
b4a
8
Layer1
10
260.1250
20
7.7300
30
0.0
0
VERTEX
5
b4b
8
Layer1
10
260.1250
20
6.5300
30
0.0
0
VERTEX
5
b4c
8
Layer1
10
263.1250
20
6.5300
30
0.0
0
VERTEX
5
b4d
8
Layer1
10
263.1250
20
7.7300
30
0.0
0
VERTEX
5
b4e
8
Layer1
10
264.9500
20
7.7300
30
0.0
0
VERTEX
5
b4f
8
Layer1
10
264.9500
20
14.0000
30
0.0
0
VERTEX
5
b50
8
Layer1
10
265.8500
20
14.0000
30
0.0
0
VERTEX
5
b51
8
Layer1
10
265.8500
20
16.8000
30
0.0
0
VERTEX
5
b52
8
Layer1
10
264.9500
20
16.8000
30
0.0
0
VERTEX
5
b53
8
Layer1
10
264.9500
20
20.0300
30
0.0
0
VERTEX
5
b54
8
Layer1
10
258.3000
20
20.0300
30
0.0
0
VERTEX
5
b55
8
Layer1
10
258.3000
20
16.8000
30
0.0
0
VERTEX
5
b56
8
Layer1
10
219.4250
20
16.8000
30
0.0
0
VERTEX
5
b57
8
Layer1
10
219.4250
20
20.5000
30
0.0
0
VERTEX
5
b58
8
Layer1
10
218.6250
20
20.5000
30
0.0
0
VERTEX
5
b59
8
Layer1
10
218.6250
20
21.5000
30
0.0
0
VERTEX
5
b5a
8
Layer1
10
204.6250
20
21.5000
30
0.0
0
VERTEX
5
b5b
8
Layer1
10
204.6250
20
20.5000
30
0.0
0
VERTEX
5
b5c
8
Layer1
10
203.8250
20
20.5000
30
0.0
0
VERTEX
5
b5d
8
Layer1
10
203.8250
20
16.8000
30
0.0
0
VERTEX
5
b5e
8
Layer1
10
164.9500
20
16.8000
30
0.0
0
VERTEX
5
b5f
8
Layer1
10
164.9500
20
20.0300
30
0.0
0
VERTEX
5
b60
8
Layer1
10
158.3000
20
20.0300
30
0.0
0
VERTEX
5
b61
8
Layer1
10
158.3000
20
16.8000
30
0.0
0
VERTEX
5
b62
8
Layer1
10
157.4000
20
16.8000
30
0.0
0
VERTEX
5
b63
8
Layer1
10
157.4000
20
14.0000
30
0.0
0
VERTEX
5
b64
8
Layer1
10
158.3000
20
14.0000
30
0.0
0
VERTEX
5
b65
8
Layer1
10
158.3000
20
7.7300
30
0.0
0
VERTEX
5
b66
8
Layer1
10
160.1250
20
7.7300
30
0.0
0
VERTEX
5
b67
8
Layer1
10
160.1250
20
6.5300
30
0.0
0
VERTEX
5
b68
8
Layer1
10
163.1250
20
6.5300
30
0.0
0
VERTEX
5
b69
8
Layer1
10
163.1250
20
7.7300
30
0.0
0
SEQEND
5
b6a
8
Layer1
0
POLYLINE
5
b6b
8
Layer1
66
1
10
0.0
20
0.0
30
0.0
70
1
0
VERTEX
5
b6c
8
Layer1
10
289.8750
20
8.5000
30
0.0
0
VERTEX
5
b6d
8
Layer1
10
290.6750
20
8.5000
30
0.0
0
VERTEX
5
b6e
8
Layer1
10
290.6750
20
20.5000
30
0.0
0
VERTEX
5
b6f
8
Layer1
10
289.8750
20
20.5000
30
0.0
0
VERTEX
5
b70
8
Layer1
10
289.8750
20
21.5000
30
0.0
0
VERTEX
5
b71
8
Layer1
10
275.8750
20
21.5000
30
0.0
0
VERTEX
5
b72
8
Layer1
10
275.8750
20
20.5000
30
0.0
0
VERTEX
5
b73
8
Layer1
10
275.0750
20
20.5000
30
0.0
0
VERTEX
5
b74
8
Layer1
10
275.0750
20
8.5000
30
0.0
0
VERTEX
5
b75
8
Layer1
10
275.8750
20
8.5000
30
0.0
0
VERTEX
5
b76
8
Layer1
10
275.8750
20
7.5000
30
0.0
0
VERTEX
5
b77
8
Layer1
10
289.8750
20
7.5000
30
0.0
0
VERTEX
5
b78
8
Layer1
10
289.8750
20
8.5000
30
0.0
0
SEQEND
5
b79
8
Layer1
0
POLYLINE
5
b7a
8
Layer1
66
1
10
0.0
20
0.0
30
0.0
70
1
0
VERTEX
5
b7b
8
Layer1
10
313.6250
20
8.5000
30
0.0
0
VERTEX
5
b7c
8
Layer1
10
314.4250
20
8.5000
30
0.0
0
VERTEX
5
b7d
8
Layer1
10
314.4250
20
20.5000
30
0.0
0
VERTEX
5
b7e
8
Layer1
10
313.6250
20
20.5000
30
0.0
0
VERTEX
5
b7f
8
Layer1
10
313.6250
20
21.5000
30
0.0
0
VERTEX
5
b80
8
Layer1
10
299.6250
20
21.5000
30
0.0
0
VERTEX
5
b81
8
Layer1
10
299.6250
20
20.5000
30
0.0
0
VERTEX
5
b82
8
Layer1
10
298.8250
20
20.5000
30
0.0
0
VERTEX
5
b83
8
Layer1
10
298.8250
20
8.5000
30
0.0
0
VERTEX
5
b84
8
Layer1
10
299.6250
20
8.5000
30
0.0
0
VERTEX
5
b85
8
Layer1
10
299.6250
20
7.5000
30
0.0
0
VERTEX
5
b86
8
Layer1
10
313.6250
20
7.5000
30
0.0
0
VERTEX
5
b87
8
Layer1
10
313.6250
20
8.5000
30
0.0
0
SEQEND
5
b88
8
Layer1
0
POLYLINE
5
b89
8
Layer1
66
1
10
0.0
20
0.0
30
0.0
70
1
0
VERTEX
5
b8a
8
Layer1
10
344.5000
20
8.5000
30
0.0
0
VERTEX
5
b8b
8
Layer1
10
345.3000
20
8.5000
30
0.0
0
VERTEX
5
b8c
8
Layer1
10
345.3000
20
20.5000
30
0.0
0
VERTEX
5
b8d
8
Layer1
10
344.5000
20
20.5000
30
0.0
0
VERTEX
5
b8e
8
Layer1
10
344.5000
20
21.5000
30
0.0
0
VERTEX
5
b8f
8
Layer1
10
330.5000
20
21.5000
30
0.0
0
VERTEX
5
b90
8
Layer1
10
330.5000
20
20.5000
30
0.0
0
VERTEX
5
b91
8
Layer1
10
329.7000
20
20.5000
30
0.0
0
VERTEX
5
b92
8
Layer1
10
329.7000
20
8.5000
30
0.0
0
VERTEX
5
b93
8
Layer1
10
330.5000
20
8.5000
30
0.0
0
VERTEX
5
b94
8
Layer1
10
330.5000
20
7.5000
30
0.0
0
VERTEX
5
b95
8
Layer1
10
344.5000
20
7.5000
30
0.0
0
VERTEX
5
b96
8
Layer1
10
344.5000
20
8.5000
30
0.0
0
SEQEND
5
b97
8
Layer1
0
POLYLINE
5
b98
8
Layer1
66
1
10
0.0
20
0.0
30
0.0
70
1
0
VERTEX
5
b99
8
Layer1
10
363.5000
20
8.5000
30
0.0
0
VERTEX
5
b9a
8
Layer1
10
364.3000
20
8.5000
30
0.0
0
VERTEX
5
b9b
8
Layer1
10
364.3000
20
20.5000
30
0.0
0
VERTEX
5
b9c
8
Layer1
10
363.5000
20
20.5000
30
0.0
0
VERTEX
5
b9d
8
Layer1
10
363.5000
20
21.5000
30
0.0
0
VERTEX
5
b9e
8
Layer1
10
349.5000
20
21.5000
30
0.0
0
VERTEX
5
b9f
8
Layer1
10
349.5000
20
20.5000
30
0.0
0
VERTEX
5
ba0
8
Layer1
10
348.7000
20
20.5000
30
0.0
0
VERTEX
5
ba1
8
Layer1
10
348.7000
20
8.5000
30
0.0
0
VERTEX
5
ba2
8
Layer1
10
349.5000
20
8.5000
30
0.0
0
VERTEX
5
ba3
8
Layer1
10
349.5000
20
7.5000
30
0.0
0
VERTEX
5
ba4
8
Layer1
10
363.5000
20
7.5000
30
0.0
0
VERTEX
5
ba5
8
Layer1
10
363.5000
20
8.5000
30
0.0
0
SEQEND
5
ba6
8
Layer1
0
POLYLINE
5
ba7
8
Layer1
66
1
10
0.0
20
0.0
30
0.0
70
1
0
VERTEX
5
ba8
8
Layer1
10
382.5000
20
8.5000
30
0.0
0
VERTEX
5
ba9
8
Layer1
10
383.3000
20
8.5000
30
0.0
0
VERTEX
5
baa
8
Layer1
10
383.3000
20
20.5000
30
0.0
0
VERTEX
5
bab
8
Layer1
10
382.5000
20
20.5000
30
0.0
0
VERTEX
5
bac
8
Layer1
10
382.5000
20
21.5000
30
0.0
0
VERTEX
5
bad
8
Layer1
10
368.5000
20
21.5000
30
0.0
0
VERTEX
5
bae
8
Layer1
10
368.5000
20
20.5000
30
0.0
0
VERTEX
5
baf
8
Layer1
10
367.7000
20
20.5000
30
0.0
0
VERTEX
5
bb0
8
Layer1
10
367.7000
20
8.5000
30
0.0
0
VERTEX
5
bb1
8
Layer1
10
368.5000
20
8.5000
30
0.0
0
VERTEX
5
bb2
8
Layer1
10
368.5000
20
7.5000
30
0.0
0
VERTEX
5
bb3
8
Layer1
10
382.5000
20
7.5000
30
0.0
0
VERTEX
5
bb4
8
Layer1
10
382.5000
20
8.5000
30
0.0
0
SEQEND
5
bb5
8
Layer1
0
ENDSEC
0
EOF
