  0
SECTION
  2
HEADER
  9
$ACADVER
  1
AC1032
  9
$ACADMAINTVER
 90
      112
  9
$DWGCODEPAGE
  3
ANSI_1252
  9
$LASTSAVEDBY
  1
jgwesterfield
  9
$REQUIREDVERSIONS
160
                 0
  9
$INSBASE
 10
0.0
 20
0.0
 30
0.0
  9
$EXTMIN
 10
-9.524999999999939
 20
0.0
 30
0.0
  9
$EXTMAX
 10
394.0
 20
121.18
 30
0.0
  9
$LIMMIN
 10
0.0
 20
0.0
  9
$LIMMAX
 10
12.0
 20
9.0
  9
$ORTHOMODE
 70
     0
  9
$REGENMODE
 70
     1
  9
$FILLMODE
 70
     1
  9
$QTEXTMODE
 70
     0
  9
$MIRRTEXT
 70
     0
  9
$LTSCALE
 40
0.0393700787401575
  9
$ATTMODE
 70
     1
  9
$TEXTSIZE
 40
0.0078740157480315
  9
$TRACEWID
 40
0.05
  9
$TEXTSTYLE
  7
Standard
  9
$CLAYER
  8
0
  9
$CELTYPE
  6
CONTINUOUS
  9
$CECOLOR
 62
   256
  9
$CELTSCALE
 40
1.0
  9
$DISPSILH
 70
     0
  9
$DIMSCALE
 40
1.0
  9
$DIMASZ
 40
0.0070866141732283
  9
$DIMEXO
 40
0.0024606299212598
  9
$DIMDLI
 40
0.0149606299212599
  9
$DIMRND
 40
0.0
  9
$DIMDLE
 40
0.0
  9
$DIMEXE
 40
0.0070866141732283
  9
$DIMTP
 40
0.0
  9
$DIMTM
 40
0.0
  9
$DIMTXT
 40
0.0070866141732283
  9
$DIMCEN
 40
0.0035433070866142
  9
$DIMTSZ
 40
0.0
  9
$DIMTOL
 70
     0
  9
$DIMLIM
 70
     0
  9
$DIMTIH
 70
     1
  9
$DIMTOH
 70
     1
  9
$DIMSE1
 70
     0
  9
$DIMSE2
 70
     0
  9
$DIMTAD
 70
     0
  9
$DIMZIN
 70
     0
  9
$DIMBLK
  1

  9
$DIMASO
 70
     1
  9
$DIMSHO
 70
     1
  9
$DIMPOST
  1

  9
$DIMAPOST
  1

  9
$DIMALT
 70
     0
  9
$DIMALTD
 70
     2
  9
$DIMALTF
 40
0.9999999999999998
  9
$DIMLFAC
 40
1.0
  9
$DIMTOFL
 70
     0
  9
$DIMTVP
 40
0.0
  9
$DIMTIX
 70
     0
  9
$DIMSOXD
 70
     0
  9
$DIMSAH
 70
     0
  9
$DIMBLK1
  1

  9
$DIMBLK2
  1

  9
$DIMSTYLE
  2
Standard
  9
$DIMCLRD
 70
     0
  9
$DIMCLRE
 70
     0
  9
$DIMCLRT
 70
     0
  9
$DIMTFAC
 40
1.0
  9
$DIMGAP
 40
0.0035433070866142
  9
$DIMJUST
 70
     0
  9
$DIMSD1
 70
     0
  9
$DIMSD2
 70
     0
  9
$DIMTOLJ
 70
     1
  9
$DIMTZIN
 70
     0
  9
$DIMALTZ
 70
     0
  9
$DIMALTTZ
 70
     0
  9
$DIMUPT
 70
     0
  9
$DIMDEC
 70
     4
  9
$DIMTDEC
 70
     4
  9
$DIMALTU
 70
     2
  9
$DIMALTTD
 70
     2
  9
$DIMTXSTY
  7
Standard
  9
$DIMAUNIT
 70
     0
  9
$DIMADEC
 70
     0
  9
$DIMALTRND
 40
0.0
  9
$DIMAZIN
 70
     0
  9
$DIMDSEP
 70
    46
  9
$DIMATFIT
 70
     3
  9
$DIMFRAC
 70
     0
  9
$DIMLDRBLK
  1

  9
$DIMLUNIT
 70
     2
  9
$DIMLWD
 70
    -2
  9
$DIMLWE
 70
    -2
  9
$DIMTMOVE
 70
     0
  9
$DIMFXL
 40
0.0393700787401575
  9
$DIMFXLON
 70
     0
  9
$DIMJOGANG
 40
0.7853981633974483
  9
$DIMTFILL
 70
     0
  9
$DIMTFILLCLR
 70
     0
  9
$DIMARCSYM
 70
     0
  9
$DIMLTYPE
  6

  9
$DIMLTEX1
  6

  9
$DIMLTEX2
  6

  9
$DIMTXTDIRECTION
 70
     0
  9
$LUNITS
 70
     2
  9
$LUPREC
 70
     4
  9
$SKETCHINC
 40
0.1
  9
$FILLETRAD
 40
0.0
  9
$AUNITS
 70
     0
  9
$AUPREC
 70
     2
  9
$MENU
  1
.
  9
$ELEVATION
 40
0.0
  9
$PELEVATION
 40
0.0
  9
$THICKNESS
 40
0.0
  9
$LIMCHECK
 70
     0
  9
$CHAMFERA
 40
0.0
  9
$CHAMFERB
 40
0.0
  9
$CHAMFERC
 40
0.0
  9
$CHAMFERD
 40
0.0
  9
$SKPOLY
 70
     0
  9
$TDCREATE
 40
2458806.645486112
  9
$TDUCREATE
 40
2458806.895486111
  9
$TDUPDATE
 40
2458806.648020833
  9
$TDUUPDATE
 40
2458806.898020833
  9
$TDINDWG
 40
0.0025347222
  9
$TDUSRTIMER
 40
0.0025347222
  9
$USRTIMER
 70
     1
  9
$ANGBASE
 50
0.0
  9
$ANGDIR
 70
     0
  9
$PDMODE
 70
     0
  9
$PDSIZE
 40
0.0
  9
$PLINEWID
 40
0.0
  9
$SPLFRAME
 70
     0
  9
$SPLINETYPE
 70
     6
  9
$SPLINESEGS
 70
     8
  9
$HANDSEED
  5
6FB
  9
$SURFTAB1
 70
     6
  9
$SURFTAB2
 70
     6
  9
$SURFTYPE
 70
     6
  9
$SURFU
 70
     6
  9
$SURFV
 70
     6
  9
$UCSBASE
  2

  9
$UCSNAME
  2

  9
$UCSORG
 10
0.0
 20
0.0
 30
0.0
  9
$UCSXDIR
 10
1.0
 20
0.0
 30
0.0
  9
$UCSYDIR
 10
0.0
 20
1.0
 30
0.0
  9
$UCSORTHOREF
  2

  9
$UCSORTHOVIEW
 70
     0
  9
$UCSORGTOP
 10
0.0
 20
0.0
 30
0.0
  9
$UCSORGBOTTOM
 10
0.0
 20
0.0
 30
0.0
  9
$UCSORGLEFT
 10
0.0
 20
0.0
 30
0.0
  9
$UCSORGRIGHT
 10
0.0
 20
0.0
 30
0.0
  9
$UCSORGFRONT
 10
0.0
 20
0.0
 30
0.0
  9
$UCSORGBACK
 10
0.0
 20
0.0
 30
0.0
  9
$PUCSBASE
  2

  9
$PUCSNAME
  2

  9
$PUCSORG
 10
0.0
 20
0.0
 30
0.0
  9
$PUCSXDIR
 10
1.0
 20
0.0
 30
0.0
  9
$PUCSYDIR
 10
0.0
 20
1.0
 30
0.0
  9
$PUCSORTHOREF
  2

  9
$PUCSORTHOVIEW
 70
     0
  9
$PUCSORGTOP
 10
0.0
 20
0.0
 30
0.0
  9
$PUCSORGBOTTOM
 10
0.0
 20
0.0
 30
0.0
  9
$PUCSORGLEFT
 10
0.0
 20
0.0
 30
0.0
  9
$PUCSORGRIGHT
 10
0.0
 20
0.0
 30
0.0
  9
$PUCSORGFRONT
 10
0.0
 20
0.0
 30
0.0
  9
$PUCSORGBACK
 10
0.0
 20
0.0
 30
0.0
  9
$USERI1
 70
     0
  9
$USERI2
 70
     0
  9
$USERI3
 70
     0
  9
$USERI4
 70
     0
  9
$USERI5
 70
     0
  9
$USERR1
 40
0.0
  9
$USERR2
 40
0.0
  9
$USERR3
 40
0.0
  9
$USERR4
 40
0.0
  9
$USERR5
 40
0.0
  9
$WORLDVIEW
 70
     1
  9
$SHADEDGE
 70
     3
  9
$SHADEDIF
 70
    70
  9
$TILEMODE
 70
     1
  9
$MAXACTVP
 70
    64
  9
$PINSBASE
 10
0.0
 20
0.0
 30
0.0
  9
$PLIMCHECK
 70
     0
  9
$PEXTMIN
 10
1.000000000000000E+20
 20
1.000000000000000E+20
 30
1.000000000000000E+20
  9
$PEXTMAX
 10
-1.000000000000000E+20
 20
-1.000000000000000E+20
 30
-1.000000000000000E+20
  9
$PLIMMIN
 10
0.0
 20
0.0
  9
$PLIMMAX
 10
12.0
 20
9.0
  9
$UNITMODE
 70
     0
  9
$VISRETAIN
 70
     1
  9
$PLINEGEN
 70
     0
  9
$PSLTSCALE
 70
     1
  9
$TREEDEPTH
 70
  3020
  9
$CMLSTYLE
  2
Standard
  9
$CMLJUST
 70
     0
  9
$CMLSCALE
 40
1.0
  9
$PROXYGRAPHICS
 70
     1
  9
$MEASUREMENT
 70
     0
  9
$CELWEIGHT
370
    -1
  9
$ENDCAPS
280
     0
  9
$JOINSTYLE
280
     0
  9
$LWDISPLAY
290
     0
  9
$INSUNITS
 70
     1
  9
$HYPERLINKBASE
  1

  9
$STYLESHEET
  1

  9
$XEDIT
290
     1
  9
$CEPSNTYPE
380
     0
  9
$PSTYLEMODE
290
     1
  9
$FINGERPRINTGUID
  2
{D40B0098-C84D-7A4C-946E-1BE9764984FE}
  9
$VERSIONGUID
  2
{3B64757B-3D2A-0C47-8778-259C3E139950}
  9
$EXTNAMES
290
     1
  9
$PSVPSCALE
 40
0.0
  9
$OLESTARTUP
290
     0
  9
$SORTENTS
280
   127
  9
$INDEXCTL
280
     0
  9
$HIDETEXT
280
     0
  9
$XCLIPFRAME
280
     2
  9
$HALOGAP
280
     0
  9
$OBSCOLOR
 70
   257
  9
$OBSLTYPE
280
     0
  9
$INTERSECTIONDISPLAY
280
     0
  9
$INTERSECTIONCOLOR
 70
   257
  9
$DIMASSOC
280
     1
  9
$PROJECTNAME
  1

  9
$CAMERADISPLAY
290
     0
  9
$LENSLENGTH
 40
50.0
  9
$CAMERAHEIGHT
 40
0.0
  9
$STEPSPERSEC
 40
2.0
  9
$STEPSIZE
 40
6.0
  9
$3DDWFPREC
 40
2.0
  9
$PSOLWIDTH
 40
0.25
  9
$PSOLHEIGHT
 40
4.0
  9
$LOFTANG1
 40
1.570796326794896
  9
$LOFTANG2
 40
1.570796326794896
  9
$LOFTMAG1
 40
0.0
  9
$LOFTMAG2
 40
0.0
  9
$LOFTPARAM
 70
     7
  9
$LOFTNORMALS
280
     1
  9
$LATITUDE
 40
37.795
  9
$LONGITUDE
 40
-122.394
  9
$NORTHDIRECTION
 40
0.0
  9
$TIMEZONE
 70
 -8000
  9
$LIGHTGLYPHDISPLAY
280
     1
  9
$TILEMODELIGHTSYNCH
280
     1
  9
$CMATERIAL
347
11
  9
$SOLIDHIST
280
     0
  9
$SHOWHIST
280
     1
  9
$DWFFRAME
280
     2
  9
$DGNFRAME
280
     0
  9
$REALWORLDSCALE
290
     1
  9
$INTERFERECOLOR
 62
     1
  9
$INTERFEREOBJVS
345
33
  9
$INTERFEREVPVS
346
30
  9
$CSHADOW
280
     0
  9
$SHADOWPLANELOCATION
 40
0.0
  0
ENDSEC
  0
SECTION
  2
CLASSES
  0
CLASS
  1
ACDBDICTIONARYWDFLT
  2
AcDbDictionaryWithDefault
  3
ObjectDBX Classes
 90
        0
 91
        1
280
     0
281
     0
  0
CLASS
  1
MATERIAL
  2
AcDbMaterial
  3
ObjectDBX Classes
 90
     1153
 91
        3
280
     0
281
     0
  0
CLASS
  1
VISUALSTYLE
  2
AcDbVisualStyle
  3
ObjectDBX Classes
 90
     4095
 91
       24
280
     0
281
     0
  0
CLASS
  1
SCALE
  2
AcDbScale
  3
ObjectDBX Classes
 90
     1153
 91
       17
280
     0
281
     0
  0
CLASS
  1
TABLESTYLE
  2
AcDbTableStyle
  3
ObjectDBX Classes
 90
     4095
 91
        1
280
     0
281
     0
  0
CLASS
  1
MLEADERSTYLE
  2
AcDbMLeaderStyle
  3
ACDB_MLEADERSTYLE_CLASS
 90
     4095
 91
        1
280
     0
281
     0
  0
CLASS
  1
ACDBSECTIONVIEWSTYLE
  2
AcDbSectionViewStyle
  3
ObjectDBX Classes
 90
     1025
 91
        1
280
     0
281
     0
  0
CLASS
  1
ACDBDETAILVIEWSTYLE
  2
AcDbDetailViewStyle
  3
ObjectDBX Classes
 90
     1025
 91
        1
280
     0
281
     0
  0
CLASS
  1
AEC_VARS_DWG_SETUP
  2
AecDbVarsDwgSetup
  3
AecBase80|Product Desc: Autodesk Architectural Desktop 2007 |Company: Autodesk,Inc. |WEB Address: www.autodesk.com
 90
      129
 91
        1
280
     0
281
     0
  0
CLASS
  1
AEC_NOTIFICATION_TRACKER
  2
AecDbNotificationTracker
  3
AecBase80|Product Desc: Autodesk Architectural Desktop 2007 |Company: Autodesk,Inc. |WEB Address: www.autodesk.com
 90
      129
 91
        1
280
     0
281
     0
  0
CLASS
  1
NPOCOLLECTION
  2
AcDbImpNonPersistentObjectsCollection
  3
ObjectDBX Classes
 90
     1153
 91
        1
280
     0
281
     0
  0
CLASS
  1
DICTIONARYVAR
  2
AcDbDictionaryVar
  3
ObjectDBX Classes
 90
        0
 91
        9
280
     0
281
     0
  0
CLASS
  1
CELLSTYLEMAP
  2
AcDbCellStyleMap
  3
ObjectDBX Classes
 90
     1152
 91
        1
280
     0
281
     0
  0
ENDSEC
  0
SECTION
  2
TABLES
  0
TABLE
  2
VPORT
  5
8
330
0
100
AcDbSymbolTable
 70
     1
  0
VPORT
  5
75
330
8
100
AcDbSymbolTableRecord
100
AcDbViewportTableRecord
  2
*Active
 70
     0
 10
0.0
 20
0.0
 11
1.0
 21
1.0
 12
7.867960218682807
 22
0.932023856973899
 13
0.0
 23
0.0
 14
1.0
 24
1.0
 15
0.0
 25
0.0
 16
0.0
 26
0.0
 36
1.0
 17
0.0
 27
0.0
 37
0.0
 40
10.70274599500874
 41
1.569037656903765
 42
50.0
 43
0.0
 44
0.0
 50
0.0
 51
0.0
 71
     0
 72
   100
 73
     1
 74
     0
 75
     1
 76
     0
 77
     0
 78
     0
281
     0
 65
     1
110
0.0
120
0.0
130
0.0
111
1.0
121
0.0
131
0.0
112
0.0
122
1.0
132
0.0
 79
     0
146
0.0
348
2F
 60
     3
 61
     5
292
     1
282
     1
141
0.0
142
0.0
 63
   250
421
  3355443
1001
ACAD_NAV_VCDISPLAY
1070
     3
  0
ENDTAB
  0
TABLE
  2
LTYPE
  5
5
330
0
100
AcDbSymbolTable
 70
     1
  0
LTYPE
  5
5A
330
5
100
AcDbSymbolTableRecord
100
AcDbLinetypeTableRecord
  2
ByBlock
 70
     0
  3

 72
    65
 73
     0
 40
0.0
  0
LTYPE
  5
5B
330
5
100
AcDbSymbolTableRecord
100
AcDbLinetypeTableRecord
  2
ByLayer
 70
     0
  3

 72
    65
 73
     0
 40
0.0
  0
LTYPE
  5
5C
330
5
100
AcDbSymbolTableRecord
100
AcDbLinetypeTableRecord
  2
CONTINUOUS
 70
     0
  3
Solid line
 72
    65
 73
     0
 40
0.0
  0
ENDTAB
  0
TABLE
  2
LAYER
  5
2
102
{ACAD_XDICTIONARY
360
6E7
102
}
330
0
100
AcDbSymbolTable
 70
     3
  0
LAYER
  5
54
102
{ACAD_XDICTIONARY
360
6E0
102
}
330
2
100
AcDbSymbolTableRecord
100
AcDbLayerTableRecord
  2
0
 70
     0
 62
     7
  6
CONTINUOUS
370
    -3
390
F
347
21
348
0
  0
LAYER
  5
73
102
{ACAD_XDICTIONARY
360
6E2
102
}
330
2
100
AcDbSymbolTableRecord
100
AcDbLayerTableRecord
  2
LAYER1
 70
     0
 62
     7
  6
CONTINUOUS
370
    -3
390
F
347
21
348
0
  0
LAYER
  5
684
330
2
100
AcDbSymbolTableRecord
100
AcDbLayerTableRecord
  2
Defpoints
 70
     0
 62
     7
  6
CONTINUOUS
290
     0
370
    -3
390
F
347
21
348
0
  0
ENDTAB
  0
TABLE
  2
STYLE
  5
3
330
0
100
AcDbSymbolTable
 70
     2
  0
STYLE
  5
55
330
3
100
AcDbSymbolTableRecord
100
AcDbTextStyleTableRecord
  2
Standard
 70
     0
 40
0.0
 41
1.0
 50
0.0
 71
     0
 42
0.0078740157480315
  3
txt
  4

  0
STYLE
  5
59
330
3
100
AcDbSymbolTableRecord
100
AcDbTextStyleTableRecord
  2
Annotative
 70
     0
 40
0.0
 41
1.0
 50
0.0
 71
     0
 42
0.0078740157480315
  3
txt
  4

1001
AcadAnnotative
1000
AnnotativeData
1002
{
1070
     1
1070
     1
1002
}
  0
ENDTAB
  0
TABLE
  2
VIEW
  5
6
330
0
100
AcDbSymbolTable
 70
     1
  0
ENDTAB
  0
TABLE
  2
UCS
  5
7
330
0
100
AcDbSymbolTable
 70
     0
  0
ENDTAB
  0
TABLE
  2
APPID
  5
9
330
0
100
AcDbSymbolTable
 70
     3
  0
APPID
  5
56
330
9
100
AcDbSymbolTableRecord
100
AcDbRegAppTableRecord
  2
ACAD
 70
     0
  0
APPID
  5
5D
330
9
100
AcDbSymbolTableRecord
100
AcDbRegAppTableRecord
  2
AcadAnnotative
 70
     0
  0
APPID
  5
6F7
330
9
100
AcDbSymbolTableRecord
100
AcDbRegAppTableRecord
  2
ACAD_NAV_VCDISPLAY
 70
     0
  0
ENDTAB
  0
TABLE
  2
DIMSTYLE
  5
A
330
0
100
AcDbSymbolTable
 70
     2
100
AcDbDimStyleTable
 71
     1
340
57
  0
DIMSTYLE
105
57
102
{ACAD_REACTORS
330
683
330
692
102
}
330
A
100
AcDbSymbolTableRecord
100
AcDbDimStyleTableRecord
  2
Standard
 70
     0
 41
0.0070866141732283
 42
0.0024606299212598
 43
0.0149606299212599
 44
0.0070866141732283
 49
0.0393700787401575
140
0.0070866141732283
141
0.0035433070866142
143
0.9999999999999998
147
0.0035433070866142
340
55
  0
DIMSTYLE
105
58
330
A
100
AcDbSymbolTableRecord
100
AcDbDimStyleTableRecord
  2
Annotative
 70
     0
 41
0.0070866141732283
 42
0.0024606299212598
 43
0.0149606299212599
 44
0.0070866141732283
 49
0.0393700787401575
140
0.0070866141732283
141
0.0035433070866142
143
0.9999999999999998
147
0.0035433070866142
340
55
1001
AcadAnnotative
1000
AnnotativeData
1002
{
1070
     1
1070
     1
1002
}
  0
ENDTAB
  0
TABLE
  2
BLOCK_RECORD
  5
1
330
0
100
AcDbSymbolTable
 70
     2
  0
BLOCK_RECORD
  5
6F
330
1
100
AcDbSymbolTableRecord
100
AcDbBlockTableRecord
  2
*Model_Space
340
72
 70
     0
280
     1
281
     0
  0
BLOCK_RECORD
  5
6B
330
1
100
AcDbSymbolTableRecord
100
AcDbBlockTableRecord
  2
*Paper_Space
340
6E
 70
     0
280
     1
281
     0
  0
BLOCK_RECORD
  5
685
330
1
100
AcDbSymbolTableRecord
100
AcDbBlockTableRecord
  2
*D0
340
0
 70
     0
280
     1
281
     0
  0
BLOCK_RECORD
  5
693
330
1
100
AcDbSymbolTableRecord
100
AcDbBlockTableRecord
  2
*D1
340
0
 70
     0
280
     1
281
     0
  0
ENDTAB
  0
ENDSEC
  0
SECTION
  2
BLOCKS
  0
BLOCK
  5
70
330
6F
100
AcDbEntity
  8
0
100
AcDbBlockBegin
  2
*Model_Space
 70
     0
 10
0.0
 20
0.0
 30
0.0
  3
*Model_Space
  1

  0
ENDBLK
  5
71
330
6F
100
AcDbEntity
  8
0
100
AcDbBlockEnd
  0
BLOCK
  5
6C
330
6B
100
AcDbEntity
 67
     1
  8
0
100
AcDbBlockBegin
  2
*Paper_Space
 70
     0
 10
0.0
 20
0.0
 30
0.0
  3
*Paper_Space
  1

  0
ENDBLK
  5
6D
330
6B
100
AcDbEntity
 67
     1
  8
0
100
AcDbBlockEnd
  0
BLOCK
  5
686
330
685
100
AcDbEntity
  8
0
100
AcDbBlockBegin
  2
*D0
 70
     1
 10
0.0
 20
0.0
 30
0.0
  3
*D0
  1

  0
LINE
  5
6CC
330
685
100
AcDbEntity
  8
0
  6
Continuous
 62
     0
440
 16777216
370
    -2
100
AcDbLine
 10
0.0
 20
4.37253937007874
 30
0.0
 11
0.0
 21
4.770866141732282
 31
0.0
  0
LINE
  5
6CD
330
685
100
AcDbEntity
  8
0
  6
Continuous
 62
     0
440
 16777216
370
    -2
100
AcDbLine
 10
15.51181102362204
 20
4.37253937007874
 30
0.0
 11
15.51181102362204
 21
4.770866141732282
 31
0.0
  0
LINE
  5
6CE
330
685
100
AcDbEntity
  8
0
  6
Continuous
 62
     0
440
 16777216
370
    -2
100
AcDbLine
 10
0.0070866141732284
 20
4.763779527559054
 30
0.0
 11
7.734645669291338
 21
4.763779527559054
 31
0.0
  0
LINE
  5
6CF
330
685
100
AcDbEntity
  8
0
  6
Continuous
 62
     0
440
 16777216
370
    -2
100
AcDbLine
 10
15.50472440944882
 20
4.763779527559054
 30
0.0
 11
7.777165354330707
 21
4.763779527559054
 31
0.0
  0
SOLID
  5
6D0
330
685
100
AcDbEntity
  8
0
  6
Continuous
 62
     0
440
 16777216
100
AcDbTrace
 10
0.0070866141732284
 20
4.764960629921259
 30
0.0
 11
0.0070866141732284
 21
4.762598425196849
 31
0.0
 12
0.0
 22
4.763779527559054
 32
0.0
 13
0.0
 23
4.763779527559054
 33
0.0
  0
SOLID
  5
6D1
330
685
100
AcDbEntity
  8
0
  6
Continuous
 62
     0
440
 16777216
100
AcDbTrace
 10
15.50472440944882
 20
4.764960629921259
 30
0.0
 11
15.50472440944882
 21
4.762598425196849
 31
0.0
 12
15.51181102362204
 22
4.763779527559054
 32
0.0
 13
15.51181102362204
 23
4.763779527559054
 33
0.0
  0
MTEXT
  5
6D2
330
685
100
AcDbEntity
  8
0
  6
Continuous
 62
     0
440
 16777216
100
AcDbMText
 10
7.755905511811023
 20
4.763779527559054
 30
0.0
 40
0.0070866141732283
 41
0.0
 46
0.0
 71
     5
 72
     1
  1
\A1;15.5118
 73
     1
 44
1.0
  0
POINT
  5
6D3
330
685
100
AcDbEntity
  8
Defpoints
  6
Continuous
 62
     0
440
 16777216
100
AcDbPoint
 10
0.0
 20
4.37007874015748
 30
0.0
  0
POINT
  5
6D4
330
685
100
AcDbEntity
  8
Defpoints
  6
Continuous
 62
     0
440
 16777216
100
AcDbPoint
 10
15.51181102362204
 20
4.37007874015748
 30
0.0
  0
POINT
  5
6D5
330
685
100
AcDbEntity
  8
Defpoints
  6
Continuous
 62
     0
440
 16777216
100
AcDbPoint
 10
15.51181102362204
 20
4.763779527559054
 30
0.0
  0
ENDBLK
  5
687
330
685
100
AcDbEntity
  8
0
100
AcDbBlockEnd
  0
BLOCK
  5
694
330
693
100
AcDbEntity
  8
0
100
AcDbBlockBegin
  2
*D1
 70
     1
 10
0.0
 20
0.0
 30
0.0
  3
*D1
  1

  0
LINE
  5
6D6
330
693
100
AcDbEntity
  8
0
  6
Continuous
 62
     0
440
 16777216
370
    -2
100
AcDbLine
 10
-0.0024606299212598
 20
4.291338582677165
 30
0.0
 11
-0.3614173228346425
 21
4.291338582677165
 31
0.0
  0
LINE
  5
6D7
330
693
100
AcDbEntity
  8
0
  6
Continuous
 62
     0
440
 16777216
370
    -2
100
AcDbLine
 10
-0.0024606299212598
 20
0.0
 30
0.0
 11
-0.3614173228346434
 21
0.0000000000000001
 31
0.0
  0
LINE
  5
6D8
330
693
100
AcDbEntity
  8
0
  6
Continuous
 62
     0
440
 16777216
370
    -2
100
AcDbLine
 10
-0.3543307086614141
 20
4.284251968503937
 30
0.0
 11
-0.3543307086614146
 21
2.152755905511811
 31
0.0
  0
LINE
  5
6D9
330
693
100
AcDbEntity
  8
0
  6
Continuous
 62
     0
440
 16777216
370
    -2
100
AcDbLine
 10
-0.3543307086614151
 20
0.0070866141732284
 30
0.0
 11
-0.3543307086614146
 21
2.138582677165354
 31
0.0
  0
SOLID
  5
6DA
330
693
100
AcDbEntity
  8
0
  6
Continuous
 62
     0
440
 16777216
100
AcDbTrace
 10
-0.3555118110236188
 20
4.284251968503937
 30
0.0
 11
-0.3531496062992094
 21
4.284251968503937
 31
0.0
 12
-0.3543307086614141
 22
4.291338582677165
 32
0.0
 13
-0.3543307086614141
 23
4.291338582677165
 33
0.0
  0
SOLID
  5
6DB
330
693
100
AcDbEntity
  8
0
  6
Continuous
 62
     0
440
 16777216
100
AcDbTrace
 10
-0.3555118110236198
 20
0.0070866141732284
 30
0.0
 11
-0.3531496062992104
 21
0.0070866141732284
 31
0.0
 12
-0.3543307086614151
 22
0.0000000000000001
 32
0.0
 13
-0.3543307086614151
 23
0.0000000000000001
 33
0.0
  0
MTEXT
  5
6DC
330
693
100
AcDbEntity
  8
0
  6
Continuous
 62
     0
440
 16777216
100
AcDbMText
 10
-0.354330708661415
 20
2.145669291338582
 30
0.0
 40
0.0070866141732283
 41
0.0
 46
0.0
 71
     5
 72
     1
  1
\A1;4.2913
 73
     1
 44
1.0
  0
POINT
  5
6DD
330
693
100
AcDbEntity
  8
Defpoints
  6
Continuous
 62
     0
440
 16777216
100
AcDbPoint
 10
0.0
 20
4.291338582677165
 30
0.0
  0
POINT
  5
6DE
330
693
100
AcDbEntity
  8
Defpoints
  6
Continuous
 62
     0
440
 16777216
100
AcDbPoint
 10
0.0
 20
0.0
 30
0.0
  0
POINT
  5
6DF
330
693
100
AcDbEntity
  8
Defpoints
  6
Continuous
 62
     0
440
 16777216
100
AcDbPoint
 10
-0.3543307086614151
 20
0.0000000000000001
 30
0.0
  0
ENDBLK
  5
695
330
693
100
AcDbEntity
  8
0
100
AcDbBlockEnd
  0
ENDSEC
  0
SECTION
  2
ENTITIES
  0
LWPOLYLINE
  5
76
330
6F
100
AcDbEntity
  8
LAYER1
100
AcDbPolyline
 90
        5
 70
     1
 43
0.0
 10
0.0
 20
0.0
 10
15.51181102362204
 20
0.0
 10
15.51181102362204
 20
4.291338582677165
 10
0.0
 20
4.291338582677165
 10
0.0
 20
0.0
  0
LWPOLYLINE
  5
7D
330
6F
100
AcDbEntity
  8
LAYER1
100
AcDbPolyline
 90
       13
 70
     1
 43
0.0
 10
0.9251968503937007
 20
3.405511811023622
 10
0.9566929133858266
 20
3.405511811023622
 10
0.9566929133858266
 20
3.877952755905511
 10
0.9251968503937007
 20
3.877952755905511
 10
0.9251968503937007
 20
3.917322834645669
 10
0.3740157480314961
 20
3.917322834645669
 10
0.3740157480314961
 20
3.877952755905511
 10
0.34251968503937
 20
3.877952755905511
 10
0.34251968503937
 20
3.405511811023622
 10
0.3740157480314961
 20
3.405511811023622
 10
0.3740157480314961
 20
3.366141732283464
 10
0.9251968503937007
 20
3.366141732283464
 10
0.9251968503937007
 20
3.405511811023622
  0
LWPOLYLINE
  5
8C
330
6F
100
AcDbEntity
  8
LAYER1
100
AcDbPolyline
 90
       13
 70
     1
 43
0.0
 10
1.673228346456692
 20
3.405511811023622
 10
1.704724409448818
 20
3.405511811023622
 10
1.704724409448818
 20
3.877952755905511
 10
1.673228346456692
 20
3.877952755905511
 10
1.673228346456692
 20
3.917322834645669
 10
1.122047244094488
 20
3.917322834645669
 10
1.122047244094488
 20
3.877952755905511
 10
1.090551181102362
 20
3.877952755905511
 10
1.090551181102362
 20
3.405511811023622
 10
1.122047244094488
 20
3.405511811023622
 10
1.122047244094488
 20
3.366141732283464
 10
1.673228346456692
 20
3.366141732283464
 10
1.673228346456692
 20
3.405511811023622
  0
LWPOLYLINE
  5
9B
330
6F
100
AcDbEntity
  8
LAYER1
100
AcDbPolyline
 90
       13
 70
     1
 43
0.0
 10
2.421259842519685
 20
3.405511811023622
 10
2.45275590551181
 20
3.405511811023622
 10
2.45275590551181
 20
3.877952755905511
 10
2.421259842519685
 20
3.877952755905511
 10
2.421259842519685
 20
3.917322834645669
 10
1.87007874015748
 20
3.917322834645669
 10
1.87007874015748
 20
3.877952755905511
 10
1.838582677165354
 20
3.877952755905511
 10
1.838582677165354
 20
3.405511811023622
 10
1.87007874015748
 20
3.405511811023622
 10
1.87007874015748
 20
3.366141732283464
 10
2.421259842519685
 20
3.366141732283464
 10
2.421259842519685
 20
3.405511811023622
  0
LWPOLYLINE
  5
AA
330
6F
100
AcDbEntity
  8
LAYER1
100
AcDbPolyline
 90
       13
 70
     1
 43
0.0
 10
3.169291338582677
 20
3.405511811023622
 10
3.200787401574802
 20
3.405511811023622
 10
3.200787401574802
 20
3.877952755905511
 10
3.169291338582677
 20
3.877952755905511
 10
3.169291338582677
 20
3.917322834645669
 10
2.618110236220472
 20
3.917322834645669
 10
2.618110236220472
 20
3.877952755905511
 10
2.586614173228346
 20
3.877952755905511
 10
2.586614173228346
 20
3.405511811023622
 10
2.618110236220472
 20
3.405511811023622
 10
2.618110236220472
 20
3.366141732283464
 10
3.169291338582677
 20
3.366141732283464
 10
3.169291338582677
 20
3.405511811023622
  0
LWPOLYLINE
  5
B9
330
6F
100
AcDbEntity
  8
LAYER1
100
AcDbPolyline
 90
       13
 70
     1
 43
0.0
 10
3.917322834645669
 20
3.405511811023622
 10
3.948818897637794
 20
3.405511811023622
 10
3.948818897637794
 20
3.877952755905511
 10
3.917322834645669
 20
3.877952755905511
 10
3.917322834645669
 20
3.917322834645669
 10
3.366141732283464
 20
3.917322834645669
 10
3.366141732283464
 20
3.877952755905511
 10
3.334645669291338
 20
3.877952755905511
 10
3.334645669291338
 20
3.405511811023622
 10
3.366141732283464
 20
3.405511811023622
 10
3.366141732283464
 20
3.366141732283464
 10
3.917322834645669
 20
3.366141732283464
 10
3.917322834645669
 20
3.405511811023622
  0
LWPOLYLINE
  5
C8
330
6F
100
AcDbEntity
  8
LAYER1
100
AcDbPolyline
 90
       13
 70
     1
 43
0.0
 10
4.665354330708661
 20
3.405511811023622
 10
4.696850393700787
 20
3.405511811023622
 10
4.696850393700787
 20
3.877952755905511
 10
4.665354330708661
 20
3.877952755905511
 10
4.665354330708661
 20
3.917322834645669
 10
4.114173228346456
 20
3.917322834645669
 10
4.114173228346456
 20
3.877952755905511
 10
4.08267716535433
 20
3.877952755905511
 10
4.08267716535433
 20
3.405511811023622
 10
4.114173228346456
 20
3.405511811023622
 10
4.114173228346456
 20
3.366141732283464
 10
4.665354330708661
 20
3.366141732283464
 10
4.665354330708661
 20
3.405511811023622
  0
LWPOLYLINE
  5
D7
330
6F
100
AcDbEntity
  8
LAYER1
100
AcDbPolyline
 90
       13
 70
     1
 43
0.0
 10
5.413385826771653
 20
3.405511811023622
 10
5.444881889763779
 20
3.405511811023622
 10
5.444881889763779
 20
3.877952755905511
 10
5.413385826771653
 20
3.877952755905511
 10
5.413385826771653
 20
3.917322834645669
 10
4.862204724409449
 20
3.917322834645669
 10
4.862204724409449
 20
3.877952755905511
 10
4.830708661417323
 20
3.877952755905511
 10
4.830708661417323
 20
3.405511811023622
 10
4.862204724409449
 20
3.405511811023622
 10
4.862204724409449
 20
3.366141732283464
 10
5.413385826771653
 20
3.366141732283464
 10
5.413385826771653
 20
3.405511811023622
  0
LWPOLYLINE
  5
E6
330
6F
100
AcDbEntity
  8
LAYER1
100
AcDbPolyline
 90
       13
 70
     1
 43
0.0
 10
6.161417322834645
 20
3.405511811023622
 10
6.192913385826772
 20
3.405511811023622
 10
6.192913385826772
 20
3.877952755905511
 10
6.161417322834645
 20
3.877952755905511
 10
6.161417322834645
 20
3.917322834645669
 10
5.61023622047244
 20
3.917322834645669
 10
5.61023622047244
 20
3.877952755905511
 10
5.578740157480314
 20
3.877952755905511
 10
5.578740157480314
 20
3.405511811023622
 10
5.61023622047244
 20
3.405511811023622
 10
5.61023622047244
 20
3.366141732283464
 10
6.161417322834645
 20
3.366141732283464
 10
6.161417322834645
 20
3.405511811023622
  0
LWPOLYLINE
  5
F5
330
6F
100
AcDbEntity
  8
LAYER1
100
AcDbPolyline
 90
       13
 70
     1
 43
0.0
 10
6.909448818897637
 20
3.405511811023622
 10
6.940944881889763
 20
3.405511811023622
 10
6.940944881889763
 20
3.877952755905511
 10
6.909448818897637
 20
3.877952755905511
 10
6.909448818897637
 20
3.917322834645669
 10
6.358267716535433
 20
3.917322834645669
 10
6.358267716535433
 20
3.877952755905511
 10
6.326771653543306
 20
3.877952755905511
 10
6.326771653543306
 20
3.405511811023622
 10
6.358267716535433
 20
3.405511811023622
 10
6.358267716535433
 20
3.366141732283464
 10
6.909448818897637
 20
3.366141732283464
 10
6.909448818897637
 20
3.405511811023622
  0
LWPOLYLINE
  5
104
330
6F
100
AcDbEntity
  8
LAYER1
100
AcDbPolyline
 90
       13
 70
     1
 43
0.0
 10
7.657480314960629
 20
3.405511811023622
 10
7.688976377952756
 20
3.405511811023622
 10
7.688976377952756
 20
3.877952755905511
 10
7.657480314960629
 20
3.877952755905511
 10
7.657480314960629
 20
3.917322834645669
 10
7.106299212598425
 20
3.917322834645669
 10
7.106299212598425
 20
3.877952755905511
 10
7.074803149606299
 20
3.877952755905511
 10
7.074803149606299
 20
3.405511811023622
 10
7.106299212598425
 20
3.405511811023622
 10
7.106299212598425
 20
3.366141732283464
 10
7.657480314960629
 20
3.366141732283464
 10
7.657480314960629
 20
3.405511811023622
  0
LWPOLYLINE
  5
113
330
6F
100
AcDbEntity
  8
LAYER1
100
AcDbPolyline
 90
       13
 70
     1
 43
0.0
 10
8.405511811023622
 20
3.405511811023622
 10
8.437007874015748
 20
3.405511811023622
 10
8.437007874015748
 20
3.877952755905511
 10
8.405511811023622
 20
3.877952755905511
 10
8.405511811023622
 20
3.917322834645669
 10
7.854330708661417
 20
3.917322834645669
 10
7.854330708661417
 20
3.877952755905511
 10
7.82283464566929
 20
3.877952755905511
 10
7.82283464566929
 20
3.405511811023622
 10
7.854330708661417
 20
3.405511811023622
 10
7.854330708661417
 20
3.366141732283464
 10
8.405511811023622
 20
3.366141732283464
 10
8.405511811023622
 20
3.405511811023622
  0
LWPOLYLINE
  5
122
330
6F
100
AcDbEntity
  8
LAYER1
100
AcDbPolyline
 90
       13
 70
     1
 43
0.0
 10
9.153543307086614
 20
3.405511811023622
 10
9.18503937007874
 20
3.405511811023622
 10
9.18503937007874
 20
3.877952755905511
 10
9.153543307086614
 20
3.877952755905511
 10
9.153543307086614
 20
3.917322834645669
 10
8.602362204724409
 20
3.917322834645669
 10
8.602362204724409
 20
3.877952755905511
 10
8.570866141732283
 20
3.877952755905511
 10
8.570866141732283
 20
3.405511811023622
 10
8.602362204724409
 20
3.405511811023622
 10
8.602362204724409
 20
3.366141732283464
 10
9.153543307086614
 20
3.366141732283464
 10
9.153543307086614
 20
3.405511811023622
  0
LWPOLYLINE
  5
131
330
6F
100
AcDbEntity
  8
LAYER1
100
AcDbPolyline
 90
       13
 70
     1
 43
0.0
 10
9.901574803149605
 20
3.405511811023622
 10
9.933070866141733
 20
3.405511811023622
 10
9.933070866141733
 20
3.877952755905511
 10
9.901574803149605
 20
3.877952755905511
 10
9.901574803149605
 20
3.917322834645669
 10
9.350393700787401
 20
3.917322834645669
 10
9.350393700787401
 20
3.877952755905511
 10
9.318897637795274
 20
3.877952755905511
 10
9.318897637795274
 20
3.405511811023622
 10
9.350393700787401
 20
3.405511811023622
 10
9.350393700787401
 20
3.366141732283464
 10
9.901574803149605
 20
3.366141732283464
 10
9.901574803149605
 20
3.405511811023622
  0
LWPOLYLINE
  5
140
330
6F
100
AcDbEntity
  8
LAYER1
100
AcDbPolyline
 90
       13
 70
     1
 43
0.0
 10
10.6496062992126
 20
3.405511811023622
 10
10.68110236220472
 20
3.405511811023622
 10
10.68110236220472
 20
3.877952755905511
 10
10.6496062992126
 20
3.877952755905511
 10
10.6496062992126
 20
3.917322834645669
 10
10.09842519685039
 20
3.917322834645669
 10
10.09842519685039
 20
3.877952755905511
 10
10.06692913385826
 20
3.877952755905511
 10
10.06692913385826
 20
3.405511811023622
 10
10.09842519685039
 20
3.405511811023622
 10
10.09842519685039
 20
3.366141732283464
 10
10.6496062992126
 20
3.366141732283464
 10
10.6496062992126
 20
3.405511811023622
  0
LWPOLYLINE
  5
14F
330
6F
100
AcDbEntity
  8
LAYER1
100
AcDbPolyline
 90
       13
 70
     1
 43
0.0
 10
11.39763779527559
 20
3.405511811023622
 10
11.42913385826771
 20
3.405511811023622
 10
11.42913385826771
 20
3.877952755905511
 10
11.39763779527559
 20
3.877952755905511
 10
11.39763779527559
 20
3.917322834645669
 10
10.84645669291338
 20
3.917322834645669
 10
10.84645669291338
 20
3.877952755905511
 10
10.81496062992126
 20
3.877952755905511
 10
10.81496062992126
 20
3.405511811023622
 10
10.84645669291338
 20
3.405511811023622
 10
10.84645669291338
 20
3.366141732283464
 10
11.39763779527559
 20
3.366141732283464
 10
11.39763779527559
 20
3.405511811023622
  0
LWPOLYLINE
  5
15E
330
6F
100
AcDbEntity
  8
LAYER1
100
AcDbPolyline
 90
       13
 70
     1
 43
0.0
 10
12.14566929133858
 20
3.405511811023622
 10
12.17716535433071
 20
3.405511811023622
 10
12.17716535433071
 20
3.877952755905511
 10
12.14566929133858
 20
3.877952755905511
 10
12.14566929133858
 20
3.917322834645669
 10
11.59448818897637
 20
3.917322834645669
 10
11.59448818897637
 20
3.877952755905511
 10
11.56299212598425
 20
3.877952755905511
 10
11.56299212598425
 20
3.405511811023622
 10
11.59448818897637
 20
3.405511811023622
 10
11.59448818897637
 20
3.366141732283464
 10
12.14566929133858
 20
3.366141732283464
 10
12.14566929133858
 20
3.405511811023622
  0
LWPOLYLINE
  5
16D
330
6F
100
AcDbEntity
  8
LAYER1
100
AcDbPolyline
 90
       13
 70
     1
 43
0.0
 10
12.89370078740157
 20
3.405511811023622
 10
12.9251968503937
 20
3.405511811023622
 10
12.9251968503937
 20
3.877952755905511
 10
12.89370078740157
 20
3.877952755905511
 10
12.89370078740157
 20
3.917322834645669
 10
12.34251968503937
 20
3.917322834645669
 10
12.34251968503937
 20
3.877952755905511
 10
12.31102362204724
 20
3.877952755905511
 10
12.31102362204724
 20
3.405511811023622
 10
12.34251968503937
 20
3.405511811023622
 10
12.34251968503937
 20
3.366141732283464
 10
12.89370078740157
 20
3.366141732283464
 10
12.89370078740157
 20
3.405511811023622
  0
LWPOLYLINE
  5
17C
330
6F
100
AcDbEntity
  8
LAYER1
100
AcDbPolyline
 90
       53
 70
     1
 43
0.0
 10
13.33661417322834
 20
3.375196850393701
 10
13.40255905511811
 20
3.375196850393701
 10
13.40255905511811
 20
3.406692913385826
 10
13.43307086614173
 20
3.406692913385826
 10
13.43307086614173
 20
3.405511811023622
 10
13.46456692913386
 20
3.405511811023622
 10
13.46456692913386
 20
3.366141732283464
 10
14.01574803149606
 20
3.366141732283464
 10
14.01574803149606
 20
3.405511811023622
 10
14.04724409448819
 20
3.405511811023622
 10
14.04724409448819
 20
3.406692913385826
 10
14.07775590551181
 20
3.406692913385826
 10
14.07775590551181
 20
3.375196850393701
 10
14.14370078740157
 20
3.375196850393701
 10
14.14370078740157
 20
3.336141732283464
 10
14.27362204724409
 20
3.336141732283464
 10
14.27362204724409
 20
3.375196850393701
 10
14.33956692913386
 20
3.375196850393701
 10
14.33956692913386
 20
3.622047244094487
 10
14.37401574803149
 20
3.622047244094487
 10
14.37401574803149
 20
3.732283464566929
 10
14.33956692913386
 20
3.732283464566929
 10
14.33956692913386
 20
3.859448818897637
 10
14.27362204724409
 20
3.859448818897637
 10
14.27362204724409
 20
3.887322834645669
 10
14.14370078740157
 20
3.887322834645669
 10
14.14370078740157
 20
3.859448818897637
 10
14.07775590551181
 20
3.859448818897637
 10
14.07775590551181
 20
3.827952755905511
 10
14.04724409448819
 20
3.827952755905511
 10
14.04724409448819
 20
3.877952755905511
 10
14.01574803149606
 20
3.877952755905511
 10
14.01574803149606
 20
3.917322834645669
 10
13.46456692913386
 20
3.917322834645669
 10
13.46456692913386
 20
3.877952755905511
 10
13.43307086614173
 20
3.877952755905511
 10
13.43307086614173
 20
3.827952755905511
 10
13.40255905511811
 20
3.827952755905511
 10
13.40255905511811
 20
3.859448818897637
 10
13.33661417322834
 20
3.859448818897637
 10
13.33661417322834
 20
3.887322834645669
 10
13.20669291338582
 20
3.887322834645669
 10
13.20669291338582
 20
3.859448818897637
 10
13.14074803149606
 20
3.859448818897637
 10
13.14074803149606
 20
3.732283464566929
 10
13.10629921259842
 20
3.732283464566929
 10
13.10629921259842
 20
3.622047244094487
 10
13.14074803149606
 20
3.622047244094487
 10
13.14074803149606
 20
3.375196850393701
 10
13.20669291338582
 20
3.375196850393701
 10
13.20669291338582
 20
3.336141732283464
 10
13.33661417322834
 20
3.336141732283464
 10
13.33661417322834
 20
3.375196850393701
  0
LWPOLYLINE
  5
1B3
330
6F
100
AcDbEntity
  8
LAYER1
100
AcDbPolyline
 90
       13
 70
     1
 43
0.0
 10
15.13779527559055
 20
3.405511811023622
 10
15.16929133858267
 20
3.405511811023622
 10
15.16929133858267
 20
3.877952755905511
 10
15.13779527559055
 20
3.877952755905511
 10
15.13779527559055
 20
3.917322834645669
 10
14.58661417322834
 20
3.917322834645669
 10
14.58661417322834
 20
3.877952755905511
 10
14.55511811023622
 20
3.877952755905511
 10
14.55511811023622
 20
3.405511811023622
 10
14.58661417322834
 20
3.405511811023622
 10
14.58661417322834
 20
3.366141732283464
 10
15.13779527559055
 20
3.366141732283464
 10
15.13779527559055
 20
3.405511811023622
  0
LWPOLYLINE
  5
1C2
330
6F
100
AcDbEntity
  8
LAYER1
100
AcDbPolyline
 90
       53
 70
     1
 43
0.0
 10
0.3830708661417323
 20
2.923228346456692
 10
0.3830708661417323
 20
2.857283464566929
 10
0.4145669291338583
 20
2.857283464566929
 10
0.4145669291338583
 20
2.826771653543307
 10
0.4133858267716536
 20
2.826771653543307
 10
0.4133858267716536
 20
2.795275590551181
 10
0.3740157480314961
 20
2.795275590551181
 10
0.3740157480314961
 20
2.244094488188976
 10
0.4133858267716536
 20
2.244094488188976
 10
0.4133858267716536
 20
2.21259842519685
 10
0.4145669291338583
 20
2.21259842519685
 10
0.4145669291338583
 20
2.182086614173228
 10
0.3830708661417323
 20
2.182086614173228
 10
0.3830708661417323
 20
2.116141732283464
 10
0.344015748031496
 20
2.116141732283464
 10
0.344015748031496
 20
1.986220472440944
 10
0.3830708661417323
 20
1.986220472440944
 10
0.3830708661417323
 20
1.920275590551181
 10
0.6299212598425197
 20
1.920275590551181
 10
0.6299212598425197
 20
1.885826771653543
 10
0.7401574803149607
 20
1.885826771653543
 10
0.7401574803149607
 20
1.920275590551181
 10
0.8673228346456692
 20
1.920275590551181
 10
0.8673228346456692
 20
1.986220472440944
 10
0.8951968503937008
 20
1.986220472440944
 10
0.8951968503937008
 20
2.116141732283464
 10
0.8673228346456692
 20
2.116141732283464
 10
0.8673228346456692
 20
2.182086614173228
 10
0.8358267716535433
 20
2.182086614173228
 10
0.8358267716535433
 20
2.21259842519685
 10
0.8858267716535433
 20
2.21259842519685
 10
0.8858267716535433
 20
2.244094488188976
 10
0.9251968503937007
 20
2.244094488188976
 10
0.9251968503937007
 20
2.795275590551181
 10
0.8858267716535433
 20
2.795275590551181
 10
0.8858267716535433
 20
2.826771653543307
 10
0.8358267716535433
 20
2.826771653543307
 10
0.8358267716535433
 20
2.857283464566929
 10
0.8673228346456692
 20
2.857283464566929
 10
0.8673228346456692
 20
2.923228346456692
 10
0.8951968503937008
 20
2.923228346456692
 10
0.8951968503937008
 20
3.053149606299212
 10
0.8673228346456692
 20
3.053149606299212
 10
0.8673228346456692
 20
3.119094488188975
 10
0.7401574803149607
 20
3.119094488188975
 10
0.7401574803149607
 20
3.153543307086613
 10
0.6299212598425197
 20
3.153543307086613
 10
0.6299212598425197
 20
3.119094488188975
 10
0.3830708661417323
 20
3.119094488188975
 10
0.3830708661417323
 20
3.053149606299212
 10
0.344015748031496
 20
3.053149606299212
 10
0.344015748031496
 20
2.923228346456692
 10
0.3830708661417323
 20
2.923228346456692
  0
LWPOLYLINE
  5
1F9
330
6F
100
AcDbEntity
  8
LAYER1
100
AcDbPolyline
 90
       13
 70
     1
 43
0.0
 10
1.673228346456692
 20
2.65748031496063
 10
1.704724409448818
 20
2.65748031496063
 10
1.704724409448818
 20
3.129921259842519
 10
1.673228346456692
 20
3.129921259842519
 10
1.673228346456692
 20
3.169291338582677
 10
1.122047244094488
 20
3.169291338582677
 10
1.122047244094488
 20
3.129921259842519
 10
1.090551181102362
 20
3.129921259842519
 10
1.090551181102362
 20
2.65748031496063
 10
1.122047244094488
 20
2.65748031496063
 10
1.122047244094488
 20
2.618110236220472
 10
1.673228346456692
 20
2.618110236220472
 10
1.673228346456692
 20
2.65748031496063
  0
LWPOLYLINE
  5
208
330
6F
100
AcDbEntity
  8
LAYER1
100
AcDbPolyline
 90
       13
 70
     1
 43
0.0
 10
2.421259842519685
 20
2.65748031496063
 10
2.45275590551181
 20
2.65748031496063
 10
2.45275590551181
 20
3.129921259842519
 10
2.421259842519685
 20
3.129921259842519
 10
2.421259842519685
 20
3.169291338582677
 10
1.87007874015748
 20
3.169291338582677
 10
1.87007874015748
 20
3.129921259842519
 10
1.838582677165354
 20
3.129921259842519
 10
1.838582677165354
 20
2.65748031496063
 10
1.87007874015748
 20
2.65748031496063
 10
1.87007874015748
 20
2.618110236220472
 10
2.421259842519685
 20
2.618110236220472
 10
2.421259842519685
 20
2.65748031496063
  0
LWPOLYLINE
  5
217
330
6F
100
AcDbEntity
  8
LAYER1
100
AcDbPolyline
 90
       13
 70
     1
 43
0.0
 10
3.169291338582677
 20
2.65748031496063
 10
3.200787401574802
 20
2.65748031496063
 10
3.200787401574802
 20
3.129921259842519
 10
3.169291338582677
 20
3.129921259842519
 10
3.169291338582677
 20
3.169291338582677
 10
2.618110236220472
 20
3.169291338582677
 10
2.618110236220472
 20
3.129921259842519
 10
2.586614173228346
 20
3.129921259842519
 10
2.586614173228346
 20
2.65748031496063
 10
2.618110236220472
 20
2.65748031496063
 10
2.618110236220472
 20
2.618110236220472
 10
3.169291338582677
 20
2.618110236220472
 10
3.169291338582677
 20
2.65748031496063
  0
LWPOLYLINE
  5
226
330
6F
100
AcDbEntity
  8
LAYER1
100
AcDbPolyline
 90
       13
 70
     1
 43
0.0
 10
4.104330708661417
 20
2.65748031496063
 10
4.135826771653543
 20
2.65748031496063
 10
4.135826771653543
 20
3.129921259842519
 10
4.104330708661417
 20
3.129921259842519
 10
4.104330708661417
 20
3.169291338582677
 10
3.553149606299212
 20
3.169291338582677
 10
3.553149606299212
 20
3.129921259842519
 10
3.521653543307086
 20
3.129921259842519
 10
3.521653543307086
 20
2.65748031496063
 10
3.553149606299212
 20
2.65748031496063
 10
3.553149606299212
 20
2.618110236220472
 10
4.104330708661417
 20
2.618110236220472
 10
4.104330708661417
 20
2.65748031496063
  0
LWPOLYLINE
  5
235
330
6F
100
AcDbEntity
  8
LAYER1
100
AcDbPolyline
 90
       13
 70
     1
 43
0.0
 10
5.039370078740157
 20
2.65748031496063
 10
5.070866141732284
 20
2.65748031496063
 10
5.070866141732284
 20
3.129921259842519
 10
5.039370078740157
 20
3.129921259842519
 10
5.039370078740157
 20
3.169291338582677
 10
4.488188976377952
 20
3.169291338582677
 10
4.488188976377952
 20
3.129921259842519
 10
4.456692913385826
 20
3.129921259842519
 10
4.456692913385826
 20
2.65748031496063
 10
4.488188976377952
 20
2.65748031496063
 10
4.488188976377952
 20
2.618110236220472
 10
5.039370078740157
 20
2.618110236220472
 10
5.039370078740157
 20
2.65748031496063
  0
LWPOLYLINE
  5
244
330
6F
100
AcDbEntity
  8
LAYER1
100
AcDbPolyline
 90
       13
 70
     1
 43
0.0
 10
5.787401574803149
 20
2.65748031496063
 10
5.818897637795275
 20
2.65748031496063
 10
5.818897637795275
 20
3.129921259842519
 10
5.787401574803149
 20
3.129921259842519
 10
5.787401574803149
 20
3.169291338582677
 10
5.236220472440944
 20
3.169291338582677
 10
5.236220472440944
 20
3.129921259842519
 10
5.204724409448818
 20
3.129921259842519
 10
5.204724409448818
 20
2.65748031496063
 10
5.236220472440944
 20
2.65748031496063
 10
5.236220472440944
 20
2.618110236220472
 10
5.787401574803149
 20
2.618110236220472
 10
5.787401574803149
 20
2.65748031496063
  0
LWPOLYLINE
  5
253
330
6F
100
AcDbEntity
  8
LAYER1
100
AcDbPolyline
 90
       13
 70
     1
 43
0.0
 10
6.535433070866141
 20
2.65748031496063
 10
6.566929133858268
 20
2.65748031496063
 10
6.566929133858268
 20
3.129921259842519
 10
6.535433070866141
 20
3.129921259842519
 10
6.535433070866141
 20
3.169291338582677
 10
5.984251968503937
 20
3.169291338582677
 10
5.984251968503937
 20
3.129921259842519
 10
5.95275590551181
 20
3.129921259842519
 10
5.95275590551181
 20
2.65748031496063
 10
5.984251968503937
 20
2.65748031496063
 10
5.984251968503937
 20
2.618110236220472
 10
6.535433070866141
 20
2.618110236220472
 10
6.535433070866141
 20
2.65748031496063
  0
LWPOLYLINE
  5
262
330
6F
100
AcDbEntity
  8
LAYER1
100
AcDbPolyline
 90
       13
 70
     1
 43
0.0
 10
7.283464566929133
 20
2.65748031496063
 10
7.31496062992126
 20
2.65748031496063
 10
7.31496062992126
 20
3.129921259842519
 10
7.283464566929133
 20
3.129921259842519
 10
7.283464566929133
 20
3.169291338582677
 10
6.732283464566928
 20
3.169291338582677
 10
6.732283464566928
 20
3.129921259842519
 10
6.700787401574802
 20
3.129921259842519
 10
6.700787401574802
 20
2.65748031496063
 10
6.732283464566928
 20
2.65748031496063
 10
6.732283464566928
 20
2.618110236220472
 10
7.283464566929133
 20
2.618110236220472
 10
7.283464566929133
 20
2.65748031496063
  0
LWPOLYLINE
  5
271
330
6F
100
AcDbEntity
  8
LAYER1
100
AcDbPolyline
 90
       13
 70
     1
 43
0.0
 10
8.031496062992125
 20
2.65748031496063
 10
8.062992125984251
 20
2.65748031496063
 10
8.062992125984251
 20
3.129921259842519
 10
8.031496062992125
 20
3.129921259842519
 10
8.031496062992125
 20
3.169291338582677
 10
7.480314960629921
 20
3.169291338582677
 10
7.480314960629921
 20
3.129921259842519
 10
7.448818897637794
 20
3.129921259842519
 10
7.448818897637794
 20
2.65748031496063
 10
7.480314960629921
 20
2.65748031496063
 10
7.480314960629921
 20
2.618110236220472
 10
8.031496062992125
 20
2.618110236220472
 10
8.031496062992125
 20
2.65748031496063
  0
LWPOLYLINE
  5
280
330
6F
100
AcDbEntity
  8
LAYER1
100
AcDbPolyline
 90
       13
 70
     1
 43
0.0
 10
8.779527559055118
 20
2.65748031496063
 10
8.811023622047244
 20
2.65748031496063
 10
8.811023622047244
 20
3.129921259842519
 10
8.779527559055118
 20
3.129921259842519
 10
8.779527559055118
 20
3.169291338582677
 10
8.228346456692912
 20
3.169291338582677
 10
8.228346456692912
 20
3.129921259842519
 10
8.196850393700787
 20
3.129921259842519
 10
8.196850393700787
 20
2.65748031496063
 10
8.228346456692912
 20
2.65748031496063
 10
8.228346456692912
 20
2.618110236220472
 10
8.779527559055118
 20
2.618110236220472
 10
8.779527559055118
 20
2.65748031496063
  0
LWPOLYLINE
  5
28F
330
6F
100
AcDbEntity
  8
LAYER1
100
AcDbPolyline
 90
       13
 70
     1
 43
0.0
 10
9.527559055118109
 20
2.65748031496063
 10
9.559055118110237
 20
2.65748031496063
 10
9.559055118110237
 20
3.129921259842519
 10
9.527559055118109
 20
3.129921259842519
 10
9.527559055118109
 20
3.169291338582677
 10
8.976377952755905
 20
3.169291338582677
 10
8.976377952755905
 20
3.129921259842519
 10
8.944881889763779
 20
3.129921259842519
 10
8.944881889763779
 20
2.65748031496063
 10
8.976377952755905
 20
2.65748031496063
 10
8.976377952755905
 20
2.618110236220472
 10
9.527559055118109
 20
2.618110236220472
 10
9.527559055118109
 20
2.65748031496063
  0
LWPOLYLINE
  5
29E
330
6F
100
AcDbEntity
  8
LAYER1
100
AcDbPolyline
 90
       13
 70
     1
 43
0.0
 10
10.2755905511811
 20
2.65748031496063
 10
10.30708661417323
 20
2.65748031496063
 10
10.30708661417323
 20
3.129921259842519
 10
10.2755905511811
 20
3.129921259842519
 10
10.2755905511811
 20
3.169291338582677
 10
9.724409448818898
 20
3.169291338582677
 10
9.724409448818898
 20
3.129921259842519
 10
9.69291338582677
 20
3.129921259842519
 10
9.69291338582677
 20
2.65748031496063
 10
9.724409448818898
 20
2.65748031496063
 10
9.724409448818898
 20
2.618110236220472
 10
10.2755905511811
 20
2.618110236220472
 10
10.2755905511811
 20
2.65748031496063
  0
LWPOLYLINE
  5
2AD
330
6F
100
AcDbEntity
  8
LAYER1
100
AcDbPolyline
 90
       13
 70
     1
 43
0.0
 10
11.02362204724409
 20
2.65748031496063
 10
11.05511811023622
 20
2.65748031496063
 10
11.05511811023622
 20
3.129921259842519
 10
11.02362204724409
 20
3.129921259842519
 10
11.02362204724409
 20
3.169291338582677
 10
10.47244094488189
 20
3.169291338582677
 10
10.47244094488189
 20
3.129921259842519
 10
10.44094488188976
 20
3.129921259842519
 10
10.44094488188976
 20
2.65748031496063
 10
10.47244094488189
 20
2.65748031496063
 10
10.47244094488189
 20
2.618110236220472
 10
11.02362204724409
 20
2.618110236220472
 10
11.02362204724409
 20
2.65748031496063
  0
LWPOLYLINE
  5
2BC
330
6F
100
AcDbEntity
  8
LAYER1
100
AcDbPolyline
 90
       13
 70
     1
 43
0.0
 10
11.77165354330709
 20
2.65748031496063
 10
11.80314960629921
 20
2.65748031496063
 10
11.80314960629921
 20
3.129921259842519
 10
11.77165354330709
 20
3.129921259842519
 10
11.77165354330709
 20
3.169291338582677
 10
11.22047244094488
 20
3.169291338582677
 10
11.22047244094488
 20
3.129921259842519
 10
11.18897637795275
 20
3.129921259842519
 10
11.18897637795275
 20
2.65748031496063
 10
11.22047244094488
 20
2.65748031496063
 10
11.22047244094488
 20
2.618110236220472
 10
11.77165354330709
 20
2.618110236220472
 10
11.77165354330709
 20
2.65748031496063
  0
LWPOLYLINE
  5
2CB
330
6F
100
AcDbEntity
  8
LAYER1
100
AcDbPolyline
 90
       13
 70
     1
 43
0.0
 10
12.51968503937008
 20
2.65748031496063
 10
12.5511811023622
 20
2.65748031496063
 10
12.5511811023622
 20
3.129921259842519
 10
12.51968503937008
 20
3.129921259842519
 10
12.51968503937008
 20
3.169291338582677
 10
11.96850393700787
 20
3.169291338582677
 10
11.96850393700787
 20
3.129921259842519
 10
11.93700787401575
 20
3.129921259842519
 10
11.93700787401575
 20
2.65748031496063
 10
11.96850393700787
 20
2.65748031496063
 10
11.96850393700787
 20
2.618110236220472
 10
12.51968503937008
 20
2.618110236220472
 10
12.51968503937008
 20
2.65748031496063
  0
LWPOLYLINE
  5
2DA
330
6F
100
AcDbEntity
  8
LAYER1
100
AcDbPolyline
 90
       13
 70
     1
 43
0.0
 10
13.26771653543307
 20
2.65748031496063
 10
13.29921259842519
 20
2.65748031496063
 10
13.29921259842519
 20
3.129921259842519
 10
13.26771653543307
 20
3.129921259842519
 10
13.26771653543307
 20
3.169291338582677
 10
12.71653543307087
 20
3.169291338582677
 10
12.71653543307087
 20
3.129921259842519
 10
12.68503937007874
 20
3.129921259842519
 10
12.68503937007874
 20
2.65748031496063
 10
12.71653543307087
 20
2.65748031496063
 10
12.71653543307087
 20
2.618110236220472
 10
13.26771653543307
 20
2.618110236220472
 10
13.26771653543307
 20
2.65748031496063
  0
LWPOLYLINE
  5
2E9
330
6F
100
AcDbEntity
  8
LAYER1
100
AcDbPolyline
 90
       13
 70
     1
 43
0.0
 10
14.20275590551181
 20
2.65748031496063
 10
14.23425196850393
 20
2.65748031496063
 10
14.23425196850393
 20
3.129921259842519
 10
14.20275590551181
 20
3.129921259842519
 10
14.20275590551181
 20
3.169291338582677
 10
13.6515748031496
 20
3.169291338582677
 10
13.6515748031496
 20
3.129921259842519
 10
13.62007874015748
 20
3.129921259842519
 10
13.62007874015748
 20
2.65748031496063
 10
13.6515748031496
 20
2.65748031496063
 10
13.6515748031496
 20
2.618110236220472
 10
14.20275590551181
 20
2.618110236220472
 10
14.20275590551181
 20
2.65748031496063
  0
LWPOLYLINE
  5
2F8
330
6F
100
AcDbEntity
  8
LAYER1
100
AcDbPolyline
 90
       13
 70
     1
 43
0.0
 10
15.13779527559055
 20
2.65748031496063
 10
15.16929133858267
 20
2.65748031496063
 10
15.16929133858267
 20
3.129921259842519
 10
15.13779527559055
 20
3.129921259842519
 10
15.13779527559055
 20
3.169291338582677
 10
14.58661417322834
 20
3.169291338582677
 10
14.58661417322834
 20
3.129921259842519
 10
14.55511811023622
 20
3.129921259842519
 10
14.55511811023622
 20
2.65748031496063
 10
14.58661417322834
 20
2.65748031496063
 10
14.58661417322834
 20
2.618110236220472
 10
15.13779527559055
 20
2.618110236220472
 10
15.13779527559055
 20
2.65748031496063
  0
LWPOLYLINE
  5
307
330
6F
100
AcDbEntity
  8
LAYER1
100
AcDbPolyline
 90
       13
 70
     1
 43
0.0
 10
1.673228346456692
 20
1.909448818897637
 10
1.704724409448818
 20
1.909448818897637
 10
1.704724409448818
 20
2.381889763779527
 10
1.673228346456692
 20
2.381889763779527
 10
1.673228346456692
 20
2.421259842519685
 10
1.122047244094488
 20
2.421259842519685
 10
1.122047244094488
 20
2.381889763779527
 10
1.090551181102362
 20
2.381889763779527
 10
1.090551181102362
 20
1.909448818897637
 10
1.122047244094488
 20
1.909448818897637
 10
1.122047244094488
 20
1.87007874015748
 10
1.673228346456692
 20
1.87007874015748
 10
1.673228346456692
 20
1.909448818897637
  0
LWPOLYLINE
  5
316
330
6F
100
AcDbEntity
  8
LAYER1
100
AcDbPolyline
 90
       13
 70
     1
 43
0.0
 10
2.421259842519685
 20
1.909448818897637
 10
2.45275590551181
 20
1.909448818897637
 10
2.45275590551181
 20
2.381889763779527
 10
2.421259842519685
 20
2.381889763779527
 10
2.421259842519685
 20
2.421259842519685
 10
1.87007874015748
 20
2.421259842519685
 10
1.87007874015748
 20
2.381889763779527
 10
1.838582677165354
 20
2.381889763779527
 10
1.838582677165354
 20
1.909448818897637
 10
1.87007874015748
 20
1.909448818897637
 10
1.87007874015748
 20
1.87007874015748
 10
2.421259842519685
 20
1.87007874015748
 10
2.421259842519685
 20
1.909448818897637
  0
LWPOLYLINE
  5
325
330
6F
100
AcDbEntity
  8
LAYER1
100
AcDbPolyline
 90
       13
 70
     1
 43
0.0
 10
3.169291338582677
 20
1.909448818897637
 10
3.200787401574802
 20
1.909448818897637
 10
3.200787401574802
 20
2.381889763779527
 10
3.169291338582677
 20
2.381889763779527
 10
3.169291338582677
 20
2.421259842519685
 10
2.618110236220472
 20
2.421259842519685
 10
2.618110236220472
 20
2.381889763779527
 10
2.586614173228346
 20
2.381889763779527
 10
2.586614173228346
 20
1.909448818897637
 10
2.618110236220472
 20
1.909448818897637
 10
2.618110236220472
 20
1.87007874015748
 10
3.169291338582677
 20
1.87007874015748
 10
3.169291338582677
 20
1.909448818897637
  0
LWPOLYLINE
  5
334
330
6F
100
AcDbEntity
  8
LAYER1
100
AcDbPolyline
 90
       13
 70
     1
 43
0.0
 10
4.197834645669291
 20
1.909448818897637
 10
4.229330708661417
 20
1.909448818897637
 10
4.229330708661417
 20
2.381889763779527
 10
4.197834645669291
 20
2.381889763779527
 10
4.197834645669291
 20
2.421259842519685
 10
3.646653543307086
 20
2.421259842519685
 10
3.646653543307086
 20
2.381889763779527
 10
3.61515748031496
 20
2.381889763779527
 10
3.61515748031496
 20
1.909448818897637
 10
3.646653543307086
 20
1.909448818897637
 10
3.646653543307086
 20
1.87007874015748
 10
4.197834645669291
 20
1.87007874015748
 10
4.197834645669291
 20
1.909448818897637
  0
LWPOLYLINE
  5
343
330
6F
100
AcDbEntity
  8
LAYER1
100
AcDbPolyline
 90
       13
 70
     1
 43
0.0
 10
5.226377952755905
 20
1.909448818897637
 10
5.257874015748031
 20
1.909448818897637
 10
5.257874015748031
 20
2.381889763779527
 10
5.226377952755905
 20
2.381889763779527
 10
5.226377952755905
 20
2.421259842519685
 10
4.6751968503937
 20
2.421259842519685
 10
4.6751968503937
 20
2.381889763779527
 10
4.643700787401574
 20
2.381889763779527
 10
4.643700787401574
 20
1.909448818897637
 10
4.6751968503937
 20
1.909448818897637
 10
4.6751968503937
 20
1.87007874015748
 10
5.226377952755905
 20
1.87007874015748
 10
5.226377952755905
 20
1.909448818897637
  0
LWPOLYLINE
  5
352
330
6F
100
AcDbEntity
  8
LAYER1
100
AcDbPolyline
 90
       13
 70
     1
 43
0.0
 10
5.974409448818897
 20
1.909448818897637
 10
6.005905511811024
 20
1.909448818897637
 10
6.005905511811024
 20
2.381889763779527
 10
5.974409448818897
 20
2.381889763779527
 10
5.974409448818897
 20
2.421259842519685
 10
5.423228346456692
 20
2.421259842519685
 10
5.423228346456692
 20
2.381889763779527
 10
5.391732283464566
 20
2.381889763779527
 10
5.391732283464566
 20
1.909448818897637
 10
5.423228346456692
 20
1.909448818897637
 10
5.423228346456692
 20
1.87007874015748
 10
5.974409448818897
 20
1.87007874015748
 10
5.974409448818897
 20
1.909448818897637
  0
LWPOLYLINE
  5
361
330
6F
100
AcDbEntity
  8
LAYER1
100
AcDbPolyline
 90
       13
 70
     1
 43
0.0
 10
6.722440944881889
 20
1.909448818897637
 10
6.753937007874015
 20
1.909448818897637
 10
6.753937007874015
 20
2.381889763779527
 10
6.722440944881889
 20
2.381889763779527
 10
6.722440944881889
 20
2.421259842519685
 10
6.171259842519685
 20
2.421259842519685
 10
6.171259842519685
 20
2.381889763779527
 10
6.139763779527558
 20
2.381889763779527
 10
6.139763779527558
 20
1.909448818897637
 10
6.171259842519685
 20
1.909448818897637
 10
6.171259842519685
 20
1.87007874015748
 10
6.722440944881889
 20
1.87007874015748
 10
6.722440944881889
 20
1.909448818897637
  0
LWPOLYLINE
  5
370
330
6F
100
AcDbEntity
  8
LAYER1
100
AcDbPolyline
 90
       13
 70
     1
 43
0.0
 10
7.470472440944881
 20
1.909448818897637
 10
7.501968503937008
 20
1.909448818897637
 10
7.501968503937008
 20
2.381889763779527
 10
7.470472440944881
 20
2.381889763779527
 10
7.470472440944881
 20
2.421259842519685
 10
6.919291338582676
 20
2.421259842519685
 10
6.919291338582676
 20
2.381889763779527
 10
6.88779527559055
 20
2.381889763779527
 10
6.88779527559055
 20
1.909448818897637
 10
6.919291338582676
 20
1.909448818897637
 10
6.919291338582676
 20
1.87007874015748
 10
7.470472440944881
 20
1.87007874015748
 10
7.470472440944881
 20
1.909448818897637
  0
LWPOLYLINE
  5
37F
330
6F
100
AcDbEntity
  8
LAYER1
100
AcDbPolyline
 90
       13
 70
     1
 43
0.0
 10
8.218503937007874
 20
1.909448818897637
 10
8.25
 20
1.909448818897637
 10
8.25
 20
2.381889763779527
 10
8.218503937007874
 20
2.381889763779527
 10
8.218503937007874
 20
2.421259842519685
 10
7.667322834645669
 20
2.421259842519685
 10
7.667322834645669
 20
2.381889763779527
 10
7.635826771653542
 20
2.381889763779527
 10
7.635826771653542
 20
1.909448818897637
 10
7.667322834645669
 20
1.909448818897637
 10
7.667322834645669
 20
1.87007874015748
 10
8.218503937007874
 20
1.87007874015748
 10
8.218503937007874
 20
1.909448818897637
  0
LWPOLYLINE
  5
38E
330
6F
100
AcDbEntity
  8
LAYER1
100
AcDbPolyline
 90
       13
 70
     1
 43
0.0
 10
8.966535433070866
 20
1.909448818897637
 10
8.998031496062992
 20
1.909448818897637
 10
8.998031496062992
 20
2.381889763779527
 10
8.966535433070866
 20
2.381889763779527
 10
8.966535433070866
 20
2.421259842519685
 10
8.415354330708661
 20
2.421259842519685
 10
8.415354330708661
 20
2.381889763779527
 10
8.383858267716535
 20
2.381889763779527
 10
8.383858267716535
 20
1.909448818897637
 10
8.415354330708661
 20
1.909448818897637
 10
8.415354330708661
 20
1.87007874015748
 10
8.966535433070866
 20
1.87007874015748
 10
8.966535433070866
 20
1.909448818897637
  0
LWPOLYLINE
  5
39D
330
6F
100
AcDbEntity
  8
LAYER1
100
AcDbPolyline
 90
       13
 70
     1
 43
0.0
 10
9.714566929133857
 20
1.909448818897637
 10
9.746062992125985
 20
1.909448818897637
 10
9.746062992125985
 20
2.381889763779527
 10
9.714566929133857
 20
2.381889763779527
 10
9.714566929133857
 20
2.421259842519685
 10
9.163385826771653
 20
2.421259842519685
 10
9.163385826771653
 20
2.381889763779527
 10
9.131889763779527
 20
2.381889763779527
 10
9.131889763779527
 20
1.909448818897637
 10
9.163385826771653
 20
1.909448818897637
 10
9.163385826771653
 20
1.87007874015748
 10
9.714566929133857
 20
1.87007874015748
 10
9.714566929133857
 20
1.909448818897637
  0
LWPOLYLINE
  5
3AC
330
6F
100
AcDbEntity
  8
LAYER1
100
AcDbPolyline
 90
       13
 70
     1
 43
0.0
 10
10.46259842519685
 20
1.909448818897637
 10
10.49409448818897
 20
1.909448818897637
 10
10.49409448818897
 20
2.381889763779527
 10
10.46259842519685
 20
2.381889763779527
 10
10.46259842519685
 20
2.421259842519685
 10
9.911417322834646
 20
2.421259842519685
 10
9.911417322834646
 20
2.381889763779527
 10
9.879921259842518
 20
2.381889763779527
 10
9.879921259842518
 20
1.909448818897637
 10
9.911417322834646
 20
1.909448818897637
 10
9.911417322834646
 20
1.87007874015748
 10
10.46259842519685
 20
1.87007874015748
 10
10.46259842519685
 20
1.909448818897637
  0
LWPOLYLINE
  5
3BB
330
6F
100
AcDbEntity
  8
LAYER1
100
AcDbPolyline
 90
       13
 70
     1
 43
0.0
 10
11.21062992125984
 20
1.909448818897637
 10
11.24212598425197
 20
1.909448818897637
 10
11.24212598425197
 20
2.381889763779527
 10
11.21062992125984
 20
2.381889763779527
 10
11.21062992125984
 20
2.421259842519685
 10
10.65944881889763
 20
2.421259842519685
 10
10.65944881889763
 20
2.381889763779527
 10
10.62795275590551
 20
2.381889763779527
 10
10.62795275590551
 20
1.909448818897637
 10
10.65944881889763
 20
1.909448818897637
 10
10.65944881889763
 20
1.87007874015748
 10
11.21062992125984
 20
1.87007874015748
 10
11.21062992125984
 20
1.909448818897637
  0
LWPOLYLINE
  5
3CA
330
6F
100
AcDbEntity
  8
LAYER1
100
AcDbPolyline
 90
       13
 70
     1
 43
0.0
 10
11.95866141732283
 20
1.909448818897637
 10
11.99015748031496
 20
1.909448818897637
 10
11.99015748031496
 20
2.381889763779527
 10
11.95866141732283
 20
2.381889763779527
 10
11.95866141732283
 20
2.421259842519685
 10
11.40748031496063
 20
2.421259842519685
 10
11.40748031496063
 20
2.381889763779527
 10
11.3759842519685
 20
2.381889763779527
 10
11.3759842519685
 20
1.909448818897637
 10
11.40748031496063
 20
1.909448818897637
 10
11.40748031496063
 20
1.87007874015748
 10
11.95866141732283
 20
1.87007874015748
 10
11.95866141732283
 20
1.909448818897637
  0
LWPOLYLINE
  5
3D9
330
6F
100
AcDbEntity
  8
LAYER1
100
AcDbPolyline
 90
       13
 70
     1
 43
0.0
 10
12.70669291338582
 20
1.909448818897637
 10
12.73818897637795
 20
1.909448818897637
 10
12.73818897637795
 20
2.381889763779527
 10
12.70669291338582
 20
2.381889763779527
 10
12.70669291338582
 20
2.421259842519685
 10
12.15551181102362
 20
2.421259842519685
 10
12.15551181102362
 20
2.381889763779527
 10
12.1240157480315
 20
2.381889763779527
 10
12.1240157480315
 20
1.909448818897637
 10
12.15551181102362
 20
1.909448818897637
 10
12.15551181102362
 20
1.87007874015748
 10
12.70669291338582
 20
1.87007874015748
 10
12.70669291338582
 20
1.909448818897637
  0
LWPOLYLINE
  5
3E8
330
6F
100
AcDbEntity
  8
LAYER1
100
AcDbPolyline
 90
       53
 70
     1
 43
0.0
 10
13.24311023622047
 20
1.879133858267716
 10
13.30905511811024
 20
1.879133858267716
 10
13.30905511811024
 20
1.910629921259842
 10
13.33956692913386
 20
1.910629921259842
 10
13.33956692913386
 20
1.909448818897637
 10
13.37106299212598
 20
1.909448818897637
 10
13.37106299212598
 20
1.87007874015748
 10
13.92224409448819
 20
1.87007874015748
 10
13.92224409448819
 20
1.909448818897637
 10
13.95374015748031
 20
1.909448818897637
 10
13.95374015748031
 20
1.910629921259842
 10
13.98425196850394
 20
1.910629921259842
 10
13.98425196850394
 20
1.879133858267716
 10
14.0501968503937
 20
1.879133858267716
 10
14.0501968503937
 20
1.84007874015748
 10
14.18011811023622
 20
1.84007874015748
 10
14.18011811023622
 20
1.879133858267716
 10
14.24606299212598
 20
1.879133858267716
 10
14.24606299212598
 20
2.125984251968503
 10
14.28051181102362
 20
2.125984251968503
 10
14.28051181102362
 20
2.236220472440944
 10
14.24606299212598
 20
2.236220472440944
 10
14.24606299212598
 20
2.363385826771653
 10
14.18011811023622
 20
2.363385826771653
 10
14.18011811023622
 20
2.391259842519684
 10
14.0501968503937
 20
2.391259842519684
 10
14.0501968503937
 20
2.363385826771653
 10
13.98425196850394
 20
2.363385826771653
 10
13.98425196850394
 20
2.331889763779527
 10
13.95374015748031
 20
2.331889763779527
 10
13.95374015748031
 20
2.381889763779527
 10
13.92224409448819
 20
2.381889763779527
 10
13.92224409448819
 20
2.421259842519685
 10
13.37106299212598
 20
2.421259842519685
 10
13.37106299212598
 20
2.381889763779527
 10
13.33956692913386
 20
2.381889763779527
 10
13.33956692913386
 20
2.331889763779527
 10
13.30905511811024
 20
2.331889763779527
 10
13.30905511811024
 20
2.363385826771653
 10
13.24311023622047
 20
2.363385826771653
 10
13.24311023622047
 20
2.391259842519684
 10
13.11318897637795
 20
2.391259842519684
 10
13.11318897637795
 20
2.363385826771653
 10
13.04724409448819
 20
2.363385826771653
 10
13.04724409448819
 20
2.236220472440944
 10
13.01279527559055
 20
2.236220472440944
 10
13.01279527559055
 20
2.125984251968503
 10
13.04724409448819
 20
2.125984251968503
 10
13.04724409448819
 20
1.879133858267716
 10
13.11318897637795
 20
1.879133858267716
 10
13.11318897637795
 20
1.84007874015748
 10
13.24311023622047
 20
1.84007874015748
 10
13.24311023622047
 20
1.879133858267716
  0
LWPOLYLINE
  5
41F
330
6F
100
AcDbEntity
  8
LAYER1
100
AcDbPolyline
 90
       13
 70
     1
 43
0.0
 10
15.13779527559055
 20
1.909448818897637
 10
15.16929133858267
 20
1.909448818897637
 10
15.16929133858267
 20
2.381889763779527
 10
15.13779527559055
 20
2.381889763779527
 10
15.13779527559055
 20
2.421259842519685
 10
14.58661417322834
 20
2.421259842519685
 10
14.58661417322834
 20
2.381889763779527
 10
14.55511811023622
 20
2.381889763779527
 10
14.55511811023622
 20
1.909448818897637
 10
14.58661417322834
 20
1.909448818897637
 10
14.58661417322834
 20
1.87007874015748
 10
15.13779527559055
 20
1.87007874015748
 10
15.13779527559055
 20
1.909448818897637
  0
LWPOLYLINE
  5
42E
330
6F
100
AcDbEntity
  8
LAYER1
100
AcDbPolyline
 90
       53
 70
     1
 43
0.0
 10
0.3830708661417323
 20
1.427165354330708
 10
0.3830708661417323
 20
1.361220472440944
 10
0.4145669291338583
 20
1.361220472440944
 10
0.4145669291338583
 20
1.330708661417322
 10
0.4133858267716536
 20
1.330708661417322
 10
0.4133858267716536
 20
1.299212598425196
 10
0.3740157480314961
 20
1.299212598425196
 10
0.3740157480314961
 20
0.7480314960629922
 10
0.4133858267716536
 20
0.7480314960629922
 10
0.4133858267716536
 20
0.7165354330708662
 10
0.4145669291338583
 20
0.7165354330708662
 10
0.4145669291338583
 20
0.6860236220472441
 10
0.3830708661417323
 20
0.6860236220472441
 10
0.3830708661417323
 20
0.6200787401574804
 10
0.344015748031496
 20
0.6200787401574804
 10
0.344015748031496
 20
0.4901574803149606
 10
0.3830708661417323
 20
0.4901574803149606
 10
0.3830708661417323
 20
0.4242125984251969
 10
0.6299212598425197
 20
0.4242125984251969
 10
0.6299212598425197
 20
0.3897637795275591
 10
0.7401574803149607
 20
0.3897637795275591
 10
0.7401574803149607
 20
0.4242125984251969
 10
0.8673228346456692
 20
0.4242125984251969
 10
0.8673228346456692
 20
0.4901574803149606
 10
0.8951968503937008
 20
0.4901574803149606
 10
0.8951968503937008
 20
0.6200787401574804
 10
0.8673228346456692
 20
0.6200787401574804
 10
0.8673228346456692
 20
0.6860236220472441
 10
0.8358267716535433
 20
0.6860236220472441
 10
0.8358267716535433
 20
0.7165354330708662
 10
0.8858267716535433
 20
0.7165354330708662
 10
0.8858267716535433
 20
0.7480314960629922
 10
0.9251968503937007
 20
0.7480314960629922
 10
0.9251968503937007
 20
1.299212598425196
 10
0.8858267716535433
 20
1.299212598425196
 10
0.8858267716535433
 20
1.330708661417322
 10
0.8358267716535433
 20
1.330708661417322
 10
0.8358267716535433
 20
1.361220472440944
 10
0.8673228346456692
 20
1.361220472440944
 10
0.8673228346456692
 20
1.427165354330708
 10
0.8951968503937008
 20
1.427165354330708
 10
0.8951968503937008
 20
1.557086614173228
 10
0.8673228346456692
 20
1.557086614173228
 10
0.8673228346456692
 20
1.623031496062992
 10
0.7401574803149607
 20
1.623031496062992
 10
0.7401574803149607
 20
1.657480314960629
 10
0.6299212598425197
 20
1.657480314960629
 10
0.6299212598425197
 20
1.623031496062992
 10
0.3830708661417323
 20
1.623031496062992
 10
0.3830708661417323
 20
1.557086614173228
 10
0.344015748031496
 20
1.557086614173228
 10
0.344015748031496
 20
1.427165354330708
 10
0.3830708661417323
 20
1.427165354330708
  0
LWPOLYLINE
  5
465
330
6F
100
AcDbEntity
  8
LAYER1
100
AcDbPolyline
 90
       13
 70
     1
 43
0.0
 10
1.673228346456692
 20
1.161417322834645
 10
1.704724409448818
 20
1.161417322834645
 10
1.704724409448818
 20
1.633858267716535
 10
1.673228346456692
 20
1.633858267716535
 10
1.673228346456692
 20
1.673228346456692
 10
1.122047244094488
 20
1.673228346456692
 10
1.122047244094488
 20
1.633858267716535
 10
1.090551181102362
 20
1.633858267716535
 10
1.090551181102362
 20
1.161417322834645
 10
1.122047244094488
 20
1.161417322834645
 10
1.122047244094488
 20
1.122047244094488
 10
1.673228346456692
 20
1.122047244094488
 10
1.673228346456692
 20
1.161417322834645
  0
LWPOLYLINE
  5
474
330
6F
100
AcDbEntity
  8
LAYER1
100
AcDbPolyline
 90
       13
 70
     1
 43
0.0
 10
2.421259842519685
 20
1.161417322834645
 10
2.45275590551181
 20
1.161417322834645
 10
2.45275590551181
 20
1.633858267716535
 10
2.421259842519685
 20
1.633858267716535
 10
2.421259842519685
 20
1.673228346456692
 10
1.87007874015748
 20
1.673228346456692
 10
1.87007874015748
 20
1.633858267716535
 10
1.838582677165354
 20
1.633858267716535
 10
1.838582677165354
 20
1.161417322834645
 10
1.87007874015748
 20
1.161417322834645
 10
1.87007874015748
 20
1.122047244094488
 10
2.421259842519685
 20
1.122047244094488
 10
2.421259842519685
 20
1.161417322834645
  0
LWPOLYLINE
  5
483
330
6F
100
AcDbEntity
  8
LAYER1
100
AcDbPolyline
 90
       13
 70
     1
 43
0.0
 10
3.169291338582677
 20
1.161417322834645
 10
3.200787401574802
 20
1.161417322834645
 10
3.200787401574802
 20
1.633858267716535
 10
3.169291338582677
 20
1.633858267716535
 10
3.169291338582677
 20
1.673228346456692
 10
2.618110236220472
 20
1.673228346456692
 10
2.618110236220472
 20
1.633858267716535
 10
2.586614173228346
 20
1.633858267716535
 10
2.586614173228346
 20
1.161417322834645
 10
2.618110236220472
 20
1.161417322834645
 10
2.618110236220472
 20
1.122047244094488
 10
3.169291338582677
 20
1.122047244094488
 10
3.169291338582677
 20
1.161417322834645
  0
LWPOLYLINE
  5
492
330
6F
100
AcDbEntity
  8
LAYER1
100
AcDbPolyline
 90
       53
 70
     1
 43
0.0
 10
3.705708661417322
 20
1.131102362204724
 10
3.771653543307086
 20
1.131102362204724
 10
3.771653543307086
 20
1.16259842519685
 10
3.802165354330708
 20
1.16259842519685
 10
3.802165354330708
 20
1.161417322834645
 10
3.833661417322834
 20
1.161417322834645
 10
3.833661417322834
 20
1.122047244094488
 10
4.384842519685038
 20
1.122047244094488
 10
4.384842519685038
 20
1.161417322834645
 10
4.416338582677164
 20
1.161417322834645
 10
4.416338582677164
 20
1.16259842519685
 10
4.446850393700787
 20
1.16259842519685
 10
4.446850393700787
 20
1.131102362204724
 10
4.51279527559055
 20
1.131102362204724
 10
4.51279527559055
 20
1.092047244094488
 10
4.64271653543307
 20
1.092047244094488
 10
4.64271653543307
 20
1.131102362204724
 10
4.708661417322834
 20
1.131102362204724
 10
4.708661417322834
 20
1.377952755905511
 10
4.743110236220472
 20
1.377952755905511
 10
4.743110236220472
 20
1.488188976377952
 10
4.708661417322834
 20
1.488188976377952
 10
4.708661417322834
 20
1.615354330708661
 10
4.64271653543307
 20
1.615354330708661
 10
4.64271653543307
 20
1.643228346456692
 10
4.51279527559055
 20
1.643228346456692
 10
4.51279527559055
 20
1.615354330708661
 10
4.446850393700787
 20
1.615354330708661
 10
4.446850393700787
 20
1.583858267716535
 10
4.416338582677164
 20
1.583858267716535
 10
4.416338582677164
 20
1.633858267716535
 10
4.384842519685038
 20
1.633858267716535
 10
4.384842519685038
 20
1.673228346456692
 10
3.833661417322834
 20
1.673228346456692
 10
3.833661417322834
 20
1.633858267716535
 10
3.802165354330708
 20
1.633858267716535
 10
3.802165354330708
 20
1.583858267716535
 10
3.771653543307086
 20
1.583858267716535
 10
3.771653543307086
 20
1.615354330708661
 10
3.705708661417322
 20
1.615354330708661
 10
3.705708661417322
 20
1.643228346456692
 10
3.575787401574803
 20
1.643228346456692
 10
3.575787401574803
 20
1.615354330708661
 10
3.509842519685039
 20
1.615354330708661
 10
3.509842519685039
 20
1.488188976377952
 10
3.475393700787401
 20
1.488188976377952
 10
3.475393700787401
 20
1.377952755905511
 10
3.509842519685039
 20
1.377952755905511
 10
3.509842519685039
 20
1.131102362204724
 10
3.575787401574803
 20
1.131102362204724
 10
3.575787401574803
 20
1.092047244094488
 10
3.705708661417322
 20
1.092047244094488
 10
3.705708661417322
 20
1.131102362204724
  0
LWPOLYLINE
  5
4C9
330
6F
100
AcDbEntity
  8
LAYER1
100
AcDbPolyline
 90
       13
 70
     1
 43
0.0
 10
5.600393700787401
 20
1.161417322834645
 10
5.631889763779527
 20
1.161417322834645
 10
5.631889763779527
 20
1.633858267716535
 10
5.600393700787401
 20
1.633858267716535
 10
5.600393700787401
 20
1.673228346456692
 10
5.049212598425197
 20
1.673228346456692
 10
5.049212598425197
 20
1.633858267716535
 10
5.017716535433071
 20
1.633858267716535
 10
5.017716535433071
 20
1.161417322834645
 10
5.049212598425197
 20
1.161417322834645
 10
5.049212598425197
 20
1.122047244094488
 10
5.600393700787401
 20
1.122047244094488
 10
5.600393700787401
 20
1.161417322834645
  0
LWPOLYLINE
  5
4D8
330
6F
100
AcDbEntity
  8
LAYER1
100
AcDbPolyline
 90
       13
 70
     1
 43
0.0
 10
6.348425196850393
 20
1.161417322834645
 10
6.37992125984252
 20
1.161417322834645
 10
6.37992125984252
 20
1.633858267716535
 10
6.348425196850393
 20
1.633858267716535
 10
6.348425196850393
 20
1.673228346456692
 10
5.797244094488188
 20
1.673228346456692
 10
5.797244094488188
 20
1.633858267716535
 10
5.765748031496062
 20
1.633858267716535
 10
5.765748031496062
 20
1.161417322834645
 10
5.797244094488188
 20
1.161417322834645
 10
5.797244094488188
 20
1.122047244094488
 10
6.348425196850393
 20
1.122047244094488
 10
6.348425196850393
 20
1.161417322834645
  0
LWPOLYLINE
  5
4E7
330
6F
100
AcDbEntity
  8
LAYER1
100
AcDbPolyline
 90
       13
 70
     1
 43
0.0
 10
7.096456692913386
 20
1.161417322834645
 10
7.127952755905512
 20
1.161417322834645
 10
7.127952755905512
 20
1.633858267716535
 10
7.096456692913386
 20
1.633858267716535
 10
7.096456692913386
 20
1.673228346456692
 10
6.54527559055118
 20
1.673228346456692
 10
6.54527559055118
 20
1.633858267716535
 10
6.513779527559054
 20
1.633858267716535
 10
6.513779527559054
 20
1.161417322834645
 10
6.54527559055118
 20
1.161417322834645
 10
6.54527559055118
 20
1.122047244094488
 10
7.096456692913386
 20
1.122047244094488
 10
7.096456692913386
 20
1.161417322834645
  0
LWPOLYLINE
  5
4F6
330
6F
100
AcDbEntity
  8
LAYER1
100
AcDbPolyline
 90
       13
 70
     1
 43
0.0
 10
7.844488188976377
 20
1.161417322834645
 10
7.875984251968504
 20
1.161417322834645
 10
7.875984251968504
 20
1.633858267716535
 10
7.844488188976377
 20
1.633858267716535
 10
7.844488188976377
 20
1.673228346456692
 10
7.293307086614173
 20
1.673228346456692
 10
7.293307086614173
 20
1.633858267716535
 10
7.261811023622046
 20
1.633858267716535
 10
7.261811023622046
 20
1.161417322834645
 10
7.293307086614173
 20
1.161417322834645
 10
7.293307086614173
 20
1.122047244094488
 10
7.844488188976377
 20
1.122047244094488
 10
7.844488188976377
 20
1.161417322834645
  0
LWPOLYLINE
  5
505
330
6F
100
AcDbEntity
  8
LAYER1
100
AcDbPolyline
 90
       13
 70
     1
 43
0.0
 10
8.59251968503937
 20
1.161417322834645
 10
8.624015748031496
 20
1.161417322834645
 10
8.624015748031496
 20
1.633858267716535
 10
8.59251968503937
 20
1.633858267716535
 10
8.59251968503937
 20
1.673228346456692
 10
8.041338582677164
 20
1.673228346456692
 10
8.041338582677164
 20
1.633858267716535
 10
8.009842519685038
 20
1.633858267716535
 10
8.009842519685038
 20
1.161417322834645
 10
8.041338582677164
 20
1.161417322834645
 10
8.041338582677164
 20
1.122047244094488
 10
8.59251968503937
 20
1.122047244094488
 10
8.59251968503937
 20
1.161417322834645
  0
LWPOLYLINE
  5
514
330
6F
100
AcDbEntity
  8
LAYER1
100
AcDbPolyline
 90
       13
 70
     1
 43
0.0
 10
9.340551181102362
 20
1.161417322834645
 10
9.372047244094488
 20
1.161417322834645
 10
9.372047244094488
 20
1.633858267716535
 10
9.340551181102362
 20
1.633858267716535
 10
9.340551181102362
 20
1.673228346456692
 10
8.789370078740157
 20
1.673228346456692
 10
8.789370078740157
 20
1.633858267716535
 10
8.757874015748031
 20
1.633858267716535
 10
8.757874015748031
 20
1.161417322834645
 10
8.789370078740157
 20
1.161417322834645
 10
8.789370078740157
 20
1.122047244094488
 10
9.340551181102362
 20
1.122047244094488
 10
9.340551181102362
 20
1.161417322834645
  0
LWPOLYLINE
  5
523
330
6F
100
AcDbEntity
  8
LAYER1
100
AcDbPolyline
 90
       13
 70
     1
 43
0.0
 10
10.08858267716535
 20
1.161417322834645
 10
10.12007874015748
 20
1.161417322834645
 10
10.12007874015748
 20
1.633858267716535
 10
10.08858267716535
 20
1.633858267716535
 10
10.08858267716535
 20
1.673228346456692
 10
9.537401574803149
 20
1.673228346456692
 10
9.537401574803149
 20
1.633858267716535
 10
9.505905511811022
 20
1.633858267716535
 10
9.505905511811022
 20
1.161417322834645
 10
9.537401574803149
 20
1.161417322834645
 10
9.537401574803149
 20
1.122047244094488
 10
10.08858267716535
 20
1.122047244094488
 10
10.08858267716535
 20
1.161417322834645
  0
LWPOLYLINE
  5
532
330
6F
100
AcDbEntity
  8
LAYER1
100
AcDbPolyline
 90
       13
 70
     1
 43
0.0
 10
10.83661417322834
 20
1.161417322834645
 10
10.86811023622047
 20
1.161417322834645
 10
10.86811023622047
 20
1.633858267716535
 10
10.83661417322834
 20
1.633858267716535
 10
10.83661417322834
 20
1.673228346456692
 10
10.28543307086614
 20
1.673228346456692
 10
10.28543307086614
 20
1.633858267716535
 10
10.25393700787401
 20
1.633858267716535
 10
10.25393700787401
 20
1.161417322834645
 10
10.28543307086614
 20
1.161417322834645
 10
10.28543307086614
 20
1.122047244094488
 10
10.83661417322834
 20
1.122047244094488
 10
10.83661417322834
 20
1.161417322834645
  0
LWPOLYLINE
  5
541
330
6F
100
AcDbEntity
  8
LAYER1
100
AcDbPolyline
 90
       13
 70
     1
 43
0.0
 10
11.58464566929134
 20
1.161417322834645
 10
11.61614173228346
 20
1.161417322834645
 10
11.61614173228346
 20
1.633858267716535
 10
11.58464566929134
 20
1.633858267716535
 10
11.58464566929134
 20
1.673228346456692
 10
11.03346456692913
 20
1.673228346456692
 10
11.03346456692913
 20
1.633858267716535
 10
11.001968503937
 20
1.633858267716535
 10
11.001968503937
 20
1.161417322834645
 10
11.03346456692913
 20
1.161417322834645
 10
11.03346456692913
 20
1.122047244094488
 10
11.58464566929134
 20
1.122047244094488
 10
11.58464566929134
 20
1.161417322834645
  0
LWPOLYLINE
  5
550
330
6F
100
AcDbEntity
  8
LAYER1
100
AcDbPolyline
 90
       13
 70
     1
 43
0.0
 10
12.33267716535433
 20
1.161417322834645
 10
12.36417322834646
 20
1.161417322834645
 10
12.36417322834646
 20
1.633858267716535
 10
12.33267716535433
 20
1.633858267716535
 10
12.33267716535433
 20
1.673228346456692
 10
11.78149606299212
 20
1.673228346456692
 10
11.78149606299212
 20
1.633858267716535
 10
11.75
 20
1.633858267716535
 10
11.75
 20
1.161417322834645
 10
11.78149606299212
 20
1.161417322834645
 10
11.78149606299212
 20
1.122047244094488
 10
12.33267716535433
 20
1.122047244094488
 10
12.33267716535433
 20
1.161417322834645
  0
LWPOLYLINE
  5
55F
330
6F
100
AcDbEntity
  8
LAYER1
100
AcDbPolyline
 90
       13
 70
     1
 43
0.0
 10
13.36122047244094
 20
1.161417322834645
 10
13.39271653543307
 20
1.161417322834645
 10
13.39271653543307
 20
1.633858267716535
 10
13.36122047244094
 20
1.633858267716535
 10
13.36122047244094
 20
1.673228346456692
 10
12.81003937007874
 20
1.673228346456692
 10
12.81003937007874
 20
1.633858267716535
 10
12.77854330708661
 20
1.633858267716535
 10
12.77854330708661
 20
1.161417322834645
 10
12.81003937007874
 20
1.161417322834645
 10
12.81003937007874
 20
1.122047244094488
 10
13.36122047244094
 20
1.122047244094488
 10
13.36122047244094
 20
1.161417322834645
  0
LWPOLYLINE
  5
56E
330
6F
100
AcDbEntity
  8
LAYER1
100
AcDbPolyline
 90
       13
 70
     1
 43
0.0
 10
14.38976377952756
 20
1.161417322834645
 10
14.42125984251968
 20
1.161417322834645
 10
14.42125984251968
 20
1.633858267716535
 10
14.38976377952756
 20
1.633858267716535
 10
14.38976377952756
 20
1.673228346456692
 10
13.83858267716535
 20
1.673228346456692
 10
13.83858267716535
 20
1.633858267716535
 10
13.80708661417323
 20
1.633858267716535
 10
13.80708661417323
 20
1.161417322834645
 10
13.83858267716535
 20
1.161417322834645
 10
13.83858267716535
 20
1.122047244094488
 10
14.38976377952756
 20
1.122047244094488
 10
14.38976377952756
 20
1.161417322834645
  0
LWPOLYLINE
  5
57D
330
6F
100
AcDbEntity
  8
LAYER1
100
AcDbPolyline
 90
       13
 70
     1
 43
0.0
 10
15.13779527559055
 20
1.161417322834645
 10
15.16929133858267
 20
1.161417322834645
 10
15.16929133858267
 20
1.633858267716535
 10
15.13779527559055
 20
1.633858267716535
 10
15.13779527559055
 20
1.673228346456692
 10
14.58661417322834
 20
1.673228346456692
 10
14.58661417322834
 20
1.633858267716535
 10
14.55511811023622
 20
1.633858267716535
 10
14.55511811023622
 20
1.161417322834645
 10
14.58661417322834
 20
1.161417322834645
 10
14.58661417322834
 20
1.122047244094488
 10
15.13779527559055
 20
1.122047244094488
 10
15.13779527559055
 20
1.161417322834645
  0
LWPOLYLINE
  5
58C
330
6F
100
AcDbEntity
  8
LAYER1
100
AcDbPolyline
 90
       13
 70
     1
 43
0.0
 10
1.673228346456692
 20
0.4133858267716536
 10
1.704724409448818
 20
0.4133858267716536
 10
1.704724409448818
 20
0.8858267716535433
 10
1.673228346456692
 20
0.8858267716535433
 10
1.673228346456692
 20
0.9251968503937007
 10
1.122047244094488
 20
0.9251968503937007
 10
1.122047244094488
 20
0.8858267716535433
 10
1.090551181102362
 20
0.8858267716535433
 10
1.090551181102362
 20
0.4133858267716536
 10
1.122047244094488
 20
0.4133858267716536
 10
1.122047244094488
 20
0.3740157480314961
 10
1.673228346456692
 20
0.3740157480314961
 10
1.673228346456692
 20
0.4133858267716536
  0
LWPOLYLINE
  5
59B
330
6F
100
AcDbEntity
  8
LAYER1
100
AcDbPolyline
 90
       53
 70
     1
 43
0.0
 10
2.116141732283464
 20
0.3830708661417323
 10
2.182086614173228
 20
0.3830708661417323
 10
2.182086614173228
 20
0.4145669291338583
 10
2.21259842519685
 20
0.4145669291338583
 10
2.21259842519685
 20
0.4133858267716536
 10
2.244094488188976
 20
0.4133858267716536
 10
2.244094488188976
 20
0.3740157480314961
 10
2.795275590551181
 20
0.3740157480314961
 10
2.795275590551181
 20
0.4133858267716536
 10
2.826771653543307
 20
0.4133858267716536
 10
2.826771653543307
 20
0.4145669291338583
 10
2.857283464566929
 20
0.4145669291338583
 10
2.857283464566929
 20
0.3830708661417323
 10
2.923228346456692
 20
0.3830708661417323
 10
2.923228346456692
 20
0.344015748031496
 10
3.053149606299212
 20
0.344015748031496
 10
3.053149606299212
 20
0.3830708661417323
 10
3.119094488188975
 20
0.3830708661417323
 10
3.119094488188975
 20
0.6299212598425197
 10
3.153543307086613
 20
0.6299212598425197
 10
3.153543307086613
 20
0.7401574803149607
 10
3.119094488188975
 20
0.7401574803149607
 10
3.119094488188975
 20
0.8673228346456692
 10
3.053149606299212
 20
0.8673228346456692
 10
3.053149606299212
 20
0.8951968503937008
 10
2.923228346456692
 20
0.8951968503937008
 10
2.923228346456692
 20
0.8673228346456692
 10
2.857283464566929
 20
0.8673228346456692
 10
2.857283464566929
 20
0.8358267716535433
 10
2.826771653543307
 20
0.8358267716535433
 10
2.826771653543307
 20
0.8858267716535433
 10
2.795275590551181
 20
0.8858267716535433
 10
2.795275590551181
 20
0.9251968503937007
 10
2.244094488188976
 20
0.9251968503937007
 10
2.244094488188976
 20
0.8858267716535433
 10
2.21259842519685
 20
0.8858267716535433
 10
2.21259842519685
 20
0.8358267716535433
 10
2.182086614173228
 20
0.8358267716535433
 10
2.182086614173228
 20
0.8673228346456692
 10
2.116141732283464
 20
0.8673228346456692
 10
2.116141732283464
 20
0.8951968503937008
 10
1.986220472440944
 20
0.8951968503937008
 10
1.986220472440944
 20
0.8673228346456692
 10
1.920275590551181
 20
0.8673228346456692
 10
1.920275590551181
 20
0.7401574803149607
 10
1.885826771653543
 20
0.7401574803149607
 10
1.885826771653543
 20
0.6299212598425197
 10
1.920275590551181
 20
0.6299212598425197
 10
1.920275590551181
 20
0.3830708661417323
 10
1.986220472440944
 20
0.3830708661417323
 10
1.986220472440944
 20
0.344015748031496
 10
2.116141732283464
 20
0.344015748031496
 10
2.116141732283464
 20
0.3830708661417323
  0
LWPOLYLINE
  5
5D2
330
6F
100
AcDbEntity
  8
LAYER1
100
AcDbPolyline
 90
       13
 70
     1
 43
0.0
 10
4.010826771653543
 20
0.4133858267716536
 10
4.042322834645669
 20
0.4133858267716536
 10
4.042322834645669
 20
0.8858267716535433
 10
4.010826771653543
 20
0.8858267716535433
 10
4.010826771653543
 20
0.9251968503937007
 10
3.459645669291338
 20
0.9251968503937007
 10
3.459645669291338
 20
0.8858267716535433
 10
3.428149606299212
 20
0.8858267716535433
 10
3.428149606299212
 20
0.4133858267716536
 10
3.459645669291338
 20
0.4133858267716536
 10
3.459645669291338
 20
0.3740157480314961
 10
4.010826771653543
 20
0.3740157480314961
 10
4.010826771653543
 20
0.4133858267716536
  0
LWPOLYLINE
  5
5E1
330
6F
100
AcDbEntity
  8
LAYER1
100
AcDbPolyline
 90
       13
 70
     1
 43
0.0
 10
4.945866141732283
 20
0.4133858267716536
 10
4.977362204724409
 20
0.4133858267716536
 10
4.977362204724409
 20
0.8858267716535433
 10
4.945866141732283
 20
0.8858267716535433
 10
4.945866141732283
 20
0.9251968503937007
 10
4.394685039370078
 20
0.9251968503937007
 10
4.394685039370078
 20
0.8858267716535433
 10
4.363188976377952
 20
0.8858267716535433
 10
4.363188976377952
 20
0.4133858267716536
 10
4.394685039370078
 20
0.4133858267716536
 10
4.394685039370078
 20
0.3740157480314961
 10
4.945866141732283
 20
0.3740157480314961
 10
4.945866141732283
 20
0.4133858267716536
  0
LWPOLYLINE
  5
5F0
330
6F
100
AcDbEntity
  8
LAYER1
100
AcDbPolyline
 90
       13
 70
     1
 43
0.0
 10
5.880905511811023
 20
0.4133858267716536
 10
5.912401574803149
 20
0.4133858267716536
 10
5.912401574803149
 20
0.8858267716535433
 10
5.880905511811023
 20
0.8858267716535433
 10
5.880905511811023
 20
0.9251968503937007
 10
5.329724409448818
 20
0.9251968503937007
 10
5.329724409448818
 20
0.8858267716535433
 10
5.298228346456692
 20
0.8858267716535433
 10
5.298228346456692
 20
0.4133858267716536
 10
5.329724409448818
 20
0.4133858267716536
 10
5.329724409448818
 20
0.3740157480314961
 10
5.880905511811023
 20
0.3740157480314961
 10
5.880905511811023
 20
0.4133858267716536
  0
LWPOLYLINE
  5
5FF
330
6F
100
AcDbEntity
  8
LAYER1
100
AcDbPolyline
 90
       53
 70
     1
 43
0.0
 10
6.506889763779527
 20
0.3830708661417323
 10
6.57283464566929
 20
0.3830708661417323
 10
6.57283464566929
 20
0.5590551181102362
 10
8.103346456692912
 20
0.5590551181102362
 10
8.103346456692912
 20
0.4133858267716536
 10
8.134842519685038
 20
0.4133858267716536
 10
8.134842519685038
 20
0.3740157480314961
 10
8.686023622047244
 20
0.3740157480314961
 10
8.686023622047244
 20
0.4133858267716536
 10
8.71751968503937
 20
0.4133858267716536
 10
8.71751968503937
 20
0.5590551181102362
 10
10.24803149606299
 20
0.5590551181102362
 10
10.24803149606299
 20
0.3830708661417323
 10
10.31397637795276
 20
0.3830708661417323
 10
10.31397637795276
 20
0.344015748031496
 10
10.44389763779527
 20
0.344015748031496
 10
10.44389763779527
 20
0.3830708661417323
 10
10.50984251968504
 20
0.3830708661417323
 10
10.50984251968504
 20
0.6299212598425197
 10
10.54527559055118
 20
0.6299212598425197
 10
10.54527559055118
 20
0.7401574803149607
 10
10.50984251968504
 20
0.7401574803149607
 10
10.50984251968504
 20
0.8673228346456692
 10
10.44389763779527
 20
0.8673228346456692
 10
10.44389763779527
 20
0.8951968503937008
 10
10.31397637795276
 20
0.8951968503937008
 10
10.31397637795276
 20
0.8673228346456692
 10
10.24803149606299
 20
0.8673228346456692
 10
10.24803149606299
 20
0.7401574803149607
 10
8.71751968503937
 20
0.7401574803149607
 10
8.71751968503937
 20
0.8858267716535433
 10
8.686023622047244
 20
0.8858267716535433
 10
8.686023622047244
 20
0.9251968503937007
 10
8.134842519685038
 20
0.9251968503937007
 10
8.134842519685038
 20
0.8858267716535433
 10
8.103346456692912
 20
0.8858267716535433
 10
8.103346456692912
 20
0.7401574803149607
 10
6.57283464566929
 20
0.7401574803149607
 10
6.57283464566929
 20
0.8673228346456692
 10
6.506889763779527
 20
0.8673228346456692
 10
6.506889763779527
 20
0.8951968503937008
 10
6.376968503937007
 20
0.8951968503937008
 10
6.376968503937007
 20
0.8673228346456692
 10
6.311023622047244
 20
0.8673228346456692
 10
6.311023622047244
 20
0.7401574803149607
 10
6.275590551181102
 20
0.7401574803149607
 10
6.275590551181102
 20
0.6299212598425197
 10
6.311023622047244
 20
0.6299212598425197
 10
6.311023622047244
 20
0.3830708661417323
 10
6.376968503937007
 20
0.3830708661417323
 10
6.376968503937007
 20
0.344015748031496
 10
6.506889763779527
 20
0.344015748031496
 10
6.506889763779527
 20
0.3830708661417323
  0
LWPOLYLINE
  5
636
330
6F
100
AcDbEntity
  8
LAYER1
100
AcDbPolyline
 90
       13
 70
     1
 43
0.0
 10
11.49114173228346
 20
0.4133858267716536
 10
11.52263779527559
 20
0.4133858267716536
 10
11.52263779527559
 20
0.8858267716535433
 10
11.49114173228346
 20
0.8858267716535433
 10
11.49114173228346
 20
0.9251968503937007
 10
10.93996062992126
 20
0.9251968503937007
 10
10.93996062992126
 20
0.8858267716535433
 10
10.90846456692913
 20
0.8858267716535433
 10
10.90846456692913
 20
0.4133858267716536
 10
10.93996062992126
 20
0.4133858267716536
 10
10.93996062992126
 20
0.3740157480314961
 10
11.49114173228346
 20
0.3740157480314961
 10
11.49114173228346
 20
0.4133858267716536
  0
LWPOLYLINE
  5
645
330
6F
100
AcDbEntity
  8
LAYER1
100
AcDbPolyline
 90
       13
 70
     1
 43
0.0
 10
12.4261811023622
 20
0.4133858267716536
 10
12.45767716535433
 20
0.4133858267716536
 10
12.45767716535433
 20
0.8858267716535433
 10
12.4261811023622
 20
0.8858267716535433
 10
12.4261811023622
 20
0.9251968503937007
 10
11.875
 20
0.9251968503937007
 10
11.875
 20
0.8858267716535433
 10
11.84350393700787
 20
0.8858267716535433
 10
11.84350393700787
 20
0.4133858267716536
 10
11.875
 20
0.4133858267716536
 10
11.875
 20
0.3740157480314961
 10
12.4261811023622
 20
0.3740157480314961
 10
12.4261811023622
 20
0.4133858267716536
  0
LWPOLYLINE
  5
654
330
6F
100
AcDbEntity
  8
LAYER1
100
AcDbPolyline
 90
       13
 70
     1
 43
0.0
 10
13.64173228346456
 20
0.4133858267716536
 10
13.67322834645669
 20
0.4133858267716536
 10
13.67322834645669
 20
0.8858267716535433
 10
13.64173228346456
 20
0.8858267716535433
 10
13.64173228346456
 20
0.9251968503937007
 10
13.09055118110236
 20
0.9251968503937007
 10
13.09055118110236
 20
0.8858267716535433
 10
13.05905511811023
 20
0.8858267716535433
 10
13.05905511811023
 20
0.4133858267716536
 10
13.09055118110236
 20
0.4133858267716536
 10
13.09055118110236
 20
0.3740157480314961
 10
13.64173228346456
 20
0.3740157480314961
 10
13.64173228346456
 20
0.4133858267716536
  0
LWPOLYLINE
  5
663
330
6F
100
AcDbEntity
  8
LAYER1
100
AcDbPolyline
 90
       13
 70
     1
 43
0.0
 10
14.38976377952756
 20
0.4133858267716536
 10
14.42125984251968
 20
0.4133858267716536
 10
14.42125984251968
 20
0.8858267716535433
 10
14.38976377952756
 20
0.8858267716535433
 10
14.38976377952756
 20
0.9251968503937007
 10
13.83858267716535
 20
0.9251968503937007
 10
13.83858267716535
 20
0.8858267716535433
 10
13.80708661417323
 20
0.8858267716535433
 10
13.80708661417323
 20
0.4133858267716536
 10
13.83858267716535
 20
0.4133858267716536
 10
13.83858267716535
 20
0.3740157480314961
 10
14.38976377952756
 20
0.3740157480314961
 10
14.38976377952756
 20
0.4133858267716536
  0
LWPOLYLINE
  5
672
330
6F
100
AcDbEntity
  8
LAYER1
100
AcDbPolyline
 90
       13
 70
     1
 43
0.0
 10
15.13779527559055
 20
0.4133858267716536
 10
15.16929133858267
 20
0.4133858267716536
 10
15.16929133858267
 20
0.8858267716535433
 10
15.13779527559055
 20
0.8858267716535433
 10
15.13779527559055
 20
0.9251968503937007
 10
14.58661417322834
 20
0.9251968503937007
 10
14.58661417322834
 20
0.8858267716535433
 10
14.55511811023622
 20
0.8858267716535433
 10
14.55511811023622
 20
0.4133858267716536
 10
14.58661417322834
 20
0.4133858267716536
 10
14.58661417322834
 20
0.3740157480314961
 10
15.13779527559055
 20
0.3740157480314961
 10
15.13779527559055
 20
0.4133858267716536
  0
DIMENSION
  5
683
330
6F
100
AcDbEntity
  8
0
  6
Continuous
100
AcDbDimension
280
     0
  2
*D0
 10
15.51181102362204
 20
4.763779527559054
 30
0.0
 11
7.755905511811023
 21
4.763779527559054
 31
0.0
 70
    32
 71
     5
 42
15.51181102362204
 73
     0
 74
     0
 75
     0
  3
Standard
100
AcDbAlignedDimension
 13
0.0
 23
4.37007874015748
 33
0.0
 14
15.51181102362204
 24
4.37007874015748
 34
0.0
100
AcDbRotatedDimension
1001
ACAD
1000
DSTYLE
1002
{
1070
    40
1040
1.0
1002
}
  0
DIMENSION
  5
692
330
6F
100
AcDbEntity
  8
0
  6
Continuous
100
AcDbDimension
280
     0
  2
*D1
 10
-0.3543307086614151
 20
0.0000000000000001
 30
0.0
 11
-0.354330708661415
 21
2.145669291338582
 31
0.0
 70
    32
 71
     5
 42
4.291338582677165
 73
     0
 74
     0
 75
     0
  3
Standard
100
AcDbAlignedDimension
 13
0.0
 23
4.291338582677165
 33
0.0
 14
0.0
 24
0.0
 34
0.0
 50
90.0
100
AcDbRotatedDimension
1001
ACAD
1000
DSTYLE
1002
{
1070
    40
1040
1.0
1002
}
  0
ENDSEC
  0
SECTION
  2
OBJECTS
  0
DICTIONARY
  5
C
330
0
100
AcDbDictionary
281
     1
  3
ACAD_CIP_PREVIOUS_PRODUCT_INFO
350
682
  3
ACAD_COLOR
350
62
  3
ACAD_DETAILVIEWSTYLE
350
69
  3
ACAD_GROUP
350
D
  3
ACAD_LAYOUT
350
61
  3
ACAD_MATERIAL
350
10
  3
ACAD_MLEADERSTYLE
350
65
  3
ACAD_MLINESTYLE
350
5E
  3
ACAD_PLOTSETTINGS
350
60
  3
ACAD_PLOTSTYLENAME
350
E
  3
ACAD_SCALELIST
350
42
  3
ACAD_SECTIONVIEWSTYLE
350
67
  3
ACAD_TABLESTYLE
350
63
  3
ACAD_VISUALSTYLE
350
29
  3
ACDB_RECOMPOSE_DATA
350
6FA
  3
AcDbVariableDictionary
350
6ED
  3
AEC_VARS
350
6A0
  0
DICTIONARY
  5
6E7
330
2
100
AcDbDictionary
280
     1
281
     1
  3
ACAD_LAYERSTATES
360
6E8
  0
DICTIONARY
  5
6E0
330
54
100
AcDbDictionary
280
     1
281
     1
  3
ADSK_XREC_LAYER_RECONCILED
360
6E1
  0
DICTIONARY
  5
6E2
330
73
100
AcDbDictionary
280
     1
281
     1
  3
ADSK_XREC_LAYER_RECONCILED
360
6E3
  0
XRECORD
  5
682
102
{ACAD_REACTORS
330
C
102
}
330
C
100
AcDbXrecord
280
     1
300
ACDMAC
300
2019
300
ACDMAC_F_S
  0
DICTIONARY
  5
62
102
{ACAD_REACTORS
330
C
102
}
330
C
100
AcDbDictionary
281
     1
  0
DICTIONARY
  5
69
102
{ACAD_REACTORS
330
C
102
}
330
C
100
AcDbDictionary
281
     1
  3
Imperial24
350
6A
  0
DICTIONARY
  5
D
102
{ACAD_REACTORS
330
C
102
}
330
C
100
AcDbDictionary
281
     1
  0
DICTIONARY
  5
61
102
{ACAD_REACTORS
330
C
102
}
330
C
100
AcDbDictionary
281
     1
  3
Layout1
350
6E
  3
Model
350
72
  0
DICTIONARY
  5
10
102
{ACAD_REACTORS
330
C
102
}
330
C
100
AcDbDictionary
281
     1
  3
ByBlock
350
19
  3
ByLayer
350
11
  3
Global
350
21
  0
DICTIONARY
  5
65
102
{ACAD_REACTORS
330
C
102
}
330
C
100
AcDbDictionary
281
     1
  3
Standard
350
66
  0
DICTIONARY
  5
5E
102
{ACAD_REACTORS
330
C
102
}
330
C
100
AcDbDictionary
281
     1
  3
Standard
350
5F
  0
DICTIONARY
  5
60
102
{ACAD_REACTORS
330
C
102
}
330
C
100
AcDbDictionary
281
     1
  0
ACDBDICTIONARYWDFLT
  5
E
102
{ACAD_REACTORS
330
C
102
}
330
C
100
AcDbDictionary
281
     1
  3
Normal
350
F
100
AcDbDictionaryWithDefault
340
F
  0
DICTIONARY
  5
42
102
{ACAD_REACTORS
330
C
102
}
330
C
100
AcDbDictionary
281
     1
  3
A0
350
43
  3
A1
350
44
  3
A2
350
45
  3
A3
350
46
  3
A4
350
47
  3
A5
350
48
  3
A6
350
49
  3
A7
350
4A
  3
A8
350
4B
  3
A9
350
4C
  3
B0
350
4D
  3
B1
350
4E
  3
B2
350
4F
  3
B3
350
50
  3
B4
350
51
  3
B5
350
52
  3
B6
350
53
  0
DICTIONARY
  5
67
102
{ACAD_REACTORS
330
C
102
}
330
C
100
AcDbDictionary
281
     1
  3
Imperial24
350
68
  0
DICTIONARY
  5
63
102
{ACAD_REACTORS
330
C
102
}
330
C
100
AcDbDictionary
281
     1
  3
Standard
350
64
  0
DICTIONARY
  5
29
102
{ACAD_REACTORS
330
C
102
}
330
C
100
AcDbDictionary
281
     1
  3
2dWireframe
350
2F
  3
Basic
350
2E
  3
Brighten
350
35
  3
ColorChange
350
39
  3
Conceptual
350
32
  3
Dim
350
34
  3
EdgeColorOff
350
41
  3
Facepattern
350
38
  3
Flat
350
2A
  3
FlatWithEdges
350
2B
  3
Gouraud
350
2C
  3
GouraudWithEdges
350
2D
  3
Hidden
350
31
  3
JitterOff
350
3F
  3
Linepattern
350
37
  3
OverhangOff
350
40
  3
Realistic
350
33
  3
Shaded
350
3E
  3
Shaded with edges
350
3D
  3
Shades of Gray
350
3A
  3
Sketchy
350
3B
  3
Thicken
350
36
  3
Wireframe
350
30
  3
X-Ray
350
3C
  0
XRECORD
  5
6FA
102
{ACAD_REACTORS
330
C
102
}
330
C
100
AcDbXrecord
280
     1
 90
        1
330
64
  0
DICTIONARY
  5
6ED
102
{ACAD_REACTORS
330
C
102
}
330
C
100
AcDbDictionary
281
     1
  3
CANNOSCALE
350
6F3
  3
CMLEADERSTYLE
350
6EF
  3
CTABLESTYLE
350
6EE
  3
CVIEWDETAILSTYLE
350
6F0
  3
CVIEWSECTIONSTYLE
350
6F1
  3
LAYEREVAL
350
6F5
  3
LAYERNOTIFY
350
6F6
  3
LIGHTINGUNITS
350
6F4
  3
MSLTSCALE
350
6F2
  0
DICTIONARY
  5
6A0
102
{ACAD_REACTORS
330
C
102
}
330
C
100
AcDbDictionary
281
     1
  3
AEC_VARS_DWG_SETUP
350
6A1
  0
DICTIONARY
  5
6E8
102
{ACAD_REACTORS
330
6E7
102
}
330
6E7
100
AcDbDictionary
281
     1
  0
XRECORD
  5
6E1
102
{ACAD_REACTORS
330
6E0
102
}
330
6E0
100
AcDbXrecord
280
     1
290
     1
  0
XRECORD
  5
6E3
102
{ACAD_REACTORS
330
6E2
102
}
330
6E2
100
AcDbXrecord
280
     1
290
     1
  0
ACDBDETAILVIEWSTYLE
  5
6A
102
{ACAD_REACTORS
330
69
102
}
330
69
100
AcDbModelDocViewStyle
 70
     0
  3
Imperial24
290
     0
300
Imperial24
 90
        0
100
AcDbDetailViewStyle
 70
     0
 71
     0
 90
        3
 71
     1
340
55
 62
   256
 40
0.24
340
0
 62
   256
 40
0.24
300

 40
0.36
280
     3
 71
     2
340
5C
 90
       25
 62
   256
 71
     3
340
55
 62
   256
 40
0.24
 90
        1
 40
0.75
 90
        1
300
%<\AcVar ViewType \f "%tc1">% %<\AcVar ViewDetailId>%\PSCALE %<\AcVar ViewScale \f "%sn">%
 71
     4
340
5C
 90
       25
 62
   256
340
5C
 90
       25
 62
   256
280
     0
  0
LAYOUT
  5
6E
102
{ACAD_REACTORS
330
61
102
}
330
61
100
AcDbPlotSettings
  1

  2

  4

  6

 40
0.0
 41
0.0
 42
0.0
 43
0.0
 44
0.0
 45
0.0
 46
0.0
 47
0.0
 48
0.0
 49
0.0
140
0.0
141
0.0
142
1.0
143
1.0
 70
   688
 72
     0
 73
     0
 74
     5
  7

 75
    16
147
1.0
 76
     0
 77
     2
 78
   300
148
0.0
149
0.0
100
AcDbLayout
  1
Layout1
 70
     1
 71
     1
 10
0.0
 20
0.0
 11
12.0
 21
9.0
 12
0.0
 22
0.0
 32
0.0
 14
1.000000000000000E+20
 24
1.000000000000000E+20
 34
1.000000000000000E+20
 15
-1.000000000000000E+20
 25
-1.000000000000000E+20
 35
-1.000000000000000E+20
146
0.0
 13
0.0
 23
0.0
 33
0.0
 16
1.0
 26
0.0
 36
0.0
 17
0.0
 27
1.0
 37
0.0
 76
     0
330
6B
  0
LAYOUT
  5
72
102
{ACAD_REACTORS
330
61
102
}
330
61
100
AcDbPlotSettings
  1

  2

  4

  6

 40
0.0
 41
0.0
 42
0.0
 43
0.0
 44
0.0
 45
0.0
 46
0.0
 47
0.0
 48
0.0
 49
0.0
140
0.0
141
0.0
142
1.0
143
1.0
 70
  1712
 72
     0
 73
     0
 74
     0
  7

 75
     0
147
1.0
 76
     0
 77
     2
 78
   300
148
0.0
149
0.0
100
AcDbLayout
  1
Model
 70
     1
 71
     0
 10
0.0
 20
0.0
 11
12.0
 21
9.0
 12
0.0
 22
0.0
 32
0.0
 14
0.0
 24
0.0
 34
0.0
 15
0.0
 25
0.0
 35
0.0
146
0.0
 13
0.0
 23
0.0
 33
0.0
 16
1.0
 26
0.0
 36
0.0
 17
0.0
 27
1.0
 37
0.0
 76
     0
330
6F
331
75
  0
MATERIAL
  5
19
102
{ACAD_XDICTIONARY
360
1A
102
}
102
{ACAD_REACTORS
330
10
102
}
330
10
100
AcDbMaterial
  1
ByBlock
 72
     0
 43
0.5291666666666666
 43
0.0
 43
0.0
 43
0.0
 43
0.0
 43
0.5291666666666666
 43
0.0
 43
0.0
 43
0.0
 43
0.0
 43
25.4
 43
0.0
 43
0.0
 43
0.0
 43
0.0
 43
1.0
 77
     0
 47
0.0208333333333333
 47
0.0
 47
0.0
 47
0.0
 47
0.0
 47
0.0208333333333333
 47
0.0
 47
0.0
 47
0.0
 47
0.0
 47
1.0
 47
0.0
 47
0.0
 47
0.0
 47
0.0
 47
1.0
171
     0
 49
0.0208333333333333
 49
0.0
 49
0.0
 49
0.0
 49
0.0
 49
0.0208333333333333
 49
0.0
 49
0.0
 49
0.0
 49
0.0
 49
1.0
 49
0.0
 49
0.0
 49
0.0
 49
0.0
 49
1.0
175
     0
142
0.0208333333333333
142
0.0
142
0.0
142
0.0
142
0.0
142
0.0208333333333333
142
0.0
142
0.0
142
0.0
142
0.0
142
1.0
142
0.0
142
0.0
142
0.0
142
0.0
142
1.0
179
     0
144
0.0208333333333333
144
0.0
144
0.0
144
0.0
144
0.0
144
0.0208333333333333
144
0.0
144
0.0
144
0.0
144
0.0
144
1.0
144
0.0
144
0.0
144
0.0
144
0.0
144
1.0
147
0.0208333333333333
147
0.0
147
0.0
147
0.0
147
0.0
147
0.0208333333333333
147
0.0
147
0.0
147
0.0
147
0.0
147
1.0
147
0.0
147
0.0
147
0.0
147
0.0
147
1.0
  0
MATERIAL
  5
11
102
{ACAD_XDICTIONARY
360
12
102
}
102
{ACAD_REACTORS
330
10
102
}
330
10
100
AcDbMaterial
  1
ByLayer
 72
     0
 43
0.5291666666666666
 43
0.0
 43
0.0
 43
0.0
 43
0.0
 43
0.5291666666666666
 43
0.0
 43
0.0
 43
0.0
 43
0.0
 43
25.4
 43
0.0
 43
0.0
 43
0.0
 43
0.0
 43
1.0
 77
     0
 47
0.0208333333333333
 47
0.0
 47
0.0
 47
0.0
 47
0.0
 47
0.0208333333333333
 47
0.0
 47
0.0
 47
0.0
 47
0.0
 47
1.0
 47
0.0
 47
0.0
 47
0.0
 47
0.0
 47
1.0
171
     0
 49
0.0208333333333333
 49
0.0
 49
0.0
 49
0.0
 49
0.0
 49
0.0208333333333333
 49
0.0
 49
0.0
 49
0.0
 49
0.0
 49
1.0
 49
0.0
 49
0.0
 49
0.0
 49
0.0
 49
1.0
175
     0
142
0.0208333333333333
142
0.0
142
0.0
142
0.0
142
0.0
142
0.0208333333333333
142
0.0
142
0.0
142
0.0
142
0.0
142
1.0
142
0.0
142
0.0
142
0.0
142
0.0
142
1.0
179
     0
144
0.0208333333333333
144
0.0
144
0.0
144
0.0
144
0.0
144
0.0208333333333333
144
0.0
144
0.0
144
0.0
144
0.0
144
1.0
144
0.0
144
0.0
144
0.0
144
0.0
144
1.0
147
0.0208333333333333
147
0.0
147
0.0
147
0.0
147
0.0
147
0.0208333333333333
147
0.0
147
0.0
147
0.0
147
0.0
147
1.0
147
0.0
147
0.0
147
0.0
147
0.0
147
1.0
  0
MATERIAL
  5
21
102
{ACAD_XDICTIONARY
360
22
102
}
102
{ACAD_REACTORS
330
10
102
}
330
10
100
AcDbMaterial
  1
Global
 72
     0
 43
0.5291666666666666
 43
0.0
 43
0.0
 43
0.0
 43
0.0
 43
0.5291666666666666
 43
0.0
 43
0.0
 43
0.0
 43
0.0
 43
25.4
 43
0.0
 43
0.0
 43
0.0
 43
0.0
 43
1.0
 77
     0
 47
0.0208333333333333
 47
0.0
 47
0.0
 47
0.0
 47
0.0
 47
0.0208333333333333
 47
0.0
 47
0.0
 47
0.0
 47
0.0
 47
1.0
 47
0.0
 47
0.0
 47
0.0
 47
0.0
 47
1.0
171
     0
 49
0.0208333333333333
 49
0.0
 49
0.0
 49
0.0
 49
0.0
 49
0.0208333333333333
 49
0.0
 49
0.0
 49
0.0
 49
0.0
 49
1.0
 49
0.0
 49
0.0
 49
0.0
 49
0.0
 49
1.0
175
     0
142
0.0208333333333333
142
0.0
142
0.0
142
0.0
142
0.0
142
0.0208333333333333
142
0.0
142
0.0
142
0.0
142
0.0
142
1.0
142
0.0
142
0.0
142
0.0
142
0.0
142
1.0
179
     0
144
0.0208333333333333
144
0.0
144
0.0
144
0.0
144
0.0
144
0.0208333333333333
144
0.0
144
0.0
144
0.0
144
0.0
144
1.0
144
0.0
144
0.0
144
0.0
144
0.0
144
1.0
147
0.0208333333333333
147
0.0
147
0.0
147
0.0
147
0.0
147
0.0208333333333333
147
0.0
147
0.0
147
0.0
147
0.0
147
1.0
147
0.0
147
0.0
147
0.0
147
0.0
147
1.0
  0
MLEADERSTYLE
  5
66
102
{ACAD_REACTORS
330
65
102
}
330
65
100
AcDbMLeaderStyle
179
     2
170
     2
171
     1
172
     0
 90
        2
 40
0.0
 41
0.0
173
     1
 91
-1056964608
340
5A
 92
       -2
290
     1
 42
0.09
291
     1
 43
0.36
  3
Standard
 44
0.18
300

342
55
174
     1
178
     6
175
     1
176
     0
 93
-1056964608
 45
0.18
292
     0
297
     0
 46
0.18
 94
-1056964608
 47
1.0
 49
1.0
140
1.0
293
     1
141
0.0
294
     1
177
     0
142
1.0
295
     0
296
     0
143
0.125
271
     0
272
     9
273
     9
298
     0
  0
MLINESTYLE
  5
5F
102
{ACAD_REACTORS
330
5E
102
}
330
5E
100
AcDbMlineStyle
  2
STANDARD
 70
     0
  3

 62
   256
 51
90.0
 52
90.0
 71
     2
 49
0.5
 62
   256
  6
BYLAYER
 49
-0.5
 62
   256
  6
BYLAYER
  0
ACDBPLACEHOLDER
  5
F
102
{ACAD_REACTORS
330
E
102
}
330
E
  0
SCALE
  5
43
102
{ACAD_REACTORS
330
42
102
}
330
42
100
AcDbScale
 70
     0
300
1:1
140
1.0
141
1.0
290
     1
  0
SCALE
  5
44
102
{ACAD_REACTORS
330
42
102
}
330
42
100
AcDbScale
 70
     0
300
1/128" = 1'-0"
140
0.0078125
141
12.0
290
     0
  0
SCALE
  5
45
102
{ACAD_REACTORS
330
42
102
}
330
42
100
AcDbScale
 70
     0
300
1/64" = 1'-0"
140
0.015625
141
12.0
290
     0
  0
SCALE
  5
46
102
{ACAD_REACTORS
330
42
102
}
330
42
100
AcDbScale
 70
     0
300
1/32" = 1'-0"
140
0.03125
141
12.0
290
     0
  0
SCALE
  5
47
102
{ACAD_REACTORS
330
42
102
}
330
42
100
AcDbScale
 70
     0
300
1/16" = 1'-0"
140
0.0625
141
12.0
290
     0
  0
SCALE
  5
48
102
{ACAD_REACTORS
330
42
102
}
330
42
100
AcDbScale
 70
     0
300
3/32" = 1'-0"
140
0.09375
141
12.0
290
     0
  0
SCALE
  5
49
102
{ACAD_REACTORS
330
42
102
}
330
42
100
AcDbScale
 70
     0
300
1/8" = 1'-0"
140
0.125
141
12.0
290
     0
  0
SCALE
  5
4A
102
{ACAD_REACTORS
330
42
102
}
330
42
100
AcDbScale
 70
     0
300
3/16" = 1'-0"
140
0.1875
141
12.0
290
     0
  0
SCALE
  5
4B
102
{ACAD_REACTORS
330
42
102
}
330
42
100
AcDbScale
 70
     0
300
1/4" = 1'-0"
140
0.25
141
12.0
290
     0
  0
SCALE
  5
4C
102
{ACAD_REACTORS
330
42
102
}
330
42
100
AcDbScale
 70
     0
300
3/8" = 1'-0"
140
0.375
141
12.0
290
     0
  0
SCALE
  5
4D
102
{ACAD_REACTORS
330
42
102
}
330
42
100
AcDbScale
 70
     0
300
1/2" = 1'-0"
140
0.5
141
12.0
290
     0
  0
SCALE
  5
4E
102
{ACAD_REACTORS
330
42
102
}
330
42
100
AcDbScale
 70
     0
300
3/4" = 1'-0"
140
0.75
141
12.0
290
     0
  0
SCALE
  5
4F
102
{ACAD_REACTORS
330
42
102
}
330
42
100
AcDbScale
 70
     0
300
1" = 1'-0"
140
1.0
141
12.0
290
     0
  0
SCALE
  5
50
102
{ACAD_REACTORS
330
42
102
}
330
42
100
AcDbScale
 70
     0
300
1-1/2" = 1'-0"
140
1.5
141
12.0
290
     0
  0
SCALE
  5
51
102
{ACAD_REACTORS
330
42
102
}
330
42
100
AcDbScale
 70
     0
300
3" = 1'-0"
140
3.0
141
12.0
290
     0
  0
SCALE
  5
52
102
{ACAD_REACTORS
330
42
102
}
330
42
100
AcDbScale
 70
     0
300
6" = 1'-0"
140
6.0
141
12.0
290
     0
  0
SCALE
  5
53
102
{ACAD_REACTORS
330
42
102
}
330
42
100
AcDbScale
 70
     0
300
1'-0" = 1'-0"
140
12.0
141
12.0
290
     0
  0
ACDBSECTIONVIEWSTYLE
  5
68
102
{ACAD_REACTORS
330
67
102
}
330
67
100
AcDbModelDocViewStyle
 70
     0
  3
Imperial24
290
     0
300
Imperial24
 90
        0
100
AcDbSectionViewStyle
 70
     0
 71
     0
 90
       78
 71
     1
340
55
 62
   256
 40
0.24
340
0
340
0
 62
   256
 40
0.24
300
I, O, Q, S, X, Z
 40
0.48
 90
        3
 40
0.18
 90
        1
 71
     2
340
5C
 90
       25
 62
   256
340
5C
 90
       50
 62
   256
 40
0.24
 40
0.0
 40
0.24
 71
     3
340
55
 62
   256
 40
0.24
 90
        1
 40
0.75
 90
        1
300
%<\AcVar ViewType \f "%tc1">% %<\AcVar ViewSectionStartId>%-%<\AcVar ViewSectionEndId>%\PSCALE %<\AcVar ViewScale \f "%sn">%
 71
     4
 62
   256
 62
   257
300
ANSI31
 40
1.0
 90
        0
290
     0
290
     0
 90
        6
 40
0.0
 40
1.570796326794896
 40
0.2617993877991494
 40
1.308996938995747
 40
-0.2617993877991494
 40
1.832595714594046
  0
TABLESTYLE
  5
64
102
{ACAD_XDICTIONARY
360
6F8
102
}
102
{ACAD_REACTORS
330
63
102
}
330
63
100
AcDbTableStyle
280
     0
  3
Standard
 70
     0
 71
     0
 40
0.0023622047244095
 41
0.0023622047244095
280
     0
281
     0
  7
Standard
140
0.0070866141732283
170
     2
 62
     0
 63
     7
283
     0
 90
      512
 91
        0
  1

274
    -2
284
     1
 64
     0
275
    -2
285
     1
 65
     0
276
    -2
286
     1
 66
     0
277
    -2
287
     1
 67
     0
278
    -2
288
     1
 68
     0
279
    -2
289
     1
 69
     0
  7
Standard
140
0.0098425196850394
170
     5
 62
     0
 63
     7
283
     0
 90
      512
 91
        0
  1

274
    -2
284
     1
 64
     0
275
    -2
285
     1
 65
     0
276
    -2
286
     1
 66
     0
277
    -2
287
     1
 67
     0
278
    -2
288
     1
 68
     0
279
    -2
289
     1
 69
     0
  7
Standard
140
0.0070866141732283
170
     5
 62
     0
 63
     7
283
     0
 90
      512
 91
        0
  1

274
    -2
284
     1
 64
     0
275
    -2
285
     1
 65
     0
276
    -2
286
     1
 66
     0
277
    -2
287
     1
 67
     0
278
    -2
288
     1
 68
     0
279
    -2
289
     1
 69
     0
  0
VISUALSTYLE
  5
2F
102
{ACAD_REACTORS
330
29
102
}
330
29
100
AcDbVisualStyle
  2
2dWireframe
 70
     4
177
     3
291
     0
 70
    58
 90
        0
176
     1
 90
        2
176
     1
 90
        0
176
     1
 90
        0
176
     1
 40
0.6
176
     1
 40
30.0
176
     1
 62
     7
420
 16777215
176
     1
 90
        1
176
     1
 90
        4
176
     1
 62
     7
176
     1
 62
   257
176
     1
 90
        1
176
     1
 90
        1
176
     1
 40
1.0
176
     1
 90
        0
176
     1
 62
   257
176
     1
 40
1.0
176
     1
 90
        1
176
     1
 90
        6
176
     1
 90
        2
176
     1
 62
     7
176
     1
 90
        5
176
     1
 90
        0
176
     1
 90
        0
176
     1
290
     0
176
     1
 90
        1
176
     1
 40
0.0
176
     1
 90
        0
176
     1
290
     1
176
     1
290
     1
176
     1
290
     0
176
     1
290
     0
176
     1
290
     0
176
     1
290
     0
176
     1
290
     0
176
     1
290
     0
176
     1
290
     0
176
     1
 90
       50
176
     1
 40
0.0
176
     1
 40
1.0
176
     1
 90
        0
176
     1
 62
    18
420
        0
176
     1
 90
       50
176
     1
 90
        3
176
     1
 62
     5
420
      255
176
     1
290
     0
176
     1
 90
       50
176
     1
 90
       50
176
     1
 90
       50
176
     1
290
     0
176
     1
 90
       50
176
     1
 62
   256
176
     0
 40
1.0
176
     0
 90
        2
176
     1
  1
strokes_ogs.tif
176
     1
290
     0
176
     1
 40
1.0
176
     1
 40
1.0
176
     1
  0
VISUALSTYLE
  5
2E
102
{ACAD_REACTORS
330
29
102
}
330
29
100
AcDbVisualStyle
  2
Basic
 70
     7
177
     3
291
     1
 70
    58
 90
        1
176
     1
 90
        0
176
     1
 90
        1
176
     1
 90
        0
176
     1
 40
0.6
176
     1
 40
30.0
176
     1
 62
     7
420
 16777215
176
     1
 90
        0
176
     1
 90
        4
176
     1
 62
     7
176
     1
 62
   257
176
     1
 90
        1
176
     1
 90
        1
176
     1
 40
1.0
176
     1
 90
        8
176
     1
 62
     7
176
     1
 40
1.0
176
     1
 90
        1
176
     1
 90
        6
176
     1
 90
        2
176
     1
 62
     7
176
     1
 90
        5
176
     1
 90
        0
176
     1
 90
        0
176
     1
290
     0
176
     1
 90
        1
176
     1
 40
0.0
176
     1
 90
        0
176
     1
290
     0
176
     1
290
     1
176
     1
290
     1
176
     1
290
     0
176
     1
290
     0
176
     1
290
     0
176
     1
290
     0
176
     1
290
     0
176
     1
290
     0
176
     1
 90
       50
176
     1
 40
0.0
176
     1
 40
1.0
176
     1
 90
        0
176
     1
 62
    18
420
        0
176
     1
 90
       50
176
     1
 90
        3
176
     1
 62
     5
420
      255
176
     1
290
     0
176
     1
 90
       50
176
     1
 90
       50
176
     1
 90
       50
176
     1
290
     0
176
     1
 90
       50
176
     1
 62
   256
176
     0
 40
1.0
176
     0
 90
        2
176
     1
  1
strokes_ogs.tif
176
     1
290
     0
176
     1
 40
1.0
176
     1
 40
1.0
176
     1
  0
VISUALSTYLE
  5
35
102
{ACAD_REACTORS
330
29
102
}
330
29
100
AcDbVisualStyle
  2
Brighten
 70
    12
177
     3
291
     1
 70
    58
 90
        2
176
     1
 90
        2
176
     1
 90
        0
176
     1
 90
        0
176
     1
 40
0.6
176
     1
 40
30.0
176
     1
 62
     7
420
 16777215
176
     1
 90
        1
176
     1
 90
        4
176
     1
 62
     7
176
     1
 62
   257
176
     1
 90
        1
176
     1
 90
        1
176
     1
 40
1.0
176
     1
 90
        8
176
     1
 62
     7
176
     1
 40
1.0
176
     1
 90
        1
176
     1
 90
        6
176
     1
 90
        2
176
     1
 62
     7
176
     1
 90
        5
176
     1
 90
        0
176
     1
 90
        0
176
     1
290
     0
176
     1
 90
        1
176
     1
 40
50.0
176
     1
 90
        0
176
     1
290
     0
176
     1
290
     1
176
     1
290
     1
176
     1
290
     0
176
     1
290
     0
176
     1
290
     0
176
     1
290
     0
176
     1
290
     0
176
     1
290
     0
176
     1
 90
       50
176
     1
 40
0.0
176
     1
 40
1.0
176
     1
 90
        0
176
     1
 62
    18
420
        0
176
     1
 90
       50
176
     1
 90
        3
176
     1
 62
     5
420
      255
176
     1
290
     0
176
     1
 90
       50
176
     1
 90
       50
176
     1
 90
       50
176
     1
290
     0
176
     1
 90
       50
176
     1
 62
   256
176
     0
 40
1.0
176
     0
 90
        2
176
     1
  1
strokes_ogs.tif
176
     1
290
     0
176
     1
 40
1.0
176
     1
 40
1.0
176
     1
  0
VISUALSTYLE
  5
39
102
{ACAD_REACTORS
330
29
102
}
330
29
100
AcDbVisualStyle
  2
ColorChange
 70
    16
177
     3
291
     1
 70
    58
 90
        2
176
     1
 90
        2
176
     1
 90
        3
176
     1
 90
        0
176
     1
 40
0.6
176
     1
 40
30.0
176
     1
 62
     8
420
  8421504
176
     1
 90
        1
176
     1
 90
        4
176
     1
 62
     7
176
     1
 62
   257
176
     1
 90
        1
176
     1
 90
        1
176
     1
 40
1.0
176
     1
 90
        8
176
     1
 62
     8
420
  8421504
176
     1
 40
1.0
176
     1
 90
        1
176
     1
 90
        6
176
     1
 90
        2
176
     1
 62
     7
176
     1
 90
        5
176
     1
 90
        0
176
     1
 90
        0
176
     1
290
     0
176
     1
 90
        1
176
     1
 40
0.0
176
     1
 90
        0
176
     1
290
     0
176
     1
290
     1
176
     1
290
     1
176
     1
290
     0
176
     1
290
     0
176
     1
290
     0
176
     1
290
     0
176
     1
290
     0
176
     1
290
     0
176
     1
 90
       50
176
     1
 40
0.0
176
     1
 40
1.0
176
     1
 90
        0
176
     1
 62
    18
420
        0
176
     1
 90
       50
176
     1
 90
        3
176
     1
 62
     5
420
      255
176
     1
290
     0
176
     1
 90
       50
176
     1
 90
       50
176
     1
 90
       50
176
     1
290
     0
176
     1
 90
       50
176
     1
 62
   256
176
     0
 40
1.0
176
     0
 90
        2
176
     1
  1
strokes_ogs.tif
176
     1
290
     0
176
     1
 40
1.0
176
     1
 40
1.0
176
     1
  0
VISUALSTYLE
  5
32
102
{ACAD_REACTORS
330
29
102
}
330
29
100
AcDbVisualStyle
  2
Conceptual
 70
     9
177
     3
291
     0
 70
    58
 90
        3
176
     1
 90
        2
176
     1
 90
        0
176
     1
 90
        0
176
     1
 40
0.6
176
     1
 40
30.0
176
     1
 62
     7
420
 16777215
176
     1
 90
        2
176
     1
 90
        2
176
     1
 62
     7
176
     1
 62
   257
176
     1
 90
        1
176
     1
 90
        1
176
     1
 40
179.0
176
     1
 90
        8
176
     1
 62
     7
176
     1
 40
1.0
176
     1
 90
        1
176
     1
 90
        6
176
     1
 90
        2
176
     1
 62
     7
176
     1
 90
        3
176
     1
 90
        0
176
     1
 90
        0
176
     1
290
     0
176
     1
 90
        1
176
     1
 40
0.0
176
     1
 90
        0
176
     1
290
     0
176
     1
290
     1
176
     1
290
     1
176
     1
290
     0
176
     1
290
     0
176
     1
290
     0
176
     1
290
     0
176
     1
290
     0
176
     1
290
     0
176
     1
 90
       50
176
     1
 40
0.0
176
     1
 40
1.0
176
     1
 90
        0
176
     1
 62
    18
420
        0
176
     1
 90
       50
176
     1
 90
        3
176
     1
 62
     5
420
      255
176
     1
290
     0
176
     1
 90
       50
176
     1
 90
       50
176
     1
 90
       50
176
     1
290
     0
176
     1
 90
       50
176
     1
 62
   256
176
     0
 40
1.0
176
     0
 90
        2
176
     1
  1
strokes_ogs.tif
176
     1
290
     0
176
     1
 40
1.0
176
     1
 40
1.0
176
     1
  0
VISUALSTYLE
  5
34
102
{ACAD_REACTORS
330
29
102
}
330
29
100
AcDbVisualStyle
  2
Dim
 70
    11
177
     3
291
     1
 70
    58
 90
        2
176
     1
 90
        2
176
     1
 90
        0
176
     1
 90
        0
176
     1
 40
0.6
176
     1
 40
30.0
176
     1
 62
     7
420
 16777215
176
     1
 90
        1
176
     1
 90
        4
176
     1
 62
     7
176
     1
 62
   257
176
     1
 90
        1
176
     1
 90
        1
176
     1
 40
1.0
176
     1
 90
        8
176
     1
 62
     7
176
     1
 40
1.0
176
     1
 90
        1
176
     1
 90
        6
176
     1
 90
        2
176
     1
 62
     7
176
     1
 90
        5
176
     1
 90
        0
176
     1
 90
        0
176
     1
290
     0
176
     1
 90
        1
176
     1
 40
-50.0
176
     1
 90
        0
176
     1
290
     0
176
     1
290
     1
176
     1
290
     1
176
     1
290
     0
176
     1
290
     0
176
     1
290
     0
176
     1
290
     0
176
     1
290
     0
176
     1
290
     0
176
     1
 90
       50
176
     1
 40
0.0
176
     1
 40
1.0
176
     1
 90
        0
176
     1
 62
    18
420
        0
176
     1
 90
       50
176
     1
 90
        3
176
     1
 62
     5
420
      255
176
     1
290
     0
176
     1
 90
       50
176
     1
 90
       50
176
     1
 90
       50
176
     1
290
     0
176
     1
 90
       50
176
     1
 62
   256
176
     0
 40
1.0
176
     0
 90
        2
176
     1
  1
strokes_ogs.tif
176
     1
290
     0
176
     1
 40
1.0
176
     1
 40
1.0
176
     1
  0
VISUALSTYLE
  5
41
102
{ACAD_REACTORS
330
29
102
}
330
29
100
AcDbVisualStyle
  2
EdgeColorOff
 70
    22
177
     3
291
     1
 70
    58
 90
        2
176
     0
 90
        2
176
     0
 90
        0
176
     0
 90
        0
176
     0
 40
0.6
176
     0
 40
30.0
176
     0
 62
     7
420
 16777215
176
     0
 90
        1
176
     0
 90
        4
176
     0
 62
     7
176
     0
 62
   257
176
     0
 90
        1
176
     0
 90
        1
176
     0
 40
1.0
176
     0
 90
        8
176
     2
 62
     7
176
     0
 40
1.0
176
     0
 90
        1
176
     0
 90
        6
176
     0
 90
        2
176
     0
 62
     7
176
     0
 90
        5
176
     0
 90
        0
176
     0
 90
        0
176
     0
290
     0
176
     0
 90
        1
176
     0
 40
0.0
176
     0
 90
        0
176
     0
290
     0
176
     1
290
     1
176
     1
290
     1
176
     1
290
     0
176
     1
290
     0
176
     1
290
     0
176
     1
290
     0
176
     1
290
     0
176
     1
290
     0
176
     1
 90
       50
176
     0
 40
0.0
176
     0
 40
1.0
176
     0
 90
        0
176
     0
 62
    18
420
        0
176
     0
 90
       50
176
     0
 90
        3
176
     0
 62
     5
420
      255
176
     0
290
     0
176
     1
 90
       50
176
     0
 90
       50
176
     0
 90
       50
176
     0
290
     0
176
     1
 90
       50
176
     0
 62
   256
176
     0
 40
1.0
176
     0
 90
        2
176
     0
  1
strokes_ogs.tif
176
     0
290
     0
176
     1
 40
1.0
176
     0
 40
1.0
176
     0
  0
VISUALSTYLE
  5
38
102
{ACAD_REACTORS
330
29
102
}
330
29
100
AcDbVisualStyle
  2
Facepattern
 70
    15
177
     3
291
     1
 70
    58
 90
        2
176
     1
 90
        2
176
     1
 90
        0
176
     1
 90
        0
176
     1
 40
0.6
176
     1
 40
30.0
176
     1
 62
     7
420
 16777215
176
     1
 90
        1
176
     1
 90
        4
176
     1
 62
     7
176
     1
 62
   257
176
     1
 90
        1
176
     1
 90
        1
176
     1
 40
1.0
176
     1
 90
        8
176
     1
 62
     7
176
     1
 40
1.0
176
     1
 90
        1
176
     1
 90
        6
176
     1
 90
        2
176
     1
 62
     7
176
     1
 90
        5
176
     1
 90
        0
176
     1
 90
        0
176
     1
290
     0
176
     1
 90
        1
176
     1
 40
0.0
176
     1
 90
        0
176
     1
290
     0
176
     1
290
     1
176
     1
290
     1
176
     1
290
     0
176
     1
290
     0
176
     1
290
     0
176
     1
290
     0
176
     1
290
     0
176
     1
290
     0
176
     1
 90
       50
176
     1
 40
0.0
176
     1
 40
1.0
176
     1
 90
        0
176
     1
 62
    18
420
        0
176
     1
 90
       50
176
     1
 90
        3
176
     1
 62
     5
420
      255
176
     1
290
     0
176
     1
 90
       50
176
     1
 90
       50
176
     1
 90
       50
176
     1
290
     0
176
     1
 90
       50
176
     1
 62
   256
176
     0
 40
1.0
176
     0
 90
        2
176
     1
  1
strokes_ogs.tif
176
     1
290
     0
176
     1
 40
1.0
176
     1
 40
1.0
176
     1
  0
VISUALSTYLE
  5
2A
102
{ACAD_REACTORS
330
29
102
}
330
29
100
AcDbVisualStyle
  2
Flat
 70
     0
177
     3
291
     1
 70
    58
 90
        2
176
     1
 90
        1
176
     1
 90
        1
176
     1
 90
        2
176
     1
 40
0.6
176
     1
 40
30.0
176
     1
 62
     7
420
 16777215
176
     1
 90
        0
176
     1
 90
        0
176
     1
 62
     7
176
     1
 62
   257
176
     1
 90
        1
176
     1
 90
        1
176
     1
 40
1.0
176
     1
 90
        8
176
     1
 62
     7
176
     1
 40
1.0
176
     1
 90
        1
176
     1
 90
        6
176
     1
 90
        2
176
     1
 62
     7
176
     1
 90
        5
176
     1
 90
        0
176
     1
 90
        0
176
     1
290
     0
176
     1
 90
       13
176
     1
 40
0.0
176
     1
 90
        0
176
     1
290
     0
176
     1
290
     1
176
     1
290
     1
176
     1
290
     0
176
     1
290
     0
176
     1
290
     0
176
     1
290
     0
176
     1
290
     0
176
     1
290
     0
176
     1
 90
       50
176
     1
 40
0.0
176
     1
 40
1.0
176
     1
 90
        0
176
     1
 62
    18
420
        0
176
     1
 90
       50
176
     1
 90
        3
176
     1
 62
     5
420
      255
176
     1
290
     0
176
     1
 90
       50
176
     1
 90
       50
176
     1
 90
       50
176
     1
290
     0
176
     1
 90
       50
176
     1
 62
   256
176
     0
 40
1.0
176
     0
 90
        2
176
     1
  1
strokes_ogs.tif
176
     1
290
     0
176
     1
 40
1.0
176
     1
 40
1.0
176
     1
  0
VISUALSTYLE
  5
2B
102
{ACAD_REACTORS
330
29
102
}
330
29
100
AcDbVisualStyle
  2
FlatWithEdges
 70
     1
177
     3
291
     1
 70
    58
 90
        2
176
     1
 90
        1
176
     1
 90
        1
176
     1
 90
        2
176
     1
 40
0.6
176
     1
 40
30.0
176
     1
 62
     7
420
 16777215
176
     1
 90
        1
176
     1
 90
        0
176
     1
 62
     7
176
     1
 62
   257
176
     1
 90
        1
176
     1
 90
        1
176
     1
 40
1.0
176
     1
 90
        0
176
     1
 62
   257
176
     1
 40
1.0
176
     1
 90
        1
176
     1
 90
        6
176
     1
 90
        2
176
     1
 62
     7
176
     1
 90
        5
176
     1
 90
        0
176
     1
 90
        0
176
     1
290
     0
176
     1
 90
       13
176
     1
 40
0.0
176
     1
 90
        0
176
     1
290
     0
176
     1
290
     1
176
     1
290
     1
176
     1
290
     0
176
     1
290
     0
176
     1
290
     0
176
     1
290
     0
176
     1
290
     0
176
     1
290
     0
176
     1
 90
       50
176
     1
 40
0.0
176
     1
 40
1.0
176
     1
 90
        0
176
     1
 62
    18
420
        0
176
     1
 90
       50
176
     1
 90
        3
176
     1
 62
     5
420
      255
176
     1
290
     0
176
     1
 90
       50
176
     1
 90
       50
176
     1
 90
       50
176
     1
290
     0
176
     1
 90
       50
176
     1
 62
   256
176
     0
 40
1.0
176
     0
 90
        2
176
     1
  1
strokes_ogs.tif
176
     1
290
     0
176
     1
 40
1.0
176
     1
 40
1.0
176
     1
  0
VISUALSTYLE
  5
2C
102
{ACAD_REACTORS
330
29
102
}
330
29
100
AcDbVisualStyle
  2
Gouraud
 70
     2
177
     3
291
     1
 70
    58
 90
        2
176
     1
 90
        2
176
     1
 90
        1
176
     1
 90
        2
176
     1
 40
0.6
176
     1
 40
30.0
176
     1
 62
     7
420
 16777215
176
     1
 90
        0
176
     1
 90
        0
176
     1
 62
     7
176
     1
 62
   257
176
     1
 90
        1
176
     1
 90
        1
176
     1
 40
1.0
176
     1
 90
        0
176
     1
 62
     7
176
     1
 40
1.0
176
     1
 90
        1
176
     1
 90
        6
176
     1
 90
        2
176
     1
 62
     7
176
     1
 90
        5
176
     1
 90
        0
176
     1
 90
        0
176
     1
290
     0
176
     1
 90
       13
176
     1
 40
0.0
176
     1
 90
        0
176
     1
290
     0
176
     1
290
     1
176
     1
290
     1
176
     1
290
     0
176
     1
290
     0
176
     1
290
     0
176
     1
290
     0
176
     1
290
     0
176
     1
290
     0
176
     1
 90
       50
176
     1
 40
0.0
176
     1
 40
1.0
176
     1
 90
        0
176
     1
 62
    18
420
        0
176
     1
 90
       50
176
     1
 90
        3
176
     1
 62
     5
420
      255
176
     1
290
     0
176
     1
 90
       50
176
     1
 90
       50
176
     1
 90
       50
176
     1
290
     0
176
     1
 90
       50
176
     1
 62
   256
176
     0
 40
1.0
176
     0
 90
        2
176
     1
  1
strokes_ogs.tif
176
     1
290
     0
176
     1
 40
1.0
176
     1
 40
1.0
176
     1
  0
VISUALSTYLE
  5
2D
102
{ACAD_REACTORS
330
29
102
}
330
29
100
AcDbVisualStyle
  2
GouraudWithEdges
 70
     3
177
     3
291
     1
 70
    58
 90
        2
176
     1
 90
        2
176
     1
 90
        1
176
     1
 90
        2
176
     1
 40
0.6
176
     1
 40
30.0
176
     1
 62
     7
420
 16777215
176
     1
 90
        1
176
     1
 90
        0
176
     1
 62
     7
176
     1
 62
   257
176
     1
 90
        1
176
     1
 90
        1
176
     1
 40
1.0
176
     1
 90
        0
176
     1
 62
   257
176
     1
 40
1.0
176
     1
 90
        1
176
     1
 90
        6
176
     1
 90
        2
176
     1
 62
     7
176
     1
 90
        5
176
     1
 90
        0
176
     1
 90
        0
176
     1
290
     0
176
     1
 90
       13
176
     1
 40
0.0
176
     1
 90
        0
176
     1
290
     0
176
     1
290
     1
176
     1
290
     1
176
     1
290
     0
176
     1
290
     0
176
     1
290
     0
176
     1
290
     0
176
     1
290
     0
176
     1
290
     0
176
     1
 90
       50
176
     1
 40
0.0
176
     1
 40
1.0
176
     1
 90
        0
176
     1
 62
    18
420
        0
176
     1
 90
       50
176
     1
 90
        3
176
     1
 62
     5
420
      255
176
     1
290
     0
176
     1
 90
       50
176
     1
 90
       50
176
     1
 90
       50
176
     1
290
     0
176
     1
 90
       50
176
     1
 62
   256
176
     0
 40
1.0
176
     0
 90
        2
176
     1
  1
strokes_ogs.tif
176
     1
290
     0
176
     1
 40
1.0
176
     1
 40
1.0
176
     1
  0
VISUALSTYLE
  5
31
102
{ACAD_REACTORS
330
29
102
}
330
29
100
AcDbVisualStyle
  2
Hidden
 70
     6
177
     3
291
     0
 70
    58
 90
        1
176
     1
 90
        2
176
     1
 90
        2
176
     1
 90
        0
176
     1
 40
0.6
176
     1
 40
30.0
176
     1
 62
     7
420
 16777215
176
     1
 90
        2
176
     1
 90
        2
176
     1
 62
     7
176
     1
 62
   257
176
     1
 90
        2
176
     1
 90
        1
176
     1
 40
40.0
176
     1
 90
        0
176
     1
 62
   257
176
     1
 40
1.0
176
     1
 90
        1
176
     1
 90
        6
176
     1
 90
        2
176
     1
 62
     7
176
     1
 90
        3
176
     1
 90
        0
176
     1
 90
        0
176
     1
290
     0
176
     1
 90
        1
176
     1
 40
0.0
176
     1
 90
        0
176
     1
290
     0
176
     1
290
     1
176
     1
290
     1
176
     1
290
     0
176
     1
290
     0
176
     1
290
     0
176
     1
290
     0
176
     1
290
     0
176
     1
290
     0
176
     1
 90
       50
176
     1
 40
0.0
176
     1
 40
1.0
176
     1
 90
        0
176
     1
 62
    18
420
        0
176
     1
 90
       50
176
     1
 90
        3
176
     1
 62
     5
420
      255
176
     1
290
     0
176
     1
 90
       50
176
     1
 90
       50
176
     1
 90
       50
176
     1
290
     0
176
     1
 90
       50
176
     1
 62
   256
176
     0
 40
1.0
176
     0
 90
        2
176
     1
  1
strokes_ogs.tif
176
     1
290
     0
176
     1
 40
1.0
176
     1
 40
1.0
176
     1
  0
VISUALSTYLE
  5
3F
102
{ACAD_REACTORS
330
29
102
}
330
29
100
AcDbVisualStyle
  2
JitterOff
 70
    20
177
     3
291
     1
 70
    58
 90
        2
176
     0
 90
        2
176
     0
 90
        0
176
     0
 90
        0
176
     0
 40
0.6
176
     0
 40
30.0
176
     0
 62
     7
420
 16777215
176
     0
 90
        1
176
     0
 90
        4
176
     0
 62
     7
176
     0
 62
   257
176
     0
 90
        1
176
     0
 90
        1
176
     0
 40
1.0
176
     0
 90
       10
176
     2
 62
     7
176
     0
 40
1.0
176
     0
 90
        1
176
     0
 90
        6
176
     0
 90
        2
176
     0
 62
     7
176
     0
 90
        5
176
     0
 90
        0
176
     0
 90
        0
176
     0
290
     0
176
     0
 90
        1
176
     0
 40
0.0
176
     0
 90
        0
176
     0
290
     0
176
     1
290
     1
176
     1
290
     1
176
     1
290
     0
176
     1
290
     0
176
     1
290
     0
176
     1
290
     0
176
     1
290
     0
176
     1
290
     0
176
     1
 90
       50
176
     0
 40
0.0
176
     0
 40
1.0
176
     0
 90
        0
176
     0
 62
    18
420
        0
176
     0
 90
       50
176
     0
 90
        3
176
     0
 62
     5
420
      255
176
     0
290
     0
176
     1
 90
       50
176
     0
 90
       50
176
     0
 90
       50
176
     0
290
     0
176
     1
 90
       50
176
     0
 62
   256
176
     0
 40
1.0
176
     0
 90
        2
176
     0
  1
strokes_ogs.tif
176
     0
290
     0
176
     1
 40
1.0
176
     0
 40
1.0
176
     0
  0
VISUALSTYLE
  5
37
102
{ACAD_REACTORS
330
29
102
}
330
29
100
AcDbVisualStyle
  2
Linepattern
 70
    14
177
     3
291
     1
 70
    58
 90
        2
176
     1
 90
        2
176
     1
 90
        0
176
     1
 90
        0
176
     1
 40
0.6
176
     1
 40
30.0
176
     1
 62
     7
420
 16777215
176
     1
 90
        1
176
     1
 90
        4
176
     1
 62
     7
176
     1
 62
   257
176
     1
 90
        7
176
     1
 90
        7
176
     1
 40
1.0
176
     1
 90
        8
176
     1
 62
     7
176
     1
 40
1.0
176
     1
 90
        1
176
     1
 90
        6
176
     1
 90
        2
176
     1
 62
     7
176
     1
 90
        5
176
     1
 90
        0
176
     1
 90
        0
176
     1
290
     0
176
     1
 90
        1
176
     1
 40
0.0
176
     1
 90
        0
176
     1
290
     0
176
     1
290
     1
176
     1
290
     1
176
     1
290
     0
176
     1
290
     0
176
     1
290
     0
176
     1
290
     0
176
     1
290
     0
176
     1
290
     0
176
     1
 90
       50
176
     1
 40
0.0
176
     1
 40
1.0
176
     1
 90
        0
176
     1
 62
    18
420
        0
176
     1
 90
       50
176
     1
 90
        3
176
     1
 62
     5
420
      255
176
     1
290
     0
176
     1
 90
       50
176
     1
 90
       50
176
     1
 90
       50
176
     1
290
     0
176
     1
 90
       50
176
     1
 62
   256
176
     0
 40
1.0
176
     0
 90
        2
176
     1
  1
strokes_ogs.tif
176
     1
290
     0
176
     1
 40
1.0
176
     1
 40
1.0
176
     1
  0
VISUALSTYLE
  5
40
102
{ACAD_REACTORS
330
29
102
}
330
29
100
AcDbVisualStyle
  2
OverhangOff
 70
    21
177
     3
291
     1
 70
    58
 90
        2
176
     0
 90
        2
176
     0
 90
        0
176
     0
 90
        0
176
     0
 40
0.6
176
     0
 40
30.0
176
     0
 62
     7
420
 16777215
176
     0
 90
        1
176
     0
 90
        4
176
     0
 62
     7
176
     0
 62
   257
176
     0
 90
        1
176
     0
 90
        1
176
     0
 40
1.0
176
     0
 90
        9
176
     2
 62
     7
176
     0
 40
1.0
176
     0
 90
        1
176
     0
 90
        6
176
     0
 90
        2
176
     0
 62
     7
176
     0
 90
        5
176
     0
 90
        0
176
     0
 90
        0
176
     0
290
     0
176
     0
 90
        1
176
     0
 40
0.0
176
     0
 90
        0
176
     0
290
     0
176
     1
290
     1
176
     1
290
     1
176
     1
290
     0
176
     1
290
     0
176
     1
290
     0
176
     1
290
     0
176
     1
290
     0
176
     1
290
     0
176
     1
 90
       50
176
     0
 40
0.0
176
     0
 40
1.0
176
     0
 90
        0
176
     0
 62
    18
420
        0
176
     0
 90
       50
176
     0
 90
        3
176
     0
 62
     5
420
      255
176
     0
290
     0
176
     1
 90
       50
176
     0
 90
       50
176
     0
 90
       50
176
     0
290
     0
176
     1
 90
       50
176
     0
 62
   256
176
     0
 40
1.0
176
     0
 90
        2
176
     0
  1
strokes_ogs.tif
176
     0
290
     0
176
     1
 40
1.0
176
     0
 40
1.0
176
     0
  0
VISUALSTYLE
  5
33
102
{ACAD_REACTORS
330
29
102
}
330
29
100
AcDbVisualStyle
  2
Realistic
 70
     8
177
     3
291
     0
 70
    58
 90
        2
176
     1
 90
        3
176
     1
 90
        0
176
     1
 90
        2
176
     1
 40
0.6
176
     1
 40
30.0
176
     1
 62
     7
420
 16777215
176
     1
 90
        0
176
     1
 90
        0
176
     1
 62
     7
176
     1
 62
   257
176
     1
 90
        1
176
     1
 90
        1
176
     1
 40
1.0
176
     1
 90
        8
176
     1
 62
   257
176
     1
 40
1.0
176
     1
 90
        1
176
     1
 90
        6
176
     1
 90
        2
176
     1
 62
     7
176
     1
 90
        3
176
     1
 90
        0
176
     1
 90
        0
176
     1
290
     0
176
     1
 90
       13
176
     1
 40
0.0
176
     1
 90
        0
176
     1
290
     0
176
     1
290
     1
176
     1
290
     1
176
     1
290
     0
176
     1
290
     0
176
     1
290
     0
176
     1
290
     0
176
     1
290
     0
176
     1
290
     0
176
     1
 90
       50
176
     1
 40
0.0
176
     1
 40
1.0
176
     1
 90
        0
176
     1
 62
    18
420
        0
176
     1
 90
       50
176
     1
 90
        3
176
     1
 62
     5
420
      255
176
     1
290
     0
176
     1
 90
       50
176
     1
 90
       50
176
     1
 90
       50
176
     1
290
     0
176
     1
 90
       50
176
     1
 62
   256
176
     0
 40
1.0
176
     0
 90
        2
176
     1
  1
strokes_ogs.tif
176
     1
290
     0
176
     1
 40
1.0
176
     1
 40
1.0
176
     1
  0
VISUALSTYLE
  5
3E
102
{ACAD_REACTORS
330
29
102
}
330
29
100
AcDbVisualStyle
  2
Shaded
 70
    27
177
     3
291
     0
 70
    58
 90
        2
176
     1
 90
        2
176
     1
 90
        1
176
     1
 90
        2
176
     1
 40
0.6
176
     1
 40
30.0
176
     1
 62
     7
420
 16777215
176
     1
 90
        0
176
     1
 90
        4
176
     1
 62
     7
176
     1
 62
   257
176
     1
 90
        1
176
     1
 90
        1
176
     1
 40
1.0
176
     1
 90
        8
176
     1
 62
   257
176
     1
 40
1.0
176
     1
 90
        1
176
     1
 90
        6
176
     1
 90
        2
176
     1
 62
     8
420
  7895160
176
     1
 90
        3
176
     1
 90
        0
176
     1
 90
        0
176
     1
290
     0
176
     1
 90
        5
176
     1
 40
0.0
176
     1
 90
        0
176
     1
290
     0
176
     1
290
     1
176
     1
290
     1
176
     1
290
     0
176
     1
290
     0
176
     1
290
     0
176
     1
290
     0
176
     1
290
     0
176
     1
290
     0
176
     1
 90
       50
176
     1
 40
0.0
176
     1
 40
1.0
176
     1
 90
        0
176
     1
 62
    18
420
        0
176
     1
 90
       50
176
     1
 90
        3
176
     1
 62
     5
420
      255
176
     1
290
     0
176
     1
 90
       50
176
     1
 90
       50
176
     1
 90
       50
176
     1
290
     0
176
     1
 90
       50
176
     1
 62
   256
176
     0
 40
1.0
176
     0
 90
        2
176
     1
  1
strokes_ogs.tif
176
     1
290
     0
176
     1
 40
1.0
176
     1
 40
1.0
176
     1
  0
VISUALSTYLE
  5
3D
102
{ACAD_REACTORS
330
29
102
}
330
29
100
AcDbVisualStyle
  2
Shaded with edges
 70
    26
177
     3
291
     0
 70
    58
 90
        2
176
     1
 90
        2
176
     1
 90
        1
176
     1
 90
        2
176
     1
 40
0.6
176
     1
 40
30.0
176
     1
 62
     7
420
 16777215
176
     1
 90
        1
176
     1
 90
        2
176
     1
 62
     7
176
     1
 62
   257
176
     1
 90
        2
176
     1
 90
        1
176
     1
 40
1.0
176
     1
 90
        8
176
     1
 62
   257
176
     1
 40
1.0
176
     1
 90
        1
176
     1
 90
        6
176
     1
 90
        2
176
     1
 62
     7
176
     1
 90
        3
176
     1
 90
        0
176
     1
 90
        0
176
     1
290
     0
176
     1
 90
        5
176
     1
 40
0.0
176
     1
 90
        0
176
     1
290
     0
176
     1
290
     1
176
     1
290
     1
176
     1
290
     0
176
     1
290
     0
176
     1
290
     0
176
     1
290
     0
176
     1
290
     0
176
     1
290
     0
176
     1
 90
       50
176
     1
 40
0.0
176
     1
 40
1.0
176
     1
 90
        0
176
     1
 62
    18
420
        0
176
     1
 90
       50
176
     1
 90
        3
176
     1
 62
     5
420
      255
176
     1
290
     0
176
     1
 90
       50
176
     1
 90
       50
176
     1
 90
       50
176
     1
290
     0
176
     1
 90
       50
176
     1
 62
   256
176
     0
 40
1.0
176
     0
 90
        2
176
     1
  1
strokes_ogs.tif
176
     1
290
     0
176
     1
 40
1.0
176
     1
 40
1.0
176
     1
  0
VISUALSTYLE
  5
3A
102
{ACAD_REACTORS
330
29
102
}
330
29
100
AcDbVisualStyle
  2
Shades of Gray
 70
    23
177
     3
291
     0
 70
    58
 90
        2
176
     1
 90
        2
176
     1
 90
        3
176
     1
 90
        0
176
     1
 40
0.6
176
     1
 40
30.0
176
     1
 62
     7
420
 16777215
176
     1
 90
        2
176
     1
 90
        2
176
     1
 62
     7
176
     1
 62
     7
176
     1
 90
        1
176
     1
 90
        1
176
     1
 40
40.0
176
     1
 90
        8
176
     1
 62
     7
176
     1
 40
1.0
176
     1
 90
        1
176
     1
 90
        6
176
     1
 90
        2
176
     1
 62
     7
176
     1
 90
        3
176
     1
 90
        0
176
     1
 90
        0
176
     1
290
     0
176
     1
 90
        1
176
     1
 40
0.0
176
     1
 90
        0
176
     1
290
     0
176
     1
290
     1
176
     1
290
     1
176
     1
290
     0
176
     1
290
     0
176
     1
290
     0
176
     1
290
     0
176
     1
290
     0
176
     1
290
     0
176
     1
 90
       50
176
     1
 40
0.0
176
     1
 40
1.0
176
     1
 90
        0
176
     1
 62
    18
420
        0
176
     1
 90
       50
176
     1
 90
        3
176
     1
 62
     5
420
      255
176
     1
290
     0
176
     1
 90
       50
176
     1
 90
       50
176
     1
 90
       50
176
     1
290
     0
176
     1
 90
       50
176
     1
 62
   256
176
     0
 40
1.0
176
     0
 90
        2
176
     1
  1
strokes_ogs.tif
176
     1
290
     0
176
     1
 40
1.0
176
     1
 40
1.0
176
     1
  0
VISUALSTYLE
  5
3B
102
{ACAD_REACTORS
330
29
102
}
330
29
100
AcDbVisualStyle
  2
Sketchy
 70
    24
177
     3
291
     0
 70
    58
 90
        1
176
     1
 90
        2
176
     1
 90
        2
176
     1
 90
        0
176
     1
 40
0.6
176
     1
 40
30.0
176
     1
 62
     7
420
 16777215
176
     1
 90
        2
176
     1
 90
        2
176
     1
 62
     7
176
     1
 62
     7
176
     1
 90
        1
176
     1
 90
        1
176
     1
 40
40.0
176
     1
 90
       11
176
     1
 62
     7
176
     1
 40
1.0
176
     1
 90
        1
176
     1
 90
        6
176
     1
 90
        2
176
     1
 62
     7
176
     1
 90
        6
176
     1
 90
        0
176
     1
 90
        0
176
     1
290
     0
176
     1
 90
        1
176
     1
 40
0.0
176
     1
 90
        0
176
     1
290
     0
176
     1
290
     1
176
     1
290
     1
176
     1
290
     0
176
     1
290
     0
176
     1
290
     0
176
     1
290
     0
176
     1
290
     0
176
     1
290
     0
176
     1
 90
       50
176
     1
 40
0.0
176
     1
 40
1.0
176
     1
 90
        0
176
     1
 62
    18
420
        0
176
     1
 90
       50
176
     1
 90
        3
176
     1
 62
     5
420
      255
176
     1
290
     0
176
     1
 90
       50
176
     1
 90
       50
176
     1
 90
       50
176
     1
290
     0
176
     1
 90
       50
176
     1
 62
   256
176
     0
 40
1.0
176
     0
 90
        2
176
     1
  1
strokes_ogs.tif
176
     1
290
     0
176
     1
 40
1.0
176
     1
 40
1.0
176
     1
  0
VISUALSTYLE
  5
36
102
{ACAD_REACTORS
330
29
102
}
330
29
100
AcDbVisualStyle
  2
Thicken
 70
    13
177
     3
291
     1
 70
    58
 90
        2
176
     1
 90
        2
176
     1
 90
        0
176
     1
 90
        0
176
     1
 40
0.6
176
     1
 40
30.0
176
     1
 62
     7
420
 16777215
176
     1
 90
        1
176
     1
 90
        4
176
     1
 62
     7
176
     1
 62
   257
176
     1
 90
        1
176
     1
 90
        1
176
     1
 40
1.0
176
     1
 90
       12
176
     1
 62
     7
176
     1
 40
1.0
176
     1
 90
        1
176
     1
 90
        6
176
     1
 90
        2
176
     1
 62
     7
176
     1
 90
        5
176
     1
 90
        0
176
     1
 90
        0
176
     1
290
     0
176
     1
 90
        1
176
     1
 40
0.0
176
     1
 90
        0
176
     1
290
     0
176
     1
290
     1
176
     1
290
     1
176
     1
290
     0
176
     1
290
     0
176
     1
290
     0
176
     1
290
     0
176
     1
290
     0
176
     1
290
     0
176
     1
 90
       50
176
     1
 40
0.0
176
     1
 40
1.0
176
     1
 90
        0
176
     1
 62
    18
420
        0
176
     1
 90
       50
176
     1
 90
        3
176
     1
 62
     5
420
      255
176
     1
290
     0
176
     1
 90
       50
176
     1
 90
       50
176
     1
 90
       50
176
     1
290
     0
176
     1
 90
       50
176
     1
 62
   256
176
     0
 40
1.0
176
     0
 90
        2
176
     1
  1
strokes_ogs.tif
176
     1
290
     0
176
     1
 40
1.0
176
     1
 40
1.0
176
     1
  0
VISUALSTYLE
  5
30
102
{ACAD_REACTORS
330
29
102
}
330
29
100
AcDbVisualStyle
  2
Wireframe
 70
     5
177
     3
291
     0
 70
    58
 90
        0
176
     1
 90
        2
176
     1
 90
        0
176
     1
 90
        0
176
     1
 40
0.6
176
     1
 40
30.0
176
     1
 62
     7
420
 16777215
176
     1
 90
        1
176
     1
 90
        4
176
     1
 62
     7
176
     1
 62
   257
176
     1
 90
        1
176
     1
 90
        1
176
     1
 40
1.0
176
     1
 90
        0
176
     1
 62
   257
176
     1
 40
1.0
176
     1
 90
        1
176
     1
 90
        6
176
     1
 90
        2
176
     1
 62
     7
176
     1
 90
        3
176
     1
 90
        0
176
     1
 90
        0
176
     1
290
     0
176
     1
 90
        1
176
     1
 40
0.0
176
     1
 90
        0
176
     1
290
     0
176
     1
290
     1
176
     1
290
     1
176
     1
290
     0
176
     1
290
     0
176
     1
290
     0
176
     1
290
     0
176
     1
290
     0
176
     1
290
     0
176
     1
 90
       50
176
     1
 40
0.0
176
     1
 40
1.0
176
     1
 90
        0
176
     1
 62
    18
420
        0
176
     1
 90
       50
176
     1
 90
        3
176
     1
 62
     5
420
      255
176
     1
290
     0
176
     1
 90
       50
176
     1
 90
       50
176
     1
 90
       50
176
     1
290
     0
176
     1
 90
       50
176
     1
 62
   256
176
     0
 40
1.0
176
     0
 90
        2
176
     1
  1
strokes_ogs.tif
176
     1
290
     0
176
     1
 40
1.0
176
     1
 40
1.0
176
     1
  0
VISUALSTYLE
  5
3C
102
{ACAD_REACTORS
330
29
102
}
330
29
100
AcDbVisualStyle
  2
X-Ray
 70
    25
177
     3
291
     0
 70
    58
 90
        2
176
     1
 90
        2
176
     1
 90
        1
176
     1
 90
        1
176
     1
 40
0.5
176
     1
 40
30.0
176
     1
 62
     7
420
 16777215
176
     1
 90
        1
176
     1
 90
        0
176
     1
 62
     7
176
     1
 62
   257
176
     1
 90
        1
176
     1
 90
        1
176
     1
 40
1.0
176
     1
 90
        8
176
     1
 62
     7
176
     1
 40
1.0
176
     1
 90
        1
176
     1
 90
        6
176
     1
 90
        2
176
     1
 62
     7
176
     1
 90
        3
176
     1
 90
        0
176
     1
 90
        0
176
     1
290
     0
176
     1
 90
       13
176
     1
 40
0.0
176
     1
 90
        0
176
     1
290
     0
176
     1
290
     1
176
     1
290
     1
176
     1
290
     0
176
     1
290
     0
176
     1
290
     0
176
     1
290
     0
176
     1
290
     0
176
     1
290
     0
176
     1
 90
       50
176
     1
 40
0.0
176
     1
 40
1.0
176
     1
 90
        0
176
     1
 62
    18
420
        0
176
     1
 90
       50
176
     1
 90
        3
176
     1
 62
     5
420
      255
176
     1
290
     0
176
     1
 90
       50
176
     1
 90
       50
176
     1
 90
       50
176
     1
290
     0
176
     1
 90
       50
176
     1
 62
   256
176
     0
 40
1.0
176
     0
 90
        2
176
     1
  1
strokes_ogs.tif
176
     1
290
     0
176
     1
 40
1.0
176
     1
 40
1.0
176
     1
  0
DICTIONARYVAR
  5
6F3
102
{ACAD_REACTORS
330
6ED
102
}
330
6ED
100
DictionaryVariables
280
     0
  1
1:1
  0
DICTIONARYVAR
  5
6EF
102
{ACAD_REACTORS
330
6ED
102
}
330
6ED
100
DictionaryVariables
280
     0
  1
STANDARD
  0
DICTIONARYVAR
  5
6EE
102
{ACAD_REACTORS
330
6ED
102
}
330
6ED
100
DictionaryVariables
280
     0
  1
STANDARD
  0
DICTIONARYVAR
  5
6F0
102
{ACAD_REACTORS
330
6ED
102
}
330
6ED
100
DictionaryVariables
280
     0
  1
Imperial24
  0
DICTIONARYVAR
  5
6F1
102
{ACAD_REACTORS
330
6ED
102
}
330
6ED
100
DictionaryVariables
280
     0
  1
Imperial24
  0
DICTIONARYVAR
  5
6F5
102
{ACAD_REACTORS
330
6ED
102
}
330
6ED
100
DictionaryVariables
280
     0
  1
1
  0
DICTIONARYVAR
  5
6F6
102
{ACAD_REACTORS
330
6ED
102
}
330
6ED
100
DictionaryVariables
280
     0
  1
15
  0
DICTIONARYVAR
  5
6F4
102
{ACAD_REACTORS
330
6ED
102
}
330
6ED
100
DictionaryVariables
280
     0
  1
0
  0
DICTIONARYVAR
  5
6F2
102
{ACAD_REACTORS
330
6ED
102
}
330
6ED
100
DictionaryVariables
280
     0
  1
0
  0
DICTIONARY
  5
1A
330
19
100
AcDbDictionary
280
     1
281
     1
  3
BUMPTILE
360
1C
  3
DIFFUSETILE
360
1B
  3
OPACITYTILE
360
1F
  3
REFLECTIONTILE
360
1E
  3
REFRACTIONTILE
360
20
  3
SPECULARTILE
360
1D
  0
DICTIONARY
  5
12
330
11
100
AcDbDictionary
280
     1
281
     1
  3
BUMPTILE
360
14
  3
DIFFUSETILE
360
13
  3
OPACITYTILE
360
17
  3
REFLECTIONTILE
360
16
  3
REFRACTIONTILE
360
18
  3
SPECULARTILE
360
15
  0
DICTIONARY
  5
22
330
21
100
AcDbDictionary
280
     1
281
     1
  3
BUMPTILE
360
24
  3
DIFFUSETILE
360
23
  3
OPACITYTILE
360
27
  3
REFLECTIONTILE
360
26
  3
REFRACTIONTILE
360
28
  3
SPECULARTILE
360
25
  0
DICTIONARY
  5
6F8
330
64
100
AcDbDictionary
280
     1
281
     1
  3
ACAD_ROUNDTRIP_2008_TABLESTYLE_CELLSTYLEMAP
360
6F9
  0
XRECORD
  5
1C
102
{ACAD_REACTORS
330
1A
102
}
330
1A
100
AcDbXrecord
280
     1
270
     1
271
     1
  0
XRECORD
  5
1B
102
{ACAD_REACTORS
330
1A
102
}
330
1A
100
AcDbXrecord
280
     1
270
     1
271
     1
  0
XRECORD
  5
1F
102
{ACAD_REACTORS
330
1A
102
}
330
1A
100
AcDbXrecord
280
     1
270
     1
271
     1
  0
XRECORD
  5
1E
102
{ACAD_REACTORS
330
1A
102
}
330
1A
100
AcDbXrecord
280
     1
270
     1
271
     1
  0
XRECORD
  5
20
102
{ACAD_REACTORS
330
1A
102
}
330
1A
100
AcDbXrecord
280
     1
270
     1
271
     1
  0
XRECORD
  5
1D
102
{ACAD_REACTORS
330
1A
102
}
330
1A
100
AcDbXrecord
280
     1
270
     1
271
     1
  0
XRECORD
  5
14
102
{ACAD_REACTORS
330
12
102
}
330
12
100
AcDbXrecord
280
     1
270
     1
271
     1
  0
XRECORD
  5
13
102
{ACAD_REACTORS
330
12
102
}
330
12
100
AcDbXrecord
280
     1
270
     1
271
     1
  0
XRECORD
  5
17
102
{ACAD_REACTORS
330
12
102
}
330
12
100
AcDbXrecord
280
     1
270
     1
271
     1
  0
XRECORD
  5
16
102
{ACAD_REACTORS
330
12
102
}
330
12
100
AcDbXrecord
280
     1
270
     1
271
     1
  0
XRECORD
  5
18
102
{ACAD_REACTORS
330
12
102
}
330
12
100
AcDbXrecord
280
     1
270
     1
271
     1
  0
XRECORD
  5
15
102
{ACAD_REACTORS
330
12
102
}
330
12
100
AcDbXrecord
280
     1
270
     1
271
     1
  0
XRECORD
  5
24
102
{ACAD_REACTORS
330
22
102
}
330
22
100
AcDbXrecord
280
     1
270
     1
271
     1
  0
XRECORD
  5
23
102
{ACAD_REACTORS
330
22
102
}
330
22
100
AcDbXrecord
280
     1
270
     1
271
     1
  0
XRECORD
  5
27
102
{ACAD_REACTORS
330
22
102
}
330
22
100
AcDbXrecord
280
     1
270
     1
271
     1
  0
XRECORD
  5
26
102
{ACAD_REACTORS
330
22
102
}
330
22
100
AcDbXrecord
280
     1
270
     1
271
     1
  0
XRECORD
  5
28
102
{ACAD_REACTORS
330
22
102
}
330
22
100
AcDbXrecord
280
     1
270
     1
271
     1
  0
XRECORD
  5
25
102
{ACAD_REACTORS
330
22
102
}
330
22
100
AcDbXrecord
280
     1
270
     1
271
     1
  0
CELLSTYLEMAP
  5
6F9
102
{ACAD_REACTORS
330
6F8
102
}
330
6F8
100
AcDbCellStyleMap
 90
        3
300
CELLSTYLE
  1
TABLEFORMAT_BEGIN
 90
        5
170
     1
 91
        0
 92
    32768
 62
   257
 93
        1
300
CONTENTFORMAT
  1
CONTENTFORMAT_BEGIN
 90
        0
 91
        0
 92
      512
 93
        0
300

 40
0.0
140
1.0
 94
        5
 62
     0
340
55
144
0.0098425196850394
309
CONTENTFORMAT_END
171
     1
301
MARGIN
  1
CELLMARGIN_BEGIN
 40
0.0023622047244095
 40
0.0023622047244095
 40
0.0023622047244095
 40
0.0023622047244095
 40
0.0070866141732283
 40
0.0070866141732283
309
CELLMARGIN_END
 94
        6
 95
        1
302
GRIDFORMAT
  1
GRIDFORMAT_BEGIN
 90
        0
 91
        1
 62
     0
 92
       -2
340
0
 93
        0
 40
0.0017716535433071
309
GRIDFORMAT_END
 95
        2
302
GRIDFORMAT
  1
GRIDFORMAT_BEGIN
 90
        0
 91
        1
 62
     0
 92
       -2
340
0
 93
        0
 40
0.0017716535433071
309
GRIDFORMAT_END
 95
        4
302
GRIDFORMAT
  1
GRIDFORMAT_BEGIN
 90
        0
 91
        1
 62
     0
 92
       -2
340
0
 93
        0
 40
0.0017716535433071
309
GRIDFORMAT_END
 95
        8
302
GRIDFORMAT
  1
GRIDFORMAT_BEGIN
 90
        0
 91
        1
 62
     0
 92
       -2
340
0
 93
        0
 40
0.0017716535433071
309
GRIDFORMAT_END
 95
       16
302
GRIDFORMAT
  1
GRIDFORMAT_BEGIN
 90
        0
 91
        1
 62
     0
 92
       -2
340
0
 93
        0
 40
0.0017716535433071
309
GRIDFORMAT_END
 95
       32
302
GRIDFORMAT
  1
GRIDFORMAT_BEGIN
 90
        0
 91
        1
 62
     0
 92
       -2
340
0
 93
        0
 40
0.0017716535433071
309
GRIDFORMAT_END
309
TABLEFORMAT_END
  1
CELLSTYLE_BEGIN
 90
        1
 91
        1
300
_TITLE
309
CELLSTYLE_END
300
CELLSTYLE
  1
TABLEFORMAT_BEGIN
 90
        5
170
     1
 91
        0
 92
        0
 62
   257
 93
        1
300
CONTENTFORMAT
  1
CONTENTFORMAT_BEGIN
 90
        0
 91
        0
 92
      512
 93
        0
300

 40
0.0
140
1.0
 94
        5
 62
     0
340
55
144
0.0070866141732283
309
CONTENTFORMAT_END
171
     1
301
MARGIN
  1
CELLMARGIN_BEGIN
 40
0.0023622047244095
 40
0.0023622047244095
 40
0.0023622047244095
 40
0.0023622047244095
 40
0.0070866141732283
 40
0.0070866141732283
309
CELLMARGIN_END
 94
        6
 95
        1
302
GRIDFORMAT
  1
GRIDFORMAT_BEGIN
 90
        0
 91
        1
 62
     0
 92
       -2
340
0
 93
        0
 40
0.0017716535433071
309
GRIDFORMAT_END
 95
        2
302
GRIDFORMAT
  1
GRIDFORMAT_BEGIN
 90
        0
 91
        1
 62
     0
 92
       -2
340
0
 93
        0
 40
0.0017716535433071
309
GRIDFORMAT_END
 95
        4
302
GRIDFORMAT
  1
GRIDFORMAT_BEGIN
 90
        0
 91
        1
 62
     0
 92
       -2
340
0
 93
        0
 40
0.0017716535433071
309
GRIDFORMAT_END
 95
        8
302
GRIDFORMAT
  1
GRIDFORMAT_BEGIN
 90
        0
 91
        1
 62
     0
 92
       -2
340
0
 93
        0
 40
0.0017716535433071
309
GRIDFORMAT_END
 95
       16
302
GRIDFORMAT
  1
GRIDFORMAT_BEGIN
 90
        0
 91
        1
 62
     0
 92
       -2
340
0
 93
        0
 40
0.0017716535433071
309
GRIDFORMAT_END
 95
       32
302
GRIDFORMAT
  1
GRIDFORMAT_BEGIN
 90
        0
 91
        1
 62
     0
 92
       -2
340
0
 93
        0
 40
0.0017716535433071
309
GRIDFORMAT_END
309
TABLEFORMAT_END
  1
CELLSTYLE_BEGIN
 90
        2
 91
        1
300
_HEADER
309
CELLSTYLE_END
300
CELLSTYLE
  1
TABLEFORMAT_BEGIN
 90
        5
170
     1
 91
        0
 92
        0
 62
   257
 93
        1
300
CONTENTFORMAT
  1
CONTENTFORMAT_BEGIN
 90
        0
 91
        0
 92
      512
 93
        0
300

 40
0.0
140
1.0
 94
        2
 62
     0
340
55
144
0.0070866141732283
309
CONTENTFORMAT_END
171
     1
301
MARGIN
  1
CELLMARGIN_BEGIN
 40
0.0023622047244095
 40
0.0023622047244095
 40
0.0023622047244095
 40
0.0023622047244095
 40
0.0070866141732283
 40
0.0070866141732283
309
CELLMARGIN_END
 94
        6
 95
        1
302
GRIDFORMAT
  1
GRIDFORMAT_BEGIN
 90
        0
 91
        1
 62
     0
 92
       -2
340
0
 93
        0
 40
0.0017716535433071
309
GRIDFORMAT_END
 95
        2
302
GRIDFORMAT
  1
GRIDFORMAT_BEGIN
 90
        0
 91
        1
 62
     0
 92
       -2
340
0
 93
        0
 40
0.0017716535433071
309
GRIDFORMAT_END
 95
        4
302
GRIDFORMAT
  1
GRIDFORMAT_BEGIN
 90
        0
 91
        1
 62
     0
 92
       -2
340
0
 93
        0
 40
0.0017716535433071
309
GRIDFORMAT_END
 95
        8
302
GRIDFORMAT
  1
GRIDFORMAT_BEGIN
 90
        0
 91
        1
 62
     0
 92
       -2
340
0
 93
        0
 40
0.0017716535433071
309
GRIDFORMAT_END
 95
       16
302
GRIDFORMAT
  1
GRIDFORMAT_BEGIN
 90
        0
 91
        1
 62
     0
 92
       -2
340
0
 93
        0
 40
0.0017716535433071
309
GRIDFORMAT_END
 95
       32
302
GRIDFORMAT
  1
GRIDFORMAT_BEGIN
 90
        0
 91
        1
 62
     0
 92
       -2
340
0
 93
        0
 40
0.0017716535433071
309
GRIDFORMAT_END
309
TABLEFORMAT_END
  1
CELLSTYLE_BEGIN
 90
        3
 91
        2
300
_DATA
309
CELLSTYLE_END
  0
ENDSEC
  0
SECTION
  2
ACDSDATA
 70
     2
 71
     8
  0
ACDSSCHEMA
 90
        0
  1
AcDb_Thumbnail_Schema
  2
AcDbDs::ID
280
    10
 91
        8
  2
Thumbnail_Data
280
    15
 91
        0
101
ACDSRECORD
 95
        0
 90
        1
  2
AcDbDs::TreatedAsObjectData
280
     1
291
     1
101
ACDSRECORD
 95
        0
 90
        2
  2
AcDbDs::Legacy
280
     1
291
     1
101
ACDSRECORD
  1
AcDbDs::ID
 90
        3
  2
AcDs:Indexable
280
     1
291
     1
101
ACDSRECORD
  1
AcDbDs::ID
 90
        4
  2
AcDbDs::HandleAttribute
280
     7
282
     1
  0
ACDSSCHEMA
 90
        1
  1
AcDbDs::TreatedAsObjectDataSchema
  2
AcDbDs::TreatedAsObjectData
280
     1
 91
        0
  0
ACDSSCHEMA
 90
        2
  1
AcDbDs::LegacySchema
  2
AcDbDs::Legacy
280
     1
 91
        0
  0
ACDSSCHEMA
 90
        3
  1
AcDbDs::IndexedPropertySchema
  2
AcDs:Indexable
280
     1
 91
        0
  0
ACDSSCHEMA
 90
        4
  1
AcDbDs::HandleAttributeSchema
  2
AcDbDs::HandleAttribute
280
     7
 91
        1
284
     1
  0
ACDSRECORD
 90
        0
  2
AcDbDs::ID
280
    10
320
72
  2
Thumbnail_Data
280
    15
 94
     1481
310
89504E470D0A1A0A0000000D4948445200000100000000A30803000000525330A000000300504C5445212830FFFFFF2128300000000000000000000000000000000000000000000000000000330000660000990000CC0000FF0033000033330033660033990033CC0033FF0066000066330066660066990066CC0066FF0099
310
000099330099660099990099CC0099FF00CC0000CC3300CC6600CC9900CCCC00CCFF00FF0000FF3300FF6600FF9900FFCC00FFFF3300003300333300663300993300CC3300FF3333003333333333663333993333CC3333FF3366003366333366663366993366CC3366FF3399003399333399663399993399CC3399FF33CC00
310
33CC3333CC6633CC9933CCCC33CCFF33FF0033FF3333FF6633FF9933FFCC33FFFF6600006600336600666600996600CC6600FF6633006633336633666633996633CC6633FF6666006666336666666666996666CC6666FF6699006699336699666699996699CC6699FF66CC0066CC3366CC6666CC9966CCCC66CCFF66FF0066
310
FF3366FF6666FF9966FFCC66FFFF9900009900339900669900999900CC9900FF9933009933339933669933999933CC9933FF9966009966339966669966999966CC9966FF9999009999339999669999999999CC9999FF99CC0099CC3399CC6699CC9999CCCC99CCFF99FF0099FF3399FF6699FF9999FFCC99FFFFCC0000CC00
310
33CC0066CC0099CC00CCCC00FFCC3300CC3333CC3366CC3399CC33CCCC33FFCC6600CC6633CC6666CC6699CC66CCCC66FFCC9900CC9933CC9966CC9999CC99CCCC99FFCCCC00CCCC33CCCC66CCCC99CCCCCCCCCCFFCCFF00CCFF33CCFF66CCFF99CCFFCCCCFFFFFF0000FF0033FF0066FF0099FF00CCFF00FFFF3300FF3333
310
FF3366FF3399FF33CCFF33FFFF6600FF6633FF6666FF6699FF66CCFF66FFFF9900FF9933FF9966FF9999FF99CCFF99FFFFCC00FFCC33FFCC66FFCC99FFCCCCFFCCFFFFFF00FFFF33FFFF66FFFF99FFFFCCFFFFFF0000000D0D0D1A1A1A2828283535354343435050505D5D5D6B6B6B787878868686939393A1A1A1AEAEAEBB
310
BBBBC9C9C9D6D6D6E4E4E4F1F1F1FFFFFF0000000000000000000000000000000000000000000000000000000000002E4550F1000002844944415478DAED9CDB9683200C45F3FFFF9BF759ABB3AC8A2110957AC9DE4FA503B59E0672883A220000000000000000000000F9D04C980264FAB111000110000110206906B4D2A0
310
A68F000440000440002DF281B45E8EECB17F6091D3E4FFCD62FD770458BCA7FECBA13DF60F94CF492F12FCA7A5EBDFFEDD0258019F48004580E402080220C021019EEF03D6DDA634D8EB035E52DEAEB6B0C25D024C716206A414C164B7D41EFEAB1E86F9ED9D02CBC934EBB15C70742593DD5AF55B0DD9D94325D443CA656F
310
71ACD622387F487B21DE1E67505A880EF4BE58671A4C2B40F60898FEA4925D80EC112008D0E34637E97698370E0EF4BE58BF00399D20021853C0B3C265709D6B6AA303450CDF1BB4C2DB45D0B5C2E5F222679ADAA8A3FE9EE8EAAC4356389C05AA025C5246F916C6CB02C9381F704701CAF2C05027787F01A42D801ED80BBC
310
2D02C2BBC10708307637F83601C215A1DBA5C155CED37045285C13BC9B11AADD1095A92C7EBC2A4C597C535876B7C3B2B91FE3820B4CEE6CD4C87678BB087A59603EE7598D4B2E31F627A473D360CB783D4F80A0117A9F00D923401020F91440806059BCBC1D634A830FF601C1AA70710346E5913CCAE24F2F8BF7569B9D56
310
2B8E3ABBBA177CBAF7B0E1B2785FB5B9D887ABB1B5A89D5523EE8CAF6ED5398AA3568B06F12CD05768D16A267092867D1ED5CCD214A0A76C1437427DB5465780323B980F71794F79FD58006909205101CE59B8460BA06323E00102C8D835E0F6532010016F5D0497367799468D3B90EB595937ADE2591E2FB9DB79D2B4BB6E
310
0CEDB3C27D967797E33D62934FB6D8548511000110C05E8533FF1F2100000000000000000000000000000000000000000000000000000000000000008067F207DDD58B437F086AD60000000049454E44AE426082
  0
ENDSEC
  0
EOF
