<svg style="background-color:#dddddd" width="838" height="230"><path stroke="black" fill="white" fill-opacity="1.0" d="M 0, 230 L 838, 230 L 838, 0 L 0, 0 Z"/><path stroke="black" fill="white" fill-opacity="0.0" d="M 53, 25 L 25, 25 L 25, 53 L 53, 53 Z"/><path stroke="black" fill="white" fill-opacity="0.0" d="M 91, 25 L 63, 25 L 63, 53 L 91, 53 Z"/><path stroke="black" fill="white" fill-opacity="0.0" d="M 129, 25 L 101, 25 L 101, 53 L 129, 53 Z"/><path stroke="black" fill="white" fill-opacity="0.0" d="M 167, 25 L 139, 25 L 139, 53 L 167, 53 Z"/><path stroke="black" fill="white" fill-opacity="0.0" d="M 205, 25 L 177, 25 L 177, 53 L 205, 53 Z"/><path stroke="black" fill="white" fill-opacity="0.0" d="M 243, 25 L 215, 25 L 215, 53 L 243, 53 Z"/><path stroke="black" fill="white" fill-opacity="0.0" d="M 281, 25 L 253, 25 L 253, 53 L 281, 53 Z"/><path stroke="black" fill="white" fill-opacity="0.0" d="M 319, 25 L 291, 25 L 291, 53 L 319, 53 Z"/><path stroke="black" fill="white" fill-opacity="0.0" d="M 357, 25 L 329, 25 L 329, 53 L 357, 53 Z"/><path stroke="black" fill="white" fill-opacity="0.0" d="M 395, 25 L 367, 25 L 367, 53 L 395, 53 Z"/><path stroke="black" fill="white" fill-opacity="0.0" d="M 433, 25 L 405, 25 L 405, 53 L 433, 53 Z"/><path stroke="black" fill="white" fill-opacity="0.0" d="M 471, 25 L 443, 25 L 443, 53 L 471, 53 Z"/><path stroke="black" fill="white" fill-opacity="0.0" d="M 509, 25 L 481, 25 L 481, 53 L 509, 53 Z"/><path stroke="black" fill="white" fill-opacity="0.0" d="M 547, 25 L 519, 25 L 519, 53 L 547, 53 Z"/><path stroke="black" fill="white" fill-opacity="0.0" d="M 585, 25 L 557, 25 L 557, 53 L 585, 53 Z"/><path stroke="black" fill="white" fill-opacity="0.0" d="M 623, 25 L 595, 25 L 595, 53 L 623, 53 Z"/><path stroke="black" fill="white" fill-opacity="0.0" d="M 661, 25 L 633, 25 L 633, 53 L 661, 53 Z"/><path stroke="black" fill="white" fill-opacity="0.0" d="M 683.5, 52.53999999999999 L 686.85, 52.53999999999999 L 686.85, 40 L 690, 40 L 690, 53 L 718, 53 L 718, 40 L 721.15, 40 L 721.15, 52.53999999999999 L 724.5, 52.53999999999999 L 724.5, 54.524 L 731.1, 54.524 L 731.1, 52.53999999999999 L 734.45, 52.53999999999999 L 734.45, 40 L 736.2, 40 L 736.2, 34.400000000000006 L 734.45, 34.400000000000006 L 734.45, 27.939999999999998 L 731.1, 27.939999999999998 L 731.1, 26.524 L 724.5, 26.524 L 724.5, 27.939999999999998 L 721.15, 27.939999999999998 L 721.15, 34.400000000000006 L 718, 34.400000000000006 L 718, 25 L 690, 25 L 690, 34.400000000000006 L 686.85, 34.400000000000006 L 686.85, 27.939999999999998 L 683.5, 27.939999999999998 L 683.5, 26.524 L 676.9, 26.524 L 676.9, 27.939999999999998 L 673.55, 27.939999999999998 L 673.55, 34.400000000000006 L 671.8, 34.400000000000006 L 671.8, 40 L 673.55, 40 L 673.55, 52.53999999999999 L 676.9, 52.53999999999999 L 676.9, 54.524 L 683.5, 54.524 Z"/><path stroke="black" fill="white" fill-opacity="0.0" d="M 775, 25 L 747, 25 L 747, 53 L 775, 53 Z"/><path stroke="black" fill="white" fill-opacity="0.0" d="M 813, 25 L 785, 25 L 785, 53 L 813, 53 Z"/><path stroke="black" fill="white" fill-opacity="0.0" d="M 25.459999999999994, 75.5 L 25.459999999999994, 78.85 L 38, 78.85 L 38, 82 L 25, 82 L 25, 110 L 38, 110 L 38, 113.15 L 25.459999999999994, 113.15 L 25.459999999999994, 116.5 L 23.476, 116.5 L 23.476, 123.1 L 25.459999999999994, 123.1 L 25.459999999999994, 126.45 L 38, 126.45 L 38, 128.2 L 43.599999999999994, 128.2 L 43.599999999999994, 126.45 L 50.06, 126.45 L 50.06, 123.1 L 51.476, 123.1 L 51.476, 116.5 L 50.06, 116.5 L 50.06, 113.15 L 43.599999999999994, 113.15 L 43.599999999999994, 110 L 53, 110 L 53, 82 L 43.599999999999994, 82 L 43.599999999999994, 78.85 L 50.06, 78.85 L 50.06, 75.5 L 51.476, 75.5 L 51.476, 68.9 L 50.06, 68.9 L 50.06, 65.55000000000001 L 43.599999999999994, 65.55000000000001 L 43.599999999999994, 63.80000000000001 L 38, 63.80000000000001 L 38, 65.55000000000001 L 25.459999999999994, 65.55000000000001 L 25.459999999999994, 68.9 L 23.476, 68.9 L 23.476, 75.5 Z"/><path stroke="black" fill="white" fill-opacity="0.0" d="M 91, 63 L 63, 63 L 63, 91 L 91, 91 Z"/><path stroke="black" fill="white" fill-opacity="0.0" d="M 129, 63 L 101, 63 L 101, 91 L 129, 91 Z"/><path stroke="black" fill="white" fill-opacity="0.0" d="M 167, 63 L 139, 63 L 139, 91 L 167, 91 Z"/><path stroke="black" fill="white" fill-opacity="0.0" d="M 214.5, 63 L 186.5, 63 L 186.5, 91 L 214.5, 91 Z"/><path stroke="black" fill="white" fill-opacity="0.0" d="M 262, 63 L 234, 63 L 234, 91 L 262, 91 Z"/><path stroke="black" fill="white" fill-opacity="0.0" d="M 300, 63 L 272, 63 L 272, 91 L 300, 91 Z"/><path stroke="black" fill="white" fill-opacity="0.0" d="M 338, 63 L 310, 63 L 310, 91 L 338, 91 Z"/><path stroke="black" fill="white" fill-opacity="0.0" d="M 376, 63 L 348, 63 L 348, 91 L 376, 91 Z"/><path stroke="black" fill="white" fill-opacity="0.0" d="M 414, 63 L 386, 63 L 386, 91 L 414, 91 Z"/><path stroke="black" fill="white" fill-opacity="0.0" d="M 452, 63 L 424, 63 L 424, 91 L 452, 91 Z"/><path stroke="black" fill="white" fill-opacity="0.0" d="M 490, 63 L 462, 63 L 462, 91 L 490, 91 Z"/><path stroke="black" fill="white" fill-opacity="0.0" d="M 528, 63 L 500, 63 L 500, 91 L 528, 91 Z"/><path stroke="black" fill="white" fill-opacity="0.0" d="M 566, 63 L 538, 63 L 538, 91 L 566, 91 Z"/><path stroke="black" fill="white" fill-opacity="0.0" d="M 604, 63 L 576, 63 L 576, 91 L 604, 91 Z"/><path stroke="black" fill="white" fill-opacity="0.0" d="M 642, 63 L 614, 63 L 614, 91 L 642, 91 Z"/><path stroke="black" fill="white" fill-opacity="0.0" d="M 680, 63 L 652, 63 L 652, 91 L 680, 91 Z"/><path stroke="black" fill="white" fill-opacity="0.0" d="M 727.5, 63 L 699.5, 63 L 699.5, 91 L 727.5, 91 Z"/><path stroke="black" fill="white" fill-opacity="0.0" d="M 775, 63 L 747, 63 L 747, 91 L 775, 91 Z"/><path stroke="black" fill="white" fill-opacity="0.0" d="M 813, 63 L 785, 63 L 785, 91 L 813, 91 Z"/><path stroke="black" fill="white" fill-opacity="0.0" d="M 91, 101 L 63, 101 L 63, 129 L 91, 129 Z"/><path stroke="black" fill="white" fill-opacity="0.0" d="M 129, 101 L 101, 101 L 101, 129 L 129, 129 Z"/><path stroke="black" fill="white" fill-opacity="0.0" d="M 167, 101 L 139, 101 L 139, 129 L 167, 129 Z"/><path stroke="black" fill="white" fill-opacity="0.0" d="M 219.25, 101 L 191.25, 101 L 191.25, 129 L 219.25, 129 Z"/><path stroke="black" fill="white" fill-opacity="0.0" d="M 271.5, 101 L 243.5, 101 L 243.5, 129 L 271.5, 129 Z"/><path stroke="black" fill="white" fill-opacity="0.0" d="M 309.5, 101 L 281.5, 101 L 281.5, 129 L 309.5, 129 Z"/><path stroke="black" fill="white" fill-opacity="0.0" d="M 347.5, 101 L 319.5, 101 L 319.5, 129 L 347.5, 129 Z"/><path stroke="black" fill="white" fill-opacity="0.0" d="M 385.5, 101 L 357.5, 101 L 357.5, 129 L 385.5, 129 Z"/><path stroke="black" fill="white" fill-opacity="0.0" d="M 423.5, 101 L 395.5, 101 L 395.5, 129 L 423.5, 129 Z"/><path stroke="black" fill="white" fill-opacity="0.0" d="M 461.5, 101 L 433.5, 101 L 433.5, 129 L 461.5, 129 Z"/><path stroke="black" fill="white" fill-opacity="0.0" d="M 499.5, 101 L 471.5, 101 L 471.5, 129 L 499.5, 129 Z"/><path stroke="black" fill="white" fill-opacity="0.0" d="M 537.5, 101 L 509.5, 101 L 509.5, 129 L 537.5, 129 Z"/><path stroke="black" fill="white" fill-opacity="0.0" d="M 575.5, 101 L 547.5, 101 L 547.5, 129 L 575.5, 129 Z"/><path stroke="black" fill="white" fill-opacity="0.0" d="M 613.5, 101 L 585.5, 101 L 585.5, 129 L 613.5, 129 Z"/><path stroke="black" fill="white" fill-opacity="0.0" d="M 651.5, 101 L 623.5, 101 L 623.5, 129 L 651.5, 129 Z"/><path stroke="black" fill="white" fill-opacity="0.0" d="M 678.75, 128.54 L 682.1, 128.54 L 682.1, 116 L 685.25, 116 L 685.25, 129 L 713.25, 129 L 713.25, 116 L 716.4, 116 L 716.4, 128.54 L 719.75, 128.54 L 719.75, 130.524 L 726.35, 130.524 L 726.35, 128.54 L 729.7, 128.54 L 729.7, 116 L 731.45, 116 L 731.45, 110.4 L 729.7, 110.4 L 729.7, 103.94 L 726.35, 103.94 L 726.35, 102.524 L 719.75, 102.524 L 719.75, 103.94 L 716.4, 103.94 L 716.4, 110.4 L 713.25, 110.4 L 713.25, 101 L 685.25, 101 L 685.25, 110.4 L 682.1, 110.4 L 682.1, 103.94 L 678.75, 103.94 L 678.75, 102.524 L 672.15, 102.524 L 672.15, 103.94 L 668.8, 103.94 L 668.8, 110.4 L 667.05, 110.4 L 667.05, 116 L 668.8, 116 L 668.8, 128.54 L 672.15, 128.54 L 672.15, 130.524 L 678.75, 130.524 Z"/><path stroke="black" fill="white" fill-opacity="0.0" d="M 775, 101 L 747, 101 L 747, 129 L 775, 129 Z"/><path stroke="black" fill="white" fill-opacity="0.0" d="M 813, 101 L 785, 101 L 785, 129 L 813, 129 Z"/><path stroke="black" fill="white" fill-opacity="0.0" d="M 25.460000000000008, 151.5 L 25.460000000000008, 154.85 L 38, 154.85 L 38, 158 L 25, 158 L 25, 186 L 38, 186 L 38, 189.15 L 25.460000000000008, 189.15 L 25.460000000000008, 192.5 L 23.476, 192.5 L 23.476, 199.1 L 25.460000000000008, 199.1 L 25.460000000000008, 202.45 L 38, 202.45 L 38, 204.2 L 43.599999999999994, 204.2 L 43.599999999999994, 202.45 L 50.06, 202.45 L 50.06, 199.1 L 51.476, 199.1 L 51.476, 192.5 L 50.06, 192.5 L 50.06, 189.15 L 43.599999999999994, 189.15 L 43.599999999999994, 186 L 53, 186 L 53, 158 L 43.599999999999994, 158 L 43.599999999999994, 154.85 L 50.06, 154.85 L 50.06, 151.5 L 51.476, 151.5 L 51.476, 144.9 L 50.06, 144.9 L 50.06, 141.55 L 43.599999999999994, 141.55 L 43.599999999999994, 139.8 L 38, 139.8 L 38, 141.55 L 25.460000000000008, 141.55 L 25.460000000000008, 144.9 L 23.476, 144.9 L 23.476, 151.5 Z"/><path stroke="black" fill="white" fill-opacity="0.0" d="M 91, 139 L 63, 139 L 63, 167 L 91, 167 Z"/><path stroke="black" fill="white" fill-opacity="0.0" d="M 129, 139 L 101, 139 L 101, 167 L 129, 167 Z"/><path stroke="black" fill="white" fill-opacity="0.0" d="M 167, 139 L 139, 139 L 139, 167 L 167, 167 Z"/><path stroke="black" fill="white" fill-opacity="0.0" d="M 194.25, 166.54 L 197.6, 166.54 L 197.6, 154 L 200.75, 154 L 200.75, 167 L 228.75, 167 L 228.75, 154 L 231.9, 154 L 231.9, 166.54 L 235.25, 166.54 L 235.25, 168.524 L 241.85, 168.524 L 241.85, 166.54 L 245.2, 166.54 L 245.2, 154 L 246.95, 154 L 246.95, 148.4 L 245.2, 148.4 L 245.2, 141.94 L 241.85, 141.94 L 241.85, 140.524 L 235.25, 140.524 L 235.25, 141.94 L 231.9, 141.94 L 231.9, 148.4 L 228.75, 148.4 L 228.75, 139 L 200.75, 139 L 200.75, 148.4 L 197.6, 148.4 L 197.6, 141.94 L 194.25, 141.94 L 194.25, 140.524 L 187.65, 140.524 L 187.65, 141.94 L 184.3, 141.94 L 184.3, 148.4 L 182.55, 148.4 L 182.55, 154 L 184.3, 154 L 184.3, 166.54 L 187.65, 166.54 L 187.65, 168.524 L 194.25, 168.524 Z"/><path stroke="black" fill="white" fill-opacity="0.0" d="M 290.5, 139 L 262.5, 139 L 262.5, 167 L 290.5, 167 Z"/><path stroke="black" fill="white" fill-opacity="0.0" d="M 328.5, 139 L 300.5, 139 L 300.5, 167 L 328.5, 167 Z"/><path stroke="black" fill="white" fill-opacity="0.0" d="M 366.5, 139 L 338.5, 139 L 338.5, 167 L 366.5, 167 Z"/><path stroke="black" fill="white" fill-opacity="0.0" d="M 404.5, 139 L 376.5, 139 L 376.5, 167 L 404.5, 167 Z"/><path stroke="black" fill="white" fill-opacity="0.0" d="M 442.5, 139 L 414.5, 139 L 414.5, 167 L 442.5, 167 Z"/><path stroke="black" fill="white" fill-opacity="0.0" d="M 480.5, 139 L 452.5, 139 L 452.5, 167 L 480.5, 167 Z"/><path stroke="black" fill="white" fill-opacity="0.0" d="M 518.5, 139 L 490.5, 139 L 490.5, 167 L 518.5, 167 Z"/><path stroke="black" fill="white" fill-opacity="0.0" d="M 556.5, 139 L 528.5, 139 L 528.5, 167 L 556.5, 167 Z"/><path stroke="black" fill="white" fill-opacity="0.0" d="M 594.5, 139 L 566.5, 139 L 566.5, 167 L 594.5, 167 Z"/><path stroke="black" fill="white" fill-opacity="0.0" d="M 632.5, 139 L 604.5, 139 L 604.5, 167 L 632.5, 167 Z"/><path stroke="black" fill="white" fill-opacity="0.0" d="M 669.25, 166.54 L 672.6, 166.54 L 672.6, 154 L 675.75, 154 L 675.75, 167 L 703.75, 167 L 703.75, 154 L 706.9, 154 L 706.9, 166.54 L 710.25, 166.54 L 710.25, 168.524 L 716.85, 168.524 L 716.85, 166.54 L 720.2, 166.54 L 720.2, 154 L 721.95, 154 L 721.95, 148.4 L 720.2, 148.4 L 720.2, 141.94 L 716.85, 141.94 L 716.85, 140.524 L 710.25, 140.524 L 710.25, 141.94 L 706.9, 141.94 L 706.9, 148.4 L 703.75, 148.4 L 703.75, 139 L 675.75, 139 L 675.75, 148.4 L 672.6, 148.4 L 672.6, 141.94 L 669.25, 141.94 L 669.25, 140.524 L 662.65, 140.524 L 662.65, 141.94 L 659.3, 141.94 L 659.3, 148.4 L 657.55, 148.4 L 657.55, 154 L 659.3, 154 L 659.3, 166.54 L 662.65, 166.54 L 662.65, 168.524 L 669.25, 168.524 Z"/><path stroke="black" fill="white" fill-opacity="0.0" d="M 775, 139 L 747, 139 L 747, 167 L 775, 167 Z"/><path stroke="black" fill="white" fill-opacity="0.0" d="M 813, 139 L 785, 139 L 785, 167 L 813, 167 Z"/><path stroke="black" fill="white" fill-opacity="0.0" d="M 91, 177 L 63, 177 L 63, 205 L 91, 205 Z"/><path stroke="black" fill="white" fill-opacity="0.0" d="M 113.5, 204.54 L 116.85, 204.54 L 116.85, 192 L 120, 192 L 120, 205 L 148, 205 L 148, 192 L 151.15, 192 L 151.15, 204.54 L 154.5, 204.54 L 154.5, 206.524 L 161.1, 206.524 L 161.1, 204.54 L 164.45, 204.54 L 164.45, 192 L 166.2, 192 L 166.2, 186.4 L 164.45, 186.4 L 164.45, 179.94 L 161.1, 179.94 L 161.1, 178.524 L 154.5, 178.524 L 154.5, 179.94 L 151.15, 179.94 L 151.15, 186.4 L 148, 186.4 L 148, 177 L 120, 177 L 120, 186.4 L 116.85, 186.4 L 116.85, 179.94 L 113.5, 179.94 L 113.5, 178.524 L 106.9, 178.524 L 106.9, 179.94 L 103.55, 179.94 L 103.55, 186.4 L 101.8, 186.4 L 101.8, 192 L 103.55, 192 L 103.55, 204.54 L 106.9, 204.54 L 106.9, 206.524 L 113.5, 206.524 Z"/><path stroke="black" fill="white" fill-opacity="0.0" d="M 209.75, 177 L 181.75, 177 L 181.75, 205 L 209.75, 205 Z"/><path stroke="black" fill="white" fill-opacity="0.0" d="M 257.25, 177 L 229.25, 177 L 229.25, 205 L 257.25, 205 Z"/><path stroke="black" fill="white" fill-opacity="0.0" d="M 304.75, 177 L 276.75, 177 L 276.75, 205 L 304.75, 205 Z"/><path stroke="black" fill="white" fill-opacity="0.0" d="M 336.55, 204.54 L 339.9, 204.54 L 339.9, 195.6 L 419.25, 195.6 L 419.25, 205 L 447.25, 205 L 447.25, 195.6 L 526.6, 195.6 L 526.6, 204.54 L 529.95, 204.54 L 529.95, 206.524 L 536.55, 206.524 L 536.55, 204.54 L 539.9, 204.54 L 539.9, 192 L 541.7, 192 L 541.7, 186.4 L 539.9, 186.4 L 539.9, 179.94 L 536.55, 179.94 L 536.55, 178.524 L 529.95, 178.524 L 529.95, 179.94 L 526.6, 179.94 L 526.6, 186.4 L 447.25, 186.4 L 447.25, 177 L 419.25, 177 L 419.25, 186.4 L 339.9, 186.4 L 339.9, 179.94 L 336.55, 179.94 L 336.55, 178.524 L 329.95, 178.524 L 329.95, 179.94 L 326.6, 179.94 L 326.6, 186.4 L 324.8, 186.4 L 324.8, 192 L 326.6, 192 L 326.6, 204.54 L 329.95, 204.54 L 329.95, 206.524 L 336.55, 206.524 Z"/><path stroke="black" fill="white" fill-opacity="0.0" d="M 589.75, 177 L 561.75, 177 L 561.75, 205 L 589.75, 205 Z"/><path stroke="black" fill="white" fill-opacity="0.0" d="M 637.25, 177 L 609.25, 177 L 609.25, 205 L 637.25, 205 Z"/><path stroke="black" fill="white" fill-opacity="0.0" d="M 684.75, 177 L 656.75, 177 L 656.75, 205 L 684.75, 205 Z"/><path stroke="black" fill="white" fill-opacity="0.0" d="M 732.25, 177 L 704.25, 177 L 704.25, 205 L 732.25, 205 Z"/><path stroke="black" fill="white" fill-opacity="0.0" d="M 775, 177 L 747, 177 L 747, 205 L 775, 205 Z"/><path stroke="black" fill="white" fill-opacity="0.0" d="M 813, 177 L 785, 177 L 785, 205 L 813, 205 Z"/></svg>