<svg style="background-color:#dddddd" width="792" height="222"><path stroke="black" fill="white" fill-opacity="1.0" d="M 0, 222 L 792, 222 L 792, 0 L 0, 0 Z"/><path stroke="black" fill="white" fill-opacity="0.0" d="M 49, 21 L 21, 21 L 21, 49 L 49, 49 Z"/><path stroke="black" fill="white" fill-opacity="0.0" d="M 87, 21 L 59, 21 L 59, 49 L 87, 49 Z"/><path stroke="black" fill="white" fill-opacity="0.0" d="M 125, 21 L 97, 21 L 97, 49 L 125, 49 Z"/><path stroke="black" fill="white" fill-opacity="0.0" d="M 163, 21 L 135, 21 L 135, 49 L 163, 49 Z"/><path stroke="black" fill="white" fill-opacity="0.0" d="M 201, 21 L 173, 21 L 173, 49 L 201, 49 Z"/><path stroke="black" fill="white" fill-opacity="0.0" d="M 239, 21 L 211, 21 L 211, 49 L 239, 49 Z"/><path stroke="black" fill="white" fill-opacity="0.0" d="M 277, 21 L 249, 21 L 249, 49 L 277, 49 Z"/><path stroke="black" fill="white" fill-opacity="0.0" d="M 315, 21 L 287, 21 L 287, 49 L 315, 49 Z"/><path stroke="black" fill="white" fill-opacity="0.0" d="M 353, 21 L 325, 21 L 325, 49 L 353, 49 Z"/><path stroke="black" fill="white" fill-opacity="0.0" d="M 391, 21 L 363, 21 L 363, 49 L 391, 49 Z"/><path stroke="black" fill="white" fill-opacity="0.0" d="M 429, 21 L 401, 21 L 401, 49 L 429, 49 Z"/><path stroke="black" fill="white" fill-opacity="0.0" d="M 467, 21 L 439, 21 L 439, 49 L 467, 49 Z"/><path stroke="black" fill="white" fill-opacity="0.0" d="M 505, 21 L 477, 21 L 477, 49 L 505, 49 Z"/><path stroke="black" fill="white" fill-opacity="0.0" d="M 543, 21 L 515, 21 L 515, 49 L 543, 49 Z"/><path stroke="black" fill="white" fill-opacity="0.0" d="M 581, 21 L 553, 21 L 553, 49 L 581, 49 Z"/><path stroke="black" fill="white" fill-opacity="0.0" d="M 619, 21 L 591, 21 L 591, 49 L 619, 49 Z"/><path stroke="black" fill="white" fill-opacity="0.0" d="M 657, 21 L 629, 21 L 629, 49 L 657, 49 Z"/><path stroke="black" fill="white" fill-opacity="0.0" d="M 679.5, 48.53999999999999 L 682.85, 48.53999999999999 L 682.85, 36 L 686, 36 L 686, 49 L 714, 49 L 714, 36 L 717.15, 36 L 717.15, 48.53999999999999 L 720.5, 48.53999999999999 L 720.5, 50.524 L 727.1, 50.524 L 727.1, 48.53999999999999 L 730.45, 48.53999999999999 L 730.45, 36 L 732.2, 36 L 732.2, 30.400000000000006 L 730.45, 30.400000000000006 L 730.45, 23.939999999999998 L 727.1, 23.939999999999998 L 727.1, 22.524 L 720.5, 22.524 L 720.5, 23.939999999999998 L 717.15, 23.939999999999998 L 717.15, 30.400000000000006 L 714, 30.400000000000006 L 714, 21 L 686, 21 L 686, 30.400000000000006 L 682.85, 30.400000000000006 L 682.85, 23.939999999999998 L 679.5, 23.939999999999998 L 679.5, 22.524 L 672.9, 22.524 L 672.9, 23.939999999999998 L 669.55, 23.939999999999998 L 669.55, 30.400000000000006 L 667.8, 30.400000000000006 L 667.8, 36 L 669.55, 36 L 669.55, 48.53999999999999 L 672.9, 48.53999999999999 L 672.9, 50.524 L 679.5, 50.524 Z"/><path stroke="black" fill="white" fill-opacity="0.0" d="M 771, 21 L 743, 21 L 743, 49 L 771, 49 Z"/><path stroke="black" fill="white" fill-opacity="0.0" d="M 21.459999999999994, 71.5 L 21.459999999999994, 74.85 L 34, 74.85 L 34, 78 L 21, 78 L 21, 106 L 34, 106 L 34, 109.15 L 21.459999999999994, 109.15 L 21.459999999999994, 112.5 L 19.476, 112.5 L 19.476, 119.1 L 21.459999999999994, 119.1 L 21.459999999999994, 122.45 L 34, 122.45 L 34, 124.2 L 39.599999999999994, 124.2 L 39.599999999999994, 122.45 L 46.06, 122.45 L 46.06, 119.1 L 47.476, 119.1 L 47.476, 112.5 L 46.06, 112.5 L 46.06, 109.15 L 39.599999999999994, 109.15 L 39.599999999999994, 106 L 49, 106 L 49, 78 L 39.599999999999994, 78 L 39.599999999999994, 74.85 L 46.06, 74.85 L 46.06, 71.5 L 47.476, 71.5 L 47.476, 64.9 L 46.06, 64.9 L 46.06, 61.55000000000001 L 39.599999999999994, 61.55000000000001 L 39.599999999999994, 59.80000000000001 L 34, 59.80000000000001 L 34, 61.55000000000001 L 21.459999999999994, 61.55000000000001 L 21.459999999999994, 64.9 L 19.476, 64.9 L 19.476, 71.5 Z"/><path stroke="black" fill="white" fill-opacity="0.0" d="M 87, 59 L 59, 59 L 59, 87 L 87, 87 Z"/><path stroke="black" fill="white" fill-opacity="0.0" d="M 125, 59 L 97, 59 L 97, 87 L 125, 87 Z"/><path stroke="black" fill="white" fill-opacity="0.0" d="M 163, 59 L 135, 59 L 135, 87 L 163, 87 Z"/><path stroke="black" fill="white" fill-opacity="0.0" d="M 210.5, 59 L 182.5, 59 L 182.5, 87 L 210.5, 87 Z"/><path stroke="black" fill="white" fill-opacity="0.0" d="M 258, 59 L 230, 59 L 230, 87 L 258, 87 Z"/><path stroke="black" fill="white" fill-opacity="0.0" d="M 296, 59 L 268, 59 L 268, 87 L 296, 87 Z"/><path stroke="black" fill="white" fill-opacity="0.0" d="M 334, 59 L 306, 59 L 306, 87 L 334, 87 Z"/><path stroke="black" fill="white" fill-opacity="0.0" d="M 372, 59 L 344, 59 L 344, 87 L 372, 87 Z"/><path stroke="black" fill="white" fill-opacity="0.0" d="M 410, 59 L 382, 59 L 382, 87 L 410, 87 Z"/><path stroke="black" fill="white" fill-opacity="0.0" d="M 448, 59 L 420, 59 L 420, 87 L 448, 87 Z"/><path stroke="black" fill="white" fill-opacity="0.0" d="M 486, 59 L 458, 59 L 458, 87 L 486, 87 Z"/><path stroke="black" fill="white" fill-opacity="0.0" d="M 524, 59 L 496, 59 L 496, 87 L 524, 87 Z"/><path stroke="black" fill="white" fill-opacity="0.0" d="M 562, 59 L 534, 59 L 534, 87 L 562, 87 Z"/><path stroke="black" fill="white" fill-opacity="0.0" d="M 600, 59 L 572, 59 L 572, 87 L 600, 87 Z"/><path stroke="black" fill="white" fill-opacity="0.0" d="M 638, 59 L 610, 59 L 610, 87 L 638, 87 Z"/><path stroke="black" fill="white" fill-opacity="0.0" d="M 676, 59 L 648, 59 L 648, 87 L 676, 87 Z"/><path stroke="black" fill="white" fill-opacity="0.0" d="M 723.5, 59 L 695.5, 59 L 695.5, 87 L 723.5, 87 Z"/><path stroke="black" fill="white" fill-opacity="0.0" d="M 771, 59 L 743, 59 L 743, 87 L 771, 87 Z"/><path stroke="black" fill="white" fill-opacity="0.0" d="M 87, 97 L 59, 97 L 59, 125 L 87, 125 Z"/><path stroke="black" fill="white" fill-opacity="0.0" d="M 125, 97 L 97, 97 L 97, 125 L 125, 125 Z"/><path stroke="black" fill="white" fill-opacity="0.0" d="M 163, 97 L 135, 97 L 135, 125 L 163, 125 Z"/><path stroke="black" fill="white" fill-opacity="0.0" d="M 215.25, 97 L 187.25, 97 L 187.25, 125 L 215.25, 125 Z"/><path stroke="black" fill="white" fill-opacity="0.0" d="M 267.5, 97 L 239.5, 97 L 239.5, 125 L 267.5, 125 Z"/><path stroke="black" fill="white" fill-opacity="0.0" d="M 305.5, 97 L 277.5, 97 L 277.5, 125 L 305.5, 125 Z"/><path stroke="black" fill="white" fill-opacity="0.0" d="M 343.5, 97 L 315.5, 97 L 315.5, 125 L 343.5, 125 Z"/><path stroke="black" fill="white" fill-opacity="0.0" d="M 381.5, 97 L 353.5, 97 L 353.5, 125 L 381.5, 125 Z"/><path stroke="black" fill="white" fill-opacity="0.0" d="M 419.5, 97 L 391.5, 97 L 391.5, 125 L 419.5, 125 Z"/><path stroke="black" fill="white" fill-opacity="0.0" d="M 457.5, 97 L 429.5, 97 L 429.5, 125 L 457.5, 125 Z"/><path stroke="black" fill="white" fill-opacity="0.0" d="M 495.5, 97 L 467.5, 97 L 467.5, 125 L 495.5, 125 Z"/><path stroke="black" fill="white" fill-opacity="0.0" d="M 533.5, 97 L 505.5, 97 L 505.5, 125 L 533.5, 125 Z"/><path stroke="black" fill="white" fill-opacity="0.0" d="M 571.5, 97 L 543.5, 97 L 543.5, 125 L 571.5, 125 Z"/><path stroke="black" fill="white" fill-opacity="0.0" d="M 609.5, 97 L 581.5, 97 L 581.5, 125 L 609.5, 125 Z"/><path stroke="black" fill="white" fill-opacity="0.0" d="M 647.5, 97 L 619.5, 97 L 619.5, 125 L 647.5, 125 Z"/><path stroke="black" fill="white" fill-opacity="0.0" d="M 674.75, 124.54 L 678.1, 124.54 L 678.1, 112 L 681.25, 112 L 681.25, 125 L 709.25, 125 L 709.25, 112 L 712.4, 112 L 712.4, 124.54 L 715.75, 124.54 L 715.75, 126.524 L 722.35, 126.524 L 722.35, 124.54 L 725.7, 124.54 L 725.7, 112 L 727.45, 112 L 727.45, 106.4 L 725.7, 106.4 L 725.7, 99.94 L 722.35, 99.94 L 722.35, 98.524 L 715.75, 98.524 L 715.75, 99.94 L 712.4, 99.94 L 712.4, 106.4 L 709.25, 106.4 L 709.25, 97 L 681.25, 97 L 681.25, 106.4 L 678.1, 106.4 L 678.1, 99.94 L 674.75, 99.94 L 674.75, 98.524 L 668.15, 98.524 L 668.15, 99.94 L 664.8, 99.94 L 664.8, 106.4 L 663.05, 106.4 L 663.05, 112 L 664.8, 112 L 664.8, 124.54 L 668.15, 124.54 L 668.15, 126.524 L 674.75, 126.524 Z"/><path stroke="black" fill="white" fill-opacity="0.0" d="M 771, 97 L 743, 97 L 743, 125 L 771, 125 Z"/><path stroke="black" fill="white" fill-opacity="0.0" d="M 21.460000000000008, 147.5 L 21.460000000000008, 150.85 L 34, 150.85 L 34, 154 L 21, 154 L 21, 182 L 34, 182 L 34, 185.15 L 21.460000000000008, 185.15 L 21.460000000000008, 188.5 L 19.476, 188.5 L 19.476, 195.1 L 21.460000000000008, 195.1 L 21.460000000000008, 198.45 L 34, 198.45 L 34, 200.2 L 39.599999999999994, 200.2 L 39.599999999999994, 198.45 L 46.06, 198.45 L 46.06, 195.1 L 47.476, 195.1 L 47.476, 188.5 L 46.06, 188.5 L 46.06, 185.15 L 39.599999999999994, 185.15 L 39.599999999999994, 182 L 49, 182 L 49, 154 L 39.599999999999994, 154 L 39.599999999999994, 150.85 L 46.06, 150.85 L 46.06, 147.5 L 47.476, 147.5 L 47.476, 140.9 L 46.06, 140.9 L 46.06, 137.55 L 39.599999999999994, 137.55 L 39.599999999999994, 135.8 L 34, 135.8 L 34, 137.55 L 21.460000000000008, 137.55 L 21.460000000000008, 140.9 L 19.476, 140.9 L 19.476, 147.5 Z"/><path stroke="black" fill="white" fill-opacity="0.0" d="M 87, 135 L 59, 135 L 59, 163 L 87, 163 Z"/><path stroke="black" fill="white" fill-opacity="0.0" d="M 125, 135 L 97, 135 L 97, 163 L 125, 163 Z"/><path stroke="black" fill="white" fill-opacity="0.0" d="M 163, 135 L 135, 135 L 135, 163 L 163, 163 Z"/><path stroke="black" fill="white" fill-opacity="0.0" d="M 190.25, 162.54 L 193.6, 162.54 L 193.6, 150 L 196.75, 150 L 196.75, 163 L 224.75, 163 L 224.75, 150 L 227.9, 150 L 227.9, 162.54 L 231.25, 162.54 L 231.25, 164.524 L 237.85, 164.524 L 237.85, 162.54 L 241.2, 162.54 L 241.2, 150 L 242.95, 150 L 242.95, 144.4 L 241.2, 144.4 L 241.2, 137.94 L 237.85, 137.94 L 237.85, 136.524 L 231.25, 136.524 L 231.25, 137.94 L 227.9, 137.94 L 227.9, 144.4 L 224.75, 144.4 L 224.75, 135 L 196.75, 135 L 196.75, 144.4 L 193.6, 144.4 L 193.6, 137.94 L 190.25, 137.94 L 190.25, 136.524 L 183.65, 136.524 L 183.65, 137.94 L 180.3, 137.94 L 180.3, 144.4 L 178.55, 144.4 L 178.55, 150 L 180.3, 150 L 180.3, 162.54 L 183.65, 162.54 L 183.65, 164.524 L 190.25, 164.524 Z"/><path stroke="black" fill="white" fill-opacity="0.0" d="M 286.5, 135 L 258.5, 135 L 258.5, 163 L 286.5, 163 Z"/><path stroke="black" fill="white" fill-opacity="0.0" d="M 324.5, 135 L 296.5, 135 L 296.5, 163 L 324.5, 163 Z"/><path stroke="black" fill="white" fill-opacity="0.0" d="M 362.5, 135 L 334.5, 135 L 334.5, 163 L 362.5, 163 Z"/><path stroke="black" fill="white" fill-opacity="0.0" d="M 400.5, 135 L 372.5, 135 L 372.5, 163 L 400.5, 163 Z"/><path stroke="black" fill="white" fill-opacity="0.0" d="M 438.5, 135 L 410.5, 135 L 410.5, 163 L 438.5, 163 Z"/><path stroke="black" fill="white" fill-opacity="0.0" d="M 476.5, 135 L 448.5, 135 L 448.5, 163 L 476.5, 163 Z"/><path stroke="black" fill="white" fill-opacity="0.0" d="M 514.5, 135 L 486.5, 135 L 486.5, 163 L 514.5, 163 Z"/><path stroke="black" fill="white" fill-opacity="0.0" d="M 552.5, 135 L 524.5, 135 L 524.5, 163 L 552.5, 163 Z"/><path stroke="black" fill="white" fill-opacity="0.0" d="M 590.5, 135 L 562.5, 135 L 562.5, 163 L 590.5, 163 Z"/><path stroke="black" fill="white" fill-opacity="0.0" d="M 628.5, 135 L 600.5, 135 L 600.5, 163 L 628.5, 163 Z"/><path stroke="black" fill="white" fill-opacity="0.0" d="M 665.25, 162.54 L 668.6, 162.54 L 668.6, 150 L 671.75, 150 L 671.75, 163 L 699.75, 163 L 699.75, 150 L 702.9, 150 L 702.9, 162.54 L 706.25, 162.54 L 706.25, 164.524 L 712.85, 164.524 L 712.85, 162.54 L 716.2, 162.54 L 716.2, 150 L 717.95, 150 L 717.95, 144.4 L 716.2, 144.4 L 716.2, 137.94 L 712.85, 137.94 L 712.85, 136.524 L 706.25, 136.524 L 706.25, 137.94 L 702.9, 137.94 L 702.9, 144.4 L 699.75, 144.4 L 699.75, 135 L 671.75, 135 L 671.75, 144.4 L 668.6, 144.4 L 668.6, 137.94 L 665.25, 137.94 L 665.25, 136.524 L 658.65, 136.524 L 658.65, 137.94 L 655.3, 137.94 L 655.3, 144.4 L 653.55, 144.4 L 653.55, 150 L 655.3, 150 L 655.3, 162.54 L 658.65, 162.54 L 658.65, 164.524 L 665.25, 164.524 Z"/><path stroke="black" fill="white" fill-opacity="0.0" d="M 771, 135 L 743, 135 L 743, 163 L 771, 163 Z"/><path stroke="black" fill="white" fill-opacity="0.0" d="M 87, 173 L 59, 173 L 59, 201 L 87, 201 Z"/><path stroke="black" fill="white" fill-opacity="0.0" d="M 109.5, 200.54 L 112.85, 200.54 L 112.85, 188 L 116, 188 L 116, 201 L 144, 201 L 144, 188 L 147.15, 188 L 147.15, 200.54 L 150.5, 200.54 L 150.5, 202.524 L 157.1, 202.524 L 157.1, 200.54 L 160.45, 200.54 L 160.45, 188 L 162.2, 188 L 162.2, 182.4 L 160.45, 182.4 L 160.45, 175.94 L 157.1, 175.94 L 157.1, 174.524 L 150.5, 174.524 L 150.5, 175.94 L 147.15, 175.94 L 147.15, 182.4 L 144, 182.4 L 144, 173 L 116, 173 L 116, 182.4 L 112.85, 182.4 L 112.85, 175.94 L 109.5, 175.94 L 109.5, 174.524 L 102.9, 174.524 L 102.9, 175.94 L 99.55, 175.94 L 99.55, 182.4 L 97.8, 182.4 L 97.8, 188 L 99.55, 188 L 99.55, 200.54 L 102.9, 200.54 L 102.9, 202.524 L 109.5, 202.524 Z"/><path stroke="black" fill="white" fill-opacity="0.0" d="M 205.75, 173 L 177.75, 173 L 177.75, 201 L 205.75, 201 Z"/><path stroke="black" fill="white" fill-opacity="0.0" d="M 253.25, 173 L 225.25, 173 L 225.25, 201 L 253.25, 201 Z"/><path stroke="black" fill="white" fill-opacity="0.0" d="M 300.75, 173 L 272.75, 173 L 272.75, 201 L 300.75, 201 Z"/><path stroke="black" fill="white" fill-opacity="0.0" d="M 332.55, 200.54 L 335.9, 200.54 L 335.9, 191.6 L 415.25, 191.6 L 415.25, 201 L 443.25, 201 L 443.25, 191.6 L 522.6, 191.6 L 522.6, 200.54 L 525.95, 200.54 L 525.95, 202.524 L 532.55, 202.524 L 532.55, 200.54 L 535.9, 200.54 L 535.9, 188 L 537.7, 188 L 537.7, 182.4 L 535.9, 182.4 L 535.9, 175.94 L 532.55, 175.94 L 532.55, 174.524 L 525.95, 174.524 L 525.95, 175.94 L 522.6, 175.94 L 522.6, 182.4 L 443.25, 182.4 L 443.25, 173 L 415.25, 173 L 415.25, 182.4 L 335.9, 182.4 L 335.9, 175.94 L 332.55, 175.94 L 332.55, 174.524 L 325.95, 174.524 L 325.95, 175.94 L 322.6, 175.94 L 322.6, 182.4 L 320.8, 182.4 L 320.8, 188 L 322.6, 188 L 322.6, 200.54 L 325.95, 200.54 L 325.95, 202.524 L 332.55, 202.524 Z"/><path stroke="black" fill="white" fill-opacity="0.0" d="M 585.75, 173 L 557.75, 173 L 557.75, 201 L 585.75, 201 Z"/><path stroke="black" fill="white" fill-opacity="0.0" d="M 633.25, 173 L 605.25, 173 L 605.25, 201 L 633.25, 201 Z"/><path stroke="black" fill="white" fill-opacity="0.0" d="M 680.75, 173 L 652.75, 173 L 652.75, 201 L 680.75, 201 Z"/><path stroke="black" fill="white" fill-opacity="0.0" d="M 728.25, 173 L 700.25, 173 L 700.25, 201 L 728.25, 201 Z"/><path stroke="black" fill="white" fill-opacity="0.0" d="M 771, 173 L 743, 173 L 743, 201 L 771, 201 Z"/></svg>