0
SECTION
2
HEADER
9
$INSUNITS
70
4
9
$INSBASE
10
0.0
20
0.0
30
0.0
9
$EXTMIN
10
0
20
0
9
$EXTMAX
10
419
20
115
0
ENDSEC
0
SECTION
2
TABLES
0
TABLE
2
LTYPE
70
1
0
LTYPE
2
CONTINUOUS
70
64
3
Solid line
72
65
73
0
40
0.0
0
ENDTAB
0
TABLE
2
LAYER
70
1
0
LAYER
2
Layer1
70
64
62
7
6
CONTINUOUS
0
ENDTAB
0
TABLE
2
STYLE
70
0
0
ENDTAB
0
TABLE
2
VIEW
70
0
0
ENDTAB
0
ENDSEC
0
SECTION
2
BLOCKS
0
ENDSEC
0
SECTION
2
ENTITIES
0
POLYLINE
5
2eb
8
Layer1
66
1
10
0.0
20
0.0
30
0.0
70
1
0
VERTEX
5
2ec
8
Layer1
10
0.0000
20
0.0000
30
0.0
0
VERTEX
5
2ed
8
Layer1
10
419.0000
20
0.0000
30
0.0
0
VERTEX
5
2ee
8
Layer1
10
419.0000
20
115.0000
30
0.0
0
VERTEX
5
2ef
8
Layer1
10
0.0000
20
115.0000
30
0.0
0
VERTEX
5
2f0
8
Layer1
10
0.0000
20
0.0000
30
0.0
0
SEQEND
5
2f1
8
Layer1
0
POLYLINE
5
2f2
8
Layer1
66
1
10
0.0
20
0.0
30
0.0
70
1
0
VERTEX
5
2f3
8
Layer1
10
26.5000
20
102.5000
30
0.0
0
VERTEX
5
2f4
8
Layer1
10
12.5000
20
102.5000
30
0.0
0
VERTEX
5
2f5
8
Layer1
10
12.5000
20
88.5000
30
0.0
0
VERTEX
5
2f6
8
Layer1
10
26.5000
20
88.5000
30
0.0
0
VERTEX
5
2f7
8
Layer1
10
26.5000
20
102.5000
30
0.0
0
SEQEND
5
2f8
8
Layer1
0
POLYLINE
5
2f9
8
Layer1
66
1
10
0.0
20
0.0
30
0.0
70
1
0
VERTEX
5
2fa
8
Layer1
10
45.5000
20
102.5000
30
0.0
0
VERTEX
5
2fb
8
Layer1
10
31.5000
20
102.5000
30
0.0
0
VERTEX
5
2fc
8
Layer1
10
31.5000
20
88.5000
30
0.0
0
VERTEX
5
2fd
8
Layer1
10
45.5000
20
88.5000
30
0.0
0
VERTEX
5
2fe
8
Layer1
10
45.5000
20
102.5000
30
0.0
0
SEQEND
5
2ff
8
Layer1
0
POLYLINE
5
300
8
Layer1
66
1
10
0.0
20
0.0
30
0.0
70
1
0
VERTEX
5
301
8
Layer1
10
64.5000
20
102.5000
30
0.0
0
VERTEX
5
302
8
Layer1
10
50.5000
20
102.5000
30
0.0
0
VERTEX
5
303
8
Layer1
10
50.5000
20
88.5000
30
0.0
0
VERTEX
5
304
8
Layer1
10
64.5000
20
88.5000
30
0.0
0
VERTEX
5
305
8
Layer1
10
64.5000
20
102.5000
30
0.0
0
SEQEND
5
306
8
Layer1
0
POLYLINE
5
307
8
Layer1
66
1
10
0.0
20
0.0
30
0.0
70
1
0
VERTEX
5
308
8
Layer1
10
83.5000
20
102.5000
30
0.0
0
VERTEX
5
309
8
Layer1
10
69.5000
20
102.5000
30
0.0
0
VERTEX
5
30a
8
Layer1
10
69.5000
20
88.5000
30
0.0
0
VERTEX
5
30b
8
Layer1
10
83.5000
20
88.5000
30
0.0
0
VERTEX
5
30c
8
Layer1
10
83.5000
20
102.5000
30
0.0
0
SEQEND
5
30d
8
Layer1
0
POLYLINE
5
30e
8
Layer1
66
1
10
0.0
20
0.0
30
0.0
70
1
0
VERTEX
5
30f
8
Layer1
10
102.5000
20
102.5000
30
0.0
0
VERTEX
5
310
8
Layer1
10
88.5000
20
102.5000
30
0.0
0
VERTEX
5
311
8
Layer1
10
88.5000
20
88.5000
30
0.0
0
VERTEX
5
312
8
Layer1
10
102.5000
20
88.5000
30
0.0
0
VERTEX
5
313
8
Layer1
10
102.5000
20
102.5000
30
0.0
0
SEQEND
5
314
8
Layer1
0
POLYLINE
5
315
8
Layer1
66
1
10
0.0
20
0.0
30
0.0
70
1
0
VERTEX
5
316
8
Layer1
10
121.5000
20
102.5000
30
0.0
0
VERTEX
5
317
8
Layer1
10
107.5000
20
102.5000
30
0.0
0
VERTEX
5
318
8
Layer1
10
107.5000
20
88.5000
30
0.0
0
VERTEX
5
319
8
Layer1
10
121.5000
20
88.5000
30
0.0
0
VERTEX
5
31a
8
Layer1
10
121.5000
20
102.5000
30
0.0
0
SEQEND
5
31b
8
Layer1
0
POLYLINE
5
31c
8
Layer1
66
1
10
0.0
20
0.0
30
0.0
70
1
0
VERTEX
5
31d
8
Layer1
10
140.5000
20
102.5000
30
0.0
0
VERTEX
5
31e
8
Layer1
10
126.5000
20
102.5000
30
0.0
0
VERTEX
5
31f
8
Layer1
10
126.5000
20
88.5000
30
0.0
0
VERTEX
5
320
8
Layer1
10
140.5000
20
88.5000
30
0.0
0
VERTEX
5
321
8
Layer1
10
140.5000
20
102.5000
30
0.0
0
SEQEND
5
322
8
Layer1
0
POLYLINE
5
323
8
Layer1
66
1
10
0.0
20
0.0
30
0.0
70
1
0
VERTEX
5
324
8
Layer1
10
159.5000
20
102.5000
30
0.0
0
VERTEX
5
325
8
Layer1
10
145.5000
20
102.5000
30
0.0
0
VERTEX
5
326
8
Layer1
10
145.5000
20
88.5000
30
0.0
0
VERTEX
5
327
8
Layer1
10
159.5000
20
88.5000
30
0.0
0
VERTEX
5
328
8
Layer1
10
159.5000
20
102.5000
30
0.0
0
SEQEND
5
329
8
Layer1
0
POLYLINE
5
32a
8
Layer1
66
1
10
0.0
20
0.0
30
0.0
70
1
0
VERTEX
5
32b
8
Layer1
10
178.5000
20
102.5000
30
0.0
0
VERTEX
5
32c
8
Layer1
10
164.5000
20
102.5000
30
0.0
0
VERTEX
5
32d
8
Layer1
10
164.5000
20
88.5000
30
0.0
0
VERTEX
5
32e
8
Layer1
10
178.5000
20
88.5000
30
0.0
0
VERTEX
5
32f
8
Layer1
10
178.5000
20
102.5000
30
0.0
0
SEQEND
5
330
8
Layer1
0
POLYLINE
5
331
8
Layer1
66
1
10
0.0
20
0.0
30
0.0
70
1
0
VERTEX
5
332
8
Layer1
10
197.5000
20
102.5000
30
0.0
0
VERTEX
5
333
8
Layer1
10
183.5000
20
102.5000
30
0.0
0
VERTEX
5
334
8
Layer1
10
183.5000
20
88.5000
30
0.0
0
VERTEX
5
335
8
Layer1
10
197.5000
20
88.5000
30
0.0
0
VERTEX
5
336
8
Layer1
10
197.5000
20
102.5000
30
0.0
0
SEQEND
5
337
8
Layer1
0
POLYLINE
5
338
8
Layer1
66
1
10
0.0
20
0.0
30
0.0
70
1
0
VERTEX
5
339
8
Layer1
10
216.5000
20
102.5000
30
0.0
0
VERTEX
5
33a
8
Layer1
10
202.5000
20
102.5000
30
0.0
0
VERTEX
5
33b
8
Layer1
10
202.5000
20
88.5000
30
0.0
0
VERTEX
5
33c
8
Layer1
10
216.5000
20
88.5000
30
0.0
0
VERTEX
5
33d
8
Layer1
10
216.5000
20
102.5000
30
0.0
0
SEQEND
5
33e
8
Layer1
0
POLYLINE
5
33f
8
Layer1
66
1
10
0.0
20
0.0
30
0.0
70
1
0
VERTEX
5
340
8
Layer1
10
235.5000
20
102.5000
30
0.0
0
VERTEX
5
341
8
Layer1
10
221.5000
20
102.5000
30
0.0
0
VERTEX
5
342
8
Layer1
10
221.5000
20
88.5000
30
0.0
0
VERTEX
5
343
8
Layer1
10
235.5000
20
88.5000
30
0.0
0
VERTEX
5
344
8
Layer1
10
235.5000
20
102.5000
30
0.0
0
SEQEND
5
345
8
Layer1
0
POLYLINE
5
346
8
Layer1
66
1
10
0.0
20
0.0
30
0.0
70
1
0
VERTEX
5
347
8
Layer1
10
254.5000
20
102.5000
30
0.0
0
VERTEX
5
348
8
Layer1
10
240.5000
20
102.5000
30
0.0
0
VERTEX
5
349
8
Layer1
10
240.5000
20
88.5000
30
0.0
0
VERTEX
5
34a
8
Layer1
10
254.5000
20
88.5000
30
0.0
0
VERTEX
5
34b
8
Layer1
10
254.5000
20
102.5000
30
0.0
0
SEQEND
5
34c
8
Layer1
0
POLYLINE
5
34d
8
Layer1
66
1
10
0.0
20
0.0
30
0.0
70
1
0
VERTEX
5
34e
8
Layer1
10
273.5000
20
102.5000
30
0.0
0
VERTEX
5
34f
8
Layer1
10
259.5000
20
102.5000
30
0.0
0
VERTEX
5
350
8
Layer1
10
259.5000
20
88.5000
30
0.0
0
VERTEX
5
351
8
Layer1
10
273.5000
20
88.5000
30
0.0
0
VERTEX
5
352
8
Layer1
10
273.5000
20
102.5000
30
0.0
0
SEQEND
5
353
8
Layer1
0
POLYLINE
5
354
8
Layer1
66
1
10
0.0
20
0.0
30
0.0
70
1
0
VERTEX
5
355
8
Layer1
10
292.5000
20
102.5000
30
0.0
0
VERTEX
5
356
8
Layer1
10
278.5000
20
102.5000
30
0.0
0
VERTEX
5
357
8
Layer1
10
278.5000
20
88.5000
30
0.0
0
VERTEX
5
358
8
Layer1
10
292.5000
20
88.5000
30
0.0
0
VERTEX
5
359
8
Layer1
10
292.5000
20
102.5000
30
0.0
0
SEQEND
5
35a
8
Layer1
0
POLYLINE
5
35b
8
Layer1
66
1
10
0.0
20
0.0
30
0.0
70
1
0
VERTEX
5
35c
8
Layer1
10
311.5000
20
102.5000
30
0.0
0
VERTEX
5
35d
8
Layer1
10
297.5000
20
102.5000
30
0.0
0
VERTEX
5
35e
8
Layer1
10
297.5000
20
88.5000
30
0.0
0
VERTEX
5
35f
8
Layer1
10
311.5000
20
88.5000
30
0.0
0
VERTEX
5
360
8
Layer1
10
311.5000
20
102.5000
30
0.0
0
SEQEND
5
361
8
Layer1
0
POLYLINE
5
362
8
Layer1
66
1
10
0.0
20
0.0
30
0.0
70
1
0
VERTEX
5
363
8
Layer1
10
330.5000
20
102.5000
30
0.0
0
VERTEX
5
364
8
Layer1
10
316.5000
20
102.5000
30
0.0
0
VERTEX
5
365
8
Layer1
10
316.5000
20
88.5000
30
0.0
0
VERTEX
5
366
8
Layer1
10
330.5000
20
88.5000
30
0.0
0
VERTEX
5
367
8
Layer1
10
330.5000
20
102.5000
30
0.0
0
SEQEND
5
368
8
Layer1
0
POLYLINE
5
369
8
Layer1
66
1
10
0.0
20
0.0
30
0.0
70
1
0
VERTEX
5
36a
8
Layer1
10
341.7500
20
88.7300
30
0.0
0
VERTEX
5
36b
8
Layer1
10
343.4250
20
88.7300
30
0.0
0
VERTEX
5
36c
8
Layer1
10
343.4250
20
95.0000
30
0.0
0
VERTEX
5
36d
8
Layer1
10
345.0000
20
95.0000
30
0.0
0
VERTEX
5
36e
8
Layer1
10
345.0000
20
88.5000
30
0.0
0
VERTEX
5
36f
8
Layer1
10
359.0000
20
88.5000
30
0.0
0
VERTEX
5
370
8
Layer1
10
359.0000
20
95.0000
30
0.0
0
VERTEX
5
371
8
Layer1
10
360.5750
20
95.0000
30
0.0
0
VERTEX
5
372
8
Layer1
10
360.5750
20
88.7300
30
0.0
0
VERTEX
5
373
8
Layer1
10
362.2500
20
88.7300
30
0.0
0
VERTEX
5
374
8
Layer1
10
362.2500
20
87.7380
30
0.0
0
VERTEX
5
375
8
Layer1
10
365.5500
20
87.7380
30
0.0
0
VERTEX
5
376
8
Layer1
10
365.5500
20
88.7300
30
0.0
0
VERTEX
5
377
8
Layer1
10
367.2250
20
88.7300
30
0.0
0
VERTEX
5
378
8
Layer1
10
367.2250
20
95.0000
30
0.0
0
VERTEX
5
379
8
Layer1
10
368.1000
20
95.0000
30
0.0
0
VERTEX
5
37a
8
Layer1
10
368.1000
20
97.8000
30
0.0
0
VERTEX
5
37b
8
Layer1
10
367.2250
20
97.8000
30
0.0
0
VERTEX
5
37c
8
Layer1
10
367.2250
20
101.0300
30
0.0
0
VERTEX
5
37d
8
Layer1
10
365.5500
20
101.0300
30
0.0
0
VERTEX
5
37e
8
Layer1
10
365.5500
20
101.7380
30
0.0
0
VERTEX
5
37f
8
Layer1
10
362.2500
20
101.7380
30
0.0
0
VERTEX
5
380
8
Layer1
10
362.2500
20
101.0300
30
0.0
0
VERTEX
5
381
8
Layer1
10
360.5750
20
101.0300
30
0.0
0
VERTEX
5
382
8
Layer1
10
360.5750
20
97.8000
30
0.0
0
VERTEX
5
383
8
Layer1
10
359.0000
20
97.8000
30
0.0
0
VERTEX
5
384
8
Layer1
10
359.0000
20
102.5000
30
0.0
0
VERTEX
5
385
8
Layer1
10
345.0000
20
102.5000
30
0.0
0
VERTEX
5
386
8
Layer1
10
345.0000
20
97.8000
30
0.0
0
VERTEX
5
387
8
Layer1
10
343.4250
20
97.8000
30
0.0
0
VERTEX
5
388
8
Layer1
10
343.4250
20
101.0300
30
0.0
0
VERTEX
5
389
8
Layer1
10
341.7500
20
101.0300
30
0.0
0
VERTEX
5
38a
8
Layer1
10
341.7500
20
101.7380
30
0.0
0
VERTEX
5
38b
8
Layer1
10
338.4500
20
101.7380
30
0.0
0
VERTEX
5
38c
8
Layer1
10
338.4500
20
101.0300
30
0.0
0
VERTEX
5
38d
8
Layer1
10
336.7750
20
101.0300
30
0.0
0
VERTEX
5
38e
8
Layer1
10
336.7750
20
97.8000
30
0.0
0
VERTEX
5
38f
8
Layer1
10
335.9000
20
97.8000
30
0.0
0
VERTEX
5
390
8
Layer1
10
335.9000
20
95.0000
30
0.0
0
VERTEX
5
391
8
Layer1
10
336.7750
20
95.0000
30
0.0
0
VERTEX
5
392
8
Layer1
10
336.7750
20
88.7300
30
0.0
0
VERTEX
5
393
8
Layer1
10
338.4500
20
88.7300
30
0.0
0
VERTEX
5
394
8
Layer1
10
338.4500
20
87.7380
30
0.0
0
VERTEX
5
395
8
Layer1
10
341.7500
20
87.7380
30
0.0
0
VERTEX
5
396
8
Layer1
10
341.7500
20
88.7300
30
0.0
0
SEQEND
5
397
8
Layer1
0
POLYLINE
5
398
8
Layer1
66
1
10
0.0
20
0.0
30
0.0
70
1
0
VERTEX
5
399
8
Layer1
10
387.5000
20
102.5000
30
0.0
0
VERTEX
5
39a
8
Layer1
10
373.5000
20
102.5000
30
0.0
0
VERTEX
5
39b
8
Layer1
10
373.5000
20
88.5000
30
0.0
0
VERTEX
5
39c
8
Layer1
10
387.5000
20
88.5000
30
0.0
0
VERTEX
5
39d
8
Layer1
10
387.5000
20
102.5000
30
0.0
0
SEQEND
5
39e
8
Layer1
0
POLYLINE
5
39f
8
Layer1
66
1
10
0.0
20
0.0
30
0.0
70
1
0
VERTEX
5
3a0
8
Layer1
10
406.5000
20
102.5000
30
0.0
0
VERTEX
5
3a1
8
Layer1
10
392.5000
20
102.5000
30
0.0
0
VERTEX
5
3a2
8
Layer1
10
392.5000
20
88.5000
30
0.0
0
VERTEX
5
3a3
8
Layer1
10
406.5000
20
88.5000
30
0.0
0
VERTEX
5
3a4
8
Layer1
10
406.5000
20
102.5000
30
0.0
0
SEQEND
5
3a5
8
Layer1
0
POLYLINE
5
3a6
8
Layer1
66
1
10
0.0
20
0.0
30
0.0
70
1
0
VERTEX
5
3a7
8
Layer1
10
12.7300
20
77.2500
30
0.0
0
VERTEX
5
3a8
8
Layer1
10
12.7300
20
75.5750
30
0.0
0
VERTEX
5
3a9
8
Layer1
10
19.0000
20
75.5750
30
0.0
0
VERTEX
5
3aa
8
Layer1
10
19.0000
20
74.0000
30
0.0
0
VERTEX
5
3ab
8
Layer1
10
12.5000
20
74.0000
30
0.0
0
VERTEX
5
3ac
8
Layer1
10
12.5000
20
60.0000
30
0.0
0
VERTEX
5
3ad
8
Layer1
10
19.0000
20
60.0000
30
0.0
0
VERTEX
5
3ae
8
Layer1
10
19.0000
20
58.4250
30
0.0
0
VERTEX
5
3af
8
Layer1
10
12.7300
20
58.4250
30
0.0
0
VERTEX
5
3b0
8
Layer1
10
12.7300
20
56.7500
30
0.0
0
VERTEX
5
3b1
8
Layer1
10
11.7380
20
56.7500
30
0.0
0
VERTEX
5
3b2
8
Layer1
10
11.7380
20
53.4500
30
0.0
0
VERTEX
5
3b3
8
Layer1
10
12.7300
20
53.4500
30
0.0
0
VERTEX
5
3b4
8
Layer1
10
12.7300
20
51.7750
30
0.0
0
VERTEX
5
3b5
8
Layer1
10
19.0000
20
51.7750
30
0.0
0
VERTEX
5
3b6
8
Layer1
10
19.0000
20
50.9000
30
0.0
0
VERTEX
5
3b7
8
Layer1
10
21.8000
20
50.9000
30
0.0
0
VERTEX
5
3b8
8
Layer1
10
21.8000
20
51.7750
30
0.0
0
VERTEX
5
3b9
8
Layer1
10
25.0300
20
51.7750
30
0.0
0
VERTEX
5
3ba
8
Layer1
10
25.0300
20
53.4500
30
0.0
0
VERTEX
5
3bb
8
Layer1
10
25.7380
20
53.4500
30
0.0
0
VERTEX
5
3bc
8
Layer1
10
25.7380
20
56.7500
30
0.0
0
VERTEX
5
3bd
8
Layer1
10
25.0300
20
56.7500
30
0.0
0
VERTEX
5
3be
8
Layer1
10
25.0300
20
58.4250
30
0.0
0
VERTEX
5
3bf
8
Layer1
10
21.8000
20
58.4250
30
0.0
0
VERTEX
5
3c0
8
Layer1
10
21.8000
20
60.0000
30
0.0
0
VERTEX
5
3c1
8
Layer1
10
26.5000
20
60.0000
30
0.0
0
VERTEX
5
3c2
8
Layer1
10
26.5000
20
74.0000
30
0.0
0
VERTEX
5
3c3
8
Layer1
10
21.8000
20
74.0000
30
0.0
0
VERTEX
5
3c4
8
Layer1
10
21.8000
20
75.5750
30
0.0
0
VERTEX
5
3c5
8
Layer1
10
25.0300
20
75.5750
30
0.0
0
VERTEX
5
3c6
8
Layer1
10
25.0300
20
77.2500
30
0.0
0
VERTEX
5
3c7
8
Layer1
10
25.7380
20
77.2500
30
0.0
0
VERTEX
5
3c8
8
Layer1
10
25.7380
20
80.5500
30
0.0
0
VERTEX
5
3c9
8
Layer1
10
25.0300
20
80.5500
30
0.0
0
VERTEX
5
3ca
8
Layer1
10
25.0300
20
82.2250
30
0.0
0
VERTEX
5
3cb
8
Layer1
10
21.8000
20
82.2250
30
0.0
0
VERTEX
5
3cc
8
Layer1
10
21.8000
20
83.1000
30
0.0
0
VERTEX
5
3cd
8
Layer1
10
19.0000
20
83.1000
30
0.0
0
VERTEX
5
3ce
8
Layer1
10
19.0000
20
82.2250
30
0.0
0
VERTEX
5
3cf
8
Layer1
10
12.7300
20
82.2250
30
0.0
0
VERTEX
5
3d0
8
Layer1
10
12.7300
20
80.5500
30
0.0
0
VERTEX
5
3d1
8
Layer1
10
11.7380
20
80.5500
30
0.0
0
VERTEX
5
3d2
8
Layer1
10
11.7380
20
77.2500
30
0.0
0
VERTEX
5
3d3
8
Layer1
10
12.7300
20
77.2500
30
0.0
0
SEQEND
5
3d4
8
Layer1
0
POLYLINE
5
3d5
8
Layer1
66
1
10
0.0
20
0.0
30
0.0
70
1
0
VERTEX
5
3d6
8
Layer1
10
45.5000
20
83.5000
30
0.0
0
VERTEX
5
3d7
8
Layer1
10
31.5000
20
83.5000
30
0.0
0
VERTEX
5
3d8
8
Layer1
10
31.5000
20
69.5000
30
0.0
0
VERTEX
5
3d9
8
Layer1
10
45.5000
20
69.5000
30
0.0
0
VERTEX
5
3da
8
Layer1
10
45.5000
20
83.5000
30
0.0
0
SEQEND
5
3db
8
Layer1
0
POLYLINE
5
3dc
8
Layer1
66
1
10
0.0
20
0.0
30
0.0
70
1
0
VERTEX
5
3dd
8
Layer1
10
64.5000
20
83.5000
30
0.0
0
VERTEX
5
3de
8
Layer1
10
50.5000
20
83.5000
30
0.0
0
VERTEX
5
3df
8
Layer1
10
50.5000
20
69.5000
30
0.0
0
VERTEX
5
3e0
8
Layer1
10
64.5000
20
69.5000
30
0.0
0
VERTEX
5
3e1
8
Layer1
10
64.5000
20
83.5000
30
0.0
0
SEQEND
5
3e2
8
Layer1
0
POLYLINE
5
3e3
8
Layer1
66
1
10
0.0
20
0.0
30
0.0
70
1
0
VERTEX
5
3e4
8
Layer1
10
83.5000
20
83.5000
30
0.0
0
VERTEX
5
3e5
8
Layer1
10
69.5000
20
83.5000
30
0.0
0
VERTEX
5
3e6
8
Layer1
10
69.5000
20
69.5000
30
0.0
0
VERTEX
5
3e7
8
Layer1
10
83.5000
20
69.5000
30
0.0
0
VERTEX
5
3e8
8
Layer1
10
83.5000
20
83.5000
30
0.0
0
SEQEND
5
3e9
8
Layer1
0
POLYLINE
5
3ea
8
Layer1
66
1
10
0.0
20
0.0
30
0.0
70
1
0
VERTEX
5
3eb
8
Layer1
10
107.2500
20
83.5000
30
0.0
0
VERTEX
5
3ec
8
Layer1
10
93.2500
20
83.5000
30
0.0
0
VERTEX
5
3ed
8
Layer1
10
93.2500
20
69.5000
30
0.0
0
VERTEX
5
3ee
8
Layer1
10
107.2500
20
69.5000
30
0.0
0
VERTEX
5
3ef
8
Layer1
10
107.2500
20
83.5000
30
0.0
0
SEQEND
5
3f0
8
Layer1
0
POLYLINE
5
3f1
8
Layer1
66
1
10
0.0
20
0.0
30
0.0
70
1
0
VERTEX
5
3f2
8
Layer1
10
131.0000
20
83.5000
30
0.0
0
VERTEX
5
3f3
8
Layer1
10
117.0000
20
83.5000
30
0.0
0
VERTEX
5
3f4
8
Layer1
10
117.0000
20
69.5000
30
0.0
0
VERTEX
5
3f5
8
Layer1
10
131.0000
20
69.5000
30
0.0
0
VERTEX
5
3f6
8
Layer1
10
131.0000
20
83.5000
30
0.0
0
SEQEND
5
3f7
8
Layer1
0
POLYLINE
5
3f8
8
Layer1
66
1
10
0.0
20
0.0
30
0.0
70
1
0
VERTEX
5
3f9
8
Layer1
10
150.0000
20
83.5000
30
0.0
0
VERTEX
5
3fa
8
Layer1
10
136.0000
20
83.5000
30
0.0
0
VERTEX
5
3fb
8
Layer1
10
136.0000
20
69.5000
30
0.0
0
VERTEX
5
3fc
8
Layer1
10
150.0000
20
69.5000
30
0.0
0
VERTEX
5
3fd
8
Layer1
10
150.0000
20
83.5000
30
0.0
0
SEQEND
5
3fe
8
Layer1
0
POLYLINE
5
3ff
8
Layer1
66
1
10
0.0
20
0.0
30
0.0
70
1
0
VERTEX
5
400
8
Layer1
10
169.0000
20
83.5000
30
0.0
0
VERTEX
5
401
8
Layer1
10
155.0000
20
83.5000
30
0.0
0
VERTEX
5
402
8
Layer1
10
155.0000
20
69.5000
30
0.0
0
VERTEX
5
403
8
Layer1
10
169.0000
20
69.5000
30
0.0
0
VERTEX
5
404
8
Layer1
10
169.0000
20
83.5000
30
0.0
0
SEQEND
5
405
8
Layer1
0
POLYLINE
5
406
8
Layer1
66
1
10
0.0
20
0.0
30
0.0
70
1
0
VERTEX
5
407
8
Layer1
10
188.0000
20
83.5000
30
0.0
0
VERTEX
5
408
8
Layer1
10
174.0000
20
83.5000
30
0.0
0
VERTEX
5
409
8
Layer1
10
174.0000
20
69.5000
30
0.0
0
VERTEX
5
40a
8
Layer1
10
188.0000
20
69.5000
30
0.0
0
VERTEX
5
40b
8
Layer1
10
188.0000
20
83.5000
30
0.0
0
SEQEND
5
40c
8
Layer1
0
POLYLINE
5
40d
8
Layer1
66
1
10
0.0
20
0.0
30
0.0
70
1
0
VERTEX
5
40e
8
Layer1
10
207.0000
20
83.5000
30
0.0
0
VERTEX
5
40f
8
Layer1
10
193.0000
20
83.5000
30
0.0
0
VERTEX
5
410
8
Layer1
10
193.0000
20
69.5000
30
0.0
0
VERTEX
5
411
8
Layer1
10
207.0000
20
69.5000
30
0.0
0
VERTEX
5
412
8
Layer1
10
207.0000
20
83.5000
30
0.0
0
SEQEND
5
413
8
Layer1
0
POLYLINE
5
414
8
Layer1
66
1
10
0.0
20
0.0
30
0.0
70
1
0
VERTEX
5
415
8
Layer1
10
226.0000
20
83.5000
30
0.0
0
VERTEX
5
416
8
Layer1
10
212.0000
20
83.5000
30
0.0
0
VERTEX
5
417
8
Layer1
10
212.0000
20
69.5000
30
0.0
0
VERTEX
5
418
8
Layer1
10
226.0000
20
69.5000
30
0.0
0
VERTEX
5
419
8
Layer1
10
226.0000
20
83.5000
30
0.0
0
SEQEND
5
41a
8
Layer1
0
POLYLINE
5
41b
8
Layer1
66
1
10
0.0
20
0.0
30
0.0
70
1
0
VERTEX
5
41c
8
Layer1
10
245.0000
20
83.5000
30
0.0
0
VERTEX
5
41d
8
Layer1
10
231.0000
20
83.5000
30
0.0
0
VERTEX
5
41e
8
Layer1
10
231.0000
20
69.5000
30
0.0
0
VERTEX
5
41f
8
Layer1
10
245.0000
20
69.5000
30
0.0
0
VERTEX
5
420
8
Layer1
10
245.0000
20
83.5000
30
0.0
0
SEQEND
5
421
8
Layer1
0
POLYLINE
5
422
8
Layer1
66
1
10
0.0
20
0.0
30
0.0
70
1
0
VERTEX
5
423
8
Layer1
10
264.0000
20
83.5000
30
0.0
0
VERTEX
5
424
8
Layer1
10
250.0000
20
83.5000
30
0.0
0
VERTEX
5
425
8
Layer1
10
250.0000
20
69.5000
30
0.0
0
VERTEX
5
426
8
Layer1
10
264.0000
20
69.5000
30
0.0
0
VERTEX
5
427
8
Layer1
10
264.0000
20
83.5000
30
0.0
0
SEQEND
5
428
8
Layer1
0
POLYLINE
5
429
8
Layer1
66
1
10
0.0
20
0.0
30
0.0
70
1
0
VERTEX
5
42a
8
Layer1
10
283.0000
20
83.5000
30
0.0
0
VERTEX
5
42b
8
Layer1
10
269.0000
20
83.5000
30
0.0
0
VERTEX
5
42c
8
Layer1
10
269.0000
20
69.5000
30
0.0
0
VERTEX
5
42d
8
Layer1
10
283.0000
20
69.5000
30
0.0
0
VERTEX
5
42e
8
Layer1
10
283.0000
20
83.5000
30
0.0
0
SEQEND
5
42f
8
Layer1
0
POLYLINE
5
430
8
Layer1
66
1
10
0.0
20
0.0
30
0.0
70
1
0
VERTEX
5
431
8
Layer1
10
302.0000
20
83.5000
30
0.0
0
VERTEX
5
432
8
Layer1
10
288.0000
20
83.5000
30
0.0
0
VERTEX
5
433
8
Layer1
10
288.0000
20
69.5000
30
0.0
0
VERTEX
5
434
8
Layer1
10
302.0000
20
69.5000
30
0.0
0
VERTEX
5
435
8
Layer1
10
302.0000
20
83.5000
30
0.0
0
SEQEND
5
436
8
Layer1
0
POLYLINE
5
437
8
Layer1
66
1
10
0.0
20
0.0
30
0.0
70
1
0
VERTEX
5
438
8
Layer1
10
321.0000
20
83.5000
30
0.0
0
VERTEX
5
439
8
Layer1
10
307.0000
20
83.5000
30
0.0
0
VERTEX
5
43a
8
Layer1
10
307.0000
20
69.5000
30
0.0
0
VERTEX
5
43b
8
Layer1
10
321.0000
20
69.5000
30
0.0
0
VERTEX
5
43c
8
Layer1
10
321.0000
20
83.5000
30
0.0
0
SEQEND
5
43d
8
Layer1
0
POLYLINE
5
43e
8
Layer1
66
1
10
0.0
20
0.0
30
0.0
70
1
0
VERTEX
5
43f
8
Layer1
10
340.0000
20
83.5000
30
0.0
0
VERTEX
5
440
8
Layer1
10
326.0000
20
83.5000
30
0.0
0
VERTEX
5
441
8
Layer1
10
326.0000
20
69.5000
30
0.0
0
VERTEX
5
442
8
Layer1
10
340.0000
20
69.5000
30
0.0
0
VERTEX
5
443
8
Layer1
10
340.0000
20
83.5000
30
0.0
0
SEQEND
5
444
8
Layer1
0
POLYLINE
5
445
8
Layer1
66
1
10
0.0
20
0.0
30
0.0
70
1
0
VERTEX
5
446
8
Layer1
10
363.7500
20
83.5000
30
0.0
0
VERTEX
5
447
8
Layer1
10
349.7500
20
83.5000
30
0.0
0
VERTEX
5
448
8
Layer1
10
349.7500
20
69.5000
30
0.0
0
VERTEX
5
449
8
Layer1
10
363.7500
20
69.5000
30
0.0
0
VERTEX
5
44a
8
Layer1
10
363.7500
20
83.5000
30
0.0
0
SEQEND
5
44b
8
Layer1
0
POLYLINE
5
44c
8
Layer1
66
1
10
0.0
20
0.0
30
0.0
70
1
0
VERTEX
5
44d
8
Layer1
10
387.5000
20
83.5000
30
0.0
0
VERTEX
5
44e
8
Layer1
10
373.5000
20
83.5000
30
0.0
0
VERTEX
5
44f
8
Layer1
10
373.5000
20
69.5000
30
0.0
0
VERTEX
5
450
8
Layer1
10
387.5000
20
69.5000
30
0.0
0
VERTEX
5
451
8
Layer1
10
387.5000
20
83.5000
30
0.0
0
SEQEND
5
452
8
Layer1
0
POLYLINE
5
453
8
Layer1
66
1
10
0.0
20
0.0
30
0.0
70
1
0
VERTEX
5
454
8
Layer1
10
406.5000
20
83.5000
30
0.0
0
VERTEX
5
455
8
Layer1
10
392.5000
20
83.5000
30
0.0
0
VERTEX
5
456
8
Layer1
10
392.5000
20
69.5000
30
0.0
0
VERTEX
5
457
8
Layer1
10
406.5000
20
69.5000
30
0.0
0
VERTEX
5
458
8
Layer1
10
406.5000
20
83.5000
30
0.0
0
SEQEND
5
459
8
Layer1
0
POLYLINE
5
45a
8
Layer1
66
1
10
0.0
20
0.0
30
0.0
70
1
0
VERTEX
5
45b
8
Layer1
10
45.5000
20
64.5000
30
0.0
0
VERTEX
5
45c
8
Layer1
10
31.5000
20
64.5000
30
0.0
0
VERTEX
5
45d
8
Layer1
10
31.5000
20
50.5000
30
0.0
0
VERTEX
5
45e
8
Layer1
10
45.5000
20
50.5000
30
0.0
0
VERTEX
5
45f
8
Layer1
10
45.5000
20
64.5000
30
0.0
0
SEQEND
5
460
8
Layer1
0
POLYLINE
5
461
8
Layer1
66
1
10
0.0
20
0.0
30
0.0
70
1
0
VERTEX
5
462
8
Layer1
10
64.5000
20
64.5000
30
0.0
0
VERTEX
5
463
8
Layer1
10
50.5000
20
64.5000
30
0.0
0
VERTEX
5
464
8
Layer1
10
50.5000
20
50.5000
30
0.0
0
VERTEX
5
465
8
Layer1
10
64.5000
20
50.5000
30
0.0
0
VERTEX
5
466
8
Layer1
10
64.5000
20
64.5000
30
0.0
0
SEQEND
5
467
8
Layer1
0
POLYLINE
5
468
8
Layer1
66
1
10
0.0
20
0.0
30
0.0
70
1
0
VERTEX
5
469
8
Layer1
10
83.5000
20
64.5000
30
0.0
0
VERTEX
5
46a
8
Layer1
10
69.5000
20
64.5000
30
0.0
0
VERTEX
5
46b
8
Layer1
10
69.5000
20
50.5000
30
0.0
0
VERTEX
5
46c
8
Layer1
10
83.5000
20
50.5000
30
0.0
0
VERTEX
5
46d
8
Layer1
10
83.5000
20
64.5000
30
0.0
0
SEQEND
5
46e
8
Layer1
0
POLYLINE
5
46f
8
Layer1
66
1
10
0.0
20
0.0
30
0.0
70
1
0
VERTEX
5
470
8
Layer1
10
109.6250
20
64.5000
30
0.0
0
VERTEX
5
471
8
Layer1
10
95.6250
20
64.5000
30
0.0
0
VERTEX
5
472
8
Layer1
10
95.6250
20
50.5000
30
0.0
0
VERTEX
5
473
8
Layer1
10
109.6250
20
50.5000
30
0.0
0
VERTEX
5
474
8
Layer1
10
109.6250
20
64.5000
30
0.0
0
SEQEND
5
475
8
Layer1
0
POLYLINE
5
476
8
Layer1
66
1
10
0.0
20
0.0
30
0.0
70
1
0
VERTEX
5
477
8
Layer1
10
135.7500
20
64.5000
30
0.0
0
VERTEX
5
478
8
Layer1
10
121.7500
20
64.5000
30
0.0
0
VERTEX
5
479
8
Layer1
10
121.7500
20
50.5000
30
0.0
0
VERTEX
5
47a
8
Layer1
10
135.7500
20
50.5000
30
0.0
0
VERTEX
5
47b
8
Layer1
10
135.7500
20
64.5000
30
0.0
0
SEQEND
5
47c
8
Layer1
0
POLYLINE
5
47d
8
Layer1
66
1
10
0.0
20
0.0
30
0.0
70
1
0
VERTEX
5
47e
8
Layer1
10
154.7500
20
64.5000
30
0.0
0
VERTEX
5
47f
8
Layer1
10
140.7500
20
64.5000
30
0.0
0
VERTEX
5
480
8
Layer1
10
140.7500
20
50.5000
30
0.0
0
VERTEX
5
481
8
Layer1
10
154.7500
20
50.5000
30
0.0
0
VERTEX
5
482
8
Layer1
10
154.7500
20
64.5000
30
0.0
0
SEQEND
5
483
8
Layer1
0
POLYLINE
5
484
8
Layer1
66
1
10
0.0
20
0.0
30
0.0
70
1
0
VERTEX
5
485
8
Layer1
10
173.7500
20
64.5000
30
0.0
0
VERTEX
5
486
8
Layer1
10
159.7500
20
64.5000
30
0.0
0
VERTEX
5
487
8
Layer1
10
159.7500
20
50.5000
30
0.0
0
VERTEX
5
488
8
Layer1
10
173.7500
20
50.5000
30
0.0
0
VERTEX
5
489
8
Layer1
10
173.7500
20
64.5000
30
0.0
0
SEQEND
5
48a
8
Layer1
0
POLYLINE
5
48b
8
Layer1
66
1
10
0.0
20
0.0
30
0.0
70
1
0
VERTEX
5
48c
8
Layer1
10
192.7500
20
64.5000
30
0.0
0
VERTEX
5
48d
8
Layer1
10
178.7500
20
64.5000
30
0.0
0
VERTEX
5
48e
8
Layer1
10
178.7500
20
50.5000
30
0.0
0
VERTEX
5
48f
8
Layer1
10
192.7500
20
50.5000
30
0.0
0
VERTEX
5
490
8
Layer1
10
192.7500
20
64.5000
30
0.0
0
SEQEND
5
491
8
Layer1
0
POLYLINE
5
492
8
Layer1
66
1
10
0.0
20
0.0
30
0.0
70
1
0
VERTEX
5
493
8
Layer1
10
211.7500
20
64.5000
30
0.0
0
VERTEX
5
494
8
Layer1
10
197.7500
20
64.5000
30
0.0
0
VERTEX
5
495
8
Layer1
10
197.7500
20
50.5000
30
0.0
0
VERTEX
5
496
8
Layer1
10
211.7500
20
50.5000
30
0.0
0
VERTEX
5
497
8
Layer1
10
211.7500
20
64.5000
30
0.0
0
SEQEND
5
498
8
Layer1
0
POLYLINE
5
499
8
Layer1
66
1
10
0.0
20
0.0
30
0.0
70
1
0
VERTEX
5
49a
8
Layer1
10
230.7500
20
64.5000
30
0.0
0
VERTEX
5
49b
8
Layer1
10
216.7500
20
64.5000
30
0.0
0
VERTEX
5
49c
8
Layer1
10
216.7500
20
50.5000
30
0.0
0
VERTEX
5
49d
8
Layer1
10
230.7500
20
50.5000
30
0.0
0
VERTEX
5
49e
8
Layer1
10
230.7500
20
64.5000
30
0.0
0
SEQEND
5
49f
8
Layer1
0
POLYLINE
5
4a0
8
Layer1
66
1
10
0.0
20
0.0
30
0.0
70
1
0
VERTEX
5
4a1
8
Layer1
10
249.7500
20
64.5000
30
0.0
0
VERTEX
5
4a2
8
Layer1
10
235.7500
20
64.5000
30
0.0
0
VERTEX
5
4a3
8
Layer1
10
235.7500
20
50.5000
30
0.0
0
VERTEX
5
4a4
8
Layer1
10
249.7500
20
50.5000
30
0.0
0
VERTEX
5
4a5
8
Layer1
10
249.7500
20
64.5000
30
0.0
0
SEQEND
5
4a6
8
Layer1
0
POLYLINE
5
4a7
8
Layer1
66
1
10
0.0
20
0.0
30
0.0
70
1
0
VERTEX
5
4a8
8
Layer1
10
268.7500
20
64.5000
30
0.0
0
VERTEX
5
4a9
8
Layer1
10
254.7500
20
64.5000
30
0.0
0
VERTEX
5
4aa
8
Layer1
10
254.7500
20
50.5000
30
0.0
0
VERTEX
5
4ab
8
Layer1
10
268.7500
20
50.5000
30
0.0
0
VERTEX
5
4ac
8
Layer1
10
268.7500
20
64.5000
30
0.0
0
SEQEND
5
4ad
8
Layer1
0
POLYLINE
5
4ae
8
Layer1
66
1
10
0.0
20
0.0
30
0.0
70
1
0
VERTEX
5
4af
8
Layer1
10
287.7500
20
64.5000
30
0.0
0
VERTEX
5
4b0
8
Layer1
10
273.7500
20
64.5000
30
0.0
0
VERTEX
5
4b1
8
Layer1
10
273.7500
20
50.5000
30
0.0
0
VERTEX
5
4b2
8
Layer1
10
287.7500
20
50.5000
30
0.0
0
VERTEX
5
4b3
8
Layer1
10
287.7500
20
64.5000
30
0.0
0
SEQEND
5
4b4
8
Layer1
0
POLYLINE
5
4b5
8
Layer1
66
1
10
0.0
20
0.0
30
0.0
70
1
0
VERTEX
5
4b6
8
Layer1
10
306.7500
20
64.5000
30
0.0
0
VERTEX
5
4b7
8
Layer1
10
292.7500
20
64.5000
30
0.0
0
VERTEX
5
4b8
8
Layer1
10
292.7500
20
50.5000
30
0.0
0
VERTEX
5
4b9
8
Layer1
10
306.7500
20
50.5000
30
0.0
0
VERTEX
5
4ba
8
Layer1
10
306.7500
20
64.5000
30
0.0
0
SEQEND
5
4bb
8
Layer1
0
POLYLINE
5
4bc
8
Layer1
66
1
10
0.0
20
0.0
30
0.0
70
1
0
VERTEX
5
4bd
8
Layer1
10
325.7500
20
64.5000
30
0.0
0
VERTEX
5
4be
8
Layer1
10
311.7500
20
64.5000
30
0.0
0
VERTEX
5
4bf
8
Layer1
10
311.7500
20
50.5000
30
0.0
0
VERTEX
5
4c0
8
Layer1
10
325.7500
20
50.5000
30
0.0
0
VERTEX
5
4c1
8
Layer1
10
325.7500
20
64.5000
30
0.0
0
SEQEND
5
4c2
8
Layer1
0
POLYLINE
5
4c3
8
Layer1
66
1
10
0.0
20
0.0
30
0.0
70
1
0
VERTEX
5
4c4
8
Layer1
10
339.3750
20
50.7300
30
0.0
0
VERTEX
5
4c5
8
Layer1
10
341.0500
20
50.7300
30
0.0
0
VERTEX
5
4c6
8
Layer1
10
341.0500
20
57.0000
30
0.0
0
VERTEX
5
4c7
8
Layer1
10
342.6250
20
57.0000
30
0.0
0
VERTEX
5
4c8
8
Layer1
10
342.6250
20
50.5000
30
0.0
0
VERTEX
5
4c9
8
Layer1
10
356.6250
20
50.5000
30
0.0
0
VERTEX
5
4ca
8
Layer1
10
356.6250
20
57.0000
30
0.0
0
VERTEX
5
4cb
8
Layer1
10
358.2000
20
57.0000
30
0.0
0
VERTEX
5
4cc
8
Layer1
10
358.2000
20
50.7300
30
0.0
0
VERTEX
5
4cd
8
Layer1
10
359.8750
20
50.7300
30
0.0
0
VERTEX
5
4ce
8
Layer1
10
359.8750
20
49.7380
30
0.0
0
VERTEX
5
4cf
8
Layer1
10
363.1750
20
49.7380
30
0.0
0
VERTEX
5
4d0
8
Layer1
10
363.1750
20
50.7300
30
0.0
0
VERTEX
5
4d1
8
Layer1
10
364.8500
20
50.7300
30
0.0
0
VERTEX
5
4d2
8
Layer1
10
364.8500
20
57.0000
30
0.0
0
VERTEX
5
4d3
8
Layer1
10
365.7250
20
57.0000
30
0.0
0
VERTEX
5
4d4
8
Layer1
10
365.7250
20
59.8000
30
0.0
0
VERTEX
5
4d5
8
Layer1
10
364.8500
20
59.8000
30
0.0
0
VERTEX
5
4d6
8
Layer1
10
364.8500
20
63.0300
30
0.0
0
VERTEX
5
4d7
8
Layer1
10
363.1750
20
63.0300
30
0.0
0
VERTEX
5
4d8
8
Layer1
10
363.1750
20
63.7380
30
0.0
0
VERTEX
5
4d9
8
Layer1
10
359.8750
20
63.7380
30
0.0
0
VERTEX
5
4da
8
Layer1
10
359.8750
20
63.0300
30
0.0
0
VERTEX
5
4db
8
Layer1
10
358.2000
20
63.0300
30
0.0
0
VERTEX
5
4dc
8
Layer1
10
358.2000
20
59.8000
30
0.0
0
VERTEX
5
4dd
8
Layer1
10
356.6250
20
59.8000
30
0.0
0
VERTEX
5
4de
8
Layer1
10
356.6250
20
64.5000
30
0.0
0
VERTEX
5
4df
8
Layer1
10
342.6250
20
64.5000
30
0.0
0
VERTEX
5
4e0
8
Layer1
10
342.6250
20
59.8000
30
0.0
0
VERTEX
5
4e1
8
Layer1
10
341.0500
20
59.8000
30
0.0
0
VERTEX
5
4e2
8
Layer1
10
341.0500
20
63.0300
30
0.0
0
VERTEX
5
4e3
8
Layer1
10
339.3750
20
63.0300
30
0.0
0
VERTEX
5
4e4
8
Layer1
10
339.3750
20
63.7380
30
0.0
0
VERTEX
5
4e5
8
Layer1
10
336.0750
20
63.7380
30
0.0
0
VERTEX
5
4e6
8
Layer1
10
336.0750
20
63.0300
30
0.0
0
VERTEX
5
4e7
8
Layer1
10
334.4000
20
63.0300
30
0.0
0
VERTEX
5
4e8
8
Layer1
10
334.4000
20
59.8000
30
0.0
0
VERTEX
5
4e9
8
Layer1
10
333.5250
20
59.8000
30
0.0
0
VERTEX
5
4ea
8
Layer1
10
333.5250
20
57.0000
30
0.0
0
VERTEX
5
4eb
8
Layer1
10
334.4000
20
57.0000
30
0.0
0
VERTEX
5
4ec
8
Layer1
10
334.4000
20
50.7300
30
0.0
0
VERTEX
5
4ed
8
Layer1
10
336.0750
20
50.7300
30
0.0
0
VERTEX
5
4ee
8
Layer1
10
336.0750
20
49.7380
30
0.0
0
VERTEX
5
4ef
8
Layer1
10
339.3750
20
49.7380
30
0.0
0
VERTEX
5
4f0
8
Layer1
10
339.3750
20
50.7300
30
0.0
0
SEQEND
5
4f1
8
Layer1
0
POLYLINE
5
4f2
8
Layer1
66
1
10
0.0
20
0.0
30
0.0
70
1
0
VERTEX
5
4f3
8
Layer1
10
387.5000
20
64.5000
30
0.0
0
VERTEX
5
4f4
8
Layer1
10
373.5000
20
64.5000
30
0.0
0
VERTEX
5
4f5
8
Layer1
10
373.5000
20
50.5000
30
0.0
0
VERTEX
5
4f6
8
Layer1
10
387.5000
20
50.5000
30
0.0
0
VERTEX
5
4f7
8
Layer1
10
387.5000
20
64.5000
30
0.0
0
SEQEND
5
4f8
8
Layer1
0
POLYLINE
5
4f9
8
Layer1
66
1
10
0.0
20
0.0
30
0.0
70
1
0
VERTEX
5
4fa
8
Layer1
10
406.5000
20
64.5000
30
0.0
0
VERTEX
5
4fb
8
Layer1
10
392.5000
20
64.5000
30
0.0
0
VERTEX
5
4fc
8
Layer1
10
392.5000
20
50.5000
30
0.0
0
VERTEX
5
4fd
8
Layer1
10
406.5000
20
50.5000
30
0.0
0
VERTEX
5
4fe
8
Layer1
10
406.5000
20
64.5000
30
0.0
0
SEQEND
5
4ff
8
Layer1
0
POLYLINE
5
500
8
Layer1
66
1
10
0.0
20
0.0
30
0.0
70
1
0
VERTEX
5
501
8
Layer1
10
12.7300
20
39.2500
30
0.0
0
VERTEX
5
502
8
Layer1
10
12.7300
20
37.5750
30
0.0
0
VERTEX
5
503
8
Layer1
10
19.0000
20
37.5750
30
0.0
0
VERTEX
5
504
8
Layer1
10
19.0000
20
36.0000
30
0.0
0
VERTEX
5
505
8
Layer1
10
12.5000
20
36.0000
30
0.0
0
VERTEX
5
506
8
Layer1
10
12.5000
20
22.0000
30
0.0
0
VERTEX
5
507
8
Layer1
10
19.0000
20
22.0000
30
0.0
0
VERTEX
5
508
8
Layer1
10
19.0000
20
20.4250
30
0.0
0
VERTEX
5
509
8
Layer1
10
12.7300
20
20.4250
30
0.0
0
VERTEX
5
50a
8
Layer1
10
12.7300
20
18.7500
30
0.0
0
VERTEX
5
50b
8
Layer1
10
11.7380
20
18.7500
30
0.0
0
VERTEX
5
50c
8
Layer1
10
11.7380
20
15.4500
30
0.0
0
VERTEX
5
50d
8
Layer1
10
12.7300
20
15.4500
30
0.0
0
VERTEX
5
50e
8
Layer1
10
12.7300
20
13.7750
30
0.0
0
VERTEX
5
50f
8
Layer1
10
19.0000
20
13.7750
30
0.0
0
VERTEX
5
510
8
Layer1
10
19.0000
20
12.9000
30
0.0
0
VERTEX
5
511
8
Layer1
10
21.8000
20
12.9000
30
0.0
0
VERTEX
5
512
8
Layer1
10
21.8000
20
13.7750
30
0.0
0
VERTEX
5
513
8
Layer1
10
25.0300
20
13.7750
30
0.0
0
VERTEX
5
514
8
Layer1
10
25.0300
20
15.4500
30
0.0
0
VERTEX
5
515
8
Layer1
10
25.7380
20
15.4500
30
0.0
0
VERTEX
5
516
8
Layer1
10
25.7380
20
18.7500
30
0.0
0
VERTEX
5
517
8
Layer1
10
25.0300
20
18.7500
30
0.0
0
VERTEX
5
518
8
Layer1
10
25.0300
20
20.4250
30
0.0
0
VERTEX
5
519
8
Layer1
10
21.8000
20
20.4250
30
0.0
0
VERTEX
5
51a
8
Layer1
10
21.8000
20
22.0000
30
0.0
0
VERTEX
5
51b
8
Layer1
10
26.5000
20
22.0000
30
0.0
0
VERTEX
5
51c
8
Layer1
10
26.5000
20
36.0000
30
0.0
0
VERTEX
5
51d
8
Layer1
10
21.8000
20
36.0000
30
0.0
0
VERTEX
5
51e
8
Layer1
10
21.8000
20
37.5750
30
0.0
0
VERTEX
5
51f
8
Layer1
10
25.0300
20
37.5750
30
0.0
0
VERTEX
5
520
8
Layer1
10
25.0300
20
39.2500
30
0.0
0
VERTEX
5
521
8
Layer1
10
25.7380
20
39.2500
30
0.0
0
VERTEX
5
522
8
Layer1
10
25.7380
20
42.5500
30
0.0
0
VERTEX
5
523
8
Layer1
10
25.0300
20
42.5500
30
0.0
0
VERTEX
5
524
8
Layer1
10
25.0300
20
44.2250
30
0.0
0
VERTEX
5
525
8
Layer1
10
21.8000
20
44.2250
30
0.0
0
VERTEX
5
526
8
Layer1
10
21.8000
20
45.1000
30
0.0
0
VERTEX
5
527
8
Layer1
10
19.0000
20
45.1000
30
0.0
0
VERTEX
5
528
8
Layer1
10
19.0000
20
44.2250
30
0.0
0
VERTEX
5
529
8
Layer1
10
12.7300
20
44.2250
30
0.0
0
VERTEX
5
52a
8
Layer1
10
12.7300
20
42.5500
30
0.0
0
VERTEX
5
52b
8
Layer1
10
11.7380
20
42.5500
30
0.0
0
VERTEX
5
52c
8
Layer1
10
11.7380
20
39.2500
30
0.0
0
VERTEX
5
52d
8
Layer1
10
12.7300
20
39.2500
30
0.0
0
SEQEND
5
52e
8
Layer1
0
POLYLINE
5
52f
8
Layer1
66
1
10
0.0
20
0.0
30
0.0
70
1
0
VERTEX
5
530
8
Layer1
10
45.5000
20
45.5000
30
0.0
0
VERTEX
5
531
8
Layer1
10
31.5000
20
45.5000
30
0.0
0
VERTEX
5
532
8
Layer1
10
31.5000
20
31.5000
30
0.0
0
VERTEX
5
533
8
Layer1
10
45.5000
20
31.5000
30
0.0
0
VERTEX
5
534
8
Layer1
10
45.5000
20
45.5000
30
0.0
0
SEQEND
5
535
8
Layer1
0
POLYLINE
5
536
8
Layer1
66
1
10
0.0
20
0.0
30
0.0
70
1
0
VERTEX
5
537
8
Layer1
10
64.5000
20
45.5000
30
0.0
0
VERTEX
5
538
8
Layer1
10
50.5000
20
45.5000
30
0.0
0
VERTEX
5
539
8
Layer1
10
50.5000
20
31.5000
30
0.0
0
VERTEX
5
53a
8
Layer1
10
64.5000
20
31.5000
30
0.0
0
VERTEX
5
53b
8
Layer1
10
64.5000
20
45.5000
30
0.0
0
SEQEND
5
53c
8
Layer1
0
POLYLINE
5
53d
8
Layer1
66
1
10
0.0
20
0.0
30
0.0
70
1
0
VERTEX
5
53e
8
Layer1
10
83.5000
20
45.5000
30
0.0
0
VERTEX
5
53f
8
Layer1
10
69.5000
20
45.5000
30
0.0
0
VERTEX
5
540
8
Layer1
10
69.5000
20
31.5000
30
0.0
0
VERTEX
5
541
8
Layer1
10
83.5000
20
31.5000
30
0.0
0
VERTEX
5
542
8
Layer1
10
83.5000
20
45.5000
30
0.0
0
SEQEND
5
543
8
Layer1
0
POLYLINE
5
544
8
Layer1
66
1
10
0.0
20
0.0
30
0.0
70
1
0
VERTEX
5
545
8
Layer1
10
97.1250
20
31.7300
30
0.0
0
VERTEX
5
546
8
Layer1
10
98.8000
20
31.7300
30
0.0
0
VERTEX
5
547
8
Layer1
10
98.8000
20
38.0000
30
0.0
0
VERTEX
5
548
8
Layer1
10
100.3750
20
38.0000
30
0.0
0
VERTEX
5
549
8
Layer1
10
100.3750
20
31.5000
30
0.0
0
VERTEX
5
54a
8
Layer1
10
114.3750
20
31.5000
30
0.0
0
VERTEX
5
54b
8
Layer1
10
114.3750
20
38.0000
30
0.0
0
VERTEX
5
54c
8
Layer1
10
115.9500
20
38.0000
30
0.0
0
VERTEX
5
54d
8
Layer1
10
115.9500
20
31.7300
30
0.0
0
VERTEX
5
54e
8
Layer1
10
117.6250
20
31.7300
30
0.0
0
VERTEX
5
54f
8
Layer1
10
117.6250
20
30.7380
30
0.0
0
VERTEX
5
550
8
Layer1
10
120.9250
20
30.7380
30
0.0
0
VERTEX
5
551
8
Layer1
10
120.9250
20
31.7300
30
0.0
0
VERTEX
5
552
8
Layer1
10
122.6000
20
31.7300
30
0.0
0
VERTEX
5
553
8
Layer1
10
122.6000
20
38.0000
30
0.0
0
VERTEX
5
554
8
Layer1
10
123.4750
20
38.0000
30
0.0
0
VERTEX
5
555
8
Layer1
10
123.4750
20
40.8000
30
0.0
0
VERTEX
5
556
8
Layer1
10
122.6000
20
40.8000
30
0.0
0
VERTEX
5
557
8
Layer1
10
122.6000
20
44.0300
30
0.0
0
VERTEX
5
558
8
Layer1
10
120.9250
20
44.0300
30
0.0
0
VERTEX
5
559
8
Layer1
10
120.9250
20
44.7380
30
0.0
0
VERTEX
5
55a
8
Layer1
10
117.6250
20
44.7380
30
0.0
0
VERTEX
5
55b
8
Layer1
10
117.6250
20
44.0300
30
0.0
0
VERTEX
5
55c
8
Layer1
10
115.9500
20
44.0300
30
0.0
0
VERTEX
5
55d
8
Layer1
10
115.9500
20
40.8000
30
0.0
0
VERTEX
5
55e
8
Layer1
10
114.3750
20
40.8000
30
0.0
0
VERTEX
5
55f
8
Layer1
10
114.3750
20
45.5000
30
0.0
0
VERTEX
5
560
8
Layer1
10
100.3750
20
45.5000
30
0.0
0
VERTEX
5
561
8
Layer1
10
100.3750
20
40.8000
30
0.0
0
VERTEX
5
562
8
Layer1
10
98.8000
20
40.8000
30
0.0
0
VERTEX
5
563
8
Layer1
10
98.8000
20
44.0300
30
0.0
0
VERTEX
5
564
8
Layer1
10
97.1250
20
44.0300
30
0.0
0
VERTEX
5
565
8
Layer1
10
97.1250
20
44.7380
30
0.0
0
VERTEX
5
566
8
Layer1
10
93.8250
20
44.7380
30
0.0
0
VERTEX
5
567
8
Layer1
10
93.8250
20
44.0300
30
0.0
0
VERTEX
5
568
8
Layer1
10
92.1500
20
44.0300
30
0.0
0
VERTEX
5
569
8
Layer1
10
92.1500
20
40.8000
30
0.0
0
VERTEX
5
56a
8
Layer1
10
91.2750
20
40.8000
30
0.0
0
VERTEX
5
56b
8
Layer1
10
91.2750
20
38.0000
30
0.0
0
VERTEX
5
56c
8
Layer1
10
92.1500
20
38.0000
30
0.0
0
VERTEX
5
56d
8
Layer1
10
92.1500
20
31.7300
30
0.0
0
VERTEX
5
56e
8
Layer1
10
93.8250
20
31.7300
30
0.0
0
VERTEX
5
56f
8
Layer1
10
93.8250
20
30.7380
30
0.0
0
VERTEX
5
570
8
Layer1
10
97.1250
20
30.7380
30
0.0
0
VERTEX
5
571
8
Layer1
10
97.1250
20
31.7300
30
0.0
0
SEQEND
5
572
8
Layer1
0
POLYLINE
5
573
8
Layer1
66
1
10
0.0
20
0.0
30
0.0
70
1
0
VERTEX
5
574
8
Layer1
10
145.2500
20
45.5000
30
0.0
0
VERTEX
5
575
8
Layer1
10
131.2500
20
45.5000
30
0.0
0
VERTEX
5
576
8
Layer1
10
131.2500
20
31.5000
30
0.0
0
VERTEX
5
577
8
Layer1
10
145.2500
20
31.5000
30
0.0
0
VERTEX
5
578
8
Layer1
10
145.2500
20
45.5000
30
0.0
0
SEQEND
5
579
8
Layer1
0
POLYLINE
5
57a
8
Layer1
66
1
10
0.0
20
0.0
30
0.0
70
1
0
VERTEX
5
57b
8
Layer1
10
164.2500
20
45.5000
30
0.0
0
VERTEX
5
57c
8
Layer1
10
150.2500
20
45.5000
30
0.0
0
VERTEX
5
57d
8
Layer1
10
150.2500
20
31.5000
30
0.0
0
VERTEX
5
57e
8
Layer1
10
164.2500
20
31.5000
30
0.0
0
VERTEX
5
57f
8
Layer1
10
164.2500
20
45.5000
30
0.0
0
SEQEND
5
580
8
Layer1
0
POLYLINE
5
581
8
Layer1
66
1
10
0.0
20
0.0
30
0.0
70
1
0
VERTEX
5
582
8
Layer1
10
183.2500
20
45.5000
30
0.0
0
VERTEX
5
583
8
Layer1
10
169.2500
20
45.5000
30
0.0
0
VERTEX
5
584
8
Layer1
10
169.2500
20
31.5000
30
0.0
0
VERTEX
5
585
8
Layer1
10
183.2500
20
31.5000
30
0.0
0
VERTEX
5
586
8
Layer1
10
183.2500
20
45.5000
30
0.0
0
SEQEND
5
587
8
Layer1
0
POLYLINE
5
588
8
Layer1
66
1
10
0.0
20
0.0
30
0.0
70
1
0
VERTEX
5
589
8
Layer1
10
202.2500
20
45.5000
30
0.0
0
VERTEX
5
58a
8
Layer1
10
188.2500
20
45.5000
30
0.0
0
VERTEX
5
58b
8
Layer1
10
188.2500
20
31.5000
30
0.0
0
VERTEX
5
58c
8
Layer1
10
202.2500
20
31.5000
30
0.0
0
VERTEX
5
58d
8
Layer1
10
202.2500
20
45.5000
30
0.0
0
SEQEND
5
58e
8
Layer1
0
POLYLINE
5
58f
8
Layer1
66
1
10
0.0
20
0.0
30
0.0
70
1
0
VERTEX
5
590
8
Layer1
10
221.2500
20
45.5000
30
0.0
0
VERTEX
5
591
8
Layer1
10
207.2500
20
45.5000
30
0.0
0
VERTEX
5
592
8
Layer1
10
207.2500
20
31.5000
30
0.0
0
VERTEX
5
593
8
Layer1
10
221.2500
20
31.5000
30
0.0
0
VERTEX
5
594
8
Layer1
10
221.2500
20
45.5000
30
0.0
0
SEQEND
5
595
8
Layer1
0
POLYLINE
5
596
8
Layer1
66
1
10
0.0
20
0.0
30
0.0
70
1
0
VERTEX
5
597
8
Layer1
10
240.2500
20
45.5000
30
0.0
0
VERTEX
5
598
8
Layer1
10
226.2500
20
45.5000
30
0.0
0
VERTEX
5
599
8
Layer1
10
226.2500
20
31.5000
30
0.0
0
VERTEX
5
59a
8
Layer1
10
240.2500
20
31.5000
30
0.0
0
VERTEX
5
59b
8
Layer1
10
240.2500
20
45.5000
30
0.0
0
SEQEND
5
59c
8
Layer1
0
POLYLINE
5
59d
8
Layer1
66
1
10
0.0
20
0.0
30
0.0
70
1
0
VERTEX
5
59e
8
Layer1
10
259.2500
20
45.5000
30
0.0
0
VERTEX
5
59f
8
Layer1
10
245.2500
20
45.5000
30
0.0
0
VERTEX
5
5a0
8
Layer1
10
245.2500
20
31.5000
30
0.0
0
VERTEX
5
5a1
8
Layer1
10
259.2500
20
31.5000
30
0.0
0
VERTEX
5
5a2
8
Layer1
10
259.2500
20
45.5000
30
0.0
0
SEQEND
5
5a3
8
Layer1
0
POLYLINE
5
5a4
8
Layer1
66
1
10
0.0
20
0.0
30
0.0
70
1
0
VERTEX
5
5a5
8
Layer1
10
278.2500
20
45.5000
30
0.0
0
VERTEX
5
5a6
8
Layer1
10
264.2500
20
45.5000
30
0.0
0
VERTEX
5
5a7
8
Layer1
10
264.2500
20
31.5000
30
0.0
0
VERTEX
5
5a8
8
Layer1
10
278.2500
20
31.5000
30
0.0
0
VERTEX
5
5a9
8
Layer1
10
278.2500
20
45.5000
30
0.0
0
SEQEND
5
5aa
8
Layer1
0
POLYLINE
5
5ab
8
Layer1
66
1
10
0.0
20
0.0
30
0.0
70
1
0
VERTEX
5
5ac
8
Layer1
10
297.2500
20
45.5000
30
0.0
0
VERTEX
5
5ad
8
Layer1
10
283.2500
20
45.5000
30
0.0
0
VERTEX
5
5ae
8
Layer1
10
283.2500
20
31.5000
30
0.0
0
VERTEX
5
5af
8
Layer1
10
297.2500
20
31.5000
30
0.0
0
VERTEX
5
5b0
8
Layer1
10
297.2500
20
45.5000
30
0.0
0
SEQEND
5
5b1
8
Layer1
0
POLYLINE
5
5b2
8
Layer1
66
1
10
0.0
20
0.0
30
0.0
70
1
0
VERTEX
5
5b3
8
Layer1
10
316.2500
20
45.5000
30
0.0
0
VERTEX
5
5b4
8
Layer1
10
302.2500
20
45.5000
30
0.0
0
VERTEX
5
5b5
8
Layer1
10
302.2500
20
31.5000
30
0.0
0
VERTEX
5
5b6
8
Layer1
10
316.2500
20
31.5000
30
0.0
0
VERTEX
5
5b7
8
Layer1
10
316.2500
20
45.5000
30
0.0
0
SEQEND
5
5b8
8
Layer1
0
POLYLINE
5
5b9
8
Layer1
66
1
10
0.0
20
0.0
30
0.0
70
1
0
VERTEX
5
5ba
8
Layer1
10
334.6250
20
31.7300
30
0.0
0
VERTEX
5
5bb
8
Layer1
10
336.3000
20
31.7300
30
0.0
0
VERTEX
5
5bc
8
Layer1
10
336.3000
20
38.0000
30
0.0
0
VERTEX
5
5bd
8
Layer1
10
337.8750
20
38.0000
30
0.0
0
VERTEX
5
5be
8
Layer1
10
337.8750
20
31.5000
30
0.0
0
VERTEX
5
5bf
8
Layer1
10
351.8750
20
31.5000
30
0.0
0
VERTEX
5
5c0
8
Layer1
10
351.8750
20
38.0000
30
0.0
0
VERTEX
5
5c1
8
Layer1
10
353.4500
20
38.0000
30
0.0
0
VERTEX
5
5c2
8
Layer1
10
353.4500
20
31.7300
30
0.0
0
VERTEX
5
5c3
8
Layer1
10
355.1250
20
31.7300
30
0.0
0
VERTEX
5
5c4
8
Layer1
10
355.1250
20
30.7380
30
0.0
0
VERTEX
5
5c5
8
Layer1
10
358.4250
20
30.7380
30
0.0
0
VERTEX
5
5c6
8
Layer1
10
358.4250
20
31.7300
30
0.0
0
VERTEX
5
5c7
8
Layer1
10
360.1000
20
31.7300
30
0.0
0
VERTEX
5
5c8
8
Layer1
10
360.1000
20
38.0000
30
0.0
0
VERTEX
5
5c9
8
Layer1
10
360.9750
20
38.0000
30
0.0
0
VERTEX
5
5ca
8
Layer1
10
360.9750
20
40.8000
30
0.0
0
VERTEX
5
5cb
8
Layer1
10
360.1000
20
40.8000
30
0.0
0
VERTEX
5
5cc
8
Layer1
10
360.1000
20
44.0300
30
0.0
0
VERTEX
5
5cd
8
Layer1
10
358.4250
20
44.0300
30
0.0
0
VERTEX
5
5ce
8
Layer1
10
358.4250
20
44.7380
30
0.0
0
VERTEX
5
5cf
8
Layer1
10
355.1250
20
44.7380
30
0.0
0
VERTEX
5
5d0
8
Layer1
10
355.1250
20
44.0300
30
0.0
0
VERTEX
5
5d1
8
Layer1
10
353.4500
20
44.0300
30
0.0
0
VERTEX
5
5d2
8
Layer1
10
353.4500
20
40.8000
30
0.0
0
VERTEX
5
5d3
8
Layer1
10
351.8750
20
40.8000
30
0.0
0
VERTEX
5
5d4
8
Layer1
10
351.8750
20
45.5000
30
0.0
0
VERTEX
5
5d5
8
Layer1
10
337.8750
20
45.5000
30
0.0
0
VERTEX
5
5d6
8
Layer1
10
337.8750
20
40.8000
30
0.0
0
VERTEX
5
5d7
8
Layer1
10
336.3000
20
40.8000
30
0.0
0
VERTEX
5
5d8
8
Layer1
10
336.3000
20
44.0300
30
0.0
0
VERTEX
5
5d9
8
Layer1
10
334.6250
20
44.0300
30
0.0
0
VERTEX
5
5da
8
Layer1
10
334.6250
20
44.7380
30
0.0
0
VERTEX
5
5db
8
Layer1
10
331.3250
20
44.7380
30
0.0
0
VERTEX
5
5dc
8
Layer1
10
331.3250
20
44.0300
30
0.0
0
VERTEX
5
5dd
8
Layer1
10
329.6500
20
44.0300
30
0.0
0
VERTEX
5
5de
8
Layer1
10
329.6500
20
40.8000
30
0.0
0
VERTEX
5
5df
8
Layer1
10
328.7750
20
40.8000
30
0.0
0
VERTEX
5
5e0
8
Layer1
10
328.7750
20
38.0000
30
0.0
0
VERTEX
5
5e1
8
Layer1
10
329.6500
20
38.0000
30
0.0
0
VERTEX
5
5e2
8
Layer1
10
329.6500
20
31.7300
30
0.0
0
VERTEX
5
5e3
8
Layer1
10
331.3250
20
31.7300
30
0.0
0
VERTEX
5
5e4
8
Layer1
10
331.3250
20
30.7380
30
0.0
0
VERTEX
5
5e5
8
Layer1
10
334.6250
20
30.7380
30
0.0
0
VERTEX
5
5e6
8
Layer1
10
334.6250
20
31.7300
30
0.0
0
SEQEND
5
5e7
8
Layer1
0
POLYLINE
5
5e8
8
Layer1
66
1
10
0.0
20
0.0
30
0.0
70
1
0
VERTEX
5
5e9
8
Layer1
10
387.5000
20
45.5000
30
0.0
0
VERTEX
5
5ea
8
Layer1
10
373.5000
20
45.5000
30
0.0
0
VERTEX
5
5eb
8
Layer1
10
373.5000
20
31.5000
30
0.0
0
VERTEX
5
5ec
8
Layer1
10
387.5000
20
31.5000
30
0.0
0
VERTEX
5
5ed
8
Layer1
10
387.5000
20
45.5000
30
0.0
0
SEQEND
5
5ee
8
Layer1
0
POLYLINE
5
5ef
8
Layer1
66
1
10
0.0
20
0.0
30
0.0
70
1
0
VERTEX
5
5f0
8
Layer1
10
406.5000
20
45.5000
30
0.0
0
VERTEX
5
5f1
8
Layer1
10
392.5000
20
45.5000
30
0.0
0
VERTEX
5
5f2
8
Layer1
10
392.5000
20
31.5000
30
0.0
0
VERTEX
5
5f3
8
Layer1
10
406.5000
20
31.5000
30
0.0
0
VERTEX
5
5f4
8
Layer1
10
406.5000
20
45.5000
30
0.0
0
SEQEND
5
5f5
8
Layer1
0
POLYLINE
5
5f6
8
Layer1
66
1
10
0.0
20
0.0
30
0.0
70
1
0
VERTEX
5
5f7
8
Layer1
10
45.5000
20
26.5000
30
0.0
0
VERTEX
5
5f8
8
Layer1
10
31.5000
20
26.5000
30
0.0
0
VERTEX
5
5f9
8
Layer1
10
31.5000
20
12.5000
30
0.0
0
VERTEX
5
5fa
8
Layer1
10
45.5000
20
12.5000
30
0.0
0
VERTEX
5
5fb
8
Layer1
10
45.5000
20
26.5000
30
0.0
0
SEQEND
5
5fc
8
Layer1
0
POLYLINE
5
5fd
8
Layer1
66
1
10
0.0
20
0.0
30
0.0
70
1
0
VERTEX
5
5fe
8
Layer1
10
56.7500
20
12.7300
30
0.0
0
VERTEX
5
5ff
8
Layer1
10
58.4250
20
12.7300
30
0.0
0
VERTEX
5
600
8
Layer1
10
58.4250
20
19.0000
30
0.0
0
VERTEX
5
601
8
Layer1
10
60.0000
20
19.0000
30
0.0
0
VERTEX
5
602
8
Layer1
10
60.0000
20
12.5000
30
0.0
0
VERTEX
5
603
8
Layer1
10
74.0000
20
12.5000
30
0.0
0
VERTEX
5
604
8
Layer1
10
74.0000
20
19.0000
30
0.0
0
VERTEX
5
605
8
Layer1
10
75.5750
20
19.0000
30
0.0
0
VERTEX
5
606
8
Layer1
10
75.5750
20
12.7300
30
0.0
0
VERTEX
5
607
8
Layer1
10
77.2500
20
12.7300
30
0.0
0
VERTEX
5
608
8
Layer1
10
77.2500
20
11.7380
30
0.0
0
VERTEX
5
609
8
Layer1
10
80.5500
20
11.7380
30
0.0
0
VERTEX
5
60a
8
Layer1
10
80.5500
20
12.7300
30
0.0
0
VERTEX
5
60b
8
Layer1
10
82.2250
20
12.7300
30
0.0
0
VERTEX
5
60c
8
Layer1
10
82.2250
20
19.0000
30
0.0
0
VERTEX
5
60d
8
Layer1
10
83.1000
20
19.0000
30
0.0
0
VERTEX
5
60e
8
Layer1
10
83.1000
20
21.8000
30
0.0
0
VERTEX
5
60f
8
Layer1
10
82.2250
20
21.8000
30
0.0
0
VERTEX
5
610
8
Layer1
10
82.2250
20
25.0300
30
0.0
0
VERTEX
5
611
8
Layer1
10
80.5500
20
25.0300
30
0.0
0
VERTEX
5
612
8
Layer1
10
80.5500
20
25.7380
30
0.0
0
VERTEX
5
613
8
Layer1
10
77.2500
20
25.7380
30
0.0
0
VERTEX
5
614
8
Layer1
10
77.2500
20
25.0300
30
0.0
0
VERTEX
5
615
8
Layer1
10
75.5750
20
25.0300
30
0.0
0
VERTEX
5
616
8
Layer1
10
75.5750
20
21.8000
30
0.0
0
VERTEX
5
617
8
Layer1
10
74.0000
20
21.8000
30
0.0
0
VERTEX
5
618
8
Layer1
10
74.0000
20
26.5000
30
0.0
0
VERTEX
5
619
8
Layer1
10
60.0000
20
26.5000
30
0.0
0
VERTEX
5
61a
8
Layer1
10
60.0000
20
21.8000
30
0.0
0
VERTEX
5
61b
8
Layer1
10
58.4250
20
21.8000
30
0.0
0
VERTEX
5
61c
8
Layer1
10
58.4250
20
25.0300
30
0.0
0
VERTEX
5
61d
8
Layer1
10
56.7500
20
25.0300
30
0.0
0
VERTEX
5
61e
8
Layer1
10
56.7500
20
25.7380
30
0.0
0
VERTEX
5
61f
8
Layer1
10
53.4500
20
25.7380
30
0.0
0
VERTEX
5
620
8
Layer1
10
53.4500
20
25.0300
30
0.0
0
VERTEX
5
621
8
Layer1
10
51.7750
20
25.0300
30
0.0
0
VERTEX
5
622
8
Layer1
10
51.7750
20
21.8000
30
0.0
0
VERTEX
5
623
8
Layer1
10
50.9000
20
21.8000
30
0.0
0
VERTEX
5
624
8
Layer1
10
50.9000
20
19.0000
30
0.0
0
VERTEX
5
625
8
Layer1
10
51.7750
20
19.0000
30
0.0
0
VERTEX
5
626
8
Layer1
10
51.7750
20
12.7300
30
0.0
0
VERTEX
5
627
8
Layer1
10
53.4500
20
12.7300
30
0.0
0
VERTEX
5
628
8
Layer1
10
53.4500
20
11.7380
30
0.0
0
VERTEX
5
629
8
Layer1
10
56.7500
20
11.7380
30
0.0
0
VERTEX
5
62a
8
Layer1
10
56.7500
20
12.7300
30
0.0
0
SEQEND
5
62b
8
Layer1
0
POLYLINE
5
62c
8
Layer1
66
1
10
0.0
20
0.0
30
0.0
70
1
0
VERTEX
5
62d
8
Layer1
10
104.8750
20
26.5000
30
0.0
0
VERTEX
5
62e
8
Layer1
10
90.8750
20
26.5000
30
0.0
0
VERTEX
5
62f
8
Layer1
10
90.8750
20
12.5000
30
0.0
0
VERTEX
5
630
8
Layer1
10
104.8750
20
12.5000
30
0.0
0
VERTEX
5
631
8
Layer1
10
104.8750
20
26.5000
30
0.0
0
SEQEND
5
632
8
Layer1
0
POLYLINE
5
633
8
Layer1
66
1
10
0.0
20
0.0
30
0.0
70
1
0
VERTEX
5
634
8
Layer1
10
128.6250
20
26.5000
30
0.0
0
VERTEX
5
635
8
Layer1
10
114.6250
20
26.5000
30
0.0
0
VERTEX
5
636
8
Layer1
10
114.6250
20
12.5000
30
0.0
0
VERTEX
5
637
8
Layer1
10
128.6250
20
12.5000
30
0.0
0
VERTEX
5
638
8
Layer1
10
128.6250
20
26.5000
30
0.0
0
SEQEND
5
639
8
Layer1
0
POLYLINE
5
63a
8
Layer1
66
1
10
0.0
20
0.0
30
0.0
70
1
0
VERTEX
5
63b
8
Layer1
10
152.3750
20
26.5000
30
0.0
0
VERTEX
5
63c
8
Layer1
10
138.3750
20
26.5000
30
0.0
0
VERTEX
5
63d
8
Layer1
10
138.3750
20
12.5000
30
0.0
0
VERTEX
5
63e
8
Layer1
10
152.3750
20
12.5000
30
0.0
0
VERTEX
5
63f
8
Layer1
10
152.3750
20
26.5000
30
0.0
0
SEQEND
5
640
8
Layer1
0
POLYLINE
5
641
8
Layer1
66
1
10
0.0
20
0.0
30
0.0
70
1
0
VERTEX
5
642
8
Layer1
10
168.2750
20
12.7300
30
0.0
0
VERTEX
5
643
8
Layer1
10
169.9500
20
12.7300
30
0.0
0
VERTEX
5
644
8
Layer1
10
169.9500
20
17.2000
30
0.0
0
VERTEX
5
645
8
Layer1
10
209.6250
20
17.2000
30
0.0
0
VERTEX
5
646
8
Layer1
10
209.6250
20
12.5000
30
0.0
0
VERTEX
5
647
8
Layer1
10
223.6250
20
12.5000
30
0.0
0
VERTEX
5
648
8
Layer1
10
223.6250
20
17.2000
30
0.0
0
VERTEX
5
649
8
Layer1
10
263.3000
20
17.2000
30
0.0
0
VERTEX
5
64a
8
Layer1
10
263.3000
20
12.7300
30
0.0
0
VERTEX
5
64b
8
Layer1
10
264.9750
20
12.7300
30
0.0
0
VERTEX
5
64c
8
Layer1
10
264.9750
20
11.7380
30
0.0
0
VERTEX
5
64d
8
Layer1
10
268.2750
20
11.7380
30
0.0
0
VERTEX
5
64e
8
Layer1
10
268.2750
20
12.7300
30
0.0
0
VERTEX
5
64f
8
Layer1
10
269.9500
20
12.7300
30
0.0
0
VERTEX
5
650
8
Layer1
10
269.9500
20
19.0000
30
0.0
0
VERTEX
5
651
8
Layer1
10
270.8500
20
19.0000
30
0.0
0
VERTEX
5
652
8
Layer1
10
270.8500
20
21.8000
30
0.0
0
VERTEX
5
653
8
Layer1
10
269.9500
20
21.8000
30
0.0
0
VERTEX
5
654
8
Layer1
10
269.9500
20
25.0300
30
0.0
0
VERTEX
5
655
8
Layer1
10
268.2750
20
25.0300
30
0.0
0
VERTEX
5
656
8
Layer1
10
268.2750
20
25.7380
30
0.0
0
VERTEX
5
657
8
Layer1
10
264.9750
20
25.7380
30
0.0
0
VERTEX
5
658
8
Layer1
10
264.9750
20
25.0300
30
0.0
0
VERTEX
5
659
8
Layer1
10
263.3000
20
25.0300
30
0.0
0
VERTEX
5
65a
8
Layer1
10
263.3000
20
21.8000
30
0.0
0
VERTEX
5
65b
8
Layer1
10
223.6250
20
21.8000
30
0.0
0
VERTEX
5
65c
8
Layer1
10
223.6250
20
26.5000
30
0.0
0
VERTEX
5
65d
8
Layer1
10
209.6250
20
26.5000
30
0.0
0
VERTEX
5
65e
8
Layer1
10
209.6250
20
21.8000
30
0.0
0
VERTEX
5
65f
8
Layer1
10
169.9500
20
21.8000
30
0.0
0
VERTEX
5
660
8
Layer1
10
169.9500
20
25.0300
30
0.0
0
VERTEX
5
661
8
Layer1
10
168.2750
20
25.0300
30
0.0
0
VERTEX
5
662
8
Layer1
10
168.2750
20
25.7380
30
0.0
0
VERTEX
5
663
8
Layer1
10
164.9750
20
25.7380
30
0.0
0
VERTEX
5
664
8
Layer1
10
164.9750
20
25.0300
30
0.0
0
VERTEX
5
665
8
Layer1
10
163.3000
20
25.0300
30
0.0
0
VERTEX
5
666
8
Layer1
10
163.3000
20
21.8000
30
0.0
0
VERTEX
5
667
8
Layer1
10
162.4000
20
21.8000
30
0.0
0
VERTEX
5
668
8
Layer1
10
162.4000
20
19.0000
30
0.0
0
VERTEX
5
669
8
Layer1
10
163.3000
20
19.0000
30
0.0
0
VERTEX
5
66a
8
Layer1
10
163.3000
20
12.7300
30
0.0
0
VERTEX
5
66b
8
Layer1
10
164.9750
20
12.7300
30
0.0
0
VERTEX
5
66c
8
Layer1
10
164.9750
20
11.7380
30
0.0
0
VERTEX
5
66d
8
Layer1
10
168.2750
20
11.7380
30
0.0
0
VERTEX
5
66e
8
Layer1
10
168.2750
20
12.7300
30
0.0
0
SEQEND
5
66f
8
Layer1
0
POLYLINE
5
670
8
Layer1
66
1
10
0.0
20
0.0
30
0.0
70
1
0
VERTEX
5
671
8
Layer1
10
294.8750
20
26.5000
30
0.0
0
VERTEX
5
672
8
Layer1
10
280.8750
20
26.5000
30
0.0
0
VERTEX
5
673
8
Layer1
10
280.8750
20
12.5000
30
0.0
0
VERTEX
5
674
8
Layer1
10
294.8750
20
12.5000
30
0.0
0
VERTEX
5
675
8
Layer1
10
294.8750
20
26.5000
30
0.0
0
SEQEND
5
676
8
Layer1
0
POLYLINE
5
677
8
Layer1
66
1
10
0.0
20
0.0
30
0.0
70
1
0
VERTEX
5
678
8
Layer1
10
318.6250
20
26.5000
30
0.0
0
VERTEX
5
679
8
Layer1
10
304.6250
20
26.5000
30
0.0
0
VERTEX
5
67a
8
Layer1
10
304.6250
20
12.5000
30
0.0
0
VERTEX
5
67b
8
Layer1
10
318.6250
20
12.5000
30
0.0
0
VERTEX
5
67c
8
Layer1
10
318.6250
20
26.5000
30
0.0
0
SEQEND
5
67d
8
Layer1
0
POLYLINE
5
67e
8
Layer1
66
1
10
0.0
20
0.0
30
0.0
70
1
0
VERTEX
5
67f
8
Layer1
10
342.3750
20
26.5000
30
0.0
0
VERTEX
5
680
8
Layer1
10
328.3750
20
26.5000
30
0.0
0
VERTEX
5
681
8
Layer1
10
328.3750
20
12.5000
30
0.0
0
VERTEX
5
682
8
Layer1
10
342.3750
20
12.5000
30
0.0
0
VERTEX
5
683
8
Layer1
10
342.3750
20
26.5000
30
0.0
0
SEQEND
5
684
8
Layer1
0
POLYLINE
5
685
8
Layer1
66
1
10
0.0
20
0.0
30
0.0
70
1
0
VERTEX
5
686
8
Layer1
10
366.1250
20
26.5000
30
0.0
0
VERTEX
5
687
8
Layer1
10
352.1250
20
26.5000
30
0.0
0
VERTEX
5
688
8
Layer1
10
352.1250
20
12.5000
30
0.0
0
VERTEX
5
689
8
Layer1
10
366.1250
20
12.5000
30
0.0
0
VERTEX
5
68a
8
Layer1
10
366.1250
20
26.5000
30
0.0
0
SEQEND
5
68b
8
Layer1
0
POLYLINE
5
68c
8
Layer1
66
1
10
0.0
20
0.0
30
0.0
70
1
0
VERTEX
5
68d
8
Layer1
10
387.5000
20
26.5000
30
0.0
0
VERTEX
5
68e
8
Layer1
10
373.5000
20
26.5000
30
0.0
0
VERTEX
5
68f
8
Layer1
10
373.5000
20
12.5000
30
0.0
0
VERTEX
5
690
8
Layer1
10
387.5000
20
12.5000
30
0.0
0
VERTEX
5
691
8
Layer1
10
387.5000
20
26.5000
30
0.0
0
SEQEND
5
692
8
Layer1
0
POLYLINE
5
693
8
Layer1
66
1
10
0.0
20
0.0
30
0.0
70
1
0
VERTEX
5
694
8
Layer1
10
406.5000
20
26.5000
30
0.0
0
VERTEX
5
695
8
Layer1
10
392.5000
20
26.5000
30
0.0
0
VERTEX
5
696
8
Layer1
10
392.5000
20
12.5000
30
0.0
0
VERTEX
5
697
8
Layer1
10
406.5000
20
12.5000
30
0.0
0
VERTEX
5
698
8
Layer1
10
406.5000
20
26.5000
30
0.0
0
SEQEND
5
699
8
Layer1
0
ENDSEC
0
EOF
