G04 EAGLE Gerber RS-274X export*
G04 #@! %TF.Part,Single*
G04 #@! %TF.FileFunction,Copper,L1,Top,Mixed*
G04 #@! %TF.FilePolarity,Positive*
G04 #@! %TF.GenerationSoftware,Autodesk,EAGLE,9.5.1*
G04 #@! %TF.CreationDate,2019-11-07T18:59:26Z*
G75*
%MOMM*%
%FSLAX34Y34*%
%LPD*%
%INTop Copper*%
%IPPOS*%
%AMOC8*
5,1,8,0,0,1.08239X$1,22.5*%
G01*
%ADD10C,2.540000*%
%ADD11C,2.000000*%
%ADD12R,2.000000X2.000000*%
%ADD13R,1.879600X1.879600*%
%ADD14C,1.879600*%
%ADD15C,0.254000*%
%ADD16C,0.787400*%


D10*
X2712300Y1007400D03*
X2648800Y982000D03*
D11*
X2686900Y1083600D03*
D12*
X2661500Y1083600D03*
D10*
X997800Y1007400D03*
X934300Y982000D03*
D11*
X972400Y1083600D03*
D12*
X947000Y1083600D03*
D10*
X1188300Y1007400D03*
X1124800Y982000D03*
D11*
X1162900Y1083600D03*
D12*
X1137500Y1083600D03*
D10*
X1378800Y1007400D03*
X1315300Y982000D03*
D11*
X1353400Y1083600D03*
D12*
X1328000Y1083600D03*
D10*
X1569300Y1007400D03*
X1505800Y982000D03*
D11*
X1543900Y1083600D03*
D12*
X1518500Y1083600D03*
D10*
X1759800Y1007400D03*
X1696300Y982000D03*
D11*
X1734400Y1083600D03*
D12*
X1709000Y1083600D03*
D10*
X1950300Y1007400D03*
X1886800Y982000D03*
D11*
X1924900Y1083600D03*
D12*
X1899500Y1083600D03*
D10*
X2140800Y1007400D03*
X2077300Y982000D03*
D11*
X2115400Y1083600D03*
D12*
X2090000Y1083600D03*
D10*
X2331300Y1007400D03*
X2267800Y982000D03*
D11*
X2305900Y1083600D03*
D12*
X2280500Y1083600D03*
D10*
X2521800Y1007400D03*
X2458300Y982000D03*
D11*
X2496400Y1083600D03*
D12*
X2471000Y1083600D03*
D10*
X1140700Y626400D03*
X1077200Y601000D03*
D11*
X1115300Y702600D03*
D12*
X1089900Y702600D03*
D10*
X1307400Y245400D03*
X1243900Y220000D03*
D11*
X1282000Y321600D03*
D12*
X1256600Y321600D03*
D10*
X1997900Y435900D03*
X1934400Y410500D03*
D11*
X1972500Y512100D03*
D12*
X1947100Y512100D03*
D10*
X3426700Y816900D03*
X3363200Y791500D03*
D11*
X3401300Y893100D03*
D12*
X3375900Y893100D03*
D10*
X3379100Y1007400D03*
X3315600Y982000D03*
D11*
X3353700Y1083600D03*
D12*
X3328300Y1083600D03*
D10*
X1616900Y435900D03*
X1553400Y410500D03*
D11*
X1591500Y512100D03*
D12*
X1566100Y512100D03*
D10*
X878700Y626400D03*
X815200Y601000D03*
D11*
X853300Y702600D03*
D12*
X827900Y702600D03*
D10*
X2569400Y435900D03*
X2505900Y410500D03*
D11*
X2544000Y512100D03*
D12*
X2518600Y512100D03*
D10*
X831100Y245400D03*
X767600Y220000D03*
D11*
X805700Y321600D03*
D12*
X780300Y321600D03*
D10*
X2974200Y245400D03*
X2910700Y220000D03*
D11*
X2948800Y321600D03*
D12*
X2923400Y321600D03*
D10*
X1521700Y626400D03*
X1458200Y601000D03*
D11*
X1496300Y702600D03*
D12*
X1470900Y702600D03*
X2584700Y984600D03*
D11*
X2584700Y1081000D03*
D12*
X870200Y984600D03*
D11*
X870200Y1081000D03*
D12*
X1060700Y984600D03*
D11*
X1060700Y1081000D03*
D12*
X1251200Y984600D03*
D11*
X1251200Y1081000D03*
D12*
X1441700Y984600D03*
D11*
X1441700Y1081000D03*
D12*
X1632200Y984600D03*
D11*
X1632200Y1081000D03*
D12*
X1822700Y984600D03*
D11*
X1822700Y1081000D03*
D12*
X2013200Y984600D03*
D11*
X2013200Y1081000D03*
D12*
X2203700Y984600D03*
D11*
X2203700Y1081000D03*
D12*
X2394200Y984600D03*
D11*
X2394200Y1081000D03*
D12*
X1013100Y603600D03*
D11*
X1013100Y700000D03*
D12*
X1179800Y222600D03*
D11*
X1179800Y319000D03*
D10*
X2902800Y1007400D03*
X2839300Y982000D03*
D11*
X2877400Y1083600D03*
D12*
X2852000Y1083600D03*
X1870300Y413100D03*
D11*
X1870300Y509500D03*
D12*
X3299100Y794100D03*
D11*
X3299100Y890500D03*
D12*
X3251500Y984600D03*
D11*
X3251500Y1081000D03*
D12*
X1489300Y413100D03*
D11*
X1489300Y509500D03*
D12*
X751100Y603600D03*
D11*
X751100Y700000D03*
D12*
X2441800Y413100D03*
D11*
X2441800Y509500D03*
D12*
X703500Y222600D03*
D11*
X703500Y319000D03*
D12*
X2846600Y222600D03*
D11*
X2846600Y319000D03*
D12*
X1394100Y603600D03*
D11*
X1394100Y700000D03*
D12*
X2775200Y984600D03*
D11*
X2775200Y1081000D03*
D12*
X3346700Y222600D03*
D11*
X3346700Y319000D03*
D12*
X1346500Y794100D03*
D11*
X1346500Y890500D03*
D12*
X3227600Y603600D03*
D11*
X3227600Y700000D03*
D12*
X-82300Y317800D03*
D11*
X-82300Y414200D03*
D12*
X2965700Y984600D03*
D11*
X2965700Y1081000D03*
D12*
X-82300Y698800D03*
D11*
X-82300Y795200D03*
D12*
X679700Y984600D03*
D11*
X679700Y1081000D03*
D12*
X1584600Y603600D03*
D11*
X1584600Y700000D03*
D12*
X3537200Y984600D03*
D11*
X3537200Y1081000D03*
D12*
X3537200Y794100D03*
D11*
X3537200Y890500D03*
D12*
X3537200Y603600D03*
D11*
X3537200Y700000D03*
D12*
X3537200Y413100D03*
D11*
X3537200Y509500D03*
D12*
X2608500Y222600D03*
D11*
X2608500Y319000D03*
D12*
X1775100Y603600D03*
D11*
X1775100Y700000D03*
D12*
X1965600Y603600D03*
D11*
X1965600Y700000D03*
D12*
X2299000Y794100D03*
D11*
X2299000Y890500D03*
D12*
X2156100Y603600D03*
D11*
X2156100Y700000D03*
D12*
X2346600Y603600D03*
D11*
X2346600Y700000D03*
D12*
X394000Y222600D03*
D11*
X394000Y319000D03*
D12*
X108200Y413100D03*
D11*
X108200Y509500D03*
D12*
X298700Y413100D03*
D11*
X298700Y509500D03*
D12*
X489200Y413100D03*
D11*
X489200Y509500D03*
D12*
X108200Y603600D03*
D11*
X108200Y700000D03*
D12*
X298700Y603600D03*
D11*
X298700Y700000D03*
D12*
X489200Y603600D03*
D11*
X489200Y700000D03*
D12*
X108200Y794100D03*
D11*
X108200Y890500D03*
D12*
X298700Y794100D03*
D11*
X298700Y890500D03*
D12*
X489200Y794100D03*
D11*
X489200Y890500D03*
D12*
X298700Y984600D03*
D11*
X298700Y1081000D03*
D12*
X-82300Y984600D03*
D11*
X-82300Y1081000D03*
D12*
X108200Y222600D03*
D11*
X108200Y319000D03*
D12*
X108200Y984600D03*
D11*
X108200Y1081000D03*
D12*
X2537100Y603600D03*
D11*
X2537100Y700000D03*
D12*
X2870500Y794100D03*
D11*
X2870500Y890500D03*
D12*
X3156200Y222600D03*
D11*
X3156200Y319000D03*
D12*
X2251300Y413100D03*
D11*
X2251300Y509500D03*
D12*
X2060800Y413100D03*
D11*
X2060800Y509500D03*
D12*
X489200Y984600D03*
D11*
X489200Y1081000D03*
D12*
X2489500Y794100D03*
D11*
X2489500Y890500D03*
D10*
X3474300Y245400D03*
X3410800Y220000D03*
D11*
X3448900Y321600D03*
D12*
X3423500Y321600D03*
X2680000Y794100D03*
D11*
X2680000Y890500D03*
D12*
X2632300Y413100D03*
D11*
X2632300Y509500D03*
D12*
X965500Y794100D03*
D11*
X965500Y890500D03*
D12*
X2918100Y603600D03*
D11*
X2918100Y700000D03*
D12*
X1537000Y794100D03*
D11*
X1537000Y890500D03*
D12*
X3061000Y794100D03*
D11*
X3061000Y890500D03*
D12*
X3537200Y222600D03*
D11*
X3537200Y319000D03*
D12*
X1203600Y603600D03*
D11*
X1203600Y700000D03*
D12*
X2727600Y603600D03*
D11*
X2727600Y700000D03*
D12*
X798800Y413100D03*
D11*
X798800Y509500D03*
D12*
X3084800Y413100D03*
D11*
X3084800Y509500D03*
D12*
X2822800Y413100D03*
D11*
X2822800Y509500D03*
D12*
X1894100Y222600D03*
D11*
X1894100Y319000D03*
D12*
X1727500Y794100D03*
D11*
X1727500Y890500D03*
D12*
X727300Y794100D03*
D11*
X727300Y890500D03*
D12*
X2108500Y794100D03*
D11*
X2108500Y890500D03*
D12*
X3346700Y413100D03*
D11*
X3346700Y509500D03*
D12*
X1679800Y413100D03*
D11*
X1679800Y509500D03*
D12*
X1156000Y794100D03*
D11*
X1156000Y890500D03*
D12*
X941600Y222600D03*
D11*
X941600Y319000D03*
D12*
X1298800Y413100D03*
D11*
X1298800Y509500D03*
D12*
X1918000Y794100D03*
D11*
X1918000Y890500D03*
D12*
X1108300Y413100D03*
D11*
X1108300Y509500D03*
D10*
X1474100Y816900D03*
X1410600Y791500D03*
D11*
X1448700Y893100D03*
D12*
X1423300Y893100D03*
D10*
X3355200Y626400D03*
X3291700Y601000D03*
D11*
X3329800Y702600D03*
D12*
X3304400Y702600D03*
D10*
X45300Y340600D03*
X-18200Y315200D03*
D11*
X19900Y416800D03*
D12*
X-5500Y416800D03*
D10*
X3093300Y1007400D03*
X3029800Y982000D03*
D11*
X3067900Y1083600D03*
D12*
X3042500Y1083600D03*
D10*
X45300Y721600D03*
X-18200Y696200D03*
D11*
X19900Y797800D03*
D12*
X-5500Y797800D03*
D10*
X807300Y1007400D03*
X743800Y982000D03*
D11*
X781900Y1083600D03*
D12*
X756500Y1083600D03*
D10*
X1712200Y626400D03*
X1648700Y601000D03*
D11*
X1686800Y702600D03*
D12*
X1661400Y702600D03*
D10*
X3664800Y1007400D03*
X3601300Y982000D03*
D11*
X3639400Y1083600D03*
D12*
X3614000Y1083600D03*
D10*
X3664800Y816900D03*
X3601300Y791500D03*
D11*
X3639400Y893100D03*
D12*
X3614000Y893100D03*
D10*
X3664800Y626400D03*
X3601300Y601000D03*
D11*
X3639400Y702600D03*
D12*
X3614000Y702600D03*
D10*
X3664800Y435900D03*
X3601300Y410500D03*
D11*
X3639400Y512100D03*
D12*
X3614000Y512100D03*
D10*
X2736100Y245400D03*
X2672600Y220000D03*
D11*
X2710700Y321600D03*
D12*
X2685300Y321600D03*
D10*
X1902700Y626400D03*
X1839200Y601000D03*
D11*
X1877300Y702600D03*
D12*
X1851900Y702600D03*
D10*
X2093200Y626400D03*
X2029700Y601000D03*
D11*
X2067800Y702600D03*
D12*
X2042400Y702600D03*
D10*
X2426600Y816900D03*
X2363100Y791500D03*
D11*
X2401200Y893100D03*
D12*
X2375800Y893100D03*
D10*
X2283700Y626400D03*
X2220200Y601000D03*
D11*
X2258300Y702600D03*
D12*
X2232900Y702600D03*
D10*
X2474200Y626400D03*
X2410700Y601000D03*
D11*
X2448800Y702600D03*
D12*
X2423400Y702600D03*
D10*
X521600Y245400D03*
X458100Y220000D03*
D11*
X496200Y321600D03*
D12*
X470800Y321600D03*
D10*
X235800Y435900D03*
X172300Y410500D03*
D11*
X210400Y512100D03*
D12*
X185000Y512100D03*
D10*
X426300Y435900D03*
X362800Y410500D03*
D11*
X400900Y512100D03*
D12*
X375500Y512100D03*
D10*
X616800Y435900D03*
X553300Y410500D03*
D11*
X591400Y512100D03*
D12*
X566000Y512100D03*
D10*
X235800Y626400D03*
X172300Y601000D03*
D11*
X210400Y702600D03*
D12*
X185000Y702600D03*
D10*
X426300Y626400D03*
X362800Y601000D03*
D11*
X400900Y702600D03*
D12*
X375500Y702600D03*
D10*
X616800Y626400D03*
X553300Y601000D03*
D11*
X591400Y702600D03*
D12*
X566000Y702600D03*
D10*
X235800Y816900D03*
X172300Y791500D03*
D11*
X210400Y893100D03*
D12*
X185000Y893100D03*
D10*
X426300Y816900D03*
X362800Y791500D03*
D11*
X400900Y893100D03*
D12*
X375500Y893100D03*
D10*
X616800Y816900D03*
X553300Y791500D03*
D11*
X591400Y893100D03*
D12*
X566000Y893100D03*
D10*
X426300Y1007400D03*
X362800Y982000D03*
D11*
X400900Y1083600D03*
D12*
X375500Y1083600D03*
D10*
X45300Y1007400D03*
X-18200Y982000D03*
D11*
X19900Y1083600D03*
D12*
X-5500Y1083600D03*
D10*
X235800Y245400D03*
X172300Y220000D03*
D11*
X210400Y321600D03*
D12*
X185000Y321600D03*
D10*
X235800Y1007400D03*
X172300Y982000D03*
D11*
X210400Y1083600D03*
D12*
X185000Y1083600D03*
D10*
X2664700Y626400D03*
X2601200Y601000D03*
D11*
X2639300Y702600D03*
D12*
X2613900Y702600D03*
D10*
X2998100Y816900D03*
X2934600Y791500D03*
D11*
X2972700Y893100D03*
D12*
X2947300Y893100D03*
D10*
X3283800Y245400D03*
X3220300Y220000D03*
D11*
X3258400Y321600D03*
D12*
X3233000Y321600D03*
D10*
X2378900Y435900D03*
X2315400Y410500D03*
D11*
X2353500Y512100D03*
D12*
X2328100Y512100D03*
D10*
X2188400Y435900D03*
X2124900Y410500D03*
D11*
X2163000Y512100D03*
D12*
X2137600Y512100D03*
D10*
X616800Y1007400D03*
X553300Y982000D03*
D11*
X591400Y1083600D03*
D12*
X566000Y1083600D03*
D10*
X2617100Y816900D03*
X2553600Y791500D03*
D11*
X2591700Y893100D03*
D12*
X2566300Y893100D03*
D10*
X2807600Y816900D03*
X2744100Y791500D03*
D11*
X2782200Y893100D03*
D12*
X2756800Y893100D03*
D10*
X2759900Y435900D03*
X2696400Y410500D03*
D11*
X2734500Y512100D03*
D12*
X2709100Y512100D03*
D10*
X1093100Y816900D03*
X1029600Y791500D03*
D11*
X1067700Y893100D03*
D12*
X1042300Y893100D03*
D10*
X3045700Y626400D03*
X2982200Y601000D03*
D11*
X3020300Y702600D03*
D12*
X2994900Y702600D03*
D10*
X1664600Y816900D03*
X1601100Y791500D03*
D11*
X1639200Y893100D03*
D12*
X1613800Y893100D03*
D10*
X3188600Y816900D03*
X3125100Y791500D03*
D11*
X3163200Y893100D03*
D12*
X3137800Y893100D03*
D10*
X3664800Y245400D03*
X3601300Y220000D03*
D11*
X3639400Y321600D03*
D12*
X3614000Y321600D03*
D10*
X1331200Y626400D03*
X1267700Y601000D03*
D11*
X1305800Y702600D03*
D12*
X1280400Y702600D03*
D10*
X2855200Y626400D03*
X2791700Y601000D03*
D11*
X2829800Y702600D03*
D12*
X2804400Y702600D03*
D10*
X926400Y435900D03*
X862900Y410500D03*
D11*
X901000Y512100D03*
D12*
X875600Y512100D03*
D10*
X3212400Y435900D03*
X3148900Y410500D03*
D11*
X3187000Y512100D03*
D12*
X3161600Y512100D03*
D10*
X2950400Y435900D03*
X2886900Y410500D03*
D11*
X2925000Y512100D03*
D12*
X2899600Y512100D03*
D10*
X2021700Y245400D03*
X1958200Y220000D03*
D11*
X1996300Y321600D03*
D12*
X1970900Y321600D03*
D10*
X1855100Y816900D03*
X1791600Y791500D03*
D11*
X1829700Y893100D03*
D12*
X1804300Y893100D03*
D10*
X854900Y816900D03*
X791400Y791500D03*
D11*
X829500Y893100D03*
D12*
X804100Y893100D03*
D10*
X2236100Y816900D03*
X2172600Y791500D03*
D11*
X2210700Y893100D03*
D12*
X2185300Y893100D03*
D10*
X3474300Y435900D03*
X3410800Y410500D03*
D11*
X3448900Y512100D03*
D12*
X3423500Y512100D03*
D10*
X1807400Y435900D03*
X1743900Y410500D03*
D11*
X1782000Y512100D03*
D12*
X1756600Y512100D03*
D10*
X1283600Y816900D03*
X1220100Y791500D03*
D11*
X1258200Y893100D03*
D12*
X1232800Y893100D03*
D10*
X1069200Y245400D03*
X1005700Y220000D03*
D11*
X1043800Y321600D03*
D12*
X1018400Y321600D03*
D10*
X1426400Y435900D03*
X1362900Y410500D03*
D11*
X1401000Y512100D03*
D12*
X1375600Y512100D03*
D10*
X2045600Y816900D03*
X1982100Y791500D03*
D11*
X2020200Y893100D03*
D12*
X1994800Y893100D03*
D10*
X1235900Y435900D03*
X1172400Y410500D03*
D11*
X1210500Y512100D03*
D12*
X1185100Y512100D03*
D13*
X1555500Y359400D03*
D14*
X1682500Y359400D03*
X1758700Y359400D03*
X1784100Y359400D03*
X1707900Y359400D03*
X1733300Y359400D03*
X1834900Y232400D03*
X1834900Y334000D03*
X1834900Y207000D03*
X1809500Y207000D03*
X1809500Y359400D03*
X1834900Y359400D03*
X1707900Y207000D03*
X1682500Y207000D03*
X1657100Y207000D03*
X1631700Y207000D03*
X1606300Y207000D03*
X1580900Y207000D03*
X1657100Y232400D03*
X1834900Y283200D03*
X1657100Y334000D03*
X1580900Y359400D03*
X1606300Y359400D03*
X1631700Y359400D03*
X1657100Y359400D03*
X1784100Y207000D03*
X1758700Y207000D03*
X1733300Y207000D03*
X1555500Y207000D03*
X1834900Y308600D03*
X1834900Y257800D03*
D15*
X-20000Y982500D02*
X-80000Y982500D01*
X-82300Y984600D01*
X-20000Y982500D02*
X-18200Y982000D01*
X110000Y982500D02*
X170000Y982500D01*
X110000Y982500D02*
X108200Y984600D01*
X170000Y982500D02*
X172300Y982000D01*
X300000Y982500D02*
X362500Y982500D01*
X300000Y982500D02*
X298700Y984600D01*
X362500Y982500D02*
X362800Y982000D01*
X490000Y982500D02*
X552500Y982500D01*
X490000Y982500D02*
X489200Y984600D01*
X552500Y982500D02*
X553300Y982000D01*
X872500Y982500D02*
X932500Y982500D01*
X872500Y982500D02*
X870200Y984600D01*
X932500Y982500D02*
X934300Y982000D01*
X742500Y982500D02*
X680000Y982500D01*
X679700Y984600D01*
X742500Y982500D02*
X743800Y982000D01*
X1062500Y982500D02*
X1122500Y982500D01*
X1062500Y982500D02*
X1060700Y984600D01*
X1122500Y982500D02*
X1124800Y982000D01*
X1252500Y982500D02*
X1315000Y982500D01*
X1252500Y982500D02*
X1251200Y984600D01*
X1315000Y982500D02*
X1315300Y982000D01*
X1442500Y982500D02*
X1505000Y982500D01*
X1442500Y982500D02*
X1441700Y984600D01*
X1505000Y982500D02*
X1505800Y982000D01*
X1632500Y982500D02*
X1695000Y982500D01*
X1632500Y982500D02*
X1632200Y984600D01*
X1695000Y982500D02*
X1696300Y982000D01*
X1825000Y982500D02*
X1885000Y982500D01*
X1825000Y982500D02*
X1822700Y984600D01*
X1885000Y982500D02*
X1886800Y982000D01*
X2015000Y982500D02*
X2075000Y982500D01*
X2015000Y982500D02*
X2013200Y984600D01*
X2075000Y982500D02*
X2077300Y982000D01*
X2205000Y982500D02*
X2267500Y982500D01*
X2205000Y982500D02*
X2203700Y984600D01*
X2267500Y982500D02*
X2267800Y982000D01*
X2395000Y982500D02*
X2457500Y982500D01*
X2395000Y982500D02*
X2394200Y984600D01*
X2457500Y982500D02*
X2458300Y982000D01*
X2585000Y982500D02*
X2647500Y982500D01*
X2585000Y982500D02*
X2584700Y984600D01*
X2647500Y982500D02*
X2648800Y982000D01*
X2777500Y982500D02*
X2837500Y982500D01*
X2777500Y982500D02*
X2775200Y984600D01*
X2837500Y982500D02*
X2839300Y982000D01*
X2967500Y982500D02*
X3027500Y982500D01*
X2967500Y982500D02*
X2965700Y984600D01*
X3027500Y982500D02*
X3029800Y982000D01*
X3252500Y982500D02*
X3315000Y982500D01*
X3252500Y982500D02*
X3251500Y984600D01*
X3315000Y982500D02*
X3315600Y982000D01*
X3537500Y982500D02*
X3600000Y982500D01*
X3537500Y982500D02*
X3537200Y984600D01*
X3600000Y982500D02*
X3601300Y982000D01*
X3600000Y792500D02*
X3537500Y792500D01*
X3537200Y794100D01*
X3600000Y792500D02*
X3601300Y791500D01*
X3362500Y792500D02*
X3300000Y792500D01*
X3299100Y794100D01*
X3362500Y792500D02*
X3363200Y791500D01*
X3125000Y792500D02*
X3062500Y792500D01*
X3061000Y794100D01*
X3125000Y792500D02*
X3125100Y791500D01*
X2932500Y792500D02*
X2872500Y792500D01*
X2870500Y794100D01*
X2932500Y792500D02*
X2934600Y791500D01*
X2742500Y792500D02*
X2680000Y792500D01*
X2680000Y794100D01*
X2742500Y792500D02*
X2744100Y791500D01*
X2552500Y792500D02*
X2490000Y792500D01*
X2489500Y794100D01*
X2552500Y792500D02*
X2553600Y791500D01*
X2362500Y792500D02*
X2300000Y792500D01*
X2299000Y794100D01*
X2362500Y792500D02*
X2363100Y791500D01*
X2172500Y792500D02*
X2110000Y792500D01*
X2108500Y794100D01*
X2172500Y792500D02*
X2172600Y791500D01*
X1980000Y792500D02*
X1920000Y792500D01*
X1918000Y794100D01*
X1980000Y792500D02*
X1982100Y791500D01*
X1790000Y792500D02*
X1727500Y792500D01*
X1727500Y794100D01*
X1790000Y792500D02*
X1791600Y791500D01*
X1600000Y792500D02*
X1537500Y792500D01*
X1537000Y794100D01*
X1600000Y792500D02*
X1601100Y791500D01*
X1410000Y792500D02*
X1347500Y792500D01*
X1346500Y794100D01*
X1410000Y792500D02*
X1410600Y791500D01*
X1220000Y792500D02*
X1157500Y792500D01*
X1156000Y794100D01*
X1220000Y792500D02*
X1220100Y791500D01*
X1027500Y792500D02*
X967500Y792500D01*
X965500Y794100D01*
X1027500Y792500D02*
X1029600Y791500D01*
X790000Y792500D02*
X727500Y792500D01*
X727300Y794100D01*
X790000Y792500D02*
X791400Y791500D01*
X552500Y792500D02*
X490000Y792500D01*
X489200Y794100D01*
X552500Y792500D02*
X553300Y791500D01*
X362500Y792500D02*
X300000Y792500D01*
X298700Y794100D01*
X362500Y792500D02*
X362800Y791500D01*
X170000Y792500D02*
X110000Y792500D01*
X108200Y794100D01*
X170000Y792500D02*
X172300Y791500D01*
X170000Y602500D02*
X110000Y602500D01*
X108200Y603600D01*
X170000Y602500D02*
X172300Y601000D01*
X300000Y602500D02*
X362500Y602500D01*
X300000Y602500D02*
X298700Y603600D01*
X362500Y602500D02*
X362800Y601000D01*
X490000Y602500D02*
X552500Y602500D01*
X490000Y602500D02*
X489200Y603600D01*
X552500Y602500D02*
X553300Y601000D01*
X752500Y602500D02*
X815000Y602500D01*
X752500Y602500D02*
X751100Y603600D01*
X815000Y602500D02*
X815200Y601000D01*
X1015000Y602500D02*
X1075000Y602500D01*
X1015000Y602500D02*
X1013100Y603600D01*
X1075000Y602500D02*
X1077200Y601000D01*
X1205000Y602500D02*
X1267500Y602500D01*
X1205000Y602500D02*
X1203600Y603600D01*
X1267500Y602500D02*
X1267700Y601000D01*
X1395000Y602500D02*
X1457500Y602500D01*
X1395000Y602500D02*
X1394100Y603600D01*
X1457500Y602500D02*
X1458200Y601000D01*
X1585000Y602500D02*
X1647500Y602500D01*
X1585000Y602500D02*
X1584600Y603600D01*
X1647500Y602500D02*
X1648700Y601000D01*
X1777500Y602500D02*
X1837500Y602500D01*
X1777500Y602500D02*
X1775100Y603600D01*
X1837500Y602500D02*
X1839200Y601000D01*
X1967500Y602500D02*
X2027500Y602500D01*
X1967500Y602500D02*
X1965600Y603600D01*
X2027500Y602500D02*
X2029700Y601000D01*
X2157500Y602500D02*
X2220000Y602500D01*
X2157500Y602500D02*
X2156100Y603600D01*
X2220000Y602500D02*
X2220200Y601000D01*
X2347500Y602500D02*
X2410000Y602500D01*
X2347500Y602500D02*
X2346600Y603600D01*
X2410000Y602500D02*
X2410700Y601000D01*
X2537500Y602500D02*
X2600000Y602500D01*
X2537500Y602500D02*
X2537100Y603600D01*
X2600000Y602500D02*
X2601200Y601000D01*
X2730000Y602500D02*
X2790000Y602500D01*
X2730000Y602500D02*
X2727600Y603600D01*
X2790000Y602500D02*
X2791700Y601000D01*
X2920000Y602500D02*
X2980000Y602500D01*
X2920000Y602500D02*
X2918100Y603600D01*
X2980000Y602500D02*
X2982200Y601000D01*
X3230000Y602500D02*
X3290000Y602500D01*
X3230000Y602500D02*
X3227600Y603600D01*
X3290000Y602500D02*
X3291700Y601000D01*
X3537500Y602500D02*
X3600000Y602500D01*
X3537500Y602500D02*
X3537200Y603600D01*
X3600000Y602500D02*
X3601300Y601000D01*
X3600000Y412500D02*
X3537500Y412500D01*
X3537200Y413100D01*
X3600000Y412500D02*
X3601300Y410500D01*
X3410000Y412500D02*
X3347500Y412500D01*
X3346700Y413100D01*
X3410000Y412500D02*
X3410800Y410500D01*
X3147500Y412500D02*
X3085000Y412500D01*
X3084800Y413100D01*
X3147500Y412500D02*
X3148900Y410500D01*
X2885000Y412500D02*
X2825000Y412500D01*
X2822800Y413100D01*
X2885000Y412500D02*
X2886900Y410500D01*
X2695000Y412500D02*
X2632500Y412500D01*
X2632300Y413100D01*
X2695000Y412500D02*
X2696400Y410500D01*
X2505000Y412500D02*
X2442500Y412500D01*
X2441800Y413100D01*
X2505000Y412500D02*
X2505900Y410500D01*
X2315000Y412500D02*
X2252500Y412500D01*
X2251300Y413100D01*
X2315000Y412500D02*
X2315400Y410500D01*
X2122500Y412500D02*
X2062500Y412500D01*
X2060800Y413100D01*
X2122500Y412500D02*
X2124900Y410500D01*
X1932500Y412500D02*
X1872500Y412500D01*
X1870300Y413100D01*
X1932500Y412500D02*
X1934400Y410500D01*
X1742500Y412500D02*
X1680000Y412500D01*
X1679800Y413100D01*
X1742500Y412500D02*
X1743900Y410500D01*
X1552500Y412500D02*
X1490000Y412500D01*
X1489300Y413100D01*
X1552500Y412500D02*
X1553400Y410500D01*
X1362500Y412500D02*
X1300000Y412500D01*
X1298800Y413100D01*
X1362500Y412500D02*
X1362900Y410500D01*
X1170000Y412500D02*
X1110000Y412500D01*
X1108300Y413100D01*
X1170000Y412500D02*
X1172400Y410500D01*
X862500Y412500D02*
X800000Y412500D01*
X798800Y413100D01*
X862500Y412500D02*
X862900Y410500D01*
X552500Y412500D02*
X490000Y412500D01*
X489200Y413100D01*
X552500Y412500D02*
X553300Y410500D01*
X362500Y412500D02*
X300000Y412500D01*
X298700Y413100D01*
X362500Y412500D02*
X362800Y410500D01*
X170000Y412500D02*
X110000Y412500D01*
X108200Y413100D01*
X170000Y412500D02*
X172300Y410500D01*
X-20000Y317500D02*
X-80000Y317500D01*
X-82300Y317800D01*
X-20000Y317500D02*
X-18200Y315200D01*
X110000Y222500D02*
X112500Y220000D01*
X172300Y220000D01*
X110000Y222500D02*
X108200Y222600D01*
X395000Y222500D02*
X397500Y220000D01*
X458100Y220000D01*
X395000Y222500D02*
X394000Y222600D01*
X705000Y222500D02*
X707500Y220000D01*
X767600Y220000D01*
X705000Y222500D02*
X703500Y222600D01*
X942500Y222500D02*
X945000Y220000D01*
X1005700Y220000D01*
X942500Y222500D02*
X941600Y222600D01*
X1180000Y222500D02*
X1182500Y220000D01*
X1243900Y220000D01*
X1180000Y222500D02*
X1179800Y222600D01*
X1895000Y222500D02*
X1897500Y220000D01*
X1958200Y220000D01*
X1895000Y222500D02*
X1894100Y222600D01*
X2610000Y222500D02*
X2612500Y220000D01*
X2672600Y220000D01*
X2610000Y222500D02*
X2608500Y222600D01*
X2847500Y222500D02*
X2850000Y220000D01*
X2910700Y220000D01*
X2847500Y222500D02*
X2846600Y222600D01*
X3157500Y222500D02*
X3160000Y220000D01*
X3220300Y220000D01*
X3157500Y222500D02*
X3156200Y222600D01*
X3347500Y222500D02*
X3350000Y220000D01*
X3410800Y220000D01*
X3347500Y222500D02*
X3346700Y222600D01*
X3537500Y222500D02*
X3540000Y220000D01*
X3601300Y220000D01*
X3537500Y222500D02*
X3537200Y222600D01*
X1702500Y380000D02*
X1682500Y360000D01*
X1702500Y380000D02*
X1800000Y380000D01*
X1682500Y360000D02*
X1682500Y359400D01*
D16*
X1800000Y380000D03*
D15*
X1837500Y1067500D02*
X1825000Y1080000D01*
X1837500Y1067500D02*
X2000000Y1067500D01*
X2012500Y1080000D01*
X1825000Y1080000D02*
X1822700Y1081000D01*
X2012500Y1080000D02*
X2013200Y1081000D01*
X2190000Y1067500D02*
X2202500Y1080000D01*
X2190000Y1067500D02*
X2000000Y1067500D01*
X2202500Y1080000D02*
X2203700Y1081000D01*
X2380000Y1067500D02*
X2392500Y1080000D01*
X2380000Y1067500D02*
X2190000Y1067500D01*
X2392500Y1080000D02*
X2394200Y1081000D01*
X2570000Y1067500D02*
X2582500Y1080000D01*
X2570000Y1067500D02*
X2380000Y1067500D01*
X2582500Y1080000D02*
X2584700Y1081000D01*
X2762500Y1067500D02*
X2775000Y1080000D01*
X2762500Y1067500D02*
X2570000Y1067500D01*
X2775000Y1080000D02*
X2775200Y1081000D01*
X2952500Y1067500D02*
X2965000Y1080000D01*
X2952500Y1067500D02*
X2762500Y1067500D01*
X2965000Y1080000D02*
X2965700Y1081000D01*
X3237500Y1067500D02*
X3250000Y1080000D01*
X3237500Y1067500D02*
X2952500Y1067500D01*
X3250000Y1080000D02*
X3251500Y1081000D01*
X3522500Y1067500D02*
X3535000Y1080000D01*
X3522500Y1067500D02*
X3237500Y1067500D01*
X3535000Y1080000D02*
X3537200Y1081000D01*
X-67500Y1067500D02*
X-80000Y1080000D01*
X-67500Y1067500D02*
X95000Y1067500D01*
X107500Y1080000D01*
X-80000Y1080000D02*
X-82300Y1081000D01*
X107500Y1080000D02*
X108200Y1081000D01*
X285000Y1067500D02*
X297500Y1080000D01*
X285000Y1067500D02*
X95000Y1067500D01*
X297500Y1080000D02*
X298700Y1081000D01*
X475000Y1067500D02*
X487500Y1080000D01*
X475000Y1067500D02*
X285000Y1067500D01*
X487500Y1080000D02*
X489200Y1081000D01*
X665000Y1067500D02*
X677500Y1080000D01*
X665000Y1067500D02*
X475000Y1067500D01*
X677500Y1080000D02*
X679700Y1081000D01*
X857500Y1067500D02*
X870000Y1080000D01*
X857500Y1067500D02*
X665000Y1067500D01*
X870000Y1080000D02*
X870200Y1081000D01*
X1047500Y1067500D02*
X1060000Y1080000D01*
X1047500Y1067500D02*
X857500Y1067500D01*
X1060000Y1080000D02*
X1060700Y1081000D01*
X1237500Y1067500D02*
X1250000Y1080000D01*
X1237500Y1067500D02*
X1047500Y1067500D01*
X1250000Y1080000D02*
X1251200Y1081000D01*
X1427500Y1067500D02*
X1440000Y1080000D01*
X1427500Y1067500D02*
X1237500Y1067500D01*
X1440000Y1080000D02*
X1441700Y1081000D01*
X1617500Y1067500D02*
X1630000Y1080000D01*
X1617500Y1067500D02*
X1427500Y1067500D01*
X1630000Y1080000D02*
X1632200Y1081000D01*
X1810000Y1067500D02*
X1822500Y1080000D01*
X1810000Y1067500D02*
X1617500Y1067500D01*
X1822500Y1080000D02*
X1822700Y1081000D01*
X1920000Y890000D02*
X1932500Y877500D01*
X2095000Y877500D01*
X2107500Y890000D01*
X1920000Y890000D02*
X1918000Y890500D01*
X2107500Y890000D02*
X2108500Y890500D01*
X2285000Y877500D02*
X2297500Y890000D01*
X2285000Y877500D02*
X2095000Y877500D01*
X2297500Y890000D02*
X2299000Y890500D01*
X2475000Y877500D02*
X2487500Y890000D01*
X2475000Y877500D02*
X2285000Y877500D01*
X2487500Y890000D02*
X2489500Y890500D01*
X2667500Y877500D02*
X2680000Y890000D01*
X2667500Y877500D02*
X2475000Y877500D01*
X2680000Y890000D02*
X2680000Y890500D01*
X2857500Y877500D02*
X2870500Y890500D01*
X2857500Y877500D02*
X2667500Y877500D01*
X3047500Y877500D02*
X3060000Y890000D01*
X3047500Y877500D02*
X2857500Y877500D01*
X3060000Y890000D02*
X3061000Y890500D01*
X3285000Y877500D02*
X3297500Y890000D01*
X3285000Y877500D02*
X3047500Y877500D01*
X3297500Y890000D02*
X3299100Y890500D01*
X3522500Y877500D02*
X3535000Y890000D01*
X3522500Y877500D02*
X3285000Y877500D01*
X3535000Y890000D02*
X3537200Y890500D01*
X12500Y890000D02*
X-82300Y795200D01*
X12500Y890000D02*
X107500Y890000D01*
X108200Y890500D01*
X300000Y890000D02*
X312500Y877500D01*
X475000Y877500D01*
X487500Y890000D01*
X300000Y890000D02*
X298700Y890500D01*
X487500Y890000D02*
X489200Y890500D01*
X712500Y877500D02*
X725000Y890000D01*
X712500Y877500D02*
X475000Y877500D01*
X725000Y890000D02*
X727300Y890500D01*
X122500Y877500D02*
X110000Y890000D01*
X122500Y877500D02*
X312500Y877500D01*
X110000Y890000D02*
X108200Y890500D01*
X967500Y890000D02*
X980000Y877500D01*
X1142500Y877500D01*
X1155000Y890000D01*
X967500Y890000D02*
X965500Y890500D01*
X1155000Y890000D02*
X1156000Y890500D01*
X1332500Y877500D02*
X1345000Y890000D01*
X1332500Y877500D02*
X1142500Y877500D01*
X1345000Y890000D02*
X1346500Y890500D01*
X1522500Y877500D02*
X1535000Y890000D01*
X1522500Y877500D02*
X1332500Y877500D01*
X1535000Y890000D02*
X1537000Y890500D01*
X1715000Y877500D02*
X1727500Y890000D01*
X1715000Y877500D02*
X1522500Y877500D01*
X1727500Y890000D02*
X1727500Y890500D01*
X740000Y877500D02*
X727500Y890000D01*
X740000Y877500D02*
X980000Y877500D01*
X727500Y890000D02*
X727300Y890500D01*
X1905000Y877500D02*
X1918000Y890500D01*
X1905000Y877500D02*
X1715000Y877500D01*
X12500Y507500D02*
X-80000Y415000D01*
X12500Y507500D02*
X107500Y507500D01*
X-80000Y415000D02*
X-82300Y414200D01*
X107500Y507500D02*
X108200Y509500D01*
X300000Y507500D02*
X310000Y497500D01*
X477500Y497500D01*
X487500Y507500D01*
X300000Y507500D02*
X298700Y509500D01*
X487500Y507500D02*
X489200Y509500D01*
X787500Y497500D02*
X797500Y507500D01*
X787500Y497500D02*
X477500Y497500D01*
X797500Y507500D02*
X798800Y509500D01*
X120000Y497500D02*
X110000Y507500D01*
X120000Y497500D02*
X310000Y497500D01*
X110000Y507500D02*
X108200Y509500D01*
X1827500Y490000D02*
X1845000Y507500D01*
X1827500Y490000D02*
X1802500Y465000D01*
X1845000Y507500D02*
X1870000Y507500D01*
X1870300Y509500D01*
X1697500Y490000D02*
X1680000Y507500D01*
X1697500Y490000D02*
X1827500Y490000D01*
X1680000Y507500D02*
X1679800Y509500D01*
X1120000Y497500D02*
X1110000Y507500D01*
X1120000Y497500D02*
X1287500Y497500D01*
X1297500Y507500D01*
X1110000Y507500D02*
X1108300Y509500D01*
X1297500Y507500D02*
X1298800Y509500D01*
X1477500Y497500D02*
X1487500Y507500D01*
X1477500Y497500D02*
X1287500Y497500D01*
X1487500Y507500D02*
X1489300Y509500D01*
X1667500Y497500D02*
X1677500Y507500D01*
X1667500Y497500D02*
X1477500Y497500D01*
X1677500Y507500D02*
X1679800Y509500D01*
X3347500Y507500D02*
X3357500Y497500D01*
X3525000Y497500D01*
X3535000Y507500D01*
X3347500Y507500D02*
X3346700Y509500D01*
X3535000Y507500D02*
X3537200Y509500D01*
X2072500Y497500D02*
X2062500Y507500D01*
X2072500Y497500D02*
X2240000Y497500D01*
X2250000Y507500D01*
X2062500Y507500D02*
X2060800Y509500D01*
X2250000Y507500D02*
X2251300Y509500D01*
X2430000Y497500D02*
X2440000Y507500D01*
X2430000Y497500D02*
X2240000Y497500D01*
X2440000Y507500D02*
X2441800Y509500D01*
X2620000Y497500D02*
X2630000Y507500D01*
X2620000Y497500D02*
X2430000Y497500D01*
X2630000Y507500D02*
X2632300Y509500D01*
X2812500Y497500D02*
X2822500Y507500D01*
X2812500Y497500D02*
X2620000Y497500D01*
X2822500Y507500D02*
X2822800Y509500D01*
X3072500Y497500D02*
X3082500Y507500D01*
X3072500Y497500D02*
X2812500Y497500D01*
X3082500Y507500D02*
X3084800Y509500D01*
X3335000Y497500D02*
X3345000Y507500D01*
X3335000Y497500D02*
X3072500Y497500D01*
X3345000Y507500D02*
X3346700Y509500D01*
X1882500Y497500D02*
X1872500Y507500D01*
X1882500Y497500D02*
X2072500Y497500D01*
X1872500Y507500D02*
X1870300Y509500D01*
X810000Y497500D02*
X800000Y507500D01*
X810000Y497500D02*
X1120000Y497500D01*
X800000Y507500D02*
X798800Y509500D01*
D16*
X1802500Y465000D03*
D15*
X122500Y687500D02*
X110000Y700000D01*
X122500Y687500D02*
X285000Y687500D01*
X297500Y700000D01*
X110000Y700000D02*
X108200Y700000D01*
X297500Y700000D02*
X298700Y700000D01*
X475000Y687500D02*
X487500Y700000D01*
X475000Y687500D02*
X285000Y687500D01*
X487500Y700000D02*
X489200Y700000D01*
X737500Y687500D02*
X750000Y700000D01*
X737500Y687500D02*
X475000Y687500D01*
X750000Y700000D02*
X751100Y700000D01*
X1015000Y700000D02*
X1027500Y687500D01*
X1190000Y687500D01*
X1202500Y700000D01*
X1015000Y700000D02*
X1013100Y700000D01*
X1202500Y700000D02*
X1203600Y700000D01*
X1380000Y687500D02*
X1392500Y700000D01*
X1380000Y687500D02*
X1190000Y687500D01*
X1392500Y700000D02*
X1394100Y700000D01*
X1570000Y687500D02*
X1582500Y700000D01*
X1570000Y687500D02*
X1380000Y687500D01*
X1582500Y700000D02*
X1584600Y700000D01*
X1790000Y407500D02*
X1780000Y397500D01*
X1790000Y407500D02*
X1815000Y407500D01*
X1980000Y687500D02*
X1967500Y700000D01*
X1980000Y687500D02*
X2142500Y687500D01*
X2155000Y700000D01*
X1967500Y700000D02*
X1965600Y700000D01*
X2155000Y700000D02*
X2156100Y700000D01*
X2332500Y687500D02*
X2345000Y700000D01*
X2332500Y687500D02*
X2142500Y687500D01*
X2345000Y700000D02*
X2346600Y700000D01*
X2522500Y687500D02*
X2535000Y700000D01*
X2522500Y687500D02*
X2332500Y687500D01*
X2535000Y700000D02*
X2537100Y700000D01*
X2715000Y687500D02*
X2727500Y700000D01*
X2715000Y687500D02*
X2522500Y687500D01*
X2727500Y700000D02*
X2727600Y700000D01*
X2905000Y687500D02*
X2917500Y700000D01*
X2905000Y687500D02*
X2715000Y687500D01*
X2917500Y700000D02*
X2918100Y700000D01*
X3215000Y687500D02*
X3227500Y700000D01*
X3215000Y687500D02*
X2905000Y687500D01*
X3227500Y700000D02*
X3227600Y700000D01*
X3522500Y687500D02*
X3535000Y700000D01*
X3522500Y687500D02*
X3215000Y687500D01*
X3535000Y700000D02*
X3537200Y700000D01*
X1790000Y687500D02*
X1777500Y700000D01*
X1790000Y687500D02*
X1980000Y687500D01*
X1777500Y700000D02*
X1775100Y700000D01*
X1597500Y687500D02*
X1585000Y700000D01*
X1597500Y687500D02*
X1790000Y687500D01*
X1585000Y700000D02*
X1584600Y700000D01*
X765000Y687500D02*
X752500Y700000D01*
X765000Y687500D02*
X1027500Y687500D01*
X752500Y700000D02*
X751100Y700000D01*
D16*
X1780000Y397500D03*
X1815000Y407500D03*
D15*
X2608500Y319000D02*
X2620000Y307500D01*
X2835000Y307500D01*
X2845000Y317500D01*
X2846600Y319000D01*
X3157500Y317500D02*
X3167500Y307500D01*
X3335000Y307500D01*
X3345000Y317500D01*
X3157500Y317500D02*
X3156200Y319000D01*
X3345000Y317500D02*
X3346700Y319000D01*
X3525000Y307500D02*
X3535000Y317500D01*
X3525000Y307500D02*
X3335000Y307500D01*
X3535000Y317500D02*
X3537200Y319000D01*
X2857500Y307500D02*
X2847500Y317500D01*
X2857500Y307500D02*
X3167500Y307500D01*
X2847500Y317500D02*
X2846600Y319000D01*
X120000Y307500D02*
X110000Y317500D01*
X120000Y307500D02*
X382500Y307500D01*
X394000Y319000D01*
X110000Y317500D02*
X108200Y319000D01*
X703500Y319000D02*
X715000Y307500D01*
X930000Y307500D01*
X940000Y317500D01*
X941600Y319000D01*
X1167500Y307500D02*
X1177500Y317500D01*
X1167500Y307500D02*
X930000Y307500D01*
X1177500Y317500D02*
X1179800Y319000D01*
X1757500Y307500D02*
X1832500Y232500D01*
X1757500Y307500D02*
X1167500Y307500D01*
X1832500Y232500D02*
X1834900Y232400D01*
X405000Y307500D02*
X395000Y317500D01*
X405000Y307500D02*
X715000Y307500D01*
X395000Y317500D02*
X394000Y319000D01*
X2597500Y307500D02*
X2607500Y317500D01*
X2597500Y307500D02*
X1905000Y307500D01*
X1895000Y317500D01*
X2607500Y317500D02*
X2608500Y319000D01*
X1895000Y317500D02*
X1894100Y319000D01*
X3662500Y627500D02*
X3662500Y815000D01*
X3662500Y627500D02*
X3664800Y626400D01*
X3662500Y815000D02*
X3664800Y816900D01*
X3662500Y817500D02*
X3662500Y1005000D01*
X3664800Y1007400D01*
X3662500Y817500D02*
X3664800Y816900D01*
X1885000Y385000D02*
X1835000Y335000D01*
X1885000Y385000D02*
X3612500Y385000D01*
X3662500Y435000D01*
X1835000Y335000D02*
X1834900Y334000D01*
X3662500Y435000D02*
X3664800Y435900D01*
X3662500Y385000D02*
X3662500Y247500D01*
X3662500Y385000D02*
X3612500Y385000D01*
X3662500Y247500D02*
X3664800Y245400D01*
X3662500Y437500D02*
X3662500Y625000D01*
X3664800Y626400D01*
X3662500Y437500D02*
X3664800Y435900D01*
X1837500Y177500D02*
X1810000Y205000D01*
X1837500Y177500D02*
X3405000Y177500D01*
X3472500Y245000D01*
X1810000Y205000D02*
X1809500Y207000D01*
X3472500Y245000D02*
X3474300Y245400D01*
X1807500Y357500D02*
X1767500Y317500D01*
X1307500Y317500D01*
X1287500Y337500D01*
X625000Y337500D01*
X605000Y317500D01*
X602500Y317500D01*
X1807500Y357500D02*
X1809500Y359400D01*
D16*
X602500Y317500D03*
D15*
X1752500Y297500D02*
X1762500Y287500D01*
X1752500Y297500D02*
X297500Y297500D01*
X247500Y247500D01*
X237500Y247500D01*
X235800Y245400D01*
D16*
X1762500Y287500D03*
D15*
X1992500Y465000D02*
X2017500Y490000D01*
X2160000Y490000D01*
X2185000Y465000D01*
X2185000Y437500D01*
X2187500Y437500D01*
X2188400Y435900D01*
D16*
X1992500Y465000D03*
D15*
X1877500Y202500D02*
X1870000Y195000D01*
X1877500Y202500D02*
X2145000Y202500D01*
D16*
X1870000Y195000D03*
X2145000Y202500D03*
D15*
X1702500Y427500D02*
X1697500Y422500D01*
X1702500Y427500D02*
X1790000Y427500D01*
X1800000Y417500D01*
X1847500Y417500D01*
X1857500Y427500D01*
X1982500Y427500D01*
X1992500Y417500D01*
X2037500Y417500D01*
X2047500Y427500D01*
X2172500Y427500D01*
X2182500Y417500D01*
X2230000Y417500D01*
X2240000Y427500D01*
X2362500Y427500D01*
X2372500Y417500D01*
X2420000Y417500D01*
X2435000Y432500D01*
X2565000Y432500D01*
X2567500Y435000D01*
X2569400Y435900D01*
D16*
X1697500Y422500D03*
D15*
X1660000Y387500D02*
X1632500Y360000D01*
X1660000Y387500D02*
X1797500Y387500D01*
X1802500Y392500D01*
X2715000Y392500D01*
X2757500Y435000D01*
X1632500Y360000D02*
X1631700Y359400D01*
X2757500Y435000D02*
X2759900Y435900D01*
X1732500Y582500D02*
X1662500Y512500D01*
X1732500Y582500D02*
X3002500Y582500D01*
X3045000Y625000D01*
X3045700Y626400D01*
D16*
X1662500Y512500D03*
D15*
X1607500Y697500D02*
X1682500Y772500D01*
X3145000Y772500D01*
X3187500Y815000D01*
X3188600Y816900D01*
D16*
X1607500Y697500D03*
D15*
X1655000Y332500D02*
X1647500Y325000D01*
X1307500Y325000D01*
X1265000Y367500D01*
X627500Y367500D01*
X615000Y380000D01*
X95000Y380000D01*
X57500Y342500D01*
X47500Y342500D01*
X1655000Y332500D02*
X1657100Y334000D01*
X47500Y342500D02*
X45300Y340600D01*
X1612500Y527500D02*
X1710000Y625000D01*
X1712200Y626400D01*
D16*
X1612500Y527500D03*
D15*
X1592500Y245000D02*
X1630000Y207500D01*
X1592500Y245000D02*
X1307500Y245000D01*
X1630000Y207500D02*
X1631700Y207000D01*
X1307500Y245000D02*
X1307400Y245400D01*
X1642500Y192500D02*
X1655000Y205000D01*
X1642500Y192500D02*
X1522500Y192500D01*
X1487500Y227500D01*
X1260000Y227500D01*
X1242500Y245000D01*
X1070000Y245000D01*
X1655000Y205000D02*
X1657100Y207000D01*
X1070000Y245000D02*
X1069200Y245400D01*
X1655000Y177500D02*
X1682500Y205000D01*
X1655000Y177500D02*
X900000Y177500D01*
X832500Y245000D01*
X1682500Y207000D02*
X1682500Y205000D01*
X832500Y245000D02*
X831100Y245400D01*
X-20000Y697500D02*
X-80000Y697500D01*
X-82300Y698800D01*
X-20000Y697500D02*
X-18200Y696200D01*
M02*
