G04 EAGLE Gerber RS-274X export*
G04 #@! %TF.Part,Single*
G04 #@! %TF.FileFunction,Soldermask,Top,1*
G04 #@! %TF.FilePolarity,Positive*
G04 #@! %TF.GenerationSoftware,Autodesk,EAGLE,9.5.1*
G04 #@! %TF.CreationDate,2019-11-07T18:59:26Z*
G75*
%MOMM*%
%FSLAX34Y34*%
%LPD*%
%INSoldermask Top*%
%IPPOS*%
%AMOC8*
5,1,8,0,0,1.08239X$1,22.5*%
G01*
%ADD10C,4.203200*%
%ADD11C,1.903200*%
%ADD12C,2.743200*%
%ADD13C,2.203200*%
%ADD14R,2.203200X2.203200*%
%ADD15C,3.253200*%
%ADD16R,2.082800X2.082800*%
%ADD17C,2.082800*%
%ADD18C,0.990600*%


D10*
X2674200Y1032800D03*
D11*
X2725000Y1032800D03*
X2623400Y1032800D03*
D12*
X2712300Y1007400D03*
X2648800Y982000D03*
D13*
X2686900Y1083600D03*
D14*
X2661500Y1083600D03*
D10*
X959700Y1032800D03*
D11*
X1010500Y1032800D03*
X908900Y1032800D03*
D12*
X997800Y1007400D03*
X934300Y982000D03*
D13*
X972400Y1083600D03*
D14*
X947000Y1083600D03*
D10*
X1150200Y1032800D03*
D11*
X1201000Y1032800D03*
X1099400Y1032800D03*
D12*
X1188300Y1007400D03*
X1124800Y982000D03*
D13*
X1162900Y1083600D03*
D14*
X1137500Y1083600D03*
D10*
X1340700Y1032800D03*
D11*
X1391500Y1032800D03*
X1289900Y1032800D03*
D12*
X1378800Y1007400D03*
X1315300Y982000D03*
D13*
X1353400Y1083600D03*
D14*
X1328000Y1083600D03*
D10*
X1531200Y1032800D03*
D11*
X1582000Y1032800D03*
X1480400Y1032800D03*
D12*
X1569300Y1007400D03*
X1505800Y982000D03*
D13*
X1543900Y1083600D03*
D14*
X1518500Y1083600D03*
D10*
X1721700Y1032800D03*
D11*
X1772500Y1032800D03*
X1670900Y1032800D03*
D12*
X1759800Y1007400D03*
X1696300Y982000D03*
D13*
X1734400Y1083600D03*
D14*
X1709000Y1083600D03*
D10*
X1912200Y1032800D03*
D11*
X1963000Y1032800D03*
X1861400Y1032800D03*
D12*
X1950300Y1007400D03*
X1886800Y982000D03*
D13*
X1924900Y1083600D03*
D14*
X1899500Y1083600D03*
D10*
X2102700Y1032800D03*
D11*
X2153500Y1032800D03*
X2051900Y1032800D03*
D12*
X2140800Y1007400D03*
X2077300Y982000D03*
D13*
X2115400Y1083600D03*
D14*
X2090000Y1083600D03*
D10*
X2293200Y1032800D03*
D11*
X2344000Y1032800D03*
X2242400Y1032800D03*
D12*
X2331300Y1007400D03*
X2267800Y982000D03*
D13*
X2305900Y1083600D03*
D14*
X2280500Y1083600D03*
D10*
X2483700Y1032800D03*
D11*
X2534500Y1032800D03*
X2432900Y1032800D03*
D12*
X2521800Y1007400D03*
X2458300Y982000D03*
D13*
X2496400Y1083600D03*
D14*
X2471000Y1083600D03*
D10*
X1102600Y651800D03*
D11*
X1153400Y651800D03*
X1051800Y651800D03*
D12*
X1140700Y626400D03*
X1077200Y601000D03*
D13*
X1115300Y702600D03*
D14*
X1089900Y702600D03*
D10*
X1269300Y270800D03*
D11*
X1320100Y270800D03*
X1218500Y270800D03*
D12*
X1307400Y245400D03*
X1243900Y220000D03*
D13*
X1282000Y321600D03*
D14*
X1256600Y321600D03*
D10*
X1959800Y461300D03*
D11*
X2010600Y461300D03*
X1909000Y461300D03*
D12*
X1997900Y435900D03*
X1934400Y410500D03*
D13*
X1972500Y512100D03*
D14*
X1947100Y512100D03*
D10*
X3388600Y842300D03*
D11*
X3439400Y842300D03*
X3337800Y842300D03*
D12*
X3426700Y816900D03*
X3363200Y791500D03*
D13*
X3401300Y893100D03*
D14*
X3375900Y893100D03*
D10*
X3341000Y1032800D03*
D11*
X3391800Y1032800D03*
X3290200Y1032800D03*
D15*
X3460000Y962800D03*
X3222000Y962800D03*
D10*
X3460000Y1115200D03*
X3222000Y1115200D03*
D12*
X3379100Y1007400D03*
X3315600Y982000D03*
D13*
X3353700Y1083600D03*
D14*
X3328300Y1083600D03*
D10*
X1578800Y461300D03*
D11*
X1629600Y461300D03*
X1528000Y461300D03*
D12*
X1616900Y435900D03*
X1553400Y410500D03*
D13*
X1591500Y512100D03*
D14*
X1566100Y512100D03*
D10*
X840600Y651800D03*
D11*
X891400Y651800D03*
X789800Y651800D03*
D12*
X878700Y626400D03*
X815200Y601000D03*
D13*
X853300Y702600D03*
D14*
X827900Y702600D03*
D10*
X2531300Y461300D03*
D11*
X2582100Y461300D03*
X2480500Y461300D03*
D12*
X2569400Y435900D03*
X2505900Y410500D03*
D13*
X2544000Y512100D03*
D14*
X2518600Y512100D03*
D10*
X793000Y270800D03*
D11*
X843800Y270800D03*
X742200Y270800D03*
D12*
X831100Y245400D03*
X767600Y220000D03*
D13*
X805700Y321600D03*
D14*
X780300Y321600D03*
D10*
X2936100Y270800D03*
D11*
X2986900Y270800D03*
X2885300Y270800D03*
D12*
X2974200Y245400D03*
X2910700Y220000D03*
D13*
X2948800Y321600D03*
D14*
X2923400Y321600D03*
D10*
X1483600Y651800D03*
D11*
X1534400Y651800D03*
X1432800Y651800D03*
D12*
X1521700Y626400D03*
X1458200Y601000D03*
D13*
X1496300Y702600D03*
D14*
X1470900Y702600D03*
X2584700Y984600D03*
D13*
X2584700Y1081000D03*
D14*
X870200Y984600D03*
D13*
X870200Y1081000D03*
D14*
X1060700Y984600D03*
D13*
X1060700Y1081000D03*
D14*
X1251200Y984600D03*
D13*
X1251200Y1081000D03*
D14*
X1441700Y984600D03*
D13*
X1441700Y1081000D03*
D14*
X1632200Y984600D03*
D13*
X1632200Y1081000D03*
D14*
X1822700Y984600D03*
D13*
X1822700Y1081000D03*
D14*
X2013200Y984600D03*
D13*
X2013200Y1081000D03*
D14*
X2203700Y984600D03*
D13*
X2203700Y1081000D03*
D14*
X2394200Y984600D03*
D13*
X2394200Y1081000D03*
D14*
X1013100Y603600D03*
D13*
X1013100Y700000D03*
D14*
X1179800Y222600D03*
D13*
X1179800Y319000D03*
D10*
X2864700Y1032800D03*
D11*
X2915500Y1032800D03*
X2813900Y1032800D03*
D12*
X2902800Y1007400D03*
X2839300Y982000D03*
D13*
X2877400Y1083600D03*
D14*
X2852000Y1083600D03*
X1870300Y413100D03*
D13*
X1870300Y509500D03*
D14*
X3299100Y794100D03*
D13*
X3299100Y890500D03*
D14*
X3251500Y984600D03*
D13*
X3251500Y1081000D03*
D14*
X1489300Y413100D03*
D13*
X1489300Y509500D03*
D14*
X751100Y603600D03*
D13*
X751100Y700000D03*
D14*
X2441800Y413100D03*
D13*
X2441800Y509500D03*
D14*
X703500Y222600D03*
D13*
X703500Y319000D03*
D14*
X2846600Y222600D03*
D13*
X2846600Y319000D03*
D14*
X1394100Y603600D03*
D13*
X1394100Y700000D03*
D14*
X2775200Y984600D03*
D13*
X2775200Y1081000D03*
D14*
X3346700Y222600D03*
D13*
X3346700Y319000D03*
D14*
X1346500Y794100D03*
D13*
X1346500Y890500D03*
D14*
X3227600Y603600D03*
D13*
X3227600Y700000D03*
D14*
X-82300Y317800D03*
D13*
X-82300Y414200D03*
D14*
X2965700Y984600D03*
D13*
X2965700Y1081000D03*
D14*
X-82300Y698800D03*
D13*
X-82300Y795200D03*
D14*
X679700Y984600D03*
D13*
X679700Y1081000D03*
D14*
X1584600Y603600D03*
D13*
X1584600Y700000D03*
D14*
X3537200Y984600D03*
D13*
X3537200Y1081000D03*
D14*
X3537200Y794100D03*
D13*
X3537200Y890500D03*
D14*
X3537200Y603600D03*
D13*
X3537200Y700000D03*
D14*
X3537200Y413100D03*
D13*
X3537200Y509500D03*
D14*
X2608500Y222600D03*
D13*
X2608500Y319000D03*
D14*
X1775100Y603600D03*
D13*
X1775100Y700000D03*
D14*
X1965600Y603600D03*
D13*
X1965600Y700000D03*
D14*
X2299000Y794100D03*
D13*
X2299000Y890500D03*
D14*
X2156100Y603600D03*
D13*
X2156100Y700000D03*
D14*
X2346600Y603600D03*
D13*
X2346600Y700000D03*
D14*
X394000Y222600D03*
D13*
X394000Y319000D03*
D14*
X108200Y413100D03*
D13*
X108200Y509500D03*
D14*
X298700Y413100D03*
D13*
X298700Y509500D03*
D14*
X489200Y413100D03*
D13*
X489200Y509500D03*
D14*
X108200Y603600D03*
D13*
X108200Y700000D03*
D14*
X298700Y603600D03*
D13*
X298700Y700000D03*
D14*
X489200Y603600D03*
D13*
X489200Y700000D03*
D14*
X108200Y794100D03*
D13*
X108200Y890500D03*
D14*
X298700Y794100D03*
D13*
X298700Y890500D03*
D14*
X489200Y794100D03*
D13*
X489200Y890500D03*
D14*
X298700Y984600D03*
D13*
X298700Y1081000D03*
D14*
X-82300Y984600D03*
D13*
X-82300Y1081000D03*
D14*
X108200Y222600D03*
D13*
X108200Y319000D03*
D14*
X108200Y984600D03*
D13*
X108200Y1081000D03*
D14*
X2537100Y603600D03*
D13*
X2537100Y700000D03*
D14*
X2870500Y794100D03*
D13*
X2870500Y890500D03*
D14*
X3156200Y222600D03*
D13*
X3156200Y319000D03*
D14*
X2251300Y413100D03*
D13*
X2251300Y509500D03*
D14*
X2060800Y413100D03*
D13*
X2060800Y509500D03*
D14*
X489200Y984600D03*
D13*
X489200Y1081000D03*
D14*
X2489500Y794100D03*
D13*
X2489500Y890500D03*
D10*
X3436200Y270800D03*
D11*
X3487000Y270800D03*
X3385400Y270800D03*
D12*
X3474300Y245400D03*
X3410800Y220000D03*
D13*
X3448900Y321600D03*
D14*
X3423500Y321600D03*
X2680000Y794100D03*
D13*
X2680000Y890500D03*
D14*
X2632300Y413100D03*
D13*
X2632300Y509500D03*
D14*
X965500Y794100D03*
D13*
X965500Y890500D03*
D14*
X2918100Y603600D03*
D13*
X2918100Y700000D03*
D14*
X1537000Y794100D03*
D13*
X1537000Y890500D03*
D14*
X3061000Y794100D03*
D13*
X3061000Y890500D03*
D14*
X3537200Y222600D03*
D13*
X3537200Y319000D03*
D14*
X1203600Y603600D03*
D13*
X1203600Y700000D03*
D14*
X2727600Y603600D03*
D13*
X2727600Y700000D03*
D14*
X798800Y413100D03*
D13*
X798800Y509500D03*
D14*
X3084800Y413100D03*
D13*
X3084800Y509500D03*
D14*
X2822800Y413100D03*
D13*
X2822800Y509500D03*
D14*
X1894100Y222600D03*
D13*
X1894100Y319000D03*
D14*
X1727500Y794100D03*
D13*
X1727500Y890500D03*
D14*
X727300Y794100D03*
D13*
X727300Y890500D03*
D14*
X2108500Y794100D03*
D13*
X2108500Y890500D03*
D14*
X3346700Y413100D03*
D13*
X3346700Y509500D03*
D14*
X1679800Y413100D03*
D13*
X1679800Y509500D03*
D14*
X1156000Y794100D03*
D13*
X1156000Y890500D03*
D14*
X941600Y222600D03*
D13*
X941600Y319000D03*
D14*
X1298800Y413100D03*
D13*
X1298800Y509500D03*
D14*
X1918000Y794100D03*
D13*
X1918000Y890500D03*
D14*
X1108300Y413100D03*
D13*
X1108300Y509500D03*
D10*
X1436000Y842300D03*
D11*
X1486800Y842300D03*
X1385200Y842300D03*
D12*
X1474100Y816900D03*
X1410600Y791500D03*
D13*
X1448700Y893100D03*
D14*
X1423300Y893100D03*
D10*
X3317100Y651800D03*
D11*
X3367900Y651800D03*
X3266300Y651800D03*
D15*
X3436100Y581800D03*
X3198100Y581800D03*
D10*
X3436100Y734200D03*
X3198100Y734200D03*
D12*
X3355200Y626400D03*
X3291700Y601000D03*
D13*
X3329800Y702600D03*
D14*
X3304400Y702600D03*
D10*
X7200Y366000D03*
D11*
X58000Y366000D03*
X-43600Y366000D03*
D12*
X45300Y340600D03*
X-18200Y315200D03*
D13*
X19900Y416800D03*
D14*
X-5500Y416800D03*
D10*
X3055200Y1032800D03*
D11*
X3106000Y1032800D03*
X3004400Y1032800D03*
D12*
X3093300Y1007400D03*
X3029800Y982000D03*
D13*
X3067900Y1083600D03*
D14*
X3042500Y1083600D03*
D10*
X7200Y747000D03*
D11*
X58000Y747000D03*
X-43600Y747000D03*
D12*
X45300Y721600D03*
X-18200Y696200D03*
D13*
X19900Y797800D03*
D14*
X-5500Y797800D03*
D10*
X769200Y1032800D03*
D11*
X820000Y1032800D03*
X718400Y1032800D03*
D12*
X807300Y1007400D03*
X743800Y982000D03*
D13*
X781900Y1083600D03*
D14*
X756500Y1083600D03*
D10*
X1674100Y651800D03*
D11*
X1724900Y651800D03*
X1623300Y651800D03*
D12*
X1712200Y626400D03*
X1648700Y601000D03*
D13*
X1686800Y702600D03*
D14*
X1661400Y702600D03*
D10*
X3626700Y1032800D03*
D11*
X3677500Y1032800D03*
X3575900Y1032800D03*
D12*
X3664800Y1007400D03*
X3601300Y982000D03*
D13*
X3639400Y1083600D03*
D14*
X3614000Y1083600D03*
D10*
X3626700Y842300D03*
D11*
X3677500Y842300D03*
X3575900Y842300D03*
D12*
X3664800Y816900D03*
X3601300Y791500D03*
D13*
X3639400Y893100D03*
D14*
X3614000Y893100D03*
D10*
X3626700Y651800D03*
D11*
X3677500Y651800D03*
X3575900Y651800D03*
D12*
X3664800Y626400D03*
X3601300Y601000D03*
D13*
X3639400Y702600D03*
D14*
X3614000Y702600D03*
D10*
X3626700Y461300D03*
D11*
X3677500Y461300D03*
X3575900Y461300D03*
D12*
X3664800Y435900D03*
X3601300Y410500D03*
D13*
X3639400Y512100D03*
D14*
X3614000Y512100D03*
D10*
X2698000Y270800D03*
D11*
X2748800Y270800D03*
X2647200Y270800D03*
D12*
X2736100Y245400D03*
X2672600Y220000D03*
D13*
X2710700Y321600D03*
D14*
X2685300Y321600D03*
D10*
X1864600Y651800D03*
D11*
X1915400Y651800D03*
X1813800Y651800D03*
D12*
X1902700Y626400D03*
X1839200Y601000D03*
D13*
X1877300Y702600D03*
D14*
X1851900Y702600D03*
D10*
X2055100Y651800D03*
D11*
X2105900Y651800D03*
X2004300Y651800D03*
D12*
X2093200Y626400D03*
X2029700Y601000D03*
D13*
X2067800Y702600D03*
D14*
X2042400Y702600D03*
D10*
X2388500Y842300D03*
D11*
X2439300Y842300D03*
X2337700Y842300D03*
D12*
X2426600Y816900D03*
X2363100Y791500D03*
D13*
X2401200Y893100D03*
D14*
X2375800Y893100D03*
D10*
X2245600Y651800D03*
D11*
X2296400Y651800D03*
X2194800Y651800D03*
D12*
X2283700Y626400D03*
X2220200Y601000D03*
D13*
X2258300Y702600D03*
D14*
X2232900Y702600D03*
D10*
X2436100Y651800D03*
D11*
X2486900Y651800D03*
X2385300Y651800D03*
D12*
X2474200Y626400D03*
X2410700Y601000D03*
D13*
X2448800Y702600D03*
D14*
X2423400Y702600D03*
D10*
X483500Y270800D03*
D11*
X534300Y270800D03*
X432700Y270800D03*
D15*
X602500Y200800D03*
X364500Y200800D03*
D10*
X602500Y353200D03*
X364500Y353200D03*
D12*
X521600Y245400D03*
X458100Y220000D03*
D13*
X496200Y321600D03*
D14*
X470800Y321600D03*
D10*
X197700Y461300D03*
D11*
X248500Y461300D03*
X146900Y461300D03*
D12*
X235800Y435900D03*
X172300Y410500D03*
D13*
X210400Y512100D03*
D14*
X185000Y512100D03*
D10*
X388200Y461300D03*
D11*
X439000Y461300D03*
X337400Y461300D03*
D12*
X426300Y435900D03*
X362800Y410500D03*
D13*
X400900Y512100D03*
D14*
X375500Y512100D03*
D10*
X578700Y461300D03*
D11*
X629500Y461300D03*
X527900Y461300D03*
D12*
X616800Y435900D03*
X553300Y410500D03*
D13*
X591400Y512100D03*
D14*
X566000Y512100D03*
D10*
X197700Y651800D03*
D11*
X248500Y651800D03*
X146900Y651800D03*
D12*
X235800Y626400D03*
X172300Y601000D03*
D13*
X210400Y702600D03*
D14*
X185000Y702600D03*
D10*
X388200Y651800D03*
D11*
X439000Y651800D03*
X337400Y651800D03*
D12*
X426300Y626400D03*
X362800Y601000D03*
D13*
X400900Y702600D03*
D14*
X375500Y702600D03*
D10*
X578700Y651800D03*
D11*
X629500Y651800D03*
X527900Y651800D03*
D12*
X616800Y626400D03*
X553300Y601000D03*
D13*
X591400Y702600D03*
D14*
X566000Y702600D03*
D10*
X197700Y842300D03*
D11*
X248500Y842300D03*
X146900Y842300D03*
D12*
X235800Y816900D03*
X172300Y791500D03*
D13*
X210400Y893100D03*
D14*
X185000Y893100D03*
D10*
X388200Y842300D03*
D11*
X439000Y842300D03*
X337400Y842300D03*
D12*
X426300Y816900D03*
X362800Y791500D03*
D13*
X400900Y893100D03*
D14*
X375500Y893100D03*
D10*
X578700Y842300D03*
D11*
X629500Y842300D03*
X527900Y842300D03*
D12*
X616800Y816900D03*
X553300Y791500D03*
D13*
X591400Y893100D03*
D14*
X566000Y893100D03*
D10*
X388200Y1032800D03*
D11*
X439000Y1032800D03*
X337400Y1032800D03*
D12*
X426300Y1007400D03*
X362800Y982000D03*
D13*
X400900Y1083600D03*
D14*
X375500Y1083600D03*
D10*
X7200Y1032800D03*
D11*
X58000Y1032800D03*
X-43600Y1032800D03*
D12*
X45300Y1007400D03*
X-18200Y982000D03*
D13*
X19900Y1083600D03*
D14*
X-5500Y1083600D03*
D10*
X197700Y270800D03*
D11*
X248500Y270800D03*
X146900Y270800D03*
D12*
X235800Y245400D03*
X172300Y220000D03*
D13*
X210400Y321600D03*
D14*
X185000Y321600D03*
D10*
X197700Y1032800D03*
D11*
X248500Y1032800D03*
X146900Y1032800D03*
D12*
X235800Y1007400D03*
X172300Y982000D03*
D13*
X210400Y1083600D03*
D14*
X185000Y1083600D03*
D10*
X2626600Y651800D03*
D11*
X2677400Y651800D03*
X2575800Y651800D03*
D12*
X2664700Y626400D03*
X2601200Y601000D03*
D13*
X2639300Y702600D03*
D14*
X2613900Y702600D03*
D10*
X2960000Y842300D03*
D11*
X3010800Y842300D03*
X2909200Y842300D03*
D12*
X2998100Y816900D03*
X2934600Y791500D03*
D13*
X2972700Y893100D03*
D14*
X2947300Y893100D03*
D10*
X3245700Y270800D03*
D11*
X3296500Y270800D03*
X3194900Y270800D03*
D12*
X3283800Y245400D03*
X3220300Y220000D03*
D13*
X3258400Y321600D03*
D14*
X3233000Y321600D03*
D10*
X2340800Y461300D03*
D11*
X2391600Y461300D03*
X2290000Y461300D03*
D12*
X2378900Y435900D03*
X2315400Y410500D03*
D13*
X2353500Y512100D03*
D14*
X2328100Y512100D03*
D10*
X2150300Y461300D03*
D11*
X2201100Y461300D03*
X2099500Y461300D03*
D12*
X2188400Y435900D03*
X2124900Y410500D03*
D13*
X2163000Y512100D03*
D14*
X2137600Y512100D03*
D10*
X578700Y1032800D03*
D11*
X629500Y1032800D03*
X527900Y1032800D03*
D12*
X616800Y1007400D03*
X553300Y982000D03*
D13*
X591400Y1083600D03*
D14*
X566000Y1083600D03*
D10*
X2579000Y842300D03*
D11*
X2629800Y842300D03*
X2528200Y842300D03*
D12*
X2617100Y816900D03*
X2553600Y791500D03*
D13*
X2591700Y893100D03*
D14*
X2566300Y893100D03*
D10*
X2769500Y842300D03*
D11*
X2820300Y842300D03*
X2718700Y842300D03*
D12*
X2807600Y816900D03*
X2744100Y791500D03*
D13*
X2782200Y893100D03*
D14*
X2756800Y893100D03*
D10*
X2721800Y461300D03*
D11*
X2772600Y461300D03*
X2671000Y461300D03*
D12*
X2759900Y435900D03*
X2696400Y410500D03*
D13*
X2734500Y512100D03*
D14*
X2709100Y512100D03*
D10*
X1055000Y842300D03*
D11*
X1105800Y842300D03*
X1004200Y842300D03*
D12*
X1093100Y816900D03*
X1029600Y791500D03*
D13*
X1067700Y893100D03*
D14*
X1042300Y893100D03*
D10*
X3007600Y651800D03*
D11*
X3058400Y651800D03*
X2956800Y651800D03*
D12*
X3045700Y626400D03*
X2982200Y601000D03*
D13*
X3020300Y702600D03*
D14*
X2994900Y702600D03*
D10*
X1626500Y842300D03*
D11*
X1677300Y842300D03*
X1575700Y842300D03*
D12*
X1664600Y816900D03*
X1601100Y791500D03*
D13*
X1639200Y893100D03*
D14*
X1613800Y893100D03*
D10*
X3150500Y842300D03*
D11*
X3201300Y842300D03*
X3099700Y842300D03*
D12*
X3188600Y816900D03*
X3125100Y791500D03*
D13*
X3163200Y893100D03*
D14*
X3137800Y893100D03*
D10*
X3626700Y270800D03*
D11*
X3677500Y270800D03*
X3575900Y270800D03*
D12*
X3664800Y245400D03*
X3601300Y220000D03*
D13*
X3639400Y321600D03*
D14*
X3614000Y321600D03*
D10*
X1293100Y651800D03*
D11*
X1343900Y651800D03*
X1242300Y651800D03*
D12*
X1331200Y626400D03*
X1267700Y601000D03*
D13*
X1305800Y702600D03*
D14*
X1280400Y702600D03*
D10*
X2817100Y651800D03*
D11*
X2867900Y651800D03*
X2766300Y651800D03*
D12*
X2855200Y626400D03*
X2791700Y601000D03*
D13*
X2829800Y702600D03*
D14*
X2804400Y702600D03*
D10*
X888300Y461300D03*
D11*
X939100Y461300D03*
X837500Y461300D03*
D15*
X1007300Y391300D03*
X769300Y391300D03*
D10*
X1007300Y543700D03*
X769300Y543700D03*
D12*
X926400Y435900D03*
X862900Y410500D03*
D13*
X901000Y512100D03*
D14*
X875600Y512100D03*
D10*
X3174300Y461300D03*
D11*
X3225100Y461300D03*
X3123500Y461300D03*
D12*
X3212400Y435900D03*
X3148900Y410500D03*
D13*
X3187000Y512100D03*
D14*
X3161600Y512100D03*
D10*
X2912300Y461300D03*
D11*
X2963100Y461300D03*
X2861500Y461300D03*
D12*
X2950400Y435900D03*
X2886900Y410500D03*
D13*
X2925000Y512100D03*
D14*
X2899600Y512100D03*
D10*
X1983600Y270800D03*
D11*
X2034400Y270800D03*
X1932800Y270800D03*
D15*
X2483600Y200800D03*
X1483600Y200800D03*
D10*
X2483600Y353200D03*
X1483600Y353200D03*
D12*
X2021700Y245400D03*
X1958200Y220000D03*
D13*
X1996300Y321600D03*
D14*
X1970900Y321600D03*
D10*
X1817000Y842300D03*
D11*
X1867800Y842300D03*
X1766200Y842300D03*
D12*
X1855100Y816900D03*
X1791600Y791500D03*
D13*
X1829700Y893100D03*
D14*
X1804300Y893100D03*
D10*
X816800Y842300D03*
D11*
X867600Y842300D03*
X766000Y842300D03*
D12*
X854900Y816900D03*
X791400Y791500D03*
D13*
X829500Y893100D03*
D14*
X804100Y893100D03*
D10*
X2198000Y842300D03*
D11*
X2248800Y842300D03*
X2147200Y842300D03*
D12*
X2236100Y816900D03*
X2172600Y791500D03*
D13*
X2210700Y893100D03*
D14*
X2185300Y893100D03*
D10*
X3436200Y461300D03*
D11*
X3487000Y461300D03*
X3385400Y461300D03*
D12*
X3474300Y435900D03*
X3410800Y410500D03*
D13*
X3448900Y512100D03*
D14*
X3423500Y512100D03*
D10*
X1769300Y461300D03*
D11*
X1820100Y461300D03*
X1718500Y461300D03*
D12*
X1807400Y435900D03*
X1743900Y410500D03*
D13*
X1782000Y512100D03*
D14*
X1756600Y512100D03*
D10*
X1245500Y842300D03*
D11*
X1296300Y842300D03*
X1194700Y842300D03*
D12*
X1283600Y816900D03*
X1220100Y791500D03*
D13*
X1258200Y893100D03*
D14*
X1232800Y893100D03*
D10*
X1031100Y270800D03*
D11*
X1081900Y270800D03*
X980300Y270800D03*
D12*
X1069200Y245400D03*
X1005700Y220000D03*
D13*
X1043800Y321600D03*
D14*
X1018400Y321600D03*
D10*
X1388300Y461300D03*
D11*
X1439100Y461300D03*
X1337500Y461300D03*
D12*
X1426400Y435900D03*
X1362900Y410500D03*
D13*
X1401000Y512100D03*
D14*
X1375600Y512100D03*
D10*
X2007500Y842300D03*
D11*
X2058300Y842300D03*
X1956700Y842300D03*
D12*
X2045600Y816900D03*
X1982100Y791500D03*
D13*
X2020200Y893100D03*
D14*
X1994800Y893100D03*
D10*
X1197800Y461300D03*
D11*
X1248600Y461300D03*
X1147000Y461300D03*
D12*
X1235900Y435900D03*
X1172400Y410500D03*
D13*
X1210500Y512100D03*
D14*
X1185100Y512100D03*
D16*
X1555500Y359400D03*
D17*
X1682500Y359400D03*
X1758700Y359400D03*
X1784100Y359400D03*
X1707900Y359400D03*
X1733300Y359400D03*
X1834900Y232400D03*
X1834900Y334000D03*
X1834900Y207000D03*
X1809500Y207000D03*
X1809500Y359400D03*
X1834900Y359400D03*
X1707900Y207000D03*
X1682500Y207000D03*
X1657100Y207000D03*
X1631700Y207000D03*
X1606300Y207000D03*
X1580900Y207000D03*
X1657100Y232400D03*
X1834900Y283200D03*
X1657100Y334000D03*
X1580900Y359400D03*
X1606300Y359400D03*
X1631700Y359400D03*
X1657100Y359400D03*
X1784100Y207000D03*
X1758700Y207000D03*
X1733300Y207000D03*
X1555500Y207000D03*
X1834900Y308600D03*
X1834900Y257800D03*
D18*
X1800000Y380000D03*
X1802500Y465000D03*
X1780000Y397500D03*
X1815000Y407500D03*
X602500Y317500D03*
X1762500Y287500D03*
X1992500Y465000D03*
X1870000Y195000D03*
X2145000Y202500D03*
X1697500Y422500D03*
X1662500Y512500D03*
X1607500Y697500D03*
X1612500Y527500D03*
M02*
