<svg style="background-color:#dddddd" width="742" height="210"><path stroke="black" fill="white" fill-opacity="1.0" d="M 0, 210 L 742, 210 L 742, 0 L 0, 0 Z"/><path stroke="black" fill="white" fill-opacity="0.0" d="M 43, 15 L 15, 15 L 15, 43 L 43, 43 Z"/><path stroke="black" fill="white" fill-opacity="0.0" d="M 81, 15 L 53, 15 L 53, 43 L 81, 43 Z"/><path stroke="black" fill="white" fill-opacity="0.0" d="M 119, 15 L 91, 15 L 91, 43 L 119, 43 Z"/><path stroke="black" fill="white" fill-opacity="0.0" d="M 157, 15 L 129, 15 L 129, 43 L 157, 43 Z"/><path stroke="black" fill="white" fill-opacity="0.0" d="M 195, 15 L 167, 15 L 167, 43 L 195, 43 Z"/><path stroke="black" fill="white" fill-opacity="0.0" d="M 233, 15 L 205, 15 L 205, 43 L 233, 43 Z"/><path stroke="black" fill="white" fill-opacity="0.0" d="M 271, 15 L 243, 15 L 243, 43 L 271, 43 Z"/><path stroke="black" fill="white" fill-opacity="0.0" d="M 309, 15 L 281, 15 L 281, 43 L 309, 43 Z"/><path stroke="black" fill="white" fill-opacity="0.0" d="M 347, 15 L 319, 15 L 319, 43 L 347, 43 Z"/><path stroke="black" fill="white" fill-opacity="0.0" d="M 385, 15 L 357, 15 L 357, 43 L 385, 43 Z"/><path stroke="black" fill="white" fill-opacity="0.0" d="M 423, 15 L 395, 15 L 395, 43 L 423, 43 Z"/><path stroke="black" fill="white" fill-opacity="0.0" d="M 461, 15 L 433, 15 L 433, 43 L 461, 43 Z"/><path stroke="black" fill="white" fill-opacity="0.0" d="M 499, 15 L 471, 15 L 471, 43 L 499, 43 Z"/><path stroke="black" fill="white" fill-opacity="0.0" d="M 537, 15 L 509, 15 L 509, 43 L 537, 43 Z"/><path stroke="black" fill="white" fill-opacity="0.0" d="M 575, 15 L 547, 15 L 547, 43 L 575, 43 Z"/><path stroke="black" fill="white" fill-opacity="0.0" d="M 613, 15 L 585, 15 L 585, 43 L 613, 43 Z"/><path stroke="black" fill="white" fill-opacity="0.0" d="M 651, 15 L 623, 15 L 623, 43 L 651, 43 Z"/><path stroke="black" fill="white" fill-opacity="0.0" d="M 673.5, 42.53999999999999 L 676.85, 42.53999999999999 L 676.85, 30 L 680, 30 L 680, 43 L 708, 43 L 708, 30 L 711.15, 30 L 711.15, 42.53999999999999 L 714.5, 42.53999999999999 L 714.5, 44.524 L 721.1, 44.524 L 721.1, 42.53999999999999 L 724.45, 42.53999999999999 L 724.45, 30 L 726.2, 30 L 726.2, 24.400000000000006 L 724.45, 24.400000000000006 L 724.45, 17.939999999999998 L 721.1, 17.939999999999998 L 721.1, 16.524 L 714.5, 16.524 L 714.5, 17.939999999999998 L 711.15, 17.939999999999998 L 711.15, 24.400000000000006 L 708, 24.400000000000006 L 708, 15 L 680, 15 L 680, 24.400000000000006 L 676.85, 24.400000000000006 L 676.85, 17.939999999999998 L 673.5, 17.939999999999998 L 673.5, 16.524 L 666.9, 16.524 L 666.9, 17.939999999999998 L 663.55, 17.939999999999998 L 663.55, 24.400000000000006 L 661.8, 24.400000000000006 L 661.8, 30 L 663.55, 30 L 663.55, 42.53999999999999 L 666.9, 42.53999999999999 L 666.9, 44.524 L 673.5, 44.524 Z"/><path stroke="black" fill="white" fill-opacity="0.0" d="M 15.459999999999992, 65.5 L 15.459999999999992, 68.85 L 28, 68.85 L 28, 72 L 15, 72 L 15, 100 L 28, 100 L 28, 103.15 L 15.459999999999996, 103.15 L 15.459999999999996, 106.5 L 13.476, 106.5 L 13.476, 113.1 L 15.459999999999996, 113.1 L 15.459999999999996, 116.45 L 28.000000000000004, 116.45 L 28.000000000000004, 118.2 L 33.599999999999994, 118.2 L 33.599999999999994, 116.45 L 40.06, 116.45 L 40.06, 113.1 L 41.476, 113.1 L 41.476, 106.5 L 40.06, 106.5 L 40.06, 103.15 L 33.599999999999994, 103.15 L 33.599999999999994, 100 L 43, 100 L 43, 72 L 33.599999999999994, 72 L 33.599999999999994, 68.85 L 40.06, 68.85 L 40.06, 65.5 L 41.476, 65.5 L 41.476, 58.900000000000006 L 40.06, 58.900000000000006 L 40.06, 55.55000000000001 L 33.599999999999994, 55.55000000000001 L 33.599999999999994, 53.80000000000001 L 27.999999999999996, 53.80000000000001 L 28, 55.55000000000001 L 15.459999999999992, 55.55000000000001 L 15.459999999999992, 58.900000000000006 L 13.475999999999997, 58.900000000000006 L 13.475999999999997, 65.5 Z"/><path stroke="black" fill="white" fill-opacity="0.0" d="M 81, 53 L 53, 53 L 53, 81 L 81, 81 Z"/><path stroke="black" fill="white" fill-opacity="0.0" d="M 119, 53 L 91, 53 L 91, 81 L 119, 81 Z"/><path stroke="black" fill="white" fill-opacity="0.0" d="M 157, 53 L 129, 53 L 129, 81 L 157, 81 Z"/><path stroke="black" fill="white" fill-opacity="0.0" d="M 204.5, 53 L 176.5, 53 L 176.5, 81 L 204.5, 81 Z"/><path stroke="black" fill="white" fill-opacity="0.0" d="M 252, 53 L 224, 53 L 224, 81 L 252, 81 Z"/><path stroke="black" fill="white" fill-opacity="0.0" d="M 290, 53 L 262, 53 L 262, 81 L 290, 81 Z"/><path stroke="black" fill="white" fill-opacity="0.0" d="M 328, 53 L 300, 53 L 300, 81 L 328, 81 Z"/><path stroke="black" fill="white" fill-opacity="0.0" d="M 366, 53 L 338, 53 L 338, 81 L 366, 81 Z"/><path stroke="black" fill="white" fill-opacity="0.0" d="M 404, 53 L 376, 53 L 376, 81 L 404, 81 Z"/><path stroke="black" fill="white" fill-opacity="0.0" d="M 442, 53 L 414, 53 L 414, 81 L 442, 81 Z"/><path stroke="black" fill="white" fill-opacity="0.0" d="M 480, 53 L 452, 53 L 452, 81 L 480, 81 Z"/><path stroke="black" fill="white" fill-opacity="0.0" d="M 518, 53 L 490, 53 L 490, 81 L 518, 81 Z"/><path stroke="black" fill="white" fill-opacity="0.0" d="M 556, 53 L 528, 53 L 528, 81 L 556, 81 Z"/><path stroke="black" fill="white" fill-opacity="0.0" d="M 594, 53 L 566, 53 L 566, 81 L 594, 81 Z"/><path stroke="black" fill="white" fill-opacity="0.0" d="M 632, 53 L 604, 53 L 604, 81 L 632, 81 Z"/><path stroke="black" fill="white" fill-opacity="0.0" d="M 670, 53 L 642, 53 L 642, 81 L 670, 81 Z"/><path stroke="black" fill="white" fill-opacity="0.0" d="M 717.5, 53 L 689.5, 53 L 689.5, 81 L 717.5, 81 Z"/><path stroke="black" fill="white" fill-opacity="0.0" d="M 81, 91 L 53, 91 L 53, 119 L 81, 119 Z"/><path stroke="black" fill="white" fill-opacity="0.0" d="M 119, 91 L 91, 91 L 91, 119 L 119, 119 Z"/><path stroke="black" fill="white" fill-opacity="0.0" d="M 157, 91 L 129, 91 L 129, 119 L 157, 119 Z"/><path stroke="black" fill="white" fill-opacity="0.0" d="M 209.25, 91 L 181.25, 91 L 181.25, 119 L 209.25, 119 Z"/><path stroke="black" fill="white" fill-opacity="0.0" d="M 261.5, 91 L 233.5, 91 L 233.5, 119 L 261.5, 119 Z"/><path stroke="black" fill="white" fill-opacity="0.0" d="M 299.5, 91 L 271.5, 91 L 271.5, 119 L 299.5, 119 Z"/><path stroke="black" fill="white" fill-opacity="0.0" d="M 337.5, 91 L 309.5, 91 L 309.5, 119 L 337.5, 119 Z"/><path stroke="black" fill="white" fill-opacity="0.0" d="M 375.5, 91 L 347.5, 91 L 347.5, 119 L 375.5, 119 Z"/><path stroke="black" fill="white" fill-opacity="0.0" d="M 413.5, 91 L 385.5, 91 L 385.5, 119 L 413.5, 119 Z"/><path stroke="black" fill="white" fill-opacity="0.0" d="M 451.5, 91 L 423.5, 91 L 423.5, 119 L 451.5, 119 Z"/><path stroke="black" fill="white" fill-opacity="0.0" d="M 489.5, 91 L 461.5, 91 L 461.5, 119 L 489.5, 119 Z"/><path stroke="black" fill="white" fill-opacity="0.0" d="M 527.5, 91 L 499.5, 91 L 499.5, 119 L 527.5, 119 Z"/><path stroke="black" fill="white" fill-opacity="0.0" d="M 565.5, 91 L 537.5, 91 L 537.5, 119 L 565.5, 119 Z"/><path stroke="black" fill="white" fill-opacity="0.0" d="M 603.5, 91 L 575.5, 91 L 575.5, 119 L 603.5, 119 Z"/><path stroke="black" fill="white" fill-opacity="0.0" d="M 641.5, 91 L 613.5, 91 L 613.5, 119 L 641.5, 119 Z"/><path stroke="black" fill="white" fill-opacity="0.0" d="M 668.75, 118.54 L 672.1, 118.54 L 672.1, 106 L 675.25, 106 L 675.25, 119 L 703.25, 119 L 703.25, 106 L 706.4, 106 L 706.4, 118.54 L 709.75, 118.54 L 709.75, 120.524 L 716.35, 120.524 L 716.35, 118.54 L 719.7, 118.54 L 719.7, 106 L 721.45, 106 L 721.45, 100.4 L 719.7, 100.4 L 719.7, 93.94 L 716.35, 93.94 L 716.35, 92.524 L 709.75, 92.524 L 709.75, 93.94 L 706.4, 93.94 L 706.4, 100.4 L 703.25, 100.4 L 703.25, 91 L 675.25, 91 L 675.25, 100.4 L 672.1, 100.4 L 672.1, 93.94 L 668.75, 93.94 L 668.75, 92.524 L 662.15, 92.524 L 662.15, 93.94 L 658.8, 93.94 L 658.8, 100.4 L 657.05, 100.4 L 657.05, 106 L 658.8, 106 L 658.8, 118.54 L 662.15, 118.54 L 662.15, 120.524 L 668.75, 120.524 Z"/><path stroke="black" fill="white" fill-opacity="0.0" d="M 15.460000000000006, 141.5 L 15.460000000000006, 144.85 L 28, 144.85 L 28, 148 L 15, 148 L 15, 176 L 28, 176 L 28, 179.15 L 15.46000000000001, 179.15 L 15.46000000000001, 182.5 L 13.476, 182.5 L 13.476, 189.1 L 15.46000000000001, 189.1 L 15.46000000000001, 192.45 L 28.000000000000004, 192.45 L 28.000000000000004, 194.2 L 33.599999999999994, 194.2 L 33.599999999999994, 192.45 L 40.06, 192.45 L 40.06, 189.1 L 41.476, 189.1 L 41.476, 182.5 L 40.06, 182.5 L 40.06, 179.15 L 33.599999999999994, 179.15 L 33.599999999999994, 176 L 43, 176 L 43, 148 L 33.599999999999994, 148 L 33.599999999999994, 144.85 L 40.06, 144.85 L 40.06, 141.5 L 41.476, 141.5 L 41.476, 134.9 L 40.06, 134.9 L 40.06, 131.55 L 33.599999999999994, 131.55 L 33.599999999999994, 129.8 L 27.999999999999996, 129.8 L 28, 131.55 L 15.460000000000006, 131.55 L 15.460000000000006, 134.9 L 13.475999999999997, 134.9 L 13.475999999999997, 141.5 Z"/><path stroke="black" fill="white" fill-opacity="0.0" d="M 81, 129 L 53, 129 L 53, 157 L 81, 157 Z"/><path stroke="black" fill="white" fill-opacity="0.0" d="M 119, 129 L 91, 129 L 91, 157 L 119, 157 Z"/><path stroke="black" fill="white" fill-opacity="0.0" d="M 157, 129 L 129, 129 L 129, 157 L 157, 157 Z"/><path stroke="black" fill="white" fill-opacity="0.0" d="M 184.25, 156.54 L 187.6, 156.54 L 187.6, 144 L 190.75, 144 L 190.75, 157 L 218.75, 157 L 218.75, 144 L 221.9, 144 L 221.9, 156.54 L 225.25, 156.54 L 225.25, 158.524 L 231.85, 158.524 L 231.85, 156.54 L 235.2, 156.54 L 235.2, 144 L 236.95, 144 L 236.95, 138.4 L 235.2, 138.4 L 235.2, 131.94 L 231.85, 131.94 L 231.85, 130.524 L 225.25, 130.524 L 225.25, 131.94 L 221.9, 131.94 L 221.9, 138.4 L 218.75, 138.4 L 218.75, 129 L 190.75, 129 L 190.75, 138.4 L 187.6, 138.4 L 187.6, 131.94 L 184.25, 131.94 L 184.25, 130.524 L 177.65, 130.524 L 177.65, 131.94 L 174.3, 131.94 L 174.3, 138.4 L 172.55, 138.4 L 172.55, 144 L 174.3, 144 L 174.3, 156.54 L 177.65, 156.54 L 177.65, 158.524 L 184.25, 158.524 Z"/><path stroke="black" fill="white" fill-opacity="0.0" d="M 280.5, 129 L 252.5, 129 L 252.5, 157 L 280.5, 157 Z"/><path stroke="black" fill="white" fill-opacity="0.0" d="M 318.5, 129 L 290.5, 129 L 290.5, 157 L 318.5, 157 Z"/><path stroke="black" fill="white" fill-opacity="0.0" d="M 356.5, 129 L 328.5, 129 L 328.5, 157 L 356.5, 157 Z"/><path stroke="black" fill="white" fill-opacity="0.0" d="M 394.5, 129 L 366.5, 129 L 366.5, 157 L 394.5, 157 Z"/><path stroke="black" fill="white" fill-opacity="0.0" d="M 432.5, 129 L 404.5, 129 L 404.5, 157 L 432.5, 157 Z"/><path stroke="black" fill="white" fill-opacity="0.0" d="M 470.5, 129 L 442.5, 129 L 442.5, 157 L 470.5, 157 Z"/><path stroke="black" fill="white" fill-opacity="0.0" d="M 508.5, 129 L 480.5, 129 L 480.5, 157 L 508.5, 157 Z"/><path stroke="black" fill="white" fill-opacity="0.0" d="M 546.5, 129 L 518.5, 129 L 518.5, 157 L 546.5, 157 Z"/><path stroke="black" fill="white" fill-opacity="0.0" d="M 584.5, 129 L 556.5, 129 L 556.5, 157 L 584.5, 157 Z"/><path stroke="black" fill="white" fill-opacity="0.0" d="M 622.5, 129 L 594.5, 129 L 594.5, 157 L 622.5, 157 Z"/><path stroke="black" fill="white" fill-opacity="0.0" d="M 659.25, 156.54 L 662.6, 156.54 L 662.6, 144 L 665.75, 144 L 665.75, 157 L 693.75, 157 L 693.75, 144 L 696.9, 144 L 696.9, 156.54 L 700.25, 156.54 L 700.25, 158.524 L 706.85, 158.524 L 706.85, 156.54 L 710.2, 156.54 L 710.2, 144 L 711.95, 144 L 711.95, 138.4 L 710.2, 138.4 L 710.2, 131.94 L 706.85, 131.94 L 706.85, 130.524 L 700.25, 130.524 L 700.25, 131.94 L 696.9, 131.94 L 696.9, 138.4 L 693.75, 138.4 L 693.75, 129 L 665.75, 129 L 665.75, 138.4 L 662.6, 138.4 L 662.6, 131.94 L 659.25, 131.94 L 659.25, 130.524 L 652.65, 130.524 L 652.65, 131.94 L 649.3, 131.94 L 649.3, 138.4 L 647.55, 138.4 L 647.55, 144 L 649.3, 144 L 649.3, 156.54 L 652.65, 156.54 L 652.65, 158.524 L 659.25, 158.524 Z"/><path stroke="black" fill="white" fill-opacity="0.0" d="M 81, 167 L 53, 167 L 53, 195 L 81, 195 Z"/><path stroke="black" fill="white" fill-opacity="0.0" d="M 103.5, 194.54 L 106.85, 194.54 L 106.85, 182 L 110, 182 L 110, 195 L 138, 195 L 138, 182 L 141.15, 182 L 141.15, 194.54 L 144.5, 194.54 L 144.5, 196.524 L 151.1, 196.524 L 151.1, 194.54 L 154.45, 194.54 L 154.45, 182 L 156.2, 182 L 156.2, 176.4 L 154.45, 176.4 L 154.45, 169.94 L 151.1, 169.94 L 151.1, 168.524 L 144.5, 168.524 L 144.5, 169.94 L 141.15, 169.94 L 141.15, 176.4 L 138, 176.4 L 138, 167 L 110, 167 L 110, 176.4 L 106.85, 176.4 L 106.85, 169.94 L 103.5, 169.94 L 103.5, 168.524 L 96.9, 168.524 L 96.9, 169.94 L 93.55, 169.94 L 93.55, 176.4 L 91.8, 176.4 L 91.8, 182 L 93.55, 182 L 93.55, 194.54 L 96.9, 194.54 L 96.9, 196.524 L 103.5, 196.524 Z"/><path stroke="black" fill="white" fill-opacity="0.0" d="M 199.75, 167 L 171.75, 167 L 171.75, 195 L 199.75, 195 Z"/><path stroke="black" fill="white" fill-opacity="0.0" d="M 247.25, 167 L 219.25, 167 L 219.25, 195 L 247.25, 195 Z"/><path stroke="black" fill="white" fill-opacity="0.0" d="M 294.75, 167 L 266.75, 167 L 266.75, 195 L 294.75, 195 Z"/><path stroke="black" fill="white" fill-opacity="0.0" d="M 326.55, 194.54 L 329.9, 194.54 L 329.9, 185.6 L 409.25, 185.6 L 409.25, 195 L 437.25, 195 L 437.25, 185.6 L 516.6, 185.6 L 516.6, 194.54 L 519.95, 194.54 L 519.95, 196.524 L 526.55, 196.524 L 526.55, 194.54 L 529.9, 194.54 L 529.9, 182 L 531.7, 182 L 531.7, 176.4 L 529.9, 176.4 L 529.9, 169.94 L 526.55, 169.94 L 526.55, 168.524 L 519.95, 168.524 L 519.95, 169.94 L 516.6, 169.94 L 516.6, 176.4 L 437.25, 176.4 L 437.25, 167 L 409.25, 167 L 409.25, 176.4 L 329.9, 176.4 L 329.9, 169.94 L 326.55, 169.94 L 326.55, 168.524 L 319.95, 168.524 L 319.95, 169.94 L 316.6, 169.94 L 316.6, 176.4 L 314.8, 176.4 L 314.8, 182 L 316.6, 182 L 316.6, 194.54 L 319.95, 194.54 L 319.95, 196.524 L 326.55, 196.524 Z"/><path stroke="black" fill="white" fill-opacity="0.0" d="M 579.75, 167 L 551.75, 167 L 551.75, 195 L 579.75, 195 Z"/><path stroke="black" fill="white" fill-opacity="0.0" d="M 627.25, 167 L 599.25, 167 L 599.25, 195 L 627.25, 195 Z"/><path stroke="black" fill="white" fill-opacity="0.0" d="M 674.75, 167 L 646.75, 167 L 646.75, 195 L 674.75, 195 Z"/><path stroke="black" fill="white" fill-opacity="0.0" d="M 722.25, 167 L 694.25, 167 L 694.25, 195 L 722.25, 195 Z"/></svg>