<svg style="background-color:#dddddd" width="742" height="210"><path stroke="black" fill="white" fill-opacity="1.0" d="M 0, 210 L 742, 210 L 742, 0 L 0, 0 Z"/><path stroke="black" fill="white" fill-opacity="0.0" d="M 43, 41 L 44.6, 41 L 44.6, 17 L 43, 17 L 43, 15 L 15, 15 L 15, 17 L 13.4, 17 L 13.4, 41 L 15, 41 L 15, 43 L 43, 43 Z"/><path stroke="black" fill="white" fill-opacity="0.0" d="M 81, 41 L 82.6, 41 L 82.6, 17 L 81, 17 L 81, 15 L 53, 15 L 53, 17 L 51.4, 17 L 51.4, 41 L 53, 41 L 53, 43 L 81, 43 Z"/><path stroke="black" fill="white" fill-opacity="0.0" d="M 119, 41 L 120.6, 41 L 120.6, 17 L 119, 17 L 119, 15 L 91, 15 L 91, 17 L 89.4, 17 L 89.4, 41 L 91, 41 L 91, 43 L 119, 43 Z"/><path stroke="black" fill="white" fill-opacity="0.0" d="M 157, 41 L 158.6, 41 L 158.6, 17 L 157, 17 L 157, 15 L 129, 15 L 129, 17 L 127.4, 17 L 127.4, 41 L 129, 41 L 129, 43 L 157, 43 Z"/><path stroke="black" fill="white" fill-opacity="0.0" d="M 195, 41 L 196.6, 41 L 196.6, 17 L 195, 17 L 195, 15 L 167, 15 L 167, 17 L 165.4, 17 L 165.4, 41 L 167, 41 L 167, 43 L 195, 43 Z"/><path stroke="black" fill="white" fill-opacity="0.0" d="M 233, 41 L 234.6, 41 L 234.6, 17 L 233, 17 L 233, 15 L 205, 15 L 205, 17 L 203.4, 17 L 203.4, 41 L 205, 41 L 205, 43 L 233, 43 Z"/><path stroke="black" fill="white" fill-opacity="0.0" d="M 271, 41 L 272.6, 41 L 272.6, 17 L 271, 17 L 271, 15 L 243, 15 L 243, 17 L 241.4, 17 L 241.4, 41 L 243, 41 L 243, 43 L 271, 43 Z"/><path stroke="black" fill="white" fill-opacity="0.0" d="M 309, 41 L 310.6, 41 L 310.6, 17 L 309, 17 L 309, 15 L 281, 15 L 281, 17 L 279.4, 17 L 279.4, 41 L 281, 41 L 281, 43 L 309, 43 Z"/><path stroke="black" fill="white" fill-opacity="0.0" d="M 347, 41 L 348.6, 41 L 348.6, 17 L 347, 17 L 347, 15 L 319, 15 L 319, 17 L 317.4, 17 L 317.4, 41 L 319, 41 L 319, 43 L 347, 43 Z"/><path stroke="black" fill="white" fill-opacity="0.0" d="M 385, 41 L 386.6, 41 L 386.6, 17 L 385, 17 L 385, 15 L 357, 15 L 357, 17 L 355.4, 17 L 355.4, 41 L 357, 41 L 357, 43 L 385, 43 Z"/><path stroke="black" fill="white" fill-opacity="0.0" d="M 423, 41 L 424.6, 41 L 424.6, 17 L 423, 17 L 423, 15 L 395, 15 L 395, 17 L 393.4, 17 L 393.4, 41 L 395, 41 L 395, 43 L 423, 43 Z"/><path stroke="black" fill="white" fill-opacity="0.0" d="M 461, 41 L 462.6, 41 L 462.6, 17 L 461, 17 L 461, 15 L 433, 15 L 433, 17 L 431.4, 17 L 431.4, 41 L 433, 41 L 433, 43 L 461, 43 Z"/><path stroke="black" fill="white" fill-opacity="0.0" d="M 499, 41 L 500.6, 41 L 500.6, 17 L 499, 17 L 499, 15 L 471, 15 L 471, 17 L 469.4, 17 L 469.4, 41 L 471, 41 L 471, 43 L 499, 43 Z"/><path stroke="black" fill="white" fill-opacity="0.0" d="M 537, 41 L 538.6, 41 L 538.6, 17 L 537, 17 L 537, 15 L 509, 15 L 509, 17 L 507.4, 17 L 507.4, 41 L 509, 41 L 509, 43 L 537, 43 Z"/><path stroke="black" fill="white" fill-opacity="0.0" d="M 575, 41 L 576.6, 41 L 576.6, 17 L 575, 17 L 575, 15 L 547, 15 L 547, 17 L 545.4, 17 L 545.4, 41 L 547, 41 L 547, 43 L 575, 43 Z"/><path stroke="black" fill="white" fill-opacity="0.0" d="M 613, 41 L 614.6, 41 L 614.6, 17 L 613, 17 L 613, 15 L 585, 15 L 585, 17 L 583.4, 17 L 583.4, 41 L 585, 41 L 585, 43 L 613, 43 Z"/><path stroke="black" fill="white" fill-opacity="0.0" d="M 651, 41 L 652.6, 41 L 652.6, 17 L 651, 17 L 651, 15 L 623, 15 L 623, 17 L 621.4, 17 L 621.4, 41 L 623, 41 L 623, 43 L 651, 43 Z"/><path stroke="black" fill="white" fill-opacity="0.0" d="M 673.5, 42.53999999999999 L 676.85, 42.53999999999999 L 676.85, 40.94 L 678.4, 40.94 L 678.4, 41 L 680, 41 L 680, 43 L 708, 43 L 708, 41 L 709.6, 41 L 709.6, 40.94 L 711.15, 40.94 L 711.15, 42.53999999999999 L 714.5, 42.53999999999999 L 714.5, 44.524 L 721.1, 44.524 L 721.1, 42.53999999999999 L 724.45, 42.53999999999999 L 724.45, 30 L 726.2, 30 L 726.2, 24.400000000000006 L 724.45, 24.400000000000006 L 724.45, 17.939999999999998 L 721.1, 17.939999999999998 L 721.1, 16.524 L 714.5, 16.524 L 714.5, 17.939999999999998 L 711.15, 17.939999999999998 L 711.15, 19.539999999999992 L 709.6, 19.539999999999992 L 709.6, 17 L 708, 17 L 708, 15 L 680, 15 L 680, 17 L 678.4, 17 L 678.4, 19.539999999999992 L 676.85, 19.539999999999992 L 676.85, 17.939999999999998 L 673.5, 17.939999999999998 L 673.5, 16.524 L 666.9, 16.524 L 666.9, 17.939999999999998 L 663.55, 17.939999999999998 L 663.55, 24.400000000000006 L 661.8, 24.400000000000006 L 661.8, 30 L 663.55, 30 L 663.55, 42.53999999999999 L 666.9, 42.53999999999999 L 666.9, 44.524 L 673.5, 44.524 Z"/><path stroke="black" fill="white" fill-opacity="0.0" d="M 15.459999999999992, 65.5 L 15.459999999999992, 68.85 L 17.060000000000002, 68.85 L 17.060000000000002, 70.4 L 17, 70.4 L 17, 72 L 15, 72 L 15, 100 L 17, 100 L 17, 101.6 L 17.060000000000002, 101.6 L 17.060000000000002, 103.15 L 15.459999999999996, 103.15 L 15.459999999999996, 106.5 L 13.476, 106.5 L 13.476, 113.1 L 15.459999999999996, 113.1 L 15.459999999999996, 116.45 L 28.000000000000004, 116.45 L 28.000000000000004, 118.2 L 33.599999999999994, 118.2 L 33.599999999999994, 116.45 L 40.06, 116.45 L 40.06, 113.1 L 41.476, 113.1 L 41.476, 106.5 L 40.06, 106.5 L 40.06, 103.15 L 38.459999999999994, 103.15 L 38.459999999999994, 101.6 L 41, 101.6 L 41, 100 L 43, 100 L 43, 72 L 41, 72 L 41, 70.4 L 38.459999999999994, 70.4 L 38.459999999999994, 68.85 L 40.06, 68.85 L 40.06, 65.5 L 41.476, 65.5 L 41.476, 58.900000000000006 L 40.06, 58.900000000000006 L 40.06, 55.55000000000001 L 33.599999999999994, 55.55000000000001 L 33.599999999999994, 53.80000000000001 L 27.999999999999996, 53.80000000000001 L 28, 55.55000000000001 L 15.459999999999992, 55.55000000000001 L 15.459999999999992, 58.900000000000006 L 13.475999999999997, 58.900000000000006 L 13.475999999999997, 65.5 Z"/><path stroke="black" fill="white" fill-opacity="0.0" d="M 81, 79 L 82.6, 79 L 82.6, 55 L 81, 55 L 81, 53 L 53, 53 L 53, 55 L 51.4, 55 L 51.4, 79 L 53, 79 L 53, 81 L 81, 81 Z"/><path stroke="black" fill="white" fill-opacity="0.0" d="M 119, 79 L 120.6, 79 L 120.6, 55 L 119, 55 L 119, 53 L 91, 53 L 91, 55 L 89.4, 55 L 89.4, 79 L 91, 79 L 91, 81 L 119, 81 Z"/><path stroke="black" fill="white" fill-opacity="0.0" d="M 157, 79 L 158.6, 79 L 158.6, 55 L 157, 55 L 157, 53 L 129, 53 L 129, 55 L 127.4, 55 L 127.4, 79 L 129, 79 L 129, 81 L 157, 81 Z"/><path stroke="black" fill="white" fill-opacity="0.0" d="M 204.5, 79 L 206.1, 79 L 206.1, 55 L 204.5, 55 L 204.5, 53 L 176.5, 53 L 176.5, 55 L 174.9, 55 L 174.9, 79 L 176.5, 79 L 176.5, 81 L 204.5, 81 Z"/><path stroke="black" fill="white" fill-opacity="0.0" d="M 252, 79 L 253.6, 79 L 253.6, 55 L 252, 55 L 252, 53 L 224, 53 L 224, 55 L 222.4, 55 L 222.4, 79 L 224, 79 L 224, 81 L 252, 81 Z"/><path stroke="black" fill="white" fill-opacity="0.0" d="M 290, 79 L 291.6, 79 L 291.6, 55 L 290, 55 L 290, 53 L 262, 53 L 262, 55 L 260.4, 55 L 260.4, 79 L 262, 79 L 262, 81 L 290, 81 Z"/><path stroke="black" fill="white" fill-opacity="0.0" d="M 328, 79 L 329.6, 79 L 329.6, 55 L 328, 55 L 328, 53 L 300, 53 L 300, 55 L 298.4, 55 L 298.4, 79 L 300, 79 L 300, 81 L 328, 81 Z"/><path stroke="black" fill="white" fill-opacity="0.0" d="M 366, 79 L 367.6, 79 L 367.6, 55 L 366, 55 L 366, 53 L 338, 53 L 338, 55 L 336.4, 55 L 336.4, 79 L 338, 79 L 338, 81 L 366, 81 Z"/><path stroke="black" fill="white" fill-opacity="0.0" d="M 404, 79 L 405.6, 79 L 405.6, 55 L 404, 55 L 404, 53 L 376, 53 L 376, 55 L 374.4, 55 L 374.4, 79 L 376, 79 L 376, 81 L 404, 81 Z"/><path stroke="black" fill="white" fill-opacity="0.0" d="M 442, 79 L 443.6, 79 L 443.6, 55 L 442, 55 L 442, 53 L 414, 53 L 414, 55 L 412.4, 55 L 412.4, 79 L 414, 79 L 414, 81 L 442, 81 Z"/><path stroke="black" fill="white" fill-opacity="0.0" d="M 480, 79 L 481.6, 79 L 481.6, 55 L 480, 55 L 480, 53 L 452, 53 L 452, 55 L 450.4, 55 L 450.4, 79 L 452, 79 L 452, 81 L 480, 81 Z"/><path stroke="black" fill="white" fill-opacity="0.0" d="M 518, 79 L 519.6, 79 L 519.6, 55 L 518, 55 L 518, 53 L 490, 53 L 490, 55 L 488.4, 55 L 488.4, 79 L 490, 79 L 490, 81 L 518, 81 Z"/><path stroke="black" fill="white" fill-opacity="0.0" d="M 556, 79 L 557.6, 79 L 557.6, 55 L 556, 55 L 556, 53 L 528, 53 L 528, 55 L 526.4, 55 L 526.4, 79 L 528, 79 L 528, 81 L 556, 81 Z"/><path stroke="black" fill="white" fill-opacity="0.0" d="M 594, 79 L 595.6, 79 L 595.6, 55 L 594, 55 L 594, 53 L 566, 53 L 566, 55 L 564.4, 55 L 564.4, 79 L 566, 79 L 566, 81 L 594, 81 Z"/><path stroke="black" fill="white" fill-opacity="0.0" d="M 632, 79 L 633.6, 79 L 633.6, 55 L 632, 55 L 632, 53 L 604, 53 L 604, 55 L 602.4, 55 L 602.4, 79 L 604, 79 L 604, 81 L 632, 81 Z"/><path stroke="black" fill="white" fill-opacity="0.0" d="M 670, 79 L 671.6, 79 L 671.6, 55 L 670, 55 L 670, 53 L 642, 53 L 642, 55 L 640.4, 55 L 640.4, 79 L 642, 79 L 642, 81 L 670, 81 Z"/><path stroke="black" fill="white" fill-opacity="0.0" d="M 717.5, 79 L 719.1, 79 L 719.1, 55 L 717.5, 55 L 717.5, 53 L 689.5, 53 L 689.5, 55 L 687.9, 55 L 687.9, 79 L 689.5, 79 L 689.5, 81 L 717.5, 81 Z"/><path stroke="black" fill="white" fill-opacity="0.0" d="M 81, 117 L 82.6, 117 L 82.6, 93 L 81, 93 L 81, 91 L 53, 91 L 53, 93 L 51.4, 93 L 51.4, 117 L 53, 117 L 53, 119 L 81, 119 Z"/><path stroke="black" fill="white" fill-opacity="0.0" d="M 119, 117 L 120.6, 117 L 120.6, 93 L 119, 93 L 119, 91 L 91, 91 L 91, 93 L 89.4, 93 L 89.4, 117 L 91, 117 L 91, 119 L 119, 119 Z"/><path stroke="black" fill="white" fill-opacity="0.0" d="M 157, 117 L 158.6, 117 L 158.6, 93 L 157, 93 L 157, 91 L 129, 91 L 129, 93 L 127.4, 93 L 127.4, 117 L 129, 117 L 129, 119 L 157, 119 Z"/><path stroke="black" fill="white" fill-opacity="0.0" d="M 209.25, 117 L 210.85, 117 L 210.85, 93 L 209.25, 93 L 209.25, 91 L 181.25, 91 L 181.25, 93 L 179.65, 93 L 179.65, 117 L 181.25, 117 L 181.25, 119 L 209.25, 119 Z"/><path stroke="black" fill="white" fill-opacity="0.0" d="M 261.5, 117 L 263.1, 117 L 263.1, 93 L 261.5, 93 L 261.5, 91 L 233.5, 91 L 233.5, 93 L 231.9, 93 L 231.9, 117 L 233.5, 117 L 233.5, 119 L 261.5, 119 Z"/><path stroke="black" fill="white" fill-opacity="0.0" d="M 299.5, 117 L 301.1, 117 L 301.1, 93 L 299.5, 93 L 299.5, 91 L 271.5, 91 L 271.5, 93 L 269.9, 93 L 269.9, 117 L 271.5, 117 L 271.5, 119 L 299.5, 119 Z"/><path stroke="black" fill="white" fill-opacity="0.0" d="M 337.5, 117 L 339.1, 117 L 339.1, 93 L 337.5, 93 L 337.5, 91 L 309.5, 91 L 309.5, 93 L 307.9, 93 L 307.9, 117 L 309.5, 117 L 309.5, 119 L 337.5, 119 Z"/><path stroke="black" fill="white" fill-opacity="0.0" d="M 375.5, 117 L 377.1, 117 L 377.1, 93 L 375.5, 93 L 375.5, 91 L 347.5, 91 L 347.5, 93 L 345.9, 93 L 345.9, 117 L 347.5, 117 L 347.5, 119 L 375.5, 119 Z"/><path stroke="black" fill="white" fill-opacity="0.0" d="M 413.5, 117 L 415.1, 117 L 415.1, 93 L 413.5, 93 L 413.5, 91 L 385.5, 91 L 385.5, 93 L 383.9, 93 L 383.9, 117 L 385.5, 117 L 385.5, 119 L 413.5, 119 Z"/><path stroke="black" fill="white" fill-opacity="0.0" d="M 451.5, 117 L 453.1, 117 L 453.1, 93 L 451.5, 93 L 451.5, 91 L 423.5, 91 L 423.5, 93 L 421.9, 93 L 421.9, 117 L 423.5, 117 L 423.5, 119 L 451.5, 119 Z"/><path stroke="black" fill="white" fill-opacity="0.0" d="M 489.5, 117 L 491.1, 117 L 491.1, 93 L 489.5, 93 L 489.5, 91 L 461.5, 91 L 461.5, 93 L 459.9, 93 L 459.9, 117 L 461.5, 117 L 461.5, 119 L 489.5, 119 Z"/><path stroke="black" fill="white" fill-opacity="0.0" d="M 527.5, 117 L 529.1, 117 L 529.1, 93 L 527.5, 93 L 527.5, 91 L 499.5, 91 L 499.5, 93 L 497.9, 93 L 497.9, 117 L 499.5, 117 L 499.5, 119 L 527.5, 119 Z"/><path stroke="black" fill="white" fill-opacity="0.0" d="M 565.5, 117 L 567.1, 117 L 567.1, 93 L 565.5, 93 L 565.5, 91 L 537.5, 91 L 537.5, 93 L 535.9, 93 L 535.9, 117 L 537.5, 117 L 537.5, 119 L 565.5, 119 Z"/><path stroke="black" fill="white" fill-opacity="0.0" d="M 603.5, 117 L 605.1, 117 L 605.1, 93 L 603.5, 93 L 603.5, 91 L 575.5, 91 L 575.5, 93 L 573.9, 93 L 573.9, 117 L 575.5, 117 L 575.5, 119 L 603.5, 119 Z"/><path stroke="black" fill="white" fill-opacity="0.0" d="M 641.5, 117 L 643.1, 117 L 643.1, 93 L 641.5, 93 L 641.5, 91 L 613.5, 91 L 613.5, 93 L 611.9, 93 L 611.9, 117 L 613.5, 117 L 613.5, 119 L 641.5, 119 Z"/><path stroke="black" fill="white" fill-opacity="0.0" d="M 668.75, 118.54 L 672.1, 118.54 L 672.1, 116.94 L 673.65, 116.94 L 673.65, 117 L 675.25, 117 L 675.25, 119 L 703.25, 119 L 703.25, 117 L 704.85, 117 L 704.85, 116.94 L 706.4, 116.94 L 706.4, 118.54 L 709.75, 118.54 L 709.75, 120.524 L 716.35, 120.524 L 716.35, 118.54 L 719.7, 118.54 L 719.7, 106 L 721.45, 106 L 721.45, 100.4 L 719.7, 100.4 L 719.7, 93.94 L 716.35, 93.94 L 716.35, 92.524 L 709.75, 92.524 L 709.75, 93.94 L 706.4, 93.94 L 706.4, 95.54 L 704.85, 95.54 L 704.85, 93 L 703.25, 93 L 703.25, 91 L 675.25, 91 L 675.25, 93 L 673.65, 93 L 673.65, 95.54 L 672.1, 95.54 L 672.1, 93.94 L 668.75, 93.94 L 668.75, 92.524 L 662.15, 92.524 L 662.15, 93.94 L 658.8, 93.94 L 658.8, 100.4 L 657.05, 100.4 L 657.05, 106 L 658.8, 106 L 658.8, 118.54 L 662.15, 118.54 L 662.15, 120.524 L 668.75, 120.524 Z"/><path stroke="black" fill="white" fill-opacity="0.0" d="M 15.460000000000006, 141.5 L 15.460000000000006, 144.85 L 17.060000000000002, 144.85 L 17.060000000000002, 146.4 L 17, 146.4 L 17, 148 L 15, 148 L 15, 176 L 17, 176 L 17, 177.6 L 17.060000000000002, 177.6 L 17.060000000000002, 179.15 L 15.46000000000001, 179.15 L 15.46000000000001, 182.5 L 13.476, 182.5 L 13.476, 189.1 L 15.46000000000001, 189.1 L 15.46000000000001, 192.45 L 28.000000000000004, 192.45 L 28.000000000000004, 194.2 L 33.599999999999994, 194.2 L 33.599999999999994, 192.45 L 40.06, 192.45 L 40.06, 189.1 L 41.476, 189.1 L 41.476, 182.5 L 40.06, 182.5 L 40.06, 179.15 L 38.46000000000001, 179.15 L 38.46000000000001, 177.6 L 41, 177.6 L 41, 176 L 43, 176 L 43, 148 L 41, 148 L 41, 146.4 L 38.46000000000001, 146.4 L 38.46000000000001, 144.85 L 40.06, 144.85 L 40.06, 141.5 L 41.476, 141.5 L 41.476, 134.9 L 40.06, 134.9 L 40.06, 131.55 L 33.599999999999994, 131.55 L 33.599999999999994, 129.8 L 27.999999999999996, 129.8 L 28, 131.55 L 15.460000000000006, 131.55 L 15.460000000000006, 134.9 L 13.475999999999997, 134.9 L 13.475999999999997, 141.5 Z"/><path stroke="black" fill="white" fill-opacity="0.0" d="M 81, 155 L 82.6, 155 L 82.6, 131 L 81, 131 L 81, 129 L 53, 129 L 53, 131 L 51.4, 131 L 51.4, 155 L 53, 155 L 53, 157 L 81, 157 Z"/><path stroke="black" fill="white" fill-opacity="0.0" d="M 119, 155 L 120.6, 155 L 120.6, 131 L 119, 131 L 119, 129 L 91, 129 L 91, 131 L 89.4, 131 L 89.4, 155 L 91, 155 L 91, 157 L 119, 157 Z"/><path stroke="black" fill="white" fill-opacity="0.0" d="M 157, 155 L 158.6, 155 L 158.6, 131 L 157, 131 L 157, 129 L 129, 129 L 129, 131 L 127.4, 131 L 127.4, 155 L 129, 155 L 129, 157 L 157, 157 Z"/><path stroke="black" fill="white" fill-opacity="0.0" d="M 184.25, 156.54 L 187.6, 156.54 L 187.6, 154.94 L 189.15, 154.94 L 189.15, 155 L 190.75, 155 L 190.75, 157 L 218.75, 157 L 218.75, 155 L 220.35, 155 L 220.35, 154.94 L 221.9, 154.94 L 221.9, 156.54 L 225.25, 156.54 L 225.25, 158.524 L 231.85, 158.524 L 231.85, 156.54 L 235.2, 156.54 L 235.2, 144 L 236.95, 144 L 236.95, 138.4 L 235.2, 138.4 L 235.2, 131.94 L 231.85, 131.94 L 231.85, 130.524 L 225.25, 130.524 L 225.25, 131.94 L 221.9, 131.94 L 221.9, 133.54 L 220.35, 133.54 L 220.35, 131 L 218.75, 131 L 218.75, 129 L 190.75, 129 L 190.75, 131 L 189.15, 131 L 189.15, 133.54 L 187.6, 133.54 L 187.6, 131.94 L 184.25, 131.94 L 184.25, 130.524 L 177.65, 130.524 L 177.65, 131.94 L 174.3, 131.94 L 174.3, 138.4 L 172.55, 138.4 L 172.55, 144 L 174.3, 144 L 174.3, 156.54 L 177.65, 156.54 L 177.65, 158.524 L 184.25, 158.524 Z"/><path stroke="black" fill="white" fill-opacity="0.0" d="M 280.5, 155 L 282.1, 155 L 282.1, 131 L 280.5, 131 L 280.5, 129 L 252.5, 129 L 252.5, 131 L 250.9, 131 L 250.9, 155 L 252.5, 155 L 252.5, 157 L 280.5, 157 Z"/><path stroke="black" fill="white" fill-opacity="0.0" d="M 318.5, 155 L 320.1, 155 L 320.1, 131 L 318.5, 131 L 318.5, 129 L 290.5, 129 L 290.5, 131 L 288.9, 131 L 288.9, 155 L 290.5, 155 L 290.5, 157 L 318.5, 157 Z"/><path stroke="black" fill="white" fill-opacity="0.0" d="M 356.5, 155 L 358.1, 155 L 358.1, 131 L 356.5, 131 L 356.5, 129 L 328.5, 129 L 328.5, 131 L 326.9, 131 L 326.9, 155 L 328.5, 155 L 328.5, 157 L 356.5, 157 Z"/><path stroke="black" fill="white" fill-opacity="0.0" d="M 394.5, 155 L 396.1, 155 L 396.1, 131 L 394.5, 131 L 394.5, 129 L 366.5, 129 L 366.5, 131 L 364.9, 131 L 364.9, 155 L 366.5, 155 L 366.5, 157 L 394.5, 157 Z"/><path stroke="black" fill="white" fill-opacity="0.0" d="M 432.5, 155 L 434.1, 155 L 434.1, 131 L 432.5, 131 L 432.5, 129 L 404.5, 129 L 404.5, 131 L 402.9, 131 L 402.9, 155 L 404.5, 155 L 404.5, 157 L 432.5, 157 Z"/><path stroke="black" fill="white" fill-opacity="0.0" d="M 470.5, 155 L 472.1, 155 L 472.1, 131 L 470.5, 131 L 470.5, 129 L 442.5, 129 L 442.5, 131 L 440.9, 131 L 440.9, 155 L 442.5, 155 L 442.5, 157 L 470.5, 157 Z"/><path stroke="black" fill="white" fill-opacity="0.0" d="M 508.5, 155 L 510.1, 155 L 510.1, 131 L 508.5, 131 L 508.5, 129 L 480.5, 129 L 480.5, 131 L 478.9, 131 L 478.9, 155 L 480.5, 155 L 480.5, 157 L 508.5, 157 Z"/><path stroke="black" fill="white" fill-opacity="0.0" d="M 546.5, 155 L 548.1, 155 L 548.1, 131 L 546.5, 131 L 546.5, 129 L 518.5, 129 L 518.5, 131 L 516.9, 131 L 516.9, 155 L 518.5, 155 L 518.5, 157 L 546.5, 157 Z"/><path stroke="black" fill="white" fill-opacity="0.0" d="M 584.5, 155 L 586.1, 155 L 586.1, 131 L 584.5, 131 L 584.5, 129 L 556.5, 129 L 556.5, 131 L 554.9, 131 L 554.9, 155 L 556.5, 155 L 556.5, 157 L 584.5, 157 Z"/><path stroke="black" fill="white" fill-opacity="0.0" d="M 622.5, 155 L 624.1, 155 L 624.1, 131 L 622.5, 131 L 622.5, 129 L 594.5, 129 L 594.5, 131 L 592.9, 131 L 592.9, 155 L 594.5, 155 L 594.5, 157 L 622.5, 157 Z"/><path stroke="black" fill="white" fill-opacity="0.0" d="M 659.25, 156.54 L 662.6, 156.54 L 662.6, 154.94 L 664.15, 154.94 L 664.15, 155 L 665.75, 155 L 665.75, 157 L 693.75, 157 L 693.75, 155 L 695.35, 155 L 695.35, 154.94 L 696.9, 154.94 L 696.9, 156.54 L 700.25, 156.54 L 700.25, 158.524 L 706.85, 158.524 L 706.85, 156.54 L 710.2, 156.54 L 710.2, 144 L 711.95, 144 L 711.95, 138.4 L 710.2, 138.4 L 710.2, 131.94 L 706.85, 131.94 L 706.85, 130.524 L 700.25, 130.524 L 700.25, 131.94 L 696.9, 131.94 L 696.9, 133.54 L 695.35, 133.54 L 695.35, 131 L 693.75, 131 L 693.75, 129 L 665.75, 129 L 665.75, 131 L 664.15, 131 L 664.15, 133.54 L 662.6, 133.54 L 662.6, 131.94 L 659.25, 131.94 L 659.25, 130.524 L 652.65, 130.524 L 652.65, 131.94 L 649.3, 131.94 L 649.3, 138.4 L 647.55, 138.4 L 647.55, 144 L 649.3, 144 L 649.3, 156.54 L 652.65, 156.54 L 652.65, 158.524 L 659.25, 158.524 Z"/><path stroke="black" fill="white" fill-opacity="0.0" d="M 81, 193 L 82.6, 193 L 82.6, 169 L 81, 169 L 81, 167 L 53, 167 L 53, 169 L 51.4, 169 L 51.4, 193 L 53, 193 L 53, 195 L 81, 195 Z"/><path stroke="black" fill="white" fill-opacity="0.0" d="M 103.5, 194.54 L 106.85, 194.54 L 106.85, 192.94 L 108.4, 192.94 L 108.4, 193 L 110, 193 L 110, 195 L 138, 195 L 138, 193 L 139.6, 193 L 139.6, 192.94 L 141.15, 192.94 L 141.15, 194.54 L 144.5, 194.54 L 144.5, 196.524 L 151.1, 196.524 L 151.1, 194.54 L 154.45, 194.54 L 154.45, 182 L 156.2, 182 L 156.2, 176.4 L 154.45, 176.4 L 154.45, 169.94 L 151.1, 169.94 L 151.1, 168.524 L 144.5, 168.524 L 144.5, 169.94 L 141.15, 169.94 L 141.15, 171.54 L 139.6, 171.54 L 139.6, 169 L 138, 169 L 138, 167 L 110, 167 L 110, 169 L 108.4, 169 L 108.4, 171.54 L 106.85, 171.54 L 106.85, 169.94 L 103.5, 169.94 L 103.5, 168.524 L 96.9, 168.524 L 96.9, 169.94 L 93.55, 169.94 L 93.55, 176.4 L 91.8, 176.4 L 91.8, 182 L 93.55, 182 L 93.55, 194.54 L 96.9, 194.54 L 96.9, 196.524 L 103.5, 196.524 Z"/><path stroke="black" fill="white" fill-opacity="0.0" d="M 199.75, 193 L 201.35, 193 L 201.35, 169 L 199.75, 169 L 199.75, 167 L 171.75, 167 L 171.75, 169 L 170.15, 169 L 170.15, 193 L 171.75, 193 L 171.75, 195 L 199.75, 195 Z"/><path stroke="black" fill="white" fill-opacity="0.0" d="M 247.25, 193 L 248.85, 193 L 248.85, 169 L 247.25, 169 L 247.25, 167 L 219.25, 167 L 219.25, 169 L 217.65, 169 L 217.65, 193 L 219.25, 193 L 219.25, 195 L 247.25, 195 Z"/><path stroke="black" fill="white" fill-opacity="0.0" d="M 294.75, 193 L 296.35, 193 L 296.35, 169 L 294.75, 169 L 294.75, 167 L 266.75, 167 L 266.75, 169 L 265.15, 169 L 265.15, 193 L 266.75, 193 L 266.75, 195 L 294.75, 195 Z"/><path stroke="black" fill="white" fill-opacity="0.0" d="M 326.55, 194.54 L 329.9, 194.54 L 329.9, 185.6 L 407.65, 185.6 L 407.65, 193 L 409.25, 193 L 409.25, 195 L 437.25, 195 L 437.25, 193 L 438.85, 193 L 438.85, 185.6 L 516.6, 185.6 L 516.6, 194.54 L 519.95, 194.54 L 519.95, 196.524 L 526.55, 196.524 L 526.55, 194.54 L 529.9, 194.54 L 529.9, 182 L 531.7, 182 L 531.7, 176.4 L 529.9, 176.4 L 529.9, 169.94 L 526.55, 169.94 L 526.55, 168.524 L 519.95, 168.524 L 519.95, 169.94 L 516.6, 169.94 L 516.6, 176.4 L 438.85, 176.4 L 438.85, 169 L 437.25, 169 L 437.25, 167 L 409.25, 167 L 409.25, 169 L 407.65, 169 L 407.65, 176.4 L 329.9, 176.4 L 329.9, 169.94 L 326.55, 169.94 L 326.55, 168.524 L 319.95, 168.524 L 319.95, 169.94 L 316.6, 169.94 L 316.6, 176.4 L 314.8, 176.4 L 314.8, 182 L 316.6, 182 L 316.6, 194.54 L 319.95, 194.54 L 319.95, 196.524 L 326.55, 196.524 Z"/><path stroke="black" fill="white" fill-opacity="0.0" d="M 579.75, 193 L 581.35, 193 L 581.35, 169 L 579.75, 169 L 579.75, 167 L 551.75, 167 L 551.75, 169 L 550.15, 169 L 550.15, 193 L 551.75, 193 L 551.75, 195 L 579.75, 195 Z"/><path stroke="black" fill="white" fill-opacity="0.0" d="M 627.25, 193 L 628.85, 193 L 628.85, 169 L 627.25, 169 L 627.25, 167 L 599.25, 167 L 599.25, 169 L 597.65, 169 L 597.65, 193 L 599.25, 193 L 599.25, 195 L 627.25, 195 Z"/><path stroke="black" fill="white" fill-opacity="0.0" d="M 674.75, 193 L 676.35, 193 L 676.35, 169 L 674.75, 169 L 674.75, 167 L 646.75, 167 L 646.75, 169 L 645.15, 169 L 645.15, 193 L 646.75, 193 L 646.75, 195 L 674.75, 195 Z"/><path stroke="black" fill="white" fill-opacity="0.0" d="M 722.25, 193 L 723.85, 193 L 723.85, 169 L 722.25, 169 L 722.25, 167 L 694.25, 167 L 694.25, 169 L 692.65, 169 L 692.65, 193 L 694.25, 193 L 694.25, 195 L 722.25, 195 Z"/></svg>