0
SECTION
2
HEADER
9
$INSUNITS
70
4
9
$INSBASE
10
0.0
20
0.0
30
0.0
9
$EXTMIN
10
0
20
0
9
$EXTMAX
10
371
20
105
0
ENDSEC
0
SECTION
2
TABLES
0
TABLE
2
LTYPE
70
1
0
LTYPE
2
CONTINUOUS
70
64
3
Solid line
72
65
73
0
40
0.0
0
ENDTAB
0
TABLE
2
LAYER
70
1
0
LAYER
2
Layer1
70
64
62
7
6
CONTINUOUS
0
ENDTAB
0
TABLE
2
STYLE
70
0
0
ENDTAB
0
TABLE
2
VIEW
70
0
0
ENDTAB
0
ENDSEC
0
SECTION
2
BLOCKS
0
ENDSEC
0
SECTION
2
ENTITIES
0
POLYLINE
5
1504
8
Layer1
66
1
10
0.0
20
0.0
30
0.0
70
1
0
VERTEX
5
1505
8
Layer1
10
0.0000
20
0.0000
30
0.0
0
VERTEX
5
1506
8
Layer1
10
371.0000
20
0.0000
30
0.0
0
VERTEX
5
1507
8
Layer1
10
371.0000
20
105.0000
30
0.0
0
VERTEX
5
1508
8
Layer1
10
0.0000
20
105.0000
30
0.0
0
VERTEX
5
1509
8
Layer1
10
0.0000
20
0.0000
30
0.0
0
SEQEND
5
150a
8
Layer1
0
POLYLINE
5
150b
8
Layer1
66
1
10
0.0
20
0.0
30
0.0
70
1
0
VERTEX
5
150c
8
Layer1
10
21.5000
20
84.5000
30
0.0
0
VERTEX
5
150d
8
Layer1
10
22.3000
20
84.5000
30
0.0
0
VERTEX
5
150e
8
Layer1
10
22.3000
20
96.5000
30
0.0
0
VERTEX
5
150f
8
Layer1
10
21.5000
20
96.5000
30
0.0
0
VERTEX
5
1510
8
Layer1
10
21.5000
20
97.5000
30
0.0
0
VERTEX
5
1511
8
Layer1
10
7.5000
20
97.5000
30
0.0
0
VERTEX
5
1512
8
Layer1
10
7.5000
20
96.5000
30
0.0
0
VERTEX
5
1513
8
Layer1
10
6.7000
20
96.5000
30
0.0
0
VERTEX
5
1514
8
Layer1
10
6.7000
20
84.5000
30
0.0
0
VERTEX
5
1515
8
Layer1
10
7.5000
20
84.5000
30
0.0
0
VERTEX
5
1516
8
Layer1
10
7.5000
20
83.5000
30
0.0
0
VERTEX
5
1517
8
Layer1
10
21.5000
20
83.5000
30
0.0
0
VERTEX
5
1518
8
Layer1
10
21.5000
20
84.5000
30
0.0
0
SEQEND
5
1519
8
Layer1
0
POLYLINE
5
151a
8
Layer1
66
1
10
0.0
20
0.0
30
0.0
70
1
0
VERTEX
5
151b
8
Layer1
10
40.5000
20
84.5000
30
0.0
0
VERTEX
5
151c
8
Layer1
10
41.3000
20
84.5000
30
0.0
0
VERTEX
5
151d
8
Layer1
10
41.3000
20
96.5000
30
0.0
0
VERTEX
5
151e
8
Layer1
10
40.5000
20
96.5000
30
0.0
0
VERTEX
5
151f
8
Layer1
10
40.5000
20
97.5000
30
0.0
0
VERTEX
5
1520
8
Layer1
10
26.5000
20
97.5000
30
0.0
0
VERTEX
5
1521
8
Layer1
10
26.5000
20
96.5000
30
0.0
0
VERTEX
5
1522
8
Layer1
10
25.7000
20
96.5000
30
0.0
0
VERTEX
5
1523
8
Layer1
10
25.7000
20
84.5000
30
0.0
0
VERTEX
5
1524
8
Layer1
10
26.5000
20
84.5000
30
0.0
0
VERTEX
5
1525
8
Layer1
10
26.5000
20
83.5000
30
0.0
0
VERTEX
5
1526
8
Layer1
10
40.5000
20
83.5000
30
0.0
0
VERTEX
5
1527
8
Layer1
10
40.5000
20
84.5000
30
0.0
0
SEQEND
5
1528
8
Layer1
0
POLYLINE
5
1529
8
Layer1
66
1
10
0.0
20
0.0
30
0.0
70
1
0
VERTEX
5
152a
8
Layer1
10
59.5000
20
84.5000
30
0.0
0
VERTEX
5
152b
8
Layer1
10
60.3000
20
84.5000
30
0.0
0
VERTEX
5
152c
8
Layer1
10
60.3000
20
96.5000
30
0.0
0
VERTEX
5
152d
8
Layer1
10
59.5000
20
96.5000
30
0.0
0
VERTEX
5
152e
8
Layer1
10
59.5000
20
97.5000
30
0.0
0
VERTEX
5
152f
8
Layer1
10
45.5000
20
97.5000
30
0.0
0
VERTEX
5
1530
8
Layer1
10
45.5000
20
96.5000
30
0.0
0
VERTEX
5
1531
8
Layer1
10
44.7000
20
96.5000
30
0.0
0
VERTEX
5
1532
8
Layer1
10
44.7000
20
84.5000
30
0.0
0
VERTEX
5
1533
8
Layer1
10
45.5000
20
84.5000
30
0.0
0
VERTEX
5
1534
8
Layer1
10
45.5000
20
83.5000
30
0.0
0
VERTEX
5
1535
8
Layer1
10
59.5000
20
83.5000
30
0.0
0
VERTEX
5
1536
8
Layer1
10
59.5000
20
84.5000
30
0.0
0
SEQEND
5
1537
8
Layer1
0
POLYLINE
5
1538
8
Layer1
66
1
10
0.0
20
0.0
30
0.0
70
1
0
VERTEX
5
1539
8
Layer1
10
78.5000
20
84.5000
30
0.0
0
VERTEX
5
153a
8
Layer1
10
79.3000
20
84.5000
30
0.0
0
VERTEX
5
153b
8
Layer1
10
79.3000
20
96.5000
30
0.0
0
VERTEX
5
153c
8
Layer1
10
78.5000
20
96.5000
30
0.0
0
VERTEX
5
153d
8
Layer1
10
78.5000
20
97.5000
30
0.0
0
VERTEX
5
153e
8
Layer1
10
64.5000
20
97.5000
30
0.0
0
VERTEX
5
153f
8
Layer1
10
64.5000
20
96.5000
30
0.0
0
VERTEX
5
1540
8
Layer1
10
63.7000
20
96.5000
30
0.0
0
VERTEX
5
1541
8
Layer1
10
63.7000
20
84.5000
30
0.0
0
VERTEX
5
1542
8
Layer1
10
64.5000
20
84.5000
30
0.0
0
VERTEX
5
1543
8
Layer1
10
64.5000
20
83.5000
30
0.0
0
VERTEX
5
1544
8
Layer1
10
78.5000
20
83.5000
30
0.0
0
VERTEX
5
1545
8
Layer1
10
78.5000
20
84.5000
30
0.0
0
SEQEND
5
1546
8
Layer1
0
POLYLINE
5
1547
8
Layer1
66
1
10
0.0
20
0.0
30
0.0
70
1
0
VERTEX
5
1548
8
Layer1
10
97.5000
20
84.5000
30
0.0
0
VERTEX
5
1549
8
Layer1
10
98.3000
20
84.5000
30
0.0
0
VERTEX
5
154a
8
Layer1
10
98.3000
20
96.5000
30
0.0
0
VERTEX
5
154b
8
Layer1
10
97.5000
20
96.5000
30
0.0
0
VERTEX
5
154c
8
Layer1
10
97.5000
20
97.5000
30
0.0
0
VERTEX
5
154d
8
Layer1
10
83.5000
20
97.5000
30
0.0
0
VERTEX
5
154e
8
Layer1
10
83.5000
20
96.5000
30
0.0
0
VERTEX
5
154f
8
Layer1
10
82.7000
20
96.5000
30
0.0
0
VERTEX
5
1550
8
Layer1
10
82.7000
20
84.5000
30
0.0
0
VERTEX
5
1551
8
Layer1
10
83.5000
20
84.5000
30
0.0
0
VERTEX
5
1552
8
Layer1
10
83.5000
20
83.5000
30
0.0
0
VERTEX
5
1553
8
Layer1
10
97.5000
20
83.5000
30
0.0
0
VERTEX
5
1554
8
Layer1
10
97.5000
20
84.5000
30
0.0
0
SEQEND
5
1555
8
Layer1
0
POLYLINE
5
1556
8
Layer1
66
1
10
0.0
20
0.0
30
0.0
70
1
0
VERTEX
5
1557
8
Layer1
10
116.5000
20
84.5000
30
0.0
0
VERTEX
5
1558
8
Layer1
10
117.3000
20
84.5000
30
0.0
0
VERTEX
5
1559
8
Layer1
10
117.3000
20
96.5000
30
0.0
0
VERTEX
5
155a
8
Layer1
10
116.5000
20
96.5000
30
0.0
0
VERTEX
5
155b
8
Layer1
10
116.5000
20
97.5000
30
0.0
0
VERTEX
5
155c
8
Layer1
10
102.5000
20
97.5000
30
0.0
0
VERTEX
5
155d
8
Layer1
10
102.5000
20
96.5000
30
0.0
0
VERTEX
5
155e
8
Layer1
10
101.7000
20
96.5000
30
0.0
0
VERTEX
5
155f
8
Layer1
10
101.7000
20
84.5000
30
0.0
0
VERTEX
5
1560
8
Layer1
10
102.5000
20
84.5000
30
0.0
0
VERTEX
5
1561
8
Layer1
10
102.5000
20
83.5000
30
0.0
0
VERTEX
5
1562
8
Layer1
10
116.5000
20
83.5000
30
0.0
0
VERTEX
5
1563
8
Layer1
10
116.5000
20
84.5000
30
0.0
0
SEQEND
5
1564
8
Layer1
0
POLYLINE
5
1565
8
Layer1
66
1
10
0.0
20
0.0
30
0.0
70
1
0
VERTEX
5
1566
8
Layer1
10
135.5000
20
84.5000
30
0.0
0
VERTEX
5
1567
8
Layer1
10
136.3000
20
84.5000
30
0.0
0
VERTEX
5
1568
8
Layer1
10
136.3000
20
96.5000
30
0.0
0
VERTEX
5
1569
8
Layer1
10
135.5000
20
96.5000
30
0.0
0
VERTEX
5
156a
8
Layer1
10
135.5000
20
97.5000
30
0.0
0
VERTEX
5
156b
8
Layer1
10
121.5000
20
97.5000
30
0.0
0
VERTEX
5
156c
8
Layer1
10
121.5000
20
96.5000
30
0.0
0
VERTEX
5
156d
8
Layer1
10
120.7000
20
96.5000
30
0.0
0
VERTEX
5
156e
8
Layer1
10
120.7000
20
84.5000
30
0.0
0
VERTEX
5
156f
8
Layer1
10
121.5000
20
84.5000
30
0.0
0
VERTEX
5
1570
8
Layer1
10
121.5000
20
83.5000
30
0.0
0
VERTEX
5
1571
8
Layer1
10
135.5000
20
83.5000
30
0.0
0
VERTEX
5
1572
8
Layer1
10
135.5000
20
84.5000
30
0.0
0
SEQEND
5
1573
8
Layer1
0
POLYLINE
5
1574
8
Layer1
66
1
10
0.0
20
0.0
30
0.0
70
1
0
VERTEX
5
1575
8
Layer1
10
154.5000
20
84.5000
30
0.0
0
VERTEX
5
1576
8
Layer1
10
155.3000
20
84.5000
30
0.0
0
VERTEX
5
1577
8
Layer1
10
155.3000
20
96.5000
30
0.0
0
VERTEX
5
1578
8
Layer1
10
154.5000
20
96.5000
30
0.0
0
VERTEX
5
1579
8
Layer1
10
154.5000
20
97.5000
30
0.0
0
VERTEX
5
157a
8
Layer1
10
140.5000
20
97.5000
30
0.0
0
VERTEX
5
157b
8
Layer1
10
140.5000
20
96.5000
30
0.0
0
VERTEX
5
157c
8
Layer1
10
139.7000
20
96.5000
30
0.0
0
VERTEX
5
157d
8
Layer1
10
139.7000
20
84.5000
30
0.0
0
VERTEX
5
157e
8
Layer1
10
140.5000
20
84.5000
30
0.0
0
VERTEX
5
157f
8
Layer1
10
140.5000
20
83.5000
30
0.0
0
VERTEX
5
1580
8
Layer1
10
154.5000
20
83.5000
30
0.0
0
VERTEX
5
1581
8
Layer1
10
154.5000
20
84.5000
30
0.0
0
SEQEND
5
1582
8
Layer1
0
POLYLINE
5
1583
8
Layer1
66
1
10
0.0
20
0.0
30
0.0
70
1
0
VERTEX
5
1584
8
Layer1
10
173.5000
20
84.5000
30
0.0
0
VERTEX
5
1585
8
Layer1
10
174.3000
20
84.5000
30
0.0
0
VERTEX
5
1586
8
Layer1
10
174.3000
20
96.5000
30
0.0
0
VERTEX
5
1587
8
Layer1
10
173.5000
20
96.5000
30
0.0
0
VERTEX
5
1588
8
Layer1
10
173.5000
20
97.5000
30
0.0
0
VERTEX
5
1589
8
Layer1
10
159.5000
20
97.5000
30
0.0
0
VERTEX
5
158a
8
Layer1
10
159.5000
20
96.5000
30
0.0
0
VERTEX
5
158b
8
Layer1
10
158.7000
20
96.5000
30
0.0
0
VERTEX
5
158c
8
Layer1
10
158.7000
20
84.5000
30
0.0
0
VERTEX
5
158d
8
Layer1
10
159.5000
20
84.5000
30
0.0
0
VERTEX
5
158e
8
Layer1
10
159.5000
20
83.5000
30
0.0
0
VERTEX
5
158f
8
Layer1
10
173.5000
20
83.5000
30
0.0
0
VERTEX
5
1590
8
Layer1
10
173.5000
20
84.5000
30
0.0
0
SEQEND
5
1591
8
Layer1
0
POLYLINE
5
1592
8
Layer1
66
1
10
0.0
20
0.0
30
0.0
70
1
0
VERTEX
5
1593
8
Layer1
10
192.5000
20
84.5000
30
0.0
0
VERTEX
5
1594
8
Layer1
10
193.3000
20
84.5000
30
0.0
0
VERTEX
5
1595
8
Layer1
10
193.3000
20
96.5000
30
0.0
0
VERTEX
5
1596
8
Layer1
10
192.5000
20
96.5000
30
0.0
0
VERTEX
5
1597
8
Layer1
10
192.5000
20
97.5000
30
0.0
0
VERTEX
5
1598
8
Layer1
10
178.5000
20
97.5000
30
0.0
0
VERTEX
5
1599
8
Layer1
10
178.5000
20
96.5000
30
0.0
0
VERTEX
5
159a
8
Layer1
10
177.7000
20
96.5000
30
0.0
0
VERTEX
5
159b
8
Layer1
10
177.7000
20
84.5000
30
0.0
0
VERTEX
5
159c
8
Layer1
10
178.5000
20
84.5000
30
0.0
0
VERTEX
5
159d
8
Layer1
10
178.5000
20
83.5000
30
0.0
0
VERTEX
5
159e
8
Layer1
10
192.5000
20
83.5000
30
0.0
0
VERTEX
5
159f
8
Layer1
10
192.5000
20
84.5000
30
0.0
0
SEQEND
5
15a0
8
Layer1
0
POLYLINE
5
15a1
8
Layer1
66
1
10
0.0
20
0.0
30
0.0
70
1
0
VERTEX
5
15a2
8
Layer1
10
211.5000
20
84.5000
30
0.0
0
VERTEX
5
15a3
8
Layer1
10
212.3000
20
84.5000
30
0.0
0
VERTEX
5
15a4
8
Layer1
10
212.3000
20
96.5000
30
0.0
0
VERTEX
5
15a5
8
Layer1
10
211.5000
20
96.5000
30
0.0
0
VERTEX
5
15a6
8
Layer1
10
211.5000
20
97.5000
30
0.0
0
VERTEX
5
15a7
8
Layer1
10
197.5000
20
97.5000
30
0.0
0
VERTEX
5
15a8
8
Layer1
10
197.5000
20
96.5000
30
0.0
0
VERTEX
5
15a9
8
Layer1
10
196.7000
20
96.5000
30
0.0
0
VERTEX
5
15aa
8
Layer1
10
196.7000
20
84.5000
30
0.0
0
VERTEX
5
15ab
8
Layer1
10
197.5000
20
84.5000
30
0.0
0
VERTEX
5
15ac
8
Layer1
10
197.5000
20
83.5000
30
0.0
0
VERTEX
5
15ad
8
Layer1
10
211.5000
20
83.5000
30
0.0
0
VERTEX
5
15ae
8
Layer1
10
211.5000
20
84.5000
30
0.0
0
SEQEND
5
15af
8
Layer1
0
POLYLINE
5
15b0
8
Layer1
66
1
10
0.0
20
0.0
30
0.0
70
1
0
VERTEX
5
15b1
8
Layer1
10
230.5000
20
84.5000
30
0.0
0
VERTEX
5
15b2
8
Layer1
10
231.3000
20
84.5000
30
0.0
0
VERTEX
5
15b3
8
Layer1
10
231.3000
20
96.5000
30
0.0
0
VERTEX
5
15b4
8
Layer1
10
230.5000
20
96.5000
30
0.0
0
VERTEX
5
15b5
8
Layer1
10
230.5000
20
97.5000
30
0.0
0
VERTEX
5
15b6
8
Layer1
10
216.5000
20
97.5000
30
0.0
0
VERTEX
5
15b7
8
Layer1
10
216.5000
20
96.5000
30
0.0
0
VERTEX
5
15b8
8
Layer1
10
215.7000
20
96.5000
30
0.0
0
VERTEX
5
15b9
8
Layer1
10
215.7000
20
84.5000
30
0.0
0
VERTEX
5
15ba
8
Layer1
10
216.5000
20
84.5000
30
0.0
0
VERTEX
5
15bb
8
Layer1
10
216.5000
20
83.5000
30
0.0
0
VERTEX
5
15bc
8
Layer1
10
230.5000
20
83.5000
30
0.0
0
VERTEX
5
15bd
8
Layer1
10
230.5000
20
84.5000
30
0.0
0
SEQEND
5
15be
8
Layer1
0
POLYLINE
5
15bf
8
Layer1
66
1
10
0.0
20
0.0
30
0.0
70
1
0
VERTEX
5
15c0
8
Layer1
10
249.5000
20
84.5000
30
0.0
0
VERTEX
5
15c1
8
Layer1
10
250.3000
20
84.5000
30
0.0
0
VERTEX
5
15c2
8
Layer1
10
250.3000
20
96.5000
30
0.0
0
VERTEX
5
15c3
8
Layer1
10
249.5000
20
96.5000
30
0.0
0
VERTEX
5
15c4
8
Layer1
10
249.5000
20
97.5000
30
0.0
0
VERTEX
5
15c5
8
Layer1
10
235.5000
20
97.5000
30
0.0
0
VERTEX
5
15c6
8
Layer1
10
235.5000
20
96.5000
30
0.0
0
VERTEX
5
15c7
8
Layer1
10
234.7000
20
96.5000
30
0.0
0
VERTEX
5
15c8
8
Layer1
10
234.7000
20
84.5000
30
0.0
0
VERTEX
5
15c9
8
Layer1
10
235.5000
20
84.5000
30
0.0
0
VERTEX
5
15ca
8
Layer1
10
235.5000
20
83.5000
30
0.0
0
VERTEX
5
15cb
8
Layer1
10
249.5000
20
83.5000
30
0.0
0
VERTEX
5
15cc
8
Layer1
10
249.5000
20
84.5000
30
0.0
0
SEQEND
5
15cd
8
Layer1
0
POLYLINE
5
15ce
8
Layer1
66
1
10
0.0
20
0.0
30
0.0
70
1
0
VERTEX
5
15cf
8
Layer1
10
268.5000
20
84.5000
30
0.0
0
VERTEX
5
15d0
8
Layer1
10
269.3000
20
84.5000
30
0.0
0
VERTEX
5
15d1
8
Layer1
10
269.3000
20
96.5000
30
0.0
0
VERTEX
5
15d2
8
Layer1
10
268.5000
20
96.5000
30
0.0
0
VERTEX
5
15d3
8
Layer1
10
268.5000
20
97.5000
30
0.0
0
VERTEX
5
15d4
8
Layer1
10
254.5000
20
97.5000
30
0.0
0
VERTEX
5
15d5
8
Layer1
10
254.5000
20
96.5000
30
0.0
0
VERTEX
5
15d6
8
Layer1
10
253.7000
20
96.5000
30
0.0
0
VERTEX
5
15d7
8
Layer1
10
253.7000
20
84.5000
30
0.0
0
VERTEX
5
15d8
8
Layer1
10
254.5000
20
84.5000
30
0.0
0
VERTEX
5
15d9
8
Layer1
10
254.5000
20
83.5000
30
0.0
0
VERTEX
5
15da
8
Layer1
10
268.5000
20
83.5000
30
0.0
0
VERTEX
5
15db
8
Layer1
10
268.5000
20
84.5000
30
0.0
0
SEQEND
5
15dc
8
Layer1
0
POLYLINE
5
15dd
8
Layer1
66
1
10
0.0
20
0.0
30
0.0
70
1
0
VERTEX
5
15de
8
Layer1
10
287.5000
20
84.5000
30
0.0
0
VERTEX
5
15df
8
Layer1
10
288.3000
20
84.5000
30
0.0
0
VERTEX
5
15e0
8
Layer1
10
288.3000
20
96.5000
30
0.0
0
VERTEX
5
15e1
8
Layer1
10
287.5000
20
96.5000
30
0.0
0
VERTEX
5
15e2
8
Layer1
10
287.5000
20
97.5000
30
0.0
0
VERTEX
5
15e3
8
Layer1
10
273.5000
20
97.5000
30
0.0
0
VERTEX
5
15e4
8
Layer1
10
273.5000
20
96.5000
30
0.0
0
VERTEX
5
15e5
8
Layer1
10
272.7000
20
96.5000
30
0.0
0
VERTEX
5
15e6
8
Layer1
10
272.7000
20
84.5000
30
0.0
0
VERTEX
5
15e7
8
Layer1
10
273.5000
20
84.5000
30
0.0
0
VERTEX
5
15e8
8
Layer1
10
273.5000
20
83.5000
30
0.0
0
VERTEX
5
15e9
8
Layer1
10
287.5000
20
83.5000
30
0.0
0
VERTEX
5
15ea
8
Layer1
10
287.5000
20
84.5000
30
0.0
0
SEQEND
5
15eb
8
Layer1
0
POLYLINE
5
15ec
8
Layer1
66
1
10
0.0
20
0.0
30
0.0
70
1
0
VERTEX
5
15ed
8
Layer1
10
306.5000
20
84.5000
30
0.0
0
VERTEX
5
15ee
8
Layer1
10
307.3000
20
84.5000
30
0.0
0
VERTEX
5
15ef
8
Layer1
10
307.3000
20
96.5000
30
0.0
0
VERTEX
5
15f0
8
Layer1
10
306.5000
20
96.5000
30
0.0
0
VERTEX
5
15f1
8
Layer1
10
306.5000
20
97.5000
30
0.0
0
VERTEX
5
15f2
8
Layer1
10
292.5000
20
97.5000
30
0.0
0
VERTEX
5
15f3
8
Layer1
10
292.5000
20
96.5000
30
0.0
0
VERTEX
5
15f4
8
Layer1
10
291.7000
20
96.5000
30
0.0
0
VERTEX
5
15f5
8
Layer1
10
291.7000
20
84.5000
30
0.0
0
VERTEX
5
15f6
8
Layer1
10
292.5000
20
84.5000
30
0.0
0
VERTEX
5
15f7
8
Layer1
10
292.5000
20
83.5000
30
0.0
0
VERTEX
5
15f8
8
Layer1
10
306.5000
20
83.5000
30
0.0
0
VERTEX
5
15f9
8
Layer1
10
306.5000
20
84.5000
30
0.0
0
SEQEND
5
15fa
8
Layer1
0
POLYLINE
5
15fb
8
Layer1
66
1
10
0.0
20
0.0
30
0.0
70
1
0
VERTEX
5
15fc
8
Layer1
10
325.5000
20
84.5000
30
0.0
0
VERTEX
5
15fd
8
Layer1
10
326.3000
20
84.5000
30
0.0
0
VERTEX
5
15fe
8
Layer1
10
326.3000
20
96.5000
30
0.0
0
VERTEX
5
15ff
8
Layer1
10
325.5000
20
96.5000
30
0.0
0
VERTEX
5
1600
8
Layer1
10
325.5000
20
97.5000
30
0.0
0
VERTEX
5
1601
8
Layer1
10
311.5000
20
97.5000
30
0.0
0
VERTEX
5
1602
8
Layer1
10
311.5000
20
96.5000
30
0.0
0
VERTEX
5
1603
8
Layer1
10
310.7000
20
96.5000
30
0.0
0
VERTEX
5
1604
8
Layer1
10
310.7000
20
84.5000
30
0.0
0
VERTEX
5
1605
8
Layer1
10
311.5000
20
84.5000
30
0.0
0
VERTEX
5
1606
8
Layer1
10
311.5000
20
83.5000
30
0.0
0
VERTEX
5
1607
8
Layer1
10
325.5000
20
83.5000
30
0.0
0
VERTEX
5
1608
8
Layer1
10
325.5000
20
84.5000
30
0.0
0
SEQEND
5
1609
8
Layer1
0
POLYLINE
5
160a
8
Layer1
66
1
10
0.0
20
0.0
30
0.0
70
1
0
VERTEX
5
160b
8
Layer1
10
336.7500
20
83.7300
30
0.0
0
VERTEX
5
160c
8
Layer1
10
338.4250
20
83.7300
30
0.0
0
VERTEX
5
160d
8
Layer1
10
338.4250
20
84.5300
30
0.0
0
VERTEX
5
160e
8
Layer1
10
339.2000
20
84.5300
30
0.0
0
VERTEX
5
160f
8
Layer1
10
339.2000
20
84.5000
30
0.0
0
VERTEX
5
1610
8
Layer1
10
340.0000
20
84.5000
30
0.0
0
VERTEX
5
1611
8
Layer1
10
340.0000
20
83.5000
30
0.0
0
VERTEX
5
1612
8
Layer1
10
354.0000
20
83.5000
30
0.0
0
VERTEX
5
1613
8
Layer1
10
354.0000
20
84.5000
30
0.0
0
VERTEX
5
1614
8
Layer1
10
354.8000
20
84.5000
30
0.0
0
VERTEX
5
1615
8
Layer1
10
354.8000
20
84.5300
30
0.0
0
VERTEX
5
1616
8
Layer1
10
355.5750
20
84.5300
30
0.0
0
VERTEX
5
1617
8
Layer1
10
355.5750
20
83.7300
30
0.0
0
VERTEX
5
1618
8
Layer1
10
357.2500
20
83.7300
30
0.0
0
VERTEX
5
1619
8
Layer1
10
357.2500
20
82.7380
30
0.0
0
VERTEX
5
161a
8
Layer1
10
360.5500
20
82.7380
30
0.0
0
VERTEX
5
161b
8
Layer1
10
360.5500
20
83.7300
30
0.0
0
VERTEX
5
161c
8
Layer1
10
362.2250
20
83.7300
30
0.0
0
VERTEX
5
161d
8
Layer1
10
362.2250
20
90.0000
30
0.0
0
VERTEX
5
161e
8
Layer1
10
363.1000
20
90.0000
30
0.0
0
VERTEX
5
161f
8
Layer1
10
363.1000
20
92.8000
30
0.0
0
VERTEX
5
1620
8
Layer1
10
362.2250
20
92.8000
30
0.0
0
VERTEX
5
1621
8
Layer1
10
362.2250
20
96.0300
30
0.0
0
VERTEX
5
1622
8
Layer1
10
360.5500
20
96.0300
30
0.0
0
VERTEX
5
1623
8
Layer1
10
360.5500
20
96.7380
30
0.0
0
VERTEX
5
1624
8
Layer1
10
357.2500
20
96.7380
30
0.0
0
VERTEX
5
1625
8
Layer1
10
357.2500
20
96.0300
30
0.0
0
VERTEX
5
1626
8
Layer1
10
355.5750
20
96.0300
30
0.0
0
VERTEX
5
1627
8
Layer1
10
355.5750
20
95.2300
30
0.0
0
VERTEX
5
1628
8
Layer1
10
354.8000
20
95.2300
30
0.0
0
VERTEX
5
1629
8
Layer1
10
354.8000
20
96.5000
30
0.0
0
VERTEX
5
162a
8
Layer1
10
354.0000
20
96.5000
30
0.0
0
VERTEX
5
162b
8
Layer1
10
354.0000
20
97.5000
30
0.0
0
VERTEX
5
162c
8
Layer1
10
340.0000
20
97.5000
30
0.0
0
VERTEX
5
162d
8
Layer1
10
340.0000
20
96.5000
30
0.0
0
VERTEX
5
162e
8
Layer1
10
339.2000
20
96.5000
30
0.0
0
VERTEX
5
162f
8
Layer1
10
339.2000
20
95.2300
30
0.0
0
VERTEX
5
1630
8
Layer1
10
338.4250
20
95.2300
30
0.0
0
VERTEX
5
1631
8
Layer1
10
338.4250
20
96.0300
30
0.0
0
VERTEX
5
1632
8
Layer1
10
336.7500
20
96.0300
30
0.0
0
VERTEX
5
1633
8
Layer1
10
336.7500
20
96.7380
30
0.0
0
VERTEX
5
1634
8
Layer1
10
333.4500
20
96.7380
30
0.0
0
VERTEX
5
1635
8
Layer1
10
333.4500
20
96.0300
30
0.0
0
VERTEX
5
1636
8
Layer1
10
331.7750
20
96.0300
30
0.0
0
VERTEX
5
1637
8
Layer1
10
331.7750
20
92.8000
30
0.0
0
VERTEX
5
1638
8
Layer1
10
330.9000
20
92.8000
30
0.0
0
VERTEX
5
1639
8
Layer1
10
330.9000
20
90.0000
30
0.0
0
VERTEX
5
163a
8
Layer1
10
331.7750
20
90.0000
30
0.0
0
VERTEX
5
163b
8
Layer1
10
331.7750
20
83.7300
30
0.0
0
VERTEX
5
163c
8
Layer1
10
333.4500
20
83.7300
30
0.0
0
VERTEX
5
163d
8
Layer1
10
333.4500
20
82.7380
30
0.0
0
VERTEX
5
163e
8
Layer1
10
336.7500
20
82.7380
30
0.0
0
VERTEX
5
163f
8
Layer1
10
336.7500
20
83.7300
30
0.0
0
SEQEND
5
1640
8
Layer1
0
POLYLINE
5
1641
8
Layer1
66
1
10
0.0
20
0.0
30
0.0
70
1
0
VERTEX
5
1642
8
Layer1
10
7.7300
20
72.2500
30
0.0
0
VERTEX
5
1643
8
Layer1
10
7.7300
20
70.5750
30
0.0
0
VERTEX
5
1644
8
Layer1
10
8.5300
20
70.5750
30
0.0
0
VERTEX
5
1645
8
Layer1
10
8.5300
20
69.8000
30
0.0
0
VERTEX
5
1646
8
Layer1
10
8.5000
20
69.8000
30
0.0
0
VERTEX
5
1647
8
Layer1
10
8.5000
20
69.0000
30
0.0
0
VERTEX
5
1648
8
Layer1
10
7.5000
20
69.0000
30
0.0
0
VERTEX
5
1649
8
Layer1
10
7.5000
20
55.0000
30
0.0
0
VERTEX
5
164a
8
Layer1
10
8.5000
20
55.0000
30
0.0
0
VERTEX
5
164b
8
Layer1
10
8.5000
20
54.2000
30
0.0
0
VERTEX
5
164c
8
Layer1
10
8.5300
20
54.2000
30
0.0
0
VERTEX
5
164d
8
Layer1
10
8.5300
20
53.4250
30
0.0
0
VERTEX
5
164e
8
Layer1
10
7.7300
20
53.4250
30
0.0
0
VERTEX
5
164f
8
Layer1
10
7.7300
20
51.7500
30
0.0
0
VERTEX
5
1650
8
Layer1
10
6.7380
20
51.7500
30
0.0
0
VERTEX
5
1651
8
Layer1
10
6.7380
20
48.4500
30
0.0
0
VERTEX
5
1652
8
Layer1
10
7.7300
20
48.4500
30
0.0
0
VERTEX
5
1653
8
Layer1
10
7.7300
20
46.7750
30
0.0
0
VERTEX
5
1654
8
Layer1
10
14.0000
20
46.7750
30
0.0
0
VERTEX
5
1655
8
Layer1
10
14.0000
20
45.9000
30
0.0
0
VERTEX
5
1656
8
Layer1
10
16.8000
20
45.9000
30
0.0
0
VERTEX
5
1657
8
Layer1
10
16.8000
20
46.7750
30
0.0
0
VERTEX
5
1658
8
Layer1
10
20.0300
20
46.7750
30
0.0
0
VERTEX
5
1659
8
Layer1
10
20.0300
20
48.4500
30
0.0
0
VERTEX
5
165a
8
Layer1
10
20.7380
20
48.4500
30
0.0
0
VERTEX
5
165b
8
Layer1
10
20.7380
20
51.7500
30
0.0
0
VERTEX
5
165c
8
Layer1
10
20.0300
20
51.7500
30
0.0
0
VERTEX
5
165d
8
Layer1
10
20.0300
20
53.4250
30
0.0
0
VERTEX
5
165e
8
Layer1
10
19.2300
20
53.4250
30
0.0
0
VERTEX
5
165f
8
Layer1
10
19.2300
20
54.2000
30
0.0
0
VERTEX
5
1660
8
Layer1
10
20.5000
20
54.2000
30
0.0
0
VERTEX
5
1661
8
Layer1
10
20.5000
20
55.0000
30
0.0
0
VERTEX
5
1662
8
Layer1
10
21.5000
20
55.0000
30
0.0
0
VERTEX
5
1663
8
Layer1
10
21.5000
20
69.0000
30
0.0
0
VERTEX
5
1664
8
Layer1
10
20.5000
20
69.0000
30
0.0
0
VERTEX
5
1665
8
Layer1
10
20.5000
20
69.8000
30
0.0
0
VERTEX
5
1666
8
Layer1
10
19.2300
20
69.8000
30
0.0
0
VERTEX
5
1667
8
Layer1
10
19.2300
20
70.5750
30
0.0
0
VERTEX
5
1668
8
Layer1
10
20.0300
20
70.5750
30
0.0
0
VERTEX
5
1669
8
Layer1
10
20.0300
20
72.2500
30
0.0
0
VERTEX
5
166a
8
Layer1
10
20.7380
20
72.2500
30
0.0
0
VERTEX
5
166b
8
Layer1
10
20.7380
20
75.5500
30
0.0
0
VERTEX
5
166c
8
Layer1
10
20.0300
20
75.5500
30
0.0
0
VERTEX
5
166d
8
Layer1
10
20.0300
20
77.2250
30
0.0
0
VERTEX
5
166e
8
Layer1
10
16.8000
20
77.2250
30
0.0
0
VERTEX
5
166f
8
Layer1
10
16.8000
20
78.1000
30
0.0
0
VERTEX
5
1670
8
Layer1
10
14.0000
20
78.1000
30
0.0
0
VERTEX
5
1671
8
Layer1
10
14.0000
20
77.2250
30
0.0
0
VERTEX
5
1672
8
Layer1
10
7.7300
20
77.2250
30
0.0
0
VERTEX
5
1673
8
Layer1
10
7.7300
20
75.5500
30
0.0
0
VERTEX
5
1674
8
Layer1
10
6.7380
20
75.5500
30
0.0
0
VERTEX
5
1675
8
Layer1
10
6.7380
20
72.2500
30
0.0
0
VERTEX
5
1676
8
Layer1
10
7.7300
20
72.2500
30
0.0
0
SEQEND
5
1677
8
Layer1
0
POLYLINE
5
1678
8
Layer1
66
1
10
0.0
20
0.0
30
0.0
70
1
0
VERTEX
5
1679
8
Layer1
10
40.5000
20
65.5000
30
0.0
0
VERTEX
5
167a
8
Layer1
10
41.3000
20
65.5000
30
0.0
0
VERTEX
5
167b
8
Layer1
10
41.3000
20
77.5000
30
0.0
0
VERTEX
5
167c
8
Layer1
10
40.5000
20
77.5000
30
0.0
0
VERTEX
5
167d
8
Layer1
10
40.5000
20
78.5000
30
0.0
0
VERTEX
5
167e
8
Layer1
10
26.5000
20
78.5000
30
0.0
0
VERTEX
5
167f
8
Layer1
10
26.5000
20
77.5000
30
0.0
0
VERTEX
5
1680
8
Layer1
10
25.7000
20
77.5000
30
0.0
0
VERTEX
5
1681
8
Layer1
10
25.7000
20
65.5000
30
0.0
0
VERTEX
5
1682
8
Layer1
10
26.5000
20
65.5000
30
0.0
0
VERTEX
5
1683
8
Layer1
10
26.5000
20
64.5000
30
0.0
0
VERTEX
5
1684
8
Layer1
10
40.5000
20
64.5000
30
0.0
0
VERTEX
5
1685
8
Layer1
10
40.5000
20
65.5000
30
0.0
0
SEQEND
5
1686
8
Layer1
0
POLYLINE
5
1687
8
Layer1
66
1
10
0.0
20
0.0
30
0.0
70
1
0
VERTEX
5
1688
8
Layer1
10
59.5000
20
65.5000
30
0.0
0
VERTEX
5
1689
8
Layer1
10
60.3000
20
65.5000
30
0.0
0
VERTEX
5
168a
8
Layer1
10
60.3000
20
77.5000
30
0.0
0
VERTEX
5
168b
8
Layer1
10
59.5000
20
77.5000
30
0.0
0
VERTEX
5
168c
8
Layer1
10
59.5000
20
78.5000
30
0.0
0
VERTEX
5
168d
8
Layer1
10
45.5000
20
78.5000
30
0.0
0
VERTEX
5
168e
8
Layer1
10
45.5000
20
77.5000
30
0.0
0
VERTEX
5
168f
8
Layer1
10
44.7000
20
77.5000
30
0.0
0
VERTEX
5
1690
8
Layer1
10
44.7000
20
65.5000
30
0.0
0
VERTEX
5
1691
8
Layer1
10
45.5000
20
65.5000
30
0.0
0
VERTEX
5
1692
8
Layer1
10
45.5000
20
64.5000
30
0.0
0
VERTEX
5
1693
8
Layer1
10
59.5000
20
64.5000
30
0.0
0
VERTEX
5
1694
8
Layer1
10
59.5000
20
65.5000
30
0.0
0
SEQEND
5
1695
8
Layer1
0
POLYLINE
5
1696
8
Layer1
66
1
10
0.0
20
0.0
30
0.0
70
1
0
VERTEX
5
1697
8
Layer1
10
78.5000
20
65.5000
30
0.0
0
VERTEX
5
1698
8
Layer1
10
79.3000
20
65.5000
30
0.0
0
VERTEX
5
1699
8
Layer1
10
79.3000
20
77.5000
30
0.0
0
VERTEX
5
169a
8
Layer1
10
78.5000
20
77.5000
30
0.0
0
VERTEX
5
169b
8
Layer1
10
78.5000
20
78.5000
30
0.0
0
VERTEX
5
169c
8
Layer1
10
64.5000
20
78.5000
30
0.0
0
VERTEX
5
169d
8
Layer1
10
64.5000
20
77.5000
30
0.0
0
VERTEX
5
169e
8
Layer1
10
63.7000
20
77.5000
30
0.0
0
VERTEX
5
169f
8
Layer1
10
63.7000
20
65.5000
30
0.0
0
VERTEX
5
16a0
8
Layer1
10
64.5000
20
65.5000
30
0.0
0
VERTEX
5
16a1
8
Layer1
10
64.5000
20
64.5000
30
0.0
0
VERTEX
5
16a2
8
Layer1
10
78.5000
20
64.5000
30
0.0
0
VERTEX
5
16a3
8
Layer1
10
78.5000
20
65.5000
30
0.0
0
SEQEND
5
16a4
8
Layer1
0
POLYLINE
5
16a5
8
Layer1
66
1
10
0.0
20
0.0
30
0.0
70
1
0
VERTEX
5
16a6
8
Layer1
10
102.2500
20
65.5000
30
0.0
0
VERTEX
5
16a7
8
Layer1
10
103.0500
20
65.5000
30
0.0
0
VERTEX
5
16a8
8
Layer1
10
103.0500
20
77.5000
30
0.0
0
VERTEX
5
16a9
8
Layer1
10
102.2500
20
77.5000
30
0.0
0
VERTEX
5
16aa
8
Layer1
10
102.2500
20
78.5000
30
0.0
0
VERTEX
5
16ab
8
Layer1
10
88.2500
20
78.5000
30
0.0
0
VERTEX
5
16ac
8
Layer1
10
88.2500
20
77.5000
30
0.0
0
VERTEX
5
16ad
8
Layer1
10
87.4500
20
77.5000
30
0.0
0
VERTEX
5
16ae
8
Layer1
10
87.4500
20
65.5000
30
0.0
0
VERTEX
5
16af
8
Layer1
10
88.2500
20
65.5000
30
0.0
0
VERTEX
5
16b0
8
Layer1
10
88.2500
20
64.5000
30
0.0
0
VERTEX
5
16b1
8
Layer1
10
102.2500
20
64.5000
30
0.0
0
VERTEX
5
16b2
8
Layer1
10
102.2500
20
65.5000
30
0.0
0
SEQEND
5
16b3
8
Layer1
0
POLYLINE
5
16b4
8
Layer1
66
1
10
0.0
20
0.0
30
0.0
70
1
0
VERTEX
5
16b5
8
Layer1
10
126.0000
20
65.5000
30
0.0
0
VERTEX
5
16b6
8
Layer1
10
126.8000
20
65.5000
30
0.0
0
VERTEX
5
16b7
8
Layer1
10
126.8000
20
77.5000
30
0.0
0
VERTEX
5
16b8
8
Layer1
10
126.0000
20
77.5000
30
0.0
0
VERTEX
5
16b9
8
Layer1
10
126.0000
20
78.5000
30
0.0
0
VERTEX
5
16ba
8
Layer1
10
112.0000
20
78.5000
30
0.0
0
VERTEX
5
16bb
8
Layer1
10
112.0000
20
77.5000
30
0.0
0
VERTEX
5
16bc
8
Layer1
10
111.2000
20
77.5000
30
0.0
0
VERTEX
5
16bd
8
Layer1
10
111.2000
20
65.5000
30
0.0
0
VERTEX
5
16be
8
Layer1
10
112.0000
20
65.5000
30
0.0
0
VERTEX
5
16bf
8
Layer1
10
112.0000
20
64.5000
30
0.0
0
VERTEX
5
16c0
8
Layer1
10
126.0000
20
64.5000
30
0.0
0
VERTEX
5
16c1
8
Layer1
10
126.0000
20
65.5000
30
0.0
0
SEQEND
5
16c2
8
Layer1
0
POLYLINE
5
16c3
8
Layer1
66
1
10
0.0
20
0.0
30
0.0
70
1
0
VERTEX
5
16c4
8
Layer1
10
145.0000
20
65.5000
30
0.0
0
VERTEX
5
16c5
8
Layer1
10
145.8000
20
65.5000
30
0.0
0
VERTEX
5
16c6
8
Layer1
10
145.8000
20
77.5000
30
0.0
0
VERTEX
5
16c7
8
Layer1
10
145.0000
20
77.5000
30
0.0
0
VERTEX
5
16c8
8
Layer1
10
145.0000
20
78.5000
30
0.0
0
VERTEX
5
16c9
8
Layer1
10
131.0000
20
78.5000
30
0.0
0
VERTEX
5
16ca
8
Layer1
10
131.0000
20
77.5000
30
0.0
0
VERTEX
5
16cb
8
Layer1
10
130.2000
20
77.5000
30
0.0
0
VERTEX
5
16cc
8
Layer1
10
130.2000
20
65.5000
30
0.0
0
VERTEX
5
16cd
8
Layer1
10
131.0000
20
65.5000
30
0.0
0
VERTEX
5
16ce
8
Layer1
10
131.0000
20
64.5000
30
0.0
0
VERTEX
5
16cf
8
Layer1
10
145.0000
20
64.5000
30
0.0
0
VERTEX
5
16d0
8
Layer1
10
145.0000
20
65.5000
30
0.0
0
SEQEND
5
16d1
8
Layer1
0
POLYLINE
5
16d2
8
Layer1
66
1
10
0.0
20
0.0
30
0.0
70
1
0
VERTEX
5
16d3
8
Layer1
10
164.0000
20
65.5000
30
0.0
0
VERTEX
5
16d4
8
Layer1
10
164.8000
20
65.5000
30
0.0
0
VERTEX
5
16d5
8
Layer1
10
164.8000
20
77.5000
30
0.0
0
VERTEX
5
16d6
8
Layer1
10
164.0000
20
77.5000
30
0.0
0
VERTEX
5
16d7
8
Layer1
10
164.0000
20
78.5000
30
0.0
0
VERTEX
5
16d8
8
Layer1
10
150.0000
20
78.5000
30
0.0
0
VERTEX
5
16d9
8
Layer1
10
150.0000
20
77.5000
30
0.0
0
VERTEX
5
16da
8
Layer1
10
149.2000
20
77.5000
30
0.0
0
VERTEX
5
16db
8
Layer1
10
149.2000
20
65.5000
30
0.0
0
VERTEX
5
16dc
8
Layer1
10
150.0000
20
65.5000
30
0.0
0
VERTEX
5
16dd
8
Layer1
10
150.0000
20
64.5000
30
0.0
0
VERTEX
5
16de
8
Layer1
10
164.0000
20
64.5000
30
0.0
0
VERTEX
5
16df
8
Layer1
10
164.0000
20
65.5000
30
0.0
0
SEQEND
5
16e0
8
Layer1
0
POLYLINE
5
16e1
8
Layer1
66
1
10
0.0
20
0.0
30
0.0
70
1
0
VERTEX
5
16e2
8
Layer1
10
183.0000
20
65.5000
30
0.0
0
VERTEX
5
16e3
8
Layer1
10
183.8000
20
65.5000
30
0.0
0
VERTEX
5
16e4
8
Layer1
10
183.8000
20
77.5000
30
0.0
0
VERTEX
5
16e5
8
Layer1
10
183.0000
20
77.5000
30
0.0
0
VERTEX
5
16e6
8
Layer1
10
183.0000
20
78.5000
30
0.0
0
VERTEX
5
16e7
8
Layer1
10
169.0000
20
78.5000
30
0.0
0
VERTEX
5
16e8
8
Layer1
10
169.0000
20
77.5000
30
0.0
0
VERTEX
5
16e9
8
Layer1
10
168.2000
20
77.5000
30
0.0
0
VERTEX
5
16ea
8
Layer1
10
168.2000
20
65.5000
30
0.0
0
VERTEX
5
16eb
8
Layer1
10
169.0000
20
65.5000
30
0.0
0
VERTEX
5
16ec
8
Layer1
10
169.0000
20
64.5000
30
0.0
0
VERTEX
5
16ed
8
Layer1
10
183.0000
20
64.5000
30
0.0
0
VERTEX
5
16ee
8
Layer1
10
183.0000
20
65.5000
30
0.0
0
SEQEND
5
16ef
8
Layer1
0
POLYLINE
5
16f0
8
Layer1
66
1
10
0.0
20
0.0
30
0.0
70
1
0
VERTEX
5
16f1
8
Layer1
10
202.0000
20
65.5000
30
0.0
0
VERTEX
5
16f2
8
Layer1
10
202.8000
20
65.5000
30
0.0
0
VERTEX
5
16f3
8
Layer1
10
202.8000
20
77.5000
30
0.0
0
VERTEX
5
16f4
8
Layer1
10
202.0000
20
77.5000
30
0.0
0
VERTEX
5
16f5
8
Layer1
10
202.0000
20
78.5000
30
0.0
0
VERTEX
5
16f6
8
Layer1
10
188.0000
20
78.5000
30
0.0
0
VERTEX
5
16f7
8
Layer1
10
188.0000
20
77.5000
30
0.0
0
VERTEX
5
16f8
8
Layer1
10
187.2000
20
77.5000
30
0.0
0
VERTEX
5
16f9
8
Layer1
10
187.2000
20
65.5000
30
0.0
0
VERTEX
5
16fa
8
Layer1
10
188.0000
20
65.5000
30
0.0
0
VERTEX
5
16fb
8
Layer1
10
188.0000
20
64.5000
30
0.0
0
VERTEX
5
16fc
8
Layer1
10
202.0000
20
64.5000
30
0.0
0
VERTEX
5
16fd
8
Layer1
10
202.0000
20
65.5000
30
0.0
0
SEQEND
5
16fe
8
Layer1
0
POLYLINE
5
16ff
8
Layer1
66
1
10
0.0
20
0.0
30
0.0
70
1
0
VERTEX
5
1700
8
Layer1
10
221.0000
20
65.5000
30
0.0
0
VERTEX
5
1701
8
Layer1
10
221.8000
20
65.5000
30
0.0
0
VERTEX
5
1702
8
Layer1
10
221.8000
20
77.5000
30
0.0
0
VERTEX
5
1703
8
Layer1
10
221.0000
20
77.5000
30
0.0
0
VERTEX
5
1704
8
Layer1
10
221.0000
20
78.5000
30
0.0
0
VERTEX
5
1705
8
Layer1
10
207.0000
20
78.5000
30
0.0
0
VERTEX
5
1706
8
Layer1
10
207.0000
20
77.5000
30
0.0
0
VERTEX
5
1707
8
Layer1
10
206.2000
20
77.5000
30
0.0
0
VERTEX
5
1708
8
Layer1
10
206.2000
20
65.5000
30
0.0
0
VERTEX
5
1709
8
Layer1
10
207.0000
20
65.5000
30
0.0
0
VERTEX
5
170a
8
Layer1
10
207.0000
20
64.5000
30
0.0
0
VERTEX
5
170b
8
Layer1
10
221.0000
20
64.5000
30
0.0
0
VERTEX
5
170c
8
Layer1
10
221.0000
20
65.5000
30
0.0
0
SEQEND
5
170d
8
Layer1
0
POLYLINE
5
170e
8
Layer1
66
1
10
0.0
20
0.0
30
0.0
70
1
0
VERTEX
5
170f
8
Layer1
10
240.0000
20
65.5000
30
0.0
0
VERTEX
5
1710
8
Layer1
10
240.8000
20
65.5000
30
0.0
0
VERTEX
5
1711
8
Layer1
10
240.8000
20
77.5000
30
0.0
0
VERTEX
5
1712
8
Layer1
10
240.0000
20
77.5000
30
0.0
0
VERTEX
5
1713
8
Layer1
10
240.0000
20
78.5000
30
0.0
0
VERTEX
5
1714
8
Layer1
10
226.0000
20
78.5000
30
0.0
0
VERTEX
5
1715
8
Layer1
10
226.0000
20
77.5000
30
0.0
0
VERTEX
5
1716
8
Layer1
10
225.2000
20
77.5000
30
0.0
0
VERTEX
5
1717
8
Layer1
10
225.2000
20
65.5000
30
0.0
0
VERTEX
5
1718
8
Layer1
10
226.0000
20
65.5000
30
0.0
0
VERTEX
5
1719
8
Layer1
10
226.0000
20
64.5000
30
0.0
0
VERTEX
5
171a
8
Layer1
10
240.0000
20
64.5000
30
0.0
0
VERTEX
5
171b
8
Layer1
10
240.0000
20
65.5000
30
0.0
0
SEQEND
5
171c
8
Layer1
0
POLYLINE
5
171d
8
Layer1
66
1
10
0.0
20
0.0
30
0.0
70
1
0
VERTEX
5
171e
8
Layer1
10
259.0000
20
65.5000
30
0.0
0
VERTEX
5
171f
8
Layer1
10
259.8000
20
65.5000
30
0.0
0
VERTEX
5
1720
8
Layer1
10
259.8000
20
77.5000
30
0.0
0
VERTEX
5
1721
8
Layer1
10
259.0000
20
77.5000
30
0.0
0
VERTEX
5
1722
8
Layer1
10
259.0000
20
78.5000
30
0.0
0
VERTEX
5
1723
8
Layer1
10
245.0000
20
78.5000
30
0.0
0
VERTEX
5
1724
8
Layer1
10
245.0000
20
77.5000
30
0.0
0
VERTEX
5
1725
8
Layer1
10
244.2000
20
77.5000
30
0.0
0
VERTEX
5
1726
8
Layer1
10
244.2000
20
65.5000
30
0.0
0
VERTEX
5
1727
8
Layer1
10
245.0000
20
65.5000
30
0.0
0
VERTEX
5
1728
8
Layer1
10
245.0000
20
64.5000
30
0.0
0
VERTEX
5
1729
8
Layer1
10
259.0000
20
64.5000
30
0.0
0
VERTEX
5
172a
8
Layer1
10
259.0000
20
65.5000
30
0.0
0
SEQEND
5
172b
8
Layer1
0
POLYLINE
5
172c
8
Layer1
66
1
10
0.0
20
0.0
30
0.0
70
1
0
VERTEX
5
172d
8
Layer1
10
278.0000
20
65.5000
30
0.0
0
VERTEX
5
172e
8
Layer1
10
278.8000
20
65.5000
30
0.0
0
VERTEX
5
172f
8
Layer1
10
278.8000
20
77.5000
30
0.0
0
VERTEX
5
1730
8
Layer1
10
278.0000
20
77.5000
30
0.0
0
VERTEX
5
1731
8
Layer1
10
278.0000
20
78.5000
30
0.0
0
VERTEX
5
1732
8
Layer1
10
264.0000
20
78.5000
30
0.0
0
VERTEX
5
1733
8
Layer1
10
264.0000
20
77.5000
30
0.0
0
VERTEX
5
1734
8
Layer1
10
263.2000
20
77.5000
30
0.0
0
VERTEX
5
1735
8
Layer1
10
263.2000
20
65.5000
30
0.0
0
VERTEX
5
1736
8
Layer1
10
264.0000
20
65.5000
30
0.0
0
VERTEX
5
1737
8
Layer1
10
264.0000
20
64.5000
30
0.0
0
VERTEX
5
1738
8
Layer1
10
278.0000
20
64.5000
30
0.0
0
VERTEX
5
1739
8
Layer1
10
278.0000
20
65.5000
30
0.0
0
SEQEND
5
173a
8
Layer1
0
POLYLINE
5
173b
8
Layer1
66
1
10
0.0
20
0.0
30
0.0
70
1
0
VERTEX
5
173c
8
Layer1
10
297.0000
20
65.5000
30
0.0
0
VERTEX
5
173d
8
Layer1
10
297.8000
20
65.5000
30
0.0
0
VERTEX
5
173e
8
Layer1
10
297.8000
20
77.5000
30
0.0
0
VERTEX
5
173f
8
Layer1
10
297.0000
20
77.5000
30
0.0
0
VERTEX
5
1740
8
Layer1
10
297.0000
20
78.5000
30
0.0
0
VERTEX
5
1741
8
Layer1
10
283.0000
20
78.5000
30
0.0
0
VERTEX
5
1742
8
Layer1
10
283.0000
20
77.5000
30
0.0
0
VERTEX
5
1743
8
Layer1
10
282.2000
20
77.5000
30
0.0
0
VERTEX
5
1744
8
Layer1
10
282.2000
20
65.5000
30
0.0
0
VERTEX
5
1745
8
Layer1
10
283.0000
20
65.5000
30
0.0
0
VERTEX
5
1746
8
Layer1
10
283.0000
20
64.5000
30
0.0
0
VERTEX
5
1747
8
Layer1
10
297.0000
20
64.5000
30
0.0
0
VERTEX
5
1748
8
Layer1
10
297.0000
20
65.5000
30
0.0
0
SEQEND
5
1749
8
Layer1
0
POLYLINE
5
174a
8
Layer1
66
1
10
0.0
20
0.0
30
0.0
70
1
0
VERTEX
5
174b
8
Layer1
10
316.0000
20
65.5000
30
0.0
0
VERTEX
5
174c
8
Layer1
10
316.8000
20
65.5000
30
0.0
0
VERTEX
5
174d
8
Layer1
10
316.8000
20
77.5000
30
0.0
0
VERTEX
5
174e
8
Layer1
10
316.0000
20
77.5000
30
0.0
0
VERTEX
5
174f
8
Layer1
10
316.0000
20
78.5000
30
0.0
0
VERTEX
5
1750
8
Layer1
10
302.0000
20
78.5000
30
0.0
0
VERTEX
5
1751
8
Layer1
10
302.0000
20
77.5000
30
0.0
0
VERTEX
5
1752
8
Layer1
10
301.2000
20
77.5000
30
0.0
0
VERTEX
5
1753
8
Layer1
10
301.2000
20
65.5000
30
0.0
0
VERTEX
5
1754
8
Layer1
10
302.0000
20
65.5000
30
0.0
0
VERTEX
5
1755
8
Layer1
10
302.0000
20
64.5000
30
0.0
0
VERTEX
5
1756
8
Layer1
10
316.0000
20
64.5000
30
0.0
0
VERTEX
5
1757
8
Layer1
10
316.0000
20
65.5000
30
0.0
0
SEQEND
5
1758
8
Layer1
0
POLYLINE
5
1759
8
Layer1
66
1
10
0.0
20
0.0
30
0.0
70
1
0
VERTEX
5
175a
8
Layer1
10
335.0000
20
65.5000
30
0.0
0
VERTEX
5
175b
8
Layer1
10
335.8000
20
65.5000
30
0.0
0
VERTEX
5
175c
8
Layer1
10
335.8000
20
77.5000
30
0.0
0
VERTEX
5
175d
8
Layer1
10
335.0000
20
77.5000
30
0.0
0
VERTEX
5
175e
8
Layer1
10
335.0000
20
78.5000
30
0.0
0
VERTEX
5
175f
8
Layer1
10
321.0000
20
78.5000
30
0.0
0
VERTEX
5
1760
8
Layer1
10
321.0000
20
77.5000
30
0.0
0
VERTEX
5
1761
8
Layer1
10
320.2000
20
77.5000
30
0.0
0
VERTEX
5
1762
8
Layer1
10
320.2000
20
65.5000
30
0.0
0
VERTEX
5
1763
8
Layer1
10
321.0000
20
65.5000
30
0.0
0
VERTEX
5
1764
8
Layer1
10
321.0000
20
64.5000
30
0.0
0
VERTEX
5
1765
8
Layer1
10
335.0000
20
64.5000
30
0.0
0
VERTEX
5
1766
8
Layer1
10
335.0000
20
65.5000
30
0.0
0
SEQEND
5
1767
8
Layer1
0
POLYLINE
5
1768
8
Layer1
66
1
10
0.0
20
0.0
30
0.0
70
1
0
VERTEX
5
1769
8
Layer1
10
358.7500
20
65.5000
30
0.0
0
VERTEX
5
176a
8
Layer1
10
359.5500
20
65.5000
30
0.0
0
VERTEX
5
176b
8
Layer1
10
359.5500
20
77.5000
30
0.0
0
VERTEX
5
176c
8
Layer1
10
358.7500
20
77.5000
30
0.0
0
VERTEX
5
176d
8
Layer1
10
358.7500
20
78.5000
30
0.0
0
VERTEX
5
176e
8
Layer1
10
344.7500
20
78.5000
30
0.0
0
VERTEX
5
176f
8
Layer1
10
344.7500
20
77.5000
30
0.0
0
VERTEX
5
1770
8
Layer1
10
343.9500
20
77.5000
30
0.0
0
VERTEX
5
1771
8
Layer1
10
343.9500
20
65.5000
30
0.0
0
VERTEX
5
1772
8
Layer1
10
344.7500
20
65.5000
30
0.0
0
VERTEX
5
1773
8
Layer1
10
344.7500
20
64.5000
30
0.0
0
VERTEX
5
1774
8
Layer1
10
358.7500
20
64.5000
30
0.0
0
VERTEX
5
1775
8
Layer1
10
358.7500
20
65.5000
30
0.0
0
SEQEND
5
1776
8
Layer1
0
POLYLINE
5
1777
8
Layer1
66
1
10
0.0
20
0.0
30
0.0
70
1
0
VERTEX
5
1778
8
Layer1
10
40.5000
20
46.5000
30
0.0
0
VERTEX
5
1779
8
Layer1
10
41.3000
20
46.5000
30
0.0
0
VERTEX
5
177a
8
Layer1
10
41.3000
20
58.5000
30
0.0
0
VERTEX
5
177b
8
Layer1
10
40.5000
20
58.5000
30
0.0
0
VERTEX
5
177c
8
Layer1
10
40.5000
20
59.5000
30
0.0
0
VERTEX
5
177d
8
Layer1
10
26.5000
20
59.5000
30
0.0
0
VERTEX
5
177e
8
Layer1
10
26.5000
20
58.5000
30
0.0
0
VERTEX
5
177f
8
Layer1
10
25.7000
20
58.5000
30
0.0
0
VERTEX
5
1780
8
Layer1
10
25.7000
20
46.5000
30
0.0
0
VERTEX
5
1781
8
Layer1
10
26.5000
20
46.5000
30
0.0
0
VERTEX
5
1782
8
Layer1
10
26.5000
20
45.5000
30
0.0
0
VERTEX
5
1783
8
Layer1
10
40.5000
20
45.5000
30
0.0
0
VERTEX
5
1784
8
Layer1
10
40.5000
20
46.5000
30
0.0
0
SEQEND
5
1785
8
Layer1
0
POLYLINE
5
1786
8
Layer1
66
1
10
0.0
20
0.0
30
0.0
70
1
0
VERTEX
5
1787
8
Layer1
10
59.5000
20
46.5000
30
0.0
0
VERTEX
5
1788
8
Layer1
10
60.3000
20
46.5000
30
0.0
0
VERTEX
5
1789
8
Layer1
10
60.3000
20
58.5000
30
0.0
0
VERTEX
5
178a
8
Layer1
10
59.5000
20
58.5000
30
0.0
0
VERTEX
5
178b
8
Layer1
10
59.5000
20
59.5000
30
0.0
0
VERTEX
5
178c
8
Layer1
10
45.5000
20
59.5000
30
0.0
0
VERTEX
5
178d
8
Layer1
10
45.5000
20
58.5000
30
0.0
0
VERTEX
5
178e
8
Layer1
10
44.7000
20
58.5000
30
0.0
0
VERTEX
5
178f
8
Layer1
10
44.7000
20
46.5000
30
0.0
0
VERTEX
5
1790
8
Layer1
10
45.5000
20
46.5000
30
0.0
0
VERTEX
5
1791
8
Layer1
10
45.5000
20
45.5000
30
0.0
0
VERTEX
5
1792
8
Layer1
10
59.5000
20
45.5000
30
0.0
0
VERTEX
5
1793
8
Layer1
10
59.5000
20
46.5000
30
0.0
0
SEQEND
5
1794
8
Layer1
0
POLYLINE
5
1795
8
Layer1
66
1
10
0.0
20
0.0
30
0.0
70
1
0
VERTEX
5
1796
8
Layer1
10
78.5000
20
46.5000
30
0.0
0
VERTEX
5
1797
8
Layer1
10
79.3000
20
46.5000
30
0.0
0
VERTEX
5
1798
8
Layer1
10
79.3000
20
58.5000
30
0.0
0
VERTEX
5
1799
8
Layer1
10
78.5000
20
58.5000
30
0.0
0
VERTEX
5
179a
8
Layer1
10
78.5000
20
59.5000
30
0.0
0
VERTEX
5
179b
8
Layer1
10
64.5000
20
59.5000
30
0.0
0
VERTEX
5
179c
8
Layer1
10
64.5000
20
58.5000
30
0.0
0
VERTEX
5
179d
8
Layer1
10
63.7000
20
58.5000
30
0.0
0
VERTEX
5
179e
8
Layer1
10
63.7000
20
46.5000
30
0.0
0
VERTEX
5
179f
8
Layer1
10
64.5000
20
46.5000
30
0.0
0
VERTEX
5
17a0
8
Layer1
10
64.5000
20
45.5000
30
0.0
0
VERTEX
5
17a1
8
Layer1
10
78.5000
20
45.5000
30
0.0
0
VERTEX
5
17a2
8
Layer1
10
78.5000
20
46.5000
30
0.0
0
SEQEND
5
17a3
8
Layer1
0
POLYLINE
5
17a4
8
Layer1
66
1
10
0.0
20
0.0
30
0.0
70
1
0
VERTEX
5
17a5
8
Layer1
10
104.6250
20
46.5000
30
0.0
0
VERTEX
5
17a6
8
Layer1
10
105.4250
20
46.5000
30
0.0
0
VERTEX
5
17a7
8
Layer1
10
105.4250
20
58.5000
30
0.0
0
VERTEX
5
17a8
8
Layer1
10
104.6250
20
58.5000
30
0.0
0
VERTEX
5
17a9
8
Layer1
10
104.6250
20
59.5000
30
0.0
0
VERTEX
5
17aa
8
Layer1
10
90.6250
20
59.5000
30
0.0
0
VERTEX
5
17ab
8
Layer1
10
90.6250
20
58.5000
30
0.0
0
VERTEX
5
17ac
8
Layer1
10
89.8250
20
58.5000
30
0.0
0
VERTEX
5
17ad
8
Layer1
10
89.8250
20
46.5000
30
0.0
0
VERTEX
5
17ae
8
Layer1
10
90.6250
20
46.5000
30
0.0
0
VERTEX
5
17af
8
Layer1
10
90.6250
20
45.5000
30
0.0
0
VERTEX
5
17b0
8
Layer1
10
104.6250
20
45.5000
30
0.0
0
VERTEX
5
17b1
8
Layer1
10
104.6250
20
46.5000
30
0.0
0
SEQEND
5
17b2
8
Layer1
0
POLYLINE
5
17b3
8
Layer1
66
1
10
0.0
20
0.0
30
0.0
70
1
0
VERTEX
5
17b4
8
Layer1
10
130.7500
20
46.5000
30
0.0
0
VERTEX
5
17b5
8
Layer1
10
131.5500
20
46.5000
30
0.0
0
VERTEX
5
17b6
8
Layer1
10
131.5500
20
58.5000
30
0.0
0
VERTEX
5
17b7
8
Layer1
10
130.7500
20
58.5000
30
0.0
0
VERTEX
5
17b8
8
Layer1
10
130.7500
20
59.5000
30
0.0
0
VERTEX
5
17b9
8
Layer1
10
116.7500
20
59.5000
30
0.0
0
VERTEX
5
17ba
8
Layer1
10
116.7500
20
58.5000
30
0.0
0
VERTEX
5
17bb
8
Layer1
10
115.9500
20
58.5000
30
0.0
0
VERTEX
5
17bc
8
Layer1
10
115.9500
20
46.5000
30
0.0
0
VERTEX
5
17bd
8
Layer1
10
116.7500
20
46.5000
30
0.0
0
VERTEX
5
17be
8
Layer1
10
116.7500
20
45.5000
30
0.0
0
VERTEX
5
17bf
8
Layer1
10
130.7500
20
45.5000
30
0.0
0
VERTEX
5
17c0
8
Layer1
10
130.7500
20
46.5000
30
0.0
0
SEQEND
5
17c1
8
Layer1
0
POLYLINE
5
17c2
8
Layer1
66
1
10
0.0
20
0.0
30
0.0
70
1
0
VERTEX
5
17c3
8
Layer1
10
149.7500
20
46.5000
30
0.0
0
VERTEX
5
17c4
8
Layer1
10
150.5500
20
46.5000
30
0.0
0
VERTEX
5
17c5
8
Layer1
10
150.5500
20
58.5000
30
0.0
0
VERTEX
5
17c6
8
Layer1
10
149.7500
20
58.5000
30
0.0
0
VERTEX
5
17c7
8
Layer1
10
149.7500
20
59.5000
30
0.0
0
VERTEX
5
17c8
8
Layer1
10
135.7500
20
59.5000
30
0.0
0
VERTEX
5
17c9
8
Layer1
10
135.7500
20
58.5000
30
0.0
0
VERTEX
5
17ca
8
Layer1
10
134.9500
20
58.5000
30
0.0
0
VERTEX
5
17cb
8
Layer1
10
134.9500
20
46.5000
30
0.0
0
VERTEX
5
17cc
8
Layer1
10
135.7500
20
46.5000
30
0.0
0
VERTEX
5
17cd
8
Layer1
10
135.7500
20
45.5000
30
0.0
0
VERTEX
5
17ce
8
Layer1
10
149.7500
20
45.5000
30
0.0
0
VERTEX
5
17cf
8
Layer1
10
149.7500
20
46.5000
30
0.0
0
SEQEND
5
17d0
8
Layer1
0
POLYLINE
5
17d1
8
Layer1
66
1
10
0.0
20
0.0
30
0.0
70
1
0
VERTEX
5
17d2
8
Layer1
10
168.7500
20
46.5000
30
0.0
0
VERTEX
5
17d3
8
Layer1
10
169.5500
20
46.5000
30
0.0
0
VERTEX
5
17d4
8
Layer1
10
169.5500
20
58.5000
30
0.0
0
VERTEX
5
17d5
8
Layer1
10
168.7500
20
58.5000
30
0.0
0
VERTEX
5
17d6
8
Layer1
10
168.7500
20
59.5000
30
0.0
0
VERTEX
5
17d7
8
Layer1
10
154.7500
20
59.5000
30
0.0
0
VERTEX
5
17d8
8
Layer1
10
154.7500
20
58.5000
30
0.0
0
VERTEX
5
17d9
8
Layer1
10
153.9500
20
58.5000
30
0.0
0
VERTEX
5
17da
8
Layer1
10
153.9500
20
46.5000
30
0.0
0
VERTEX
5
17db
8
Layer1
10
154.7500
20
46.5000
30
0.0
0
VERTEX
5
17dc
8
Layer1
10
154.7500
20
45.5000
30
0.0
0
VERTEX
5
17dd
8
Layer1
10
168.7500
20
45.5000
30
0.0
0
VERTEX
5
17de
8
Layer1
10
168.7500
20
46.5000
30
0.0
0
SEQEND
5
17df
8
Layer1
0
POLYLINE
5
17e0
8
Layer1
66
1
10
0.0
20
0.0
30
0.0
70
1
0
VERTEX
5
17e1
8
Layer1
10
187.7500
20
46.5000
30
0.0
0
VERTEX
5
17e2
8
Layer1
10
188.5500
20
46.5000
30
0.0
0
VERTEX
5
17e3
8
Layer1
10
188.5500
20
58.5000
30
0.0
0
VERTEX
5
17e4
8
Layer1
10
187.7500
20
58.5000
30
0.0
0
VERTEX
5
17e5
8
Layer1
10
187.7500
20
59.5000
30
0.0
0
VERTEX
5
17e6
8
Layer1
10
173.7500
20
59.5000
30
0.0
0
VERTEX
5
17e7
8
Layer1
10
173.7500
20
58.5000
30
0.0
0
VERTEX
5
17e8
8
Layer1
10
172.9500
20
58.5000
30
0.0
0
VERTEX
5
17e9
8
Layer1
10
172.9500
20
46.5000
30
0.0
0
VERTEX
5
17ea
8
Layer1
10
173.7500
20
46.5000
30
0.0
0
VERTEX
5
17eb
8
Layer1
10
173.7500
20
45.5000
30
0.0
0
VERTEX
5
17ec
8
Layer1
10
187.7500
20
45.5000
30
0.0
0
VERTEX
5
17ed
8
Layer1
10
187.7500
20
46.5000
30
0.0
0
SEQEND
5
17ee
8
Layer1
0
POLYLINE
5
17ef
8
Layer1
66
1
10
0.0
20
0.0
30
0.0
70
1
0
VERTEX
5
17f0
8
Layer1
10
206.7500
20
46.5000
30
0.0
0
VERTEX
5
17f1
8
Layer1
10
207.5500
20
46.5000
30
0.0
0
VERTEX
5
17f2
8
Layer1
10
207.5500
20
58.5000
30
0.0
0
VERTEX
5
17f3
8
Layer1
10
206.7500
20
58.5000
30
0.0
0
VERTEX
5
17f4
8
Layer1
10
206.7500
20
59.5000
30
0.0
0
VERTEX
5
17f5
8
Layer1
10
192.7500
20
59.5000
30
0.0
0
VERTEX
5
17f6
8
Layer1
10
192.7500
20
58.5000
30
0.0
0
VERTEX
5
17f7
8
Layer1
10
191.9500
20
58.5000
30
0.0
0
VERTEX
5
17f8
8
Layer1
10
191.9500
20
46.5000
30
0.0
0
VERTEX
5
17f9
8
Layer1
10
192.7500
20
46.5000
30
0.0
0
VERTEX
5
17fa
8
Layer1
10
192.7500
20
45.5000
30
0.0
0
VERTEX
5
17fb
8
Layer1
10
206.7500
20
45.5000
30
0.0
0
VERTEX
5
17fc
8
Layer1
10
206.7500
20
46.5000
30
0.0
0
SEQEND
5
17fd
8
Layer1
0
POLYLINE
5
17fe
8
Layer1
66
1
10
0.0
20
0.0
30
0.0
70
1
0
VERTEX
5
17ff
8
Layer1
10
225.7500
20
46.5000
30
0.0
0
VERTEX
5
1800
8
Layer1
10
226.5500
20
46.5000
30
0.0
0
VERTEX
5
1801
8
Layer1
10
226.5500
20
58.5000
30
0.0
0
VERTEX
5
1802
8
Layer1
10
225.7500
20
58.5000
30
0.0
0
VERTEX
5
1803
8
Layer1
10
225.7500
20
59.5000
30
0.0
0
VERTEX
5
1804
8
Layer1
10
211.7500
20
59.5000
30
0.0
0
VERTEX
5
1805
8
Layer1
10
211.7500
20
58.5000
30
0.0
0
VERTEX
5
1806
8
Layer1
10
210.9500
20
58.5000
30
0.0
0
VERTEX
5
1807
8
Layer1
10
210.9500
20
46.5000
30
0.0
0
VERTEX
5
1808
8
Layer1
10
211.7500
20
46.5000
30
0.0
0
VERTEX
5
1809
8
Layer1
10
211.7500
20
45.5000
30
0.0
0
VERTEX
5
180a
8
Layer1
10
225.7500
20
45.5000
30
0.0
0
VERTEX
5
180b
8
Layer1
10
225.7500
20
46.5000
30
0.0
0
SEQEND
5
180c
8
Layer1
0
POLYLINE
5
180d
8
Layer1
66
1
10
0.0
20
0.0
30
0.0
70
1
0
VERTEX
5
180e
8
Layer1
10
244.7500
20
46.5000
30
0.0
0
VERTEX
5
180f
8
Layer1
10
245.5500
20
46.5000
30
0.0
0
VERTEX
5
1810
8
Layer1
10
245.5500
20
58.5000
30
0.0
0
VERTEX
5
1811
8
Layer1
10
244.7500
20
58.5000
30
0.0
0
VERTEX
5
1812
8
Layer1
10
244.7500
20
59.5000
30
0.0
0
VERTEX
5
1813
8
Layer1
10
230.7500
20
59.5000
30
0.0
0
VERTEX
5
1814
8
Layer1
10
230.7500
20
58.5000
30
0.0
0
VERTEX
5
1815
8
Layer1
10
229.9500
20
58.5000
30
0.0
0
VERTEX
5
1816
8
Layer1
10
229.9500
20
46.5000
30
0.0
0
VERTEX
5
1817
8
Layer1
10
230.7500
20
46.5000
30
0.0
0
VERTEX
5
1818
8
Layer1
10
230.7500
20
45.5000
30
0.0
0
VERTEX
5
1819
8
Layer1
10
244.7500
20
45.5000
30
0.0
0
VERTEX
5
181a
8
Layer1
10
244.7500
20
46.5000
30
0.0
0
SEQEND
5
181b
8
Layer1
0
POLYLINE
5
181c
8
Layer1
66
1
10
0.0
20
0.0
30
0.0
70
1
0
VERTEX
5
181d
8
Layer1
10
263.7500
20
46.5000
30
0.0
0
VERTEX
5
181e
8
Layer1
10
264.5500
20
46.5000
30
0.0
0
VERTEX
5
181f
8
Layer1
10
264.5500
20
58.5000
30
0.0
0
VERTEX
5
1820
8
Layer1
10
263.7500
20
58.5000
30
0.0
0
VERTEX
5
1821
8
Layer1
10
263.7500
20
59.5000
30
0.0
0
VERTEX
5
1822
8
Layer1
10
249.7500
20
59.5000
30
0.0
0
VERTEX
5
1823
8
Layer1
10
249.7500
20
58.5000
30
0.0
0
VERTEX
5
1824
8
Layer1
10
248.9500
20
58.5000
30
0.0
0
VERTEX
5
1825
8
Layer1
10
248.9500
20
46.5000
30
0.0
0
VERTEX
5
1826
8
Layer1
10
249.7500
20
46.5000
30
0.0
0
VERTEX
5
1827
8
Layer1
10
249.7500
20
45.5000
30
0.0
0
VERTEX
5
1828
8
Layer1
10
263.7500
20
45.5000
30
0.0
0
VERTEX
5
1829
8
Layer1
10
263.7500
20
46.5000
30
0.0
0
SEQEND
5
182a
8
Layer1
0
POLYLINE
5
182b
8
Layer1
66
1
10
0.0
20
0.0
30
0.0
70
1
0
VERTEX
5
182c
8
Layer1
10
282.7500
20
46.5000
30
0.0
0
VERTEX
5
182d
8
Layer1
10
283.5500
20
46.5000
30
0.0
0
VERTEX
5
182e
8
Layer1
10
283.5500
20
58.5000
30
0.0
0
VERTEX
5
182f
8
Layer1
10
282.7500
20
58.5000
30
0.0
0
VERTEX
5
1830
8
Layer1
10
282.7500
20
59.5000
30
0.0
0
VERTEX
5
1831
8
Layer1
10
268.7500
20
59.5000
30
0.0
0
VERTEX
5
1832
8
Layer1
10
268.7500
20
58.5000
30
0.0
0
VERTEX
5
1833
8
Layer1
10
267.9500
20
58.5000
30
0.0
0
VERTEX
5
1834
8
Layer1
10
267.9500
20
46.5000
30
0.0
0
VERTEX
5
1835
8
Layer1
10
268.7500
20
46.5000
30
0.0
0
VERTEX
5
1836
8
Layer1
10
268.7500
20
45.5000
30
0.0
0
VERTEX
5
1837
8
Layer1
10
282.7500
20
45.5000
30
0.0
0
VERTEX
5
1838
8
Layer1
10
282.7500
20
46.5000
30
0.0
0
SEQEND
5
1839
8
Layer1
0
POLYLINE
5
183a
8
Layer1
66
1
10
0.0
20
0.0
30
0.0
70
1
0
VERTEX
5
183b
8
Layer1
10
301.7500
20
46.5000
30
0.0
0
VERTEX
5
183c
8
Layer1
10
302.5500
20
46.5000
30
0.0
0
VERTEX
5
183d
8
Layer1
10
302.5500
20
58.5000
30
0.0
0
VERTEX
5
183e
8
Layer1
10
301.7500
20
58.5000
30
0.0
0
VERTEX
5
183f
8
Layer1
10
301.7500
20
59.5000
30
0.0
0
VERTEX
5
1840
8
Layer1
10
287.7500
20
59.5000
30
0.0
0
VERTEX
5
1841
8
Layer1
10
287.7500
20
58.5000
30
0.0
0
VERTEX
5
1842
8
Layer1
10
286.9500
20
58.5000
30
0.0
0
VERTEX
5
1843
8
Layer1
10
286.9500
20
46.5000
30
0.0
0
VERTEX
5
1844
8
Layer1
10
287.7500
20
46.5000
30
0.0
0
VERTEX
5
1845
8
Layer1
10
287.7500
20
45.5000
30
0.0
0
VERTEX
5
1846
8
Layer1
10
301.7500
20
45.5000
30
0.0
0
VERTEX
5
1847
8
Layer1
10
301.7500
20
46.5000
30
0.0
0
SEQEND
5
1848
8
Layer1
0
POLYLINE
5
1849
8
Layer1
66
1
10
0.0
20
0.0
30
0.0
70
1
0
VERTEX
5
184a
8
Layer1
10
320.7500
20
46.5000
30
0.0
0
VERTEX
5
184b
8
Layer1
10
321.5500
20
46.5000
30
0.0
0
VERTEX
5
184c
8
Layer1
10
321.5500
20
58.5000
30
0.0
0
VERTEX
5
184d
8
Layer1
10
320.7500
20
58.5000
30
0.0
0
VERTEX
5
184e
8
Layer1
10
320.7500
20
59.5000
30
0.0
0
VERTEX
5
184f
8
Layer1
10
306.7500
20
59.5000
30
0.0
0
VERTEX
5
1850
8
Layer1
10
306.7500
20
58.5000
30
0.0
0
VERTEX
5
1851
8
Layer1
10
305.9500
20
58.5000
30
0.0
0
VERTEX
5
1852
8
Layer1
10
305.9500
20
46.5000
30
0.0
0
VERTEX
5
1853
8
Layer1
10
306.7500
20
46.5000
30
0.0
0
VERTEX
5
1854
8
Layer1
10
306.7500
20
45.5000
30
0.0
0
VERTEX
5
1855
8
Layer1
10
320.7500
20
45.5000
30
0.0
0
VERTEX
5
1856
8
Layer1
10
320.7500
20
46.5000
30
0.0
0
SEQEND
5
1857
8
Layer1
0
POLYLINE
5
1858
8
Layer1
66
1
10
0.0
20
0.0
30
0.0
70
1
0
VERTEX
5
1859
8
Layer1
10
334.3750
20
45.7300
30
0.0
0
VERTEX
5
185a
8
Layer1
10
336.0500
20
45.7300
30
0.0
0
VERTEX
5
185b
8
Layer1
10
336.0500
20
46.5300
30
0.0
0
VERTEX
5
185c
8
Layer1
10
336.8250
20
46.5300
30
0.0
0
VERTEX
5
185d
8
Layer1
10
336.8250
20
46.5000
30
0.0
0
VERTEX
5
185e
8
Layer1
10
337.6250
20
46.5000
30
0.0
0
VERTEX
5
185f
8
Layer1
10
337.6250
20
45.5000
30
0.0
0
VERTEX
5
1860
8
Layer1
10
351.6250
20
45.5000
30
0.0
0
VERTEX
5
1861
8
Layer1
10
351.6250
20
46.5000
30
0.0
0
VERTEX
5
1862
8
Layer1
10
352.4250
20
46.5000
30
0.0
0
VERTEX
5
1863
8
Layer1
10
352.4250
20
46.5300
30
0.0
0
VERTEX
5
1864
8
Layer1
10
353.2000
20
46.5300
30
0.0
0
VERTEX
5
1865
8
Layer1
10
353.2000
20
45.7300
30
0.0
0
VERTEX
5
1866
8
Layer1
10
354.8750
20
45.7300
30
0.0
0
VERTEX
5
1867
8
Layer1
10
354.8750
20
44.7380
30
0.0
0
VERTEX
5
1868
8
Layer1
10
358.1750
20
44.7380
30
0.0
0
VERTEX
5
1869
8
Layer1
10
358.1750
20
45.7300
30
0.0
0
VERTEX
5
186a
8
Layer1
10
359.8500
20
45.7300
30
0.0
0
VERTEX
5
186b
8
Layer1
10
359.8500
20
52.0000
30
0.0
0
VERTEX
5
186c
8
Layer1
10
360.7250
20
52.0000
30
0.0
0
VERTEX
5
186d
8
Layer1
10
360.7250
20
54.8000
30
0.0
0
VERTEX
5
186e
8
Layer1
10
359.8500
20
54.8000
30
0.0
0
VERTEX
5
186f
8
Layer1
10
359.8500
20
58.0300
30
0.0
0
VERTEX
5
1870
8
Layer1
10
358.1750
20
58.0300
30
0.0
0
VERTEX
5
1871
8
Layer1
10
358.1750
20
58.7380
30
0.0
0
VERTEX
5
1872
8
Layer1
10
354.8750
20
58.7380
30
0.0
0
VERTEX
5
1873
8
Layer1
10
354.8750
20
58.0300
30
0.0
0
VERTEX
5
1874
8
Layer1
10
353.2000
20
58.0300
30
0.0
0
VERTEX
5
1875
8
Layer1
10
353.2000
20
57.2300
30
0.0
0
VERTEX
5
1876
8
Layer1
10
352.4250
20
57.2300
30
0.0
0
VERTEX
5
1877
8
Layer1
10
352.4250
20
58.5000
30
0.0
0
VERTEX
5
1878
8
Layer1
10
351.6250
20
58.5000
30
0.0
0
VERTEX
5
1879
8
Layer1
10
351.6250
20
59.5000
30
0.0
0
VERTEX
5
187a
8
Layer1
10
337.6250
20
59.5000
30
0.0
0
VERTEX
5
187b
8
Layer1
10
337.6250
20
58.5000
30
0.0
0
VERTEX
5
187c
8
Layer1
10
336.8250
20
58.5000
30
0.0
0
VERTEX
5
187d
8
Layer1
10
336.8250
20
57.2300
30
0.0
0
VERTEX
5
187e
8
Layer1
10
336.0500
20
57.2300
30
0.0
0
VERTEX
5
187f
8
Layer1
10
336.0500
20
58.0300
30
0.0
0
VERTEX
5
1880
8
Layer1
10
334.3750
20
58.0300
30
0.0
0
VERTEX
5
1881
8
Layer1
10
334.3750
20
58.7380
30
0.0
0
VERTEX
5
1882
8
Layer1
10
331.0750
20
58.7380
30
0.0
0
VERTEX
5
1883
8
Layer1
10
331.0750
20
58.0300
30
0.0
0
VERTEX
5
1884
8
Layer1
10
329.4000
20
58.0300
30
0.0
0
VERTEX
5
1885
8
Layer1
10
329.4000
20
54.8000
30
0.0
0
VERTEX
5
1886
8
Layer1
10
328.5250
20
54.8000
30
0.0
0
VERTEX
5
1887
8
Layer1
10
328.5250
20
52.0000
30
0.0
0
VERTEX
5
1888
8
Layer1
10
329.4000
20
52.0000
30
0.0
0
VERTEX
5
1889
8
Layer1
10
329.4000
20
45.7300
30
0.0
0
VERTEX
5
188a
8
Layer1
10
331.0750
20
45.7300
30
0.0
0
VERTEX
5
188b
8
Layer1
10
331.0750
20
44.7380
30
0.0
0
VERTEX
5
188c
8
Layer1
10
334.3750
20
44.7380
30
0.0
0
VERTEX
5
188d
8
Layer1
10
334.3750
20
45.7300
30
0.0
0
SEQEND
5
188e
8
Layer1
0
POLYLINE
5
188f
8
Layer1
66
1
10
0.0
20
0.0
30
0.0
70
1
0
VERTEX
5
1890
8
Layer1
10
7.7300
20
34.2500
30
0.0
0
VERTEX
5
1891
8
Layer1
10
7.7300
20
32.5750
30
0.0
0
VERTEX
5
1892
8
Layer1
10
8.5300
20
32.5750
30
0.0
0
VERTEX
5
1893
8
Layer1
10
8.5300
20
31.8000
30
0.0
0
VERTEX
5
1894
8
Layer1
10
8.5000
20
31.8000
30
0.0
0
VERTEX
5
1895
8
Layer1
10
8.5000
20
31.0000
30
0.0
0
VERTEX
5
1896
8
Layer1
10
7.5000
20
31.0000
30
0.0
0
VERTEX
5
1897
8
Layer1
10
7.5000
20
17.0000
30
0.0
0
VERTEX
5
1898
8
Layer1
10
8.5000
20
17.0000
30
0.0
0
VERTEX
5
1899
8
Layer1
10
8.5000
20
16.2000
30
0.0
0
VERTEX
5
189a
8
Layer1
10
8.5300
20
16.2000
30
0.0
0
VERTEX
5
189b
8
Layer1
10
8.5300
20
15.4250
30
0.0
0
VERTEX
5
189c
8
Layer1
10
7.7300
20
15.4250
30
0.0
0
VERTEX
5
189d
8
Layer1
10
7.7300
20
13.7500
30
0.0
0
VERTEX
5
189e
8
Layer1
10
6.7380
20
13.7500
30
0.0
0
VERTEX
5
189f
8
Layer1
10
6.7380
20
10.4500
30
0.0
0
VERTEX
5
18a0
8
Layer1
10
7.7300
20
10.4500
30
0.0
0
VERTEX
5
18a1
8
Layer1
10
7.7300
20
8.7750
30
0.0
0
VERTEX
5
18a2
8
Layer1
10
14.0000
20
8.7750
30
0.0
0
VERTEX
5
18a3
8
Layer1
10
14.0000
20
7.9000
30
0.0
0
VERTEX
5
18a4
8
Layer1
10
16.8000
20
7.9000
30
0.0
0
VERTEX
5
18a5
8
Layer1
10
16.8000
20
8.7750
30
0.0
0
VERTEX
5
18a6
8
Layer1
10
20.0300
20
8.7750
30
0.0
0
VERTEX
5
18a7
8
Layer1
10
20.0300
20
10.4500
30
0.0
0
VERTEX
5
18a8
8
Layer1
10
20.7380
20
10.4500
30
0.0
0
VERTEX
5
18a9
8
Layer1
10
20.7380
20
13.7500
30
0.0
0
VERTEX
5
18aa
8
Layer1
10
20.0300
20
13.7500
30
0.0
0
VERTEX
5
18ab
8
Layer1
10
20.0300
20
15.4250
30
0.0
0
VERTEX
5
18ac
8
Layer1
10
19.2300
20
15.4250
30
0.0
0
VERTEX
5
18ad
8
Layer1
10
19.2300
20
16.2000
30
0.0
0
VERTEX
5
18ae
8
Layer1
10
20.5000
20
16.2000
30
0.0
0
VERTEX
5
18af
8
Layer1
10
20.5000
20
17.0000
30
0.0
0
VERTEX
5
18b0
8
Layer1
10
21.5000
20
17.0000
30
0.0
0
VERTEX
5
18b1
8
Layer1
10
21.5000
20
31.0000
30
0.0
0
VERTEX
5
18b2
8
Layer1
10
20.5000
20
31.0000
30
0.0
0
VERTEX
5
18b3
8
Layer1
10
20.5000
20
31.8000
30
0.0
0
VERTEX
5
18b4
8
Layer1
10
19.2300
20
31.8000
30
0.0
0
VERTEX
5
18b5
8
Layer1
10
19.2300
20
32.5750
30
0.0
0
VERTEX
5
18b6
8
Layer1
10
20.0300
20
32.5750
30
0.0
0
VERTEX
5
18b7
8
Layer1
10
20.0300
20
34.2500
30
0.0
0
VERTEX
5
18b8
8
Layer1
10
20.7380
20
34.2500
30
0.0
0
VERTEX
5
18b9
8
Layer1
10
20.7380
20
37.5500
30
0.0
0
VERTEX
5
18ba
8
Layer1
10
20.0300
20
37.5500
30
0.0
0
VERTEX
5
18bb
8
Layer1
10
20.0300
20
39.2250
30
0.0
0
VERTEX
5
18bc
8
Layer1
10
16.8000
20
39.2250
30
0.0
0
VERTEX
5
18bd
8
Layer1
10
16.8000
20
40.1000
30
0.0
0
VERTEX
5
18be
8
Layer1
10
14.0000
20
40.1000
30
0.0
0
VERTEX
5
18bf
8
Layer1
10
14.0000
20
39.2250
30
0.0
0
VERTEX
5
18c0
8
Layer1
10
7.7300
20
39.2250
30
0.0
0
VERTEX
5
18c1
8
Layer1
10
7.7300
20
37.5500
30
0.0
0
VERTEX
5
18c2
8
Layer1
10
6.7380
20
37.5500
30
0.0
0
VERTEX
5
18c3
8
Layer1
10
6.7380
20
34.2500
30
0.0
0
VERTEX
5
18c4
8
Layer1
10
7.7300
20
34.2500
30
0.0
0
SEQEND
5
18c5
8
Layer1
0
POLYLINE
5
18c6
8
Layer1
66
1
10
0.0
20
0.0
30
0.0
70
1
0
VERTEX
5
18c7
8
Layer1
10
40.5000
20
27.5000
30
0.0
0
VERTEX
5
18c8
8
Layer1
10
41.3000
20
27.5000
30
0.0
0
VERTEX
5
18c9
8
Layer1
10
41.3000
20
39.5000
30
0.0
0
VERTEX
5
18ca
8
Layer1
10
40.5000
20
39.5000
30
0.0
0
VERTEX
5
18cb
8
Layer1
10
40.5000
20
40.5000
30
0.0
0
VERTEX
5
18cc
8
Layer1
10
26.5000
20
40.5000
30
0.0
0
VERTEX
5
18cd
8
Layer1
10
26.5000
20
39.5000
30
0.0
0
VERTEX
5
18ce
8
Layer1
10
25.7000
20
39.5000
30
0.0
0
VERTEX
5
18cf
8
Layer1
10
25.7000
20
27.5000
30
0.0
0
VERTEX
5
18d0
8
Layer1
10
26.5000
20
27.5000
30
0.0
0
VERTEX
5
18d1
8
Layer1
10
26.5000
20
26.5000
30
0.0
0
VERTEX
5
18d2
8
Layer1
10
40.5000
20
26.5000
30
0.0
0
VERTEX
5
18d3
8
Layer1
10
40.5000
20
27.5000
30
0.0
0
SEQEND
5
18d4
8
Layer1
0
POLYLINE
5
18d5
8
Layer1
66
1
10
0.0
20
0.0
30
0.0
70
1
0
VERTEX
5
18d6
8
Layer1
10
59.5000
20
27.5000
30
0.0
0
VERTEX
5
18d7
8
Layer1
10
60.3000
20
27.5000
30
0.0
0
VERTEX
5
18d8
8
Layer1
10
60.3000
20
39.5000
30
0.0
0
VERTEX
5
18d9
8
Layer1
10
59.5000
20
39.5000
30
0.0
0
VERTEX
5
18da
8
Layer1
10
59.5000
20
40.5000
30
0.0
0
VERTEX
5
18db
8
Layer1
10
45.5000
20
40.5000
30
0.0
0
VERTEX
5
18dc
8
Layer1
10
45.5000
20
39.5000
30
0.0
0
VERTEX
5
18dd
8
Layer1
10
44.7000
20
39.5000
30
0.0
0
VERTEX
5
18de
8
Layer1
10
44.7000
20
27.5000
30
0.0
0
VERTEX
5
18df
8
Layer1
10
45.5000
20
27.5000
30
0.0
0
VERTEX
5
18e0
8
Layer1
10
45.5000
20
26.5000
30
0.0
0
VERTEX
5
18e1
8
Layer1
10
59.5000
20
26.5000
30
0.0
0
VERTEX
5
18e2
8
Layer1
10
59.5000
20
27.5000
30
0.0
0
SEQEND
5
18e3
8
Layer1
0
POLYLINE
5
18e4
8
Layer1
66
1
10
0.0
20
0.0
30
0.0
70
1
0
VERTEX
5
18e5
8
Layer1
10
78.5000
20
27.5000
30
0.0
0
VERTEX
5
18e6
8
Layer1
10
79.3000
20
27.5000
30
0.0
0
VERTEX
5
18e7
8
Layer1
10
79.3000
20
39.5000
30
0.0
0
VERTEX
5
18e8
8
Layer1
10
78.5000
20
39.5000
30
0.0
0
VERTEX
5
18e9
8
Layer1
10
78.5000
20
40.5000
30
0.0
0
VERTEX
5
18ea
8
Layer1
10
64.5000
20
40.5000
30
0.0
0
VERTEX
5
18eb
8
Layer1
10
64.5000
20
39.5000
30
0.0
0
VERTEX
5
18ec
8
Layer1
10
63.7000
20
39.5000
30
0.0
0
VERTEX
5
18ed
8
Layer1
10
63.7000
20
27.5000
30
0.0
0
VERTEX
5
18ee
8
Layer1
10
64.5000
20
27.5000
30
0.0
0
VERTEX
5
18ef
8
Layer1
10
64.5000
20
26.5000
30
0.0
0
VERTEX
5
18f0
8
Layer1
10
78.5000
20
26.5000
30
0.0
0
VERTEX
5
18f1
8
Layer1
10
78.5000
20
27.5000
30
0.0
0
SEQEND
5
18f2
8
Layer1
0
POLYLINE
5
18f3
8
Layer1
66
1
10
0.0
20
0.0
30
0.0
70
1
0
VERTEX
5
18f4
8
Layer1
10
92.1250
20
26.7300
30
0.0
0
VERTEX
5
18f5
8
Layer1
10
93.8000
20
26.7300
30
0.0
0
VERTEX
5
18f6
8
Layer1
10
93.8000
20
27.5300
30
0.0
0
VERTEX
5
18f7
8
Layer1
10
94.5750
20
27.5300
30
0.0
0
VERTEX
5
18f8
8
Layer1
10
94.5750
20
27.5000
30
0.0
0
VERTEX
5
18f9
8
Layer1
10
95.3750
20
27.5000
30
0.0
0
VERTEX
5
18fa
8
Layer1
10
95.3750
20
26.5000
30
0.0
0
VERTEX
5
18fb
8
Layer1
10
109.3750
20
26.5000
30
0.0
0
VERTEX
5
18fc
8
Layer1
10
109.3750
20
27.5000
30
0.0
0
VERTEX
5
18fd
8
Layer1
10
110.1750
20
27.5000
30
0.0
0
VERTEX
5
18fe
8
Layer1
10
110.1750
20
27.5300
30
0.0
0
VERTEX
5
18ff
8
Layer1
10
110.9500
20
27.5300
30
0.0
0
VERTEX
5
1900
8
Layer1
10
110.9500
20
26.7300
30
0.0
0
VERTEX
5
1901
8
Layer1
10
112.6250
20
26.7300
30
0.0
0
VERTEX
5
1902
8
Layer1
10
112.6250
20
25.7380
30
0.0
0
VERTEX
5
1903
8
Layer1
10
115.9250
20
25.7380
30
0.0
0
VERTEX
5
1904
8
Layer1
10
115.9250
20
26.7300
30
0.0
0
VERTEX
5
1905
8
Layer1
10
117.6000
20
26.7300
30
0.0
0
VERTEX
5
1906
8
Layer1
10
117.6000
20
33.0000
30
0.0
0
VERTEX
5
1907
8
Layer1
10
118.4750
20
33.0000
30
0.0
0
VERTEX
5
1908
8
Layer1
10
118.4750
20
35.8000
30
0.0
0
VERTEX
5
1909
8
Layer1
10
117.6000
20
35.8000
30
0.0
0
VERTEX
5
190a
8
Layer1
10
117.6000
20
39.0300
30
0.0
0
VERTEX
5
190b
8
Layer1
10
115.9250
20
39.0300
30
0.0
0
VERTEX
5
190c
8
Layer1
10
115.9250
20
39.7380
30
0.0
0
VERTEX
5
190d
8
Layer1
10
112.6250
20
39.7380
30
0.0
0
VERTEX
5
190e
8
Layer1
10
112.6250
20
39.0300
30
0.0
0
VERTEX
5
190f
8
Layer1
10
110.9500
20
39.0300
30
0.0
0
VERTEX
5
1910
8
Layer1
10
110.9500
20
38.2300
30
0.0
0
VERTEX
5
1911
8
Layer1
10
110.1750
20
38.2300
30
0.0
0
VERTEX
5
1912
8
Layer1
10
110.1750
20
39.5000
30
0.0
0
VERTEX
5
1913
8
Layer1
10
109.3750
20
39.5000
30
0.0
0
VERTEX
5
1914
8
Layer1
10
109.3750
20
40.5000
30
0.0
0
VERTEX
5
1915
8
Layer1
10
95.3750
20
40.5000
30
0.0
0
VERTEX
5
1916
8
Layer1
10
95.3750
20
39.5000
30
0.0
0
VERTEX
5
1917
8
Layer1
10
94.5750
20
39.5000
30
0.0
0
VERTEX
5
1918
8
Layer1
10
94.5750
20
38.2300
30
0.0
0
VERTEX
5
1919
8
Layer1
10
93.8000
20
38.2300
30
0.0
0
VERTEX
5
191a
8
Layer1
10
93.8000
20
39.0300
30
0.0
0
VERTEX
5
191b
8
Layer1
10
92.1250
20
39.0300
30
0.0
0
VERTEX
5
191c
8
Layer1
10
92.1250
20
39.7380
30
0.0
0
VERTEX
5
191d
8
Layer1
10
88.8250
20
39.7380
30
0.0
0
VERTEX
5
191e
8
Layer1
10
88.8250
20
39.0300
30
0.0
0
VERTEX
5
191f
8
Layer1
10
87.1500
20
39.0300
30
0.0
0
VERTEX
5
1920
8
Layer1
10
87.1500
20
35.8000
30
0.0
0
VERTEX
5
1921
8
Layer1
10
86.2750
20
35.8000
30
0.0
0
VERTEX
5
1922
8
Layer1
10
86.2750
20
33.0000
30
0.0
0
VERTEX
5
1923
8
Layer1
10
87.1500
20
33.0000
30
0.0
0
VERTEX
5
1924
8
Layer1
10
87.1500
20
26.7300
30
0.0
0
VERTEX
5
1925
8
Layer1
10
88.8250
20
26.7300
30
0.0
0
VERTEX
5
1926
8
Layer1
10
88.8250
20
25.7380
30
0.0
0
VERTEX
5
1927
8
Layer1
10
92.1250
20
25.7380
30
0.0
0
VERTEX
5
1928
8
Layer1
10
92.1250
20
26.7300
30
0.0
0
SEQEND
5
1929
8
Layer1
0
POLYLINE
5
192a
8
Layer1
66
1
10
0.0
20
0.0
30
0.0
70
1
0
VERTEX
5
192b
8
Layer1
10
140.2500
20
27.5000
30
0.0
0
VERTEX
5
192c
8
Layer1
10
141.0500
20
27.5000
30
0.0
0
VERTEX
5
192d
8
Layer1
10
141.0500
20
39.5000
30
0.0
0
VERTEX
5
192e
8
Layer1
10
140.2500
20
39.5000
30
0.0
0
VERTEX
5
192f
8
Layer1
10
140.2500
20
40.5000
30
0.0
0
VERTEX
5
1930
8
Layer1
10
126.2500
20
40.5000
30
0.0
0
VERTEX
5
1931
8
Layer1
10
126.2500
20
39.5000
30
0.0
0
VERTEX
5
1932
8
Layer1
10
125.4500
20
39.5000
30
0.0
0
VERTEX
5
1933
8
Layer1
10
125.4500
20
27.5000
30
0.0
0
VERTEX
5
1934
8
Layer1
10
126.2500
20
27.5000
30
0.0
0
VERTEX
5
1935
8
Layer1
10
126.2500
20
26.5000
30
0.0
0
VERTEX
5
1936
8
Layer1
10
140.2500
20
26.5000
30
0.0
0
VERTEX
5
1937
8
Layer1
10
140.2500
20
27.5000
30
0.0
0
SEQEND
5
1938
8
Layer1
0
POLYLINE
5
1939
8
Layer1
66
1
10
0.0
20
0.0
30
0.0
70
1
0
VERTEX
5
193a
8
Layer1
10
159.2500
20
27.5000
30
0.0
0
VERTEX
5
193b
8
Layer1
10
160.0500
20
27.5000
30
0.0
0
VERTEX
5
193c
8
Layer1
10
160.0500
20
39.5000
30
0.0
0
VERTEX
5
193d
8
Layer1
10
159.2500
20
39.5000
30
0.0
0
VERTEX
5
193e
8
Layer1
10
159.2500
20
40.5000
30
0.0
0
VERTEX
5
193f
8
Layer1
10
145.2500
20
40.5000
30
0.0
0
VERTEX
5
1940
8
Layer1
10
145.2500
20
39.5000
30
0.0
0
VERTEX
5
1941
8
Layer1
10
144.4500
20
39.5000
30
0.0
0
VERTEX
5
1942
8
Layer1
10
144.4500
20
27.5000
30
0.0
0
VERTEX
5
1943
8
Layer1
10
145.2500
20
27.5000
30
0.0
0
VERTEX
5
1944
8
Layer1
10
145.2500
20
26.5000
30
0.0
0
VERTEX
5
1945
8
Layer1
10
159.2500
20
26.5000
30
0.0
0
VERTEX
5
1946
8
Layer1
10
159.2500
20
27.5000
30
0.0
0
SEQEND
5
1947
8
Layer1
0
POLYLINE
5
1948
8
Layer1
66
1
10
0.0
20
0.0
30
0.0
70
1
0
VERTEX
5
1949
8
Layer1
10
178.2500
20
27.5000
30
0.0
0
VERTEX
5
194a
8
Layer1
10
179.0500
20
27.5000
30
0.0
0
VERTEX
5
194b
8
Layer1
10
179.0500
20
39.5000
30
0.0
0
VERTEX
5
194c
8
Layer1
10
178.2500
20
39.5000
30
0.0
0
VERTEX
5
194d
8
Layer1
10
178.2500
20
40.5000
30
0.0
0
VERTEX
5
194e
8
Layer1
10
164.2500
20
40.5000
30
0.0
0
VERTEX
5
194f
8
Layer1
10
164.2500
20
39.5000
30
0.0
0
VERTEX
5
1950
8
Layer1
10
163.4500
20
39.5000
30
0.0
0
VERTEX
5
1951
8
Layer1
10
163.4500
20
27.5000
30
0.0
0
VERTEX
5
1952
8
Layer1
10
164.2500
20
27.5000
30
0.0
0
VERTEX
5
1953
8
Layer1
10
164.2500
20
26.5000
30
0.0
0
VERTEX
5
1954
8
Layer1
10
178.2500
20
26.5000
30
0.0
0
VERTEX
5
1955
8
Layer1
10
178.2500
20
27.5000
30
0.0
0
SEQEND
5
1956
8
Layer1
0
POLYLINE
5
1957
8
Layer1
66
1
10
0.0
20
0.0
30
0.0
70
1
0
VERTEX
5
1958
8
Layer1
10
197.2500
20
27.5000
30
0.0
0
VERTEX
5
1959
8
Layer1
10
198.0500
20
27.5000
30
0.0
0
VERTEX
5
195a
8
Layer1
10
198.0500
20
39.5000
30
0.0
0
VERTEX
5
195b
8
Layer1
10
197.2500
20
39.5000
30
0.0
0
VERTEX
5
195c
8
Layer1
10
197.2500
20
40.5000
30
0.0
0
VERTEX
5
195d
8
Layer1
10
183.2500
20
40.5000
30
0.0
0
VERTEX
5
195e
8
Layer1
10
183.2500
20
39.5000
30
0.0
0
VERTEX
5
195f
8
Layer1
10
182.4500
20
39.5000
30
0.0
0
VERTEX
5
1960
8
Layer1
10
182.4500
20
27.5000
30
0.0
0
VERTEX
5
1961
8
Layer1
10
183.2500
20
27.5000
30
0.0
0
VERTEX
5
1962
8
Layer1
10
183.2500
20
26.5000
30
0.0
0
VERTEX
5
1963
8
Layer1
10
197.2500
20
26.5000
30
0.0
0
VERTEX
5
1964
8
Layer1
10
197.2500
20
27.5000
30
0.0
0
SEQEND
5
1965
8
Layer1
0
POLYLINE
5
1966
8
Layer1
66
1
10
0.0
20
0.0
30
0.0
70
1
0
VERTEX
5
1967
8
Layer1
10
216.2500
20
27.5000
30
0.0
0
VERTEX
5
1968
8
Layer1
10
217.0500
20
27.5000
30
0.0
0
VERTEX
5
1969
8
Layer1
10
217.0500
20
39.5000
30
0.0
0
VERTEX
5
196a
8
Layer1
10
216.2500
20
39.5000
30
0.0
0
VERTEX
5
196b
8
Layer1
10
216.2500
20
40.5000
30
0.0
0
VERTEX
5
196c
8
Layer1
10
202.2500
20
40.5000
30
0.0
0
VERTEX
5
196d
8
Layer1
10
202.2500
20
39.5000
30
0.0
0
VERTEX
5
196e
8
Layer1
10
201.4500
20
39.5000
30
0.0
0
VERTEX
5
196f
8
Layer1
10
201.4500
20
27.5000
30
0.0
0
VERTEX
5
1970
8
Layer1
10
202.2500
20
27.5000
30
0.0
0
VERTEX
5
1971
8
Layer1
10
202.2500
20
26.5000
30
0.0
0
VERTEX
5
1972
8
Layer1
10
216.2500
20
26.5000
30
0.0
0
VERTEX
5
1973
8
Layer1
10
216.2500
20
27.5000
30
0.0
0
SEQEND
5
1974
8
Layer1
0
POLYLINE
5
1975
8
Layer1
66
1
10
0.0
20
0.0
30
0.0
70
1
0
VERTEX
5
1976
8
Layer1
10
235.2500
20
27.5000
30
0.0
0
VERTEX
5
1977
8
Layer1
10
236.0500
20
27.5000
30
0.0
0
VERTEX
5
1978
8
Layer1
10
236.0500
20
39.5000
30
0.0
0
VERTEX
5
1979
8
Layer1
10
235.2500
20
39.5000
30
0.0
0
VERTEX
5
197a
8
Layer1
10
235.2500
20
40.5000
30
0.0
0
VERTEX
5
197b
8
Layer1
10
221.2500
20
40.5000
30
0.0
0
VERTEX
5
197c
8
Layer1
10
221.2500
20
39.5000
30
0.0
0
VERTEX
5
197d
8
Layer1
10
220.4500
20
39.5000
30
0.0
0
VERTEX
5
197e
8
Layer1
10
220.4500
20
27.5000
30
0.0
0
VERTEX
5
197f
8
Layer1
10
221.2500
20
27.5000
30
0.0
0
VERTEX
5
1980
8
Layer1
10
221.2500
20
26.5000
30
0.0
0
VERTEX
5
1981
8
Layer1
10
235.2500
20
26.5000
30
0.0
0
VERTEX
5
1982
8
Layer1
10
235.2500
20
27.5000
30
0.0
0
SEQEND
5
1983
8
Layer1
0
POLYLINE
5
1984
8
Layer1
66
1
10
0.0
20
0.0
30
0.0
70
1
0
VERTEX
5
1985
8
Layer1
10
254.2500
20
27.5000
30
0.0
0
VERTEX
5
1986
8
Layer1
10
255.0500
20
27.5000
30
0.0
0
VERTEX
5
1987
8
Layer1
10
255.0500
20
39.5000
30
0.0
0
VERTEX
5
1988
8
Layer1
10
254.2500
20
39.5000
30
0.0
0
VERTEX
5
1989
8
Layer1
10
254.2500
20
40.5000
30
0.0
0
VERTEX
5
198a
8
Layer1
10
240.2500
20
40.5000
30
0.0
0
VERTEX
5
198b
8
Layer1
10
240.2500
20
39.5000
30
0.0
0
VERTEX
5
198c
8
Layer1
10
239.4500
20
39.5000
30
0.0
0
VERTEX
5
198d
8
Layer1
10
239.4500
20
27.5000
30
0.0
0
VERTEX
5
198e
8
Layer1
10
240.2500
20
27.5000
30
0.0
0
VERTEX
5
198f
8
Layer1
10
240.2500
20
26.5000
30
0.0
0
VERTEX
5
1990
8
Layer1
10
254.2500
20
26.5000
30
0.0
0
VERTEX
5
1991
8
Layer1
10
254.2500
20
27.5000
30
0.0
0
SEQEND
5
1992
8
Layer1
0
POLYLINE
5
1993
8
Layer1
66
1
10
0.0
20
0.0
30
0.0
70
1
0
VERTEX
5
1994
8
Layer1
10
273.2500
20
27.5000
30
0.0
0
VERTEX
5
1995
8
Layer1
10
274.0500
20
27.5000
30
0.0
0
VERTEX
5
1996
8
Layer1
10
274.0500
20
39.5000
30
0.0
0
VERTEX
5
1997
8
Layer1
10
273.2500
20
39.5000
30
0.0
0
VERTEX
5
1998
8
Layer1
10
273.2500
20
40.5000
30
0.0
0
VERTEX
5
1999
8
Layer1
10
259.2500
20
40.5000
30
0.0
0
VERTEX
5
199a
8
Layer1
10
259.2500
20
39.5000
30
0.0
0
VERTEX
5
199b
8
Layer1
10
258.4500
20
39.5000
30
0.0
0
VERTEX
5
199c
8
Layer1
10
258.4500
20
27.5000
30
0.0
0
VERTEX
5
199d
8
Layer1
10
259.2500
20
27.5000
30
0.0
0
VERTEX
5
199e
8
Layer1
10
259.2500
20
26.5000
30
0.0
0
VERTEX
5
199f
8
Layer1
10
273.2500
20
26.5000
30
0.0
0
VERTEX
5
19a0
8
Layer1
10
273.2500
20
27.5000
30
0.0
0
SEQEND
5
19a1
8
Layer1
0
POLYLINE
5
19a2
8
Layer1
66
1
10
0.0
20
0.0
30
0.0
70
1
0
VERTEX
5
19a3
8
Layer1
10
292.2500
20
27.5000
30
0.0
0
VERTEX
5
19a4
8
Layer1
10
293.0500
20
27.5000
30
0.0
0
VERTEX
5
19a5
8
Layer1
10
293.0500
20
39.5000
30
0.0
0
VERTEX
5
19a6
8
Layer1
10
292.2500
20
39.5000
30
0.0
0
VERTEX
5
19a7
8
Layer1
10
292.2500
20
40.5000
30
0.0
0
VERTEX
5
19a8
8
Layer1
10
278.2500
20
40.5000
30
0.0
0
VERTEX
5
19a9
8
Layer1
10
278.2500
20
39.5000
30
0.0
0
VERTEX
5
19aa
8
Layer1
10
277.4500
20
39.5000
30
0.0
0
VERTEX
5
19ab
8
Layer1
10
277.4500
20
27.5000
30
0.0
0
VERTEX
5
19ac
8
Layer1
10
278.2500
20
27.5000
30
0.0
0
VERTEX
5
19ad
8
Layer1
10
278.2500
20
26.5000
30
0.0
0
VERTEX
5
19ae
8
Layer1
10
292.2500
20
26.5000
30
0.0
0
VERTEX
5
19af
8
Layer1
10
292.2500
20
27.5000
30
0.0
0
SEQEND
5
19b0
8
Layer1
0
POLYLINE
5
19b1
8
Layer1
66
1
10
0.0
20
0.0
30
0.0
70
1
0
VERTEX
5
19b2
8
Layer1
10
311.2500
20
27.5000
30
0.0
0
VERTEX
5
19b3
8
Layer1
10
312.0500
20
27.5000
30
0.0
0
VERTEX
5
19b4
8
Layer1
10
312.0500
20
39.5000
30
0.0
0
VERTEX
5
19b5
8
Layer1
10
311.2500
20
39.5000
30
0.0
0
VERTEX
5
19b6
8
Layer1
10
311.2500
20
40.5000
30
0.0
0
VERTEX
5
19b7
8
Layer1
10
297.2500
20
40.5000
30
0.0
0
VERTEX
5
19b8
8
Layer1
10
297.2500
20
39.5000
30
0.0
0
VERTEX
5
19b9
8
Layer1
10
296.4500
20
39.5000
30
0.0
0
VERTEX
5
19ba
8
Layer1
10
296.4500
20
27.5000
30
0.0
0
VERTEX
5
19bb
8
Layer1
10
297.2500
20
27.5000
30
0.0
0
VERTEX
5
19bc
8
Layer1
10
297.2500
20
26.5000
30
0.0
0
VERTEX
5
19bd
8
Layer1
10
311.2500
20
26.5000
30
0.0
0
VERTEX
5
19be
8
Layer1
10
311.2500
20
27.5000
30
0.0
0
SEQEND
5
19bf
8
Layer1
0
POLYLINE
5
19c0
8
Layer1
66
1
10
0.0
20
0.0
30
0.0
70
1
0
VERTEX
5
19c1
8
Layer1
10
329.6250
20
26.7300
30
0.0
0
VERTEX
5
19c2
8
Layer1
10
331.3000
20
26.7300
30
0.0
0
VERTEX
5
19c3
8
Layer1
10
331.3000
20
27.5300
30
0.0
0
VERTEX
5
19c4
8
Layer1
10
332.0750
20
27.5300
30
0.0
0
VERTEX
5
19c5
8
Layer1
10
332.0750
20
27.5000
30
0.0
0
VERTEX
5
19c6
8
Layer1
10
332.8750
20
27.5000
30
0.0
0
VERTEX
5
19c7
8
Layer1
10
332.8750
20
26.5000
30
0.0
0
VERTEX
5
19c8
8
Layer1
10
346.8750
20
26.5000
30
0.0
0
VERTEX
5
19c9
8
Layer1
10
346.8750
20
27.5000
30
0.0
0
VERTEX
5
19ca
8
Layer1
10
347.6750
20
27.5000
30
0.0
0
VERTEX
5
19cb
8
Layer1
10
347.6750
20
27.5300
30
0.0
0
VERTEX
5
19cc
8
Layer1
10
348.4500
20
27.5300
30
0.0
0
VERTEX
5
19cd
8
Layer1
10
348.4500
20
26.7300
30
0.0
0
VERTEX
5
19ce
8
Layer1
10
350.1250
20
26.7300
30
0.0
0
VERTEX
5
19cf
8
Layer1
10
350.1250
20
25.7380
30
0.0
0
VERTEX
5
19d0
8
Layer1
10
353.4250
20
25.7380
30
0.0
0
VERTEX
5
19d1
8
Layer1
10
353.4250
20
26.7300
30
0.0
0
VERTEX
5
19d2
8
Layer1
10
355.1000
20
26.7300
30
0.0
0
VERTEX
5
19d3
8
Layer1
10
355.1000
20
33.0000
30
0.0
0
VERTEX
5
19d4
8
Layer1
10
355.9750
20
33.0000
30
0.0
0
VERTEX
5
19d5
8
Layer1
10
355.9750
20
35.8000
30
0.0
0
VERTEX
5
19d6
8
Layer1
10
355.1000
20
35.8000
30
0.0
0
VERTEX
5
19d7
8
Layer1
10
355.1000
20
39.0300
30
0.0
0
VERTEX
5
19d8
8
Layer1
10
353.4250
20
39.0300
30
0.0
0
VERTEX
5
19d9
8
Layer1
10
353.4250
20
39.7380
30
0.0
0
VERTEX
5
19da
8
Layer1
10
350.1250
20
39.7380
30
0.0
0
VERTEX
5
19db
8
Layer1
10
350.1250
20
39.0300
30
0.0
0
VERTEX
5
19dc
8
Layer1
10
348.4500
20
39.0300
30
0.0
0
VERTEX
5
19dd
8
Layer1
10
348.4500
20
38.2300
30
0.0
0
VERTEX
5
19de
8
Layer1
10
347.6750
20
38.2300
30
0.0
0
VERTEX
5
19df
8
Layer1
10
347.6750
20
39.5000
30
0.0
0
VERTEX
5
19e0
8
Layer1
10
346.8750
20
39.5000
30
0.0
0
VERTEX
5
19e1
8
Layer1
10
346.8750
20
40.5000
30
0.0
0
VERTEX
5
19e2
8
Layer1
10
332.8750
20
40.5000
30
0.0
0
VERTEX
5
19e3
8
Layer1
10
332.8750
20
39.5000
30
0.0
0
VERTEX
5
19e4
8
Layer1
10
332.0750
20
39.5000
30
0.0
0
VERTEX
5
19e5
8
Layer1
10
332.0750
20
38.2300
30
0.0
0
VERTEX
5
19e6
8
Layer1
10
331.3000
20
38.2300
30
0.0
0
VERTEX
5
19e7
8
Layer1
10
331.3000
20
39.0300
30
0.0
0
VERTEX
5
19e8
8
Layer1
10
329.6250
20
39.0300
30
0.0
0
VERTEX
5
19e9
8
Layer1
10
329.6250
20
39.7380
30
0.0
0
VERTEX
5
19ea
8
Layer1
10
326.3250
20
39.7380
30
0.0
0
VERTEX
5
19eb
8
Layer1
10
326.3250
20
39.0300
30
0.0
0
VERTEX
5
19ec
8
Layer1
10
324.6500
20
39.0300
30
0.0
0
VERTEX
5
19ed
8
Layer1
10
324.6500
20
35.8000
30
0.0
0
VERTEX
5
19ee
8
Layer1
10
323.7750
20
35.8000
30
0.0
0
VERTEX
5
19ef
8
Layer1
10
323.7750
20
33.0000
30
0.0
0
VERTEX
5
19f0
8
Layer1
10
324.6500
20
33.0000
30
0.0
0
VERTEX
5
19f1
8
Layer1
10
324.6500
20
26.7300
30
0.0
0
VERTEX
5
19f2
8
Layer1
10
326.3250
20
26.7300
30
0.0
0
VERTEX
5
19f3
8
Layer1
10
326.3250
20
25.7380
30
0.0
0
VERTEX
5
19f4
8
Layer1
10
329.6250
20
25.7380
30
0.0
0
VERTEX
5
19f5
8
Layer1
10
329.6250
20
26.7300
30
0.0
0
SEQEND
5
19f6
8
Layer1
0
POLYLINE
5
19f7
8
Layer1
66
1
10
0.0
20
0.0
30
0.0
70
1
0
VERTEX
5
19f8
8
Layer1
10
40.5000
20
8.5000
30
0.0
0
VERTEX
5
19f9
8
Layer1
10
41.3000
20
8.5000
30
0.0
0
VERTEX
5
19fa
8
Layer1
10
41.3000
20
20.5000
30
0.0
0
VERTEX
5
19fb
8
Layer1
10
40.5000
20
20.5000
30
0.0
0
VERTEX
5
19fc
8
Layer1
10
40.5000
20
21.5000
30
0.0
0
VERTEX
5
19fd
8
Layer1
10
26.5000
20
21.5000
30
0.0
0
VERTEX
5
19fe
8
Layer1
10
26.5000
20
20.5000
30
0.0
0
VERTEX
5
19ff
8
Layer1
10
25.7000
20
20.5000
30
0.0
0
VERTEX
5
1a00
8
Layer1
10
25.7000
20
8.5000
30
0.0
0
VERTEX
5
1a01
8
Layer1
10
26.5000
20
8.5000
30
0.0
0
VERTEX
5
1a02
8
Layer1
10
26.5000
20
7.5000
30
0.0
0
VERTEX
5
1a03
8
Layer1
10
40.5000
20
7.5000
30
0.0
0
VERTEX
5
1a04
8
Layer1
10
40.5000
20
8.5000
30
0.0
0
SEQEND
5
1a05
8
Layer1
0
POLYLINE
5
1a06
8
Layer1
66
1
10
0.0
20
0.0
30
0.0
70
1
0
VERTEX
5
1a07
8
Layer1
10
51.7500
20
7.7300
30
0.0
0
VERTEX
5
1a08
8
Layer1
10
53.4250
20
7.7300
30
0.0
0
VERTEX
5
1a09
8
Layer1
10
53.4250
20
8.5300
30
0.0
0
VERTEX
5
1a0a
8
Layer1
10
54.2000
20
8.5300
30
0.0
0
VERTEX
5
1a0b
8
Layer1
10
54.2000
20
8.5000
30
0.0
0
VERTEX
5
1a0c
8
Layer1
10
55.0000
20
8.5000
30
0.0
0
VERTEX
5
1a0d
8
Layer1
10
55.0000
20
7.5000
30
0.0
0
VERTEX
5
1a0e
8
Layer1
10
69.0000
20
7.5000
30
0.0
0
VERTEX
5
1a0f
8
Layer1
10
69.0000
20
8.5000
30
0.0
0
VERTEX
5
1a10
8
Layer1
10
69.8000
20
8.5000
30
0.0
0
VERTEX
5
1a11
8
Layer1
10
69.8000
20
8.5300
30
0.0
0
VERTEX
5
1a12
8
Layer1
10
70.5750
20
8.5300
30
0.0
0
VERTEX
5
1a13
8
Layer1
10
70.5750
20
7.7300
30
0.0
0
VERTEX
5
1a14
8
Layer1
10
72.2500
20
7.7300
30
0.0
0
VERTEX
5
1a15
8
Layer1
10
72.2500
20
6.7380
30
0.0
0
VERTEX
5
1a16
8
Layer1
10
75.5500
20
6.7380
30
0.0
0
VERTEX
5
1a17
8
Layer1
10
75.5500
20
7.7300
30
0.0
0
VERTEX
5
1a18
8
Layer1
10
77.2250
20
7.7300
30
0.0
0
VERTEX
5
1a19
8
Layer1
10
77.2250
20
14.0000
30
0.0
0
VERTEX
5
1a1a
8
Layer1
10
78.1000
20
14.0000
30
0.0
0
VERTEX
5
1a1b
8
Layer1
10
78.1000
20
16.8000
30
0.0
0
VERTEX
5
1a1c
8
Layer1
10
77.2250
20
16.8000
30
0.0
0
VERTEX
5
1a1d
8
Layer1
10
77.2250
20
20.0300
30
0.0
0
VERTEX
5
1a1e
8
Layer1
10
75.5500
20
20.0300
30
0.0
0
VERTEX
5
1a1f
8
Layer1
10
75.5500
20
20.7380
30
0.0
0
VERTEX
5
1a20
8
Layer1
10
72.2500
20
20.7380
30
0.0
0
VERTEX
5
1a21
8
Layer1
10
72.2500
20
20.0300
30
0.0
0
VERTEX
5
1a22
8
Layer1
10
70.5750
20
20.0300
30
0.0
0
VERTEX
5
1a23
8
Layer1
10
70.5750
20
19.2300
30
0.0
0
VERTEX
5
1a24
8
Layer1
10
69.8000
20
19.2300
30
0.0
0
VERTEX
5
1a25
8
Layer1
10
69.8000
20
20.5000
30
0.0
0
VERTEX
5
1a26
8
Layer1
10
69.0000
20
20.5000
30
0.0
0
VERTEX
5
1a27
8
Layer1
10
69.0000
20
21.5000
30
0.0
0
VERTEX
5
1a28
8
Layer1
10
55.0000
20
21.5000
30
0.0
0
VERTEX
5
1a29
8
Layer1
10
55.0000
20
20.5000
30
0.0
0
VERTEX
5
1a2a
8
Layer1
10
54.2000
20
20.5000
30
0.0
0
VERTEX
5
1a2b
8
Layer1
10
54.2000
20
19.2300
30
0.0
0
VERTEX
5
1a2c
8
Layer1
10
53.4250
20
19.2300
30
0.0
0
VERTEX
5
1a2d
8
Layer1
10
53.4250
20
20.0300
30
0.0
0
VERTEX
5
1a2e
8
Layer1
10
51.7500
20
20.0300
30
0.0
0
VERTEX
5
1a2f
8
Layer1
10
51.7500
20
20.7380
30
0.0
0
VERTEX
5
1a30
8
Layer1
10
48.4500
20
20.7380
30
0.0
0
VERTEX
5
1a31
8
Layer1
10
48.4500
20
20.0300
30
0.0
0
VERTEX
5
1a32
8
Layer1
10
46.7750
20
20.0300
30
0.0
0
VERTEX
5
1a33
8
Layer1
10
46.7750
20
16.8000
30
0.0
0
VERTEX
5
1a34
8
Layer1
10
45.9000
20
16.8000
30
0.0
0
VERTEX
5
1a35
8
Layer1
10
45.9000
20
14.0000
30
0.0
0
VERTEX
5
1a36
8
Layer1
10
46.7750
20
14.0000
30
0.0
0
VERTEX
5
1a37
8
Layer1
10
46.7750
20
7.7300
30
0.0
0
VERTEX
5
1a38
8
Layer1
10
48.4500
20
7.7300
30
0.0
0
VERTEX
5
1a39
8
Layer1
10
48.4500
20
6.7380
30
0.0
0
VERTEX
5
1a3a
8
Layer1
10
51.7500
20
6.7380
30
0.0
0
VERTEX
5
1a3b
8
Layer1
10
51.7500
20
7.7300
30
0.0
0
SEQEND
5
1a3c
8
Layer1
0
POLYLINE
5
1a3d
8
Layer1
66
1
10
0.0
20
0.0
30
0.0
70
1
0
VERTEX
5
1a3e
8
Layer1
10
99.8750
20
8.5000
30
0.0
0
VERTEX
5
1a3f
8
Layer1
10
100.6750
20
8.5000
30
0.0
0
VERTEX
5
1a40
8
Layer1
10
100.6750
20
20.5000
30
0.0
0
VERTEX
5
1a41
8
Layer1
10
99.8750
20
20.5000
30
0.0
0
VERTEX
5
1a42
8
Layer1
10
99.8750
20
21.5000
30
0.0
0
VERTEX
5
1a43
8
Layer1
10
85.8750
20
21.5000
30
0.0
0
VERTEX
5
1a44
8
Layer1
10
85.8750
20
20.5000
30
0.0
0
VERTEX
5
1a45
8
Layer1
10
85.0750
20
20.5000
30
0.0
0
VERTEX
5
1a46
8
Layer1
10
85.0750
20
8.5000
30
0.0
0
VERTEX
5
1a47
8
Layer1
10
85.8750
20
8.5000
30
0.0
0
VERTEX
5
1a48
8
Layer1
10
85.8750
20
7.5000
30
0.0
0
VERTEX
5
1a49
8
Layer1
10
99.8750
20
7.5000
30
0.0
0
VERTEX
5
1a4a
8
Layer1
10
99.8750
20
8.5000
30
0.0
0
SEQEND
5
1a4b
8
Layer1
0
POLYLINE
5
1a4c
8
Layer1
66
1
10
0.0
20
0.0
30
0.0
70
1
0
VERTEX
5
1a4d
8
Layer1
10
123.6250
20
8.5000
30
0.0
0
VERTEX
5
1a4e
8
Layer1
10
124.4250
20
8.5000
30
0.0
0
VERTEX
5
1a4f
8
Layer1
10
124.4250
20
20.5000
30
0.0
0
VERTEX
5
1a50
8
Layer1
10
123.6250
20
20.5000
30
0.0
0
VERTEX
5
1a51
8
Layer1
10
123.6250
20
21.5000
30
0.0
0
VERTEX
5
1a52
8
Layer1
10
109.6250
20
21.5000
30
0.0
0
VERTEX
5
1a53
8
Layer1
10
109.6250
20
20.5000
30
0.0
0
VERTEX
5
1a54
8
Layer1
10
108.8250
20
20.5000
30
0.0
0
VERTEX
5
1a55
8
Layer1
10
108.8250
20
8.5000
30
0.0
0
VERTEX
5
1a56
8
Layer1
10
109.6250
20
8.5000
30
0.0
0
VERTEX
5
1a57
8
Layer1
10
109.6250
20
7.5000
30
0.0
0
VERTEX
5
1a58
8
Layer1
10
123.6250
20
7.5000
30
0.0
0
VERTEX
5
1a59
8
Layer1
10
123.6250
20
8.5000
30
0.0
0
SEQEND
5
1a5a
8
Layer1
0
POLYLINE
5
1a5b
8
Layer1
66
1
10
0.0
20
0.0
30
0.0
70
1
0
VERTEX
5
1a5c
8
Layer1
10
147.3750
20
8.5000
30
0.0
0
VERTEX
5
1a5d
8
Layer1
10
148.1750
20
8.5000
30
0.0
0
VERTEX
5
1a5e
8
Layer1
10
148.1750
20
20.5000
30
0.0
0
VERTEX
5
1a5f
8
Layer1
10
147.3750
20
20.5000
30
0.0
0
VERTEX
5
1a60
8
Layer1
10
147.3750
20
21.5000
30
0.0
0
VERTEX
5
1a61
8
Layer1
10
133.3750
20
21.5000
30
0.0
0
VERTEX
5
1a62
8
Layer1
10
133.3750
20
20.5000
30
0.0
0
VERTEX
5
1a63
8
Layer1
10
132.5750
20
20.5000
30
0.0
0
VERTEX
5
1a64
8
Layer1
10
132.5750
20
8.5000
30
0.0
0
VERTEX
5
1a65
8
Layer1
10
133.3750
20
8.5000
30
0.0
0
VERTEX
5
1a66
8
Layer1
10
133.3750
20
7.5000
30
0.0
0
VERTEX
5
1a67
8
Layer1
10
147.3750
20
7.5000
30
0.0
0
VERTEX
5
1a68
8
Layer1
10
147.3750
20
8.5000
30
0.0
0
SEQEND
5
1a69
8
Layer1
0
POLYLINE
5
1a6a
8
Layer1
66
1
10
0.0
20
0.0
30
0.0
70
1
0
VERTEX
5
1a6b
8
Layer1
10
163.2750
20
7.7300
30
0.0
0
VERTEX
5
1a6c
8
Layer1
10
164.9500
20
7.7300
30
0.0
0
VERTEX
5
1a6d
8
Layer1
10
164.9500
20
12.2000
30
0.0
0
VERTEX
5
1a6e
8
Layer1
10
203.8250
20
12.2000
30
0.0
0
VERTEX
5
1a6f
8
Layer1
10
203.8250
20
8.5000
30
0.0
0
VERTEX
5
1a70
8
Layer1
10
204.6250
20
8.5000
30
0.0
0
VERTEX
5
1a71
8
Layer1
10
204.6250
20
7.5000
30
0.0
0
VERTEX
5
1a72
8
Layer1
10
218.6250
20
7.5000
30
0.0
0
VERTEX
5
1a73
8
Layer1
10
218.6250
20
8.5000
30
0.0
0
VERTEX
5
1a74
8
Layer1
10
219.4250
20
8.5000
30
0.0
0
VERTEX
5
1a75
8
Layer1
10
219.4250
20
12.2000
30
0.0
0
VERTEX
5
1a76
8
Layer1
10
258.3000
20
12.2000
30
0.0
0
VERTEX
5
1a77
8
Layer1
10
258.3000
20
7.7300
30
0.0
0
VERTEX
5
1a78
8
Layer1
10
259.9750
20
7.7300
30
0.0
0
VERTEX
5
1a79
8
Layer1
10
259.9750
20
6.7380
30
0.0
0
VERTEX
5
1a7a
8
Layer1
10
263.2750
20
6.7380
30
0.0
0
VERTEX
5
1a7b
8
Layer1
10
263.2750
20
7.7300
30
0.0
0
VERTEX
5
1a7c
8
Layer1
10
264.9500
20
7.7300
30
0.0
0
VERTEX
5
1a7d
8
Layer1
10
264.9500
20
14.0000
30
0.0
0
VERTEX
5
1a7e
8
Layer1
10
265.8500
20
14.0000
30
0.0
0
VERTEX
5
1a7f
8
Layer1
10
265.8500
20
16.8000
30
0.0
0
VERTEX
5
1a80
8
Layer1
10
264.9500
20
16.8000
30
0.0
0
VERTEX
5
1a81
8
Layer1
10
264.9500
20
20.0300
30
0.0
0
VERTEX
5
1a82
8
Layer1
10
263.2750
20
20.0300
30
0.0
0
VERTEX
5
1a83
8
Layer1
10
263.2750
20
20.7380
30
0.0
0
VERTEX
5
1a84
8
Layer1
10
259.9750
20
20.7380
30
0.0
0
VERTEX
5
1a85
8
Layer1
10
259.9750
20
20.0300
30
0.0
0
VERTEX
5
1a86
8
Layer1
10
258.3000
20
20.0300
30
0.0
0
VERTEX
5
1a87
8
Layer1
10
258.3000
20
16.8000
30
0.0
0
VERTEX
5
1a88
8
Layer1
10
219.4250
20
16.8000
30
0.0
0
VERTEX
5
1a89
8
Layer1
10
219.4250
20
20.5000
30
0.0
0
VERTEX
5
1a8a
8
Layer1
10
218.6250
20
20.5000
30
0.0
0
VERTEX
5
1a8b
8
Layer1
10
218.6250
20
21.5000
30
0.0
0
VERTEX
5
1a8c
8
Layer1
10
204.6250
20
21.5000
30
0.0
0
VERTEX
5
1a8d
8
Layer1
10
204.6250
20
20.5000
30
0.0
0
VERTEX
5
1a8e
8
Layer1
10
203.8250
20
20.5000
30
0.0
0
VERTEX
5
1a8f
8
Layer1
10
203.8250
20
16.8000
30
0.0
0
VERTEX
5
1a90
8
Layer1
10
164.9500
20
16.8000
30
0.0
0
VERTEX
5
1a91
8
Layer1
10
164.9500
20
20.0300
30
0.0
0
VERTEX
5
1a92
8
Layer1
10
163.2750
20
20.0300
30
0.0
0
VERTEX
5
1a93
8
Layer1
10
163.2750
20
20.7380
30
0.0
0
VERTEX
5
1a94
8
Layer1
10
159.9750
20
20.7380
30
0.0
0
VERTEX
5
1a95
8
Layer1
10
159.9750
20
20.0300
30
0.0
0
VERTEX
5
1a96
8
Layer1
10
158.3000
20
20.0300
30
0.0
0
VERTEX
5
1a97
8
Layer1
10
158.3000
20
16.8000
30
0.0
0
VERTEX
5
1a98
8
Layer1
10
157.4000
20
16.8000
30
0.0
0
VERTEX
5
1a99
8
Layer1
10
157.4000
20
14.0000
30
0.0
0
VERTEX
5
1a9a
8
Layer1
10
158.3000
20
14.0000
30
0.0
0
VERTEX
5
1a9b
8
Layer1
10
158.3000
20
7.7300
30
0.0
0
VERTEX
5
1a9c
8
Layer1
10
159.9750
20
7.7300
30
0.0
0
VERTEX
5
1a9d
8
Layer1
10
159.9750
20
6.7380
30
0.0
0
VERTEX
5
1a9e
8
Layer1
10
163.2750
20
6.7380
30
0.0
0
VERTEX
5
1a9f
8
Layer1
10
163.2750
20
7.7300
30
0.0
0
SEQEND
5
1aa0
8
Layer1
0
POLYLINE
5
1aa1
8
Layer1
66
1
10
0.0
20
0.0
30
0.0
70
1
0
VERTEX
5
1aa2
8
Layer1
10
289.8750
20
8.5000
30
0.0
0
VERTEX
5
1aa3
8
Layer1
10
290.6750
20
8.5000
30
0.0
0
VERTEX
5
1aa4
8
Layer1
10
290.6750
20
20.5000
30
0.0
0
VERTEX
5
1aa5
8
Layer1
10
289.8750
20
20.5000
30
0.0
0
VERTEX
5
1aa6
8
Layer1
10
289.8750
20
21.5000
30
0.0
0
VERTEX
5
1aa7
8
Layer1
10
275.8750
20
21.5000
30
0.0
0
VERTEX
5
1aa8
8
Layer1
10
275.8750
20
20.5000
30
0.0
0
VERTEX
5
1aa9
8
Layer1
10
275.0750
20
20.5000
30
0.0
0
VERTEX
5
1aaa
8
Layer1
10
275.0750
20
8.5000
30
0.0
0
VERTEX
5
1aab
8
Layer1
10
275.8750
20
8.5000
30
0.0
0
VERTEX
5
1aac
8
Layer1
10
275.8750
20
7.5000
30
0.0
0
VERTEX
5
1aad
8
Layer1
10
289.8750
20
7.5000
30
0.0
0
VERTEX
5
1aae
8
Layer1
10
289.8750
20
8.5000
30
0.0
0
SEQEND
5
1aaf
8
Layer1
0
POLYLINE
5
1ab0
8
Layer1
66
1
10
0.0
20
0.0
30
0.0
70
1
0
VERTEX
5
1ab1
8
Layer1
10
313.6250
20
8.5000
30
0.0
0
VERTEX
5
1ab2
8
Layer1
10
314.4250
20
8.5000
30
0.0
0
VERTEX
5
1ab3
8
Layer1
10
314.4250
20
20.5000
30
0.0
0
VERTEX
5
1ab4
8
Layer1
10
313.6250
20
20.5000
30
0.0
0
VERTEX
5
1ab5
8
Layer1
10
313.6250
20
21.5000
30
0.0
0
VERTEX
5
1ab6
8
Layer1
10
299.6250
20
21.5000
30
0.0
0
VERTEX
5
1ab7
8
Layer1
10
299.6250
20
20.5000
30
0.0
0
VERTEX
5
1ab8
8
Layer1
10
298.8250
20
20.5000
30
0.0
0
VERTEX
5
1ab9
8
Layer1
10
298.8250
20
8.5000
30
0.0
0
VERTEX
5
1aba
8
Layer1
10
299.6250
20
8.5000
30
0.0
0
VERTEX
5
1abb
8
Layer1
10
299.6250
20
7.5000
30
0.0
0
VERTEX
5
1abc
8
Layer1
10
313.6250
20
7.5000
30
0.0
0
VERTEX
5
1abd
8
Layer1
10
313.6250
20
8.5000
30
0.0
0
SEQEND
5
1abe
8
Layer1
0
POLYLINE
5
1abf
8
Layer1
66
1
10
0.0
20
0.0
30
0.0
70
1
0
VERTEX
5
1ac0
8
Layer1
10
337.3750
20
8.5000
30
0.0
0
VERTEX
5
1ac1
8
Layer1
10
338.1750
20
8.5000
30
0.0
0
VERTEX
5
1ac2
8
Layer1
10
338.1750
20
20.5000
30
0.0
0
VERTEX
5
1ac3
8
Layer1
10
337.3750
20
20.5000
30
0.0
0
VERTEX
5
1ac4
8
Layer1
10
337.3750
20
21.5000
30
0.0
0
VERTEX
5
1ac5
8
Layer1
10
323.3750
20
21.5000
30
0.0
0
VERTEX
5
1ac6
8
Layer1
10
323.3750
20
20.5000
30
0.0
0
VERTEX
5
1ac7
8
Layer1
10
322.5750
20
20.5000
30
0.0
0
VERTEX
5
1ac8
8
Layer1
10
322.5750
20
8.5000
30
0.0
0
VERTEX
5
1ac9
8
Layer1
10
323.3750
20
8.5000
30
0.0
0
VERTEX
5
1aca
8
Layer1
10
323.3750
20
7.5000
30
0.0
0
VERTEX
5
1acb
8
Layer1
10
337.3750
20
7.5000
30
0.0
0
VERTEX
5
1acc
8
Layer1
10
337.3750
20
8.5000
30
0.0
0
SEQEND
5
1acd
8
Layer1
0
POLYLINE
5
1ace
8
Layer1
66
1
10
0.0
20
0.0
30
0.0
70
1
0
VERTEX
5
1acf
8
Layer1
10
361.1250
20
8.5000
30
0.0
0
VERTEX
5
1ad0
8
Layer1
10
361.9250
20
8.5000
30
0.0
0
VERTEX
5
1ad1
8
Layer1
10
361.9250
20
20.5000
30
0.0
0
VERTEX
5
1ad2
8
Layer1
10
361.1250
20
20.5000
30
0.0
0
VERTEX
5
1ad3
8
Layer1
10
361.1250
20
21.5000
30
0.0
0
VERTEX
5
1ad4
8
Layer1
10
347.1250
20
21.5000
30
0.0
0
VERTEX
5
1ad5
8
Layer1
10
347.1250
20
20.5000
30
0.0
0
VERTEX
5
1ad6
8
Layer1
10
346.3250
20
20.5000
30
0.0
0
VERTEX
5
1ad7
8
Layer1
10
346.3250
20
8.5000
30
0.0
0
VERTEX
5
1ad8
8
Layer1
10
347.1250
20
8.5000
30
0.0
0
VERTEX
5
1ad9
8
Layer1
10
347.1250
20
7.5000
30
0.0
0
VERTEX
5
1ada
8
Layer1
10
361.1250
20
7.5000
30
0.0
0
VERTEX
5
1adb
8
Layer1
10
361.1250
20
8.5000
30
0.0
0
SEQEND
5
1adc
8
Layer1
0
ENDSEC
0
EOF
